G04*
G04 #@! TF.GenerationSoftware,Altium Limited,Altium Designer,25.5.2 (35)*
G04*
G04 Layer_Physical_Order=2*
G04 Layer_Color=36540*
%FSLAX44Y44*%
%MOMM*%
G71*
G04*
G04 #@! TF.SameCoordinates,BC121CA0-E7C5-409D-9B46-04158C32EFF5*
G04*
G04*
G04 #@! TF.FilePolarity,Positive*
G04*
G01*
G75*
%ADD25C,1.8000*%
%ADD26R,1.4500X1.4500*%
%ADD27R,1.4500X1.4500*%
%ADD31C,3.8000*%
%ADD32C,1.2700*%
%ADD35C,1.0000*%
%ADD36C,1.6050*%
%ADD37C,1.5750*%
G36*
X350994Y305006D02*
X350073Y303806D01*
X348466Y304733D01*
X345919Y305416D01*
X343281D01*
X340734Y304733D01*
X338450Y303415D01*
X336585Y301550D01*
X335267Y299266D01*
X334584Y296719D01*
Y294081D01*
X335267Y291534D01*
X336585Y289250D01*
X338450Y287385D01*
X340734Y286067D01*
X343281Y285384D01*
X345919D01*
X348466Y286067D01*
X350750Y287385D01*
X352615Y289250D01*
X353933Y291534D01*
X354500Y293648D01*
X356000Y293451D01*
Y271949D01*
X354500Y271751D01*
X353933Y273866D01*
X352615Y276150D01*
X350750Y278015D01*
X348466Y279333D01*
X345919Y280016D01*
X343281D01*
X340734Y279333D01*
X338450Y278015D01*
X336585Y276150D01*
X335267Y273866D01*
X334584Y271319D01*
Y268681D01*
X335267Y266134D01*
X336585Y263850D01*
X338450Y261985D01*
X340734Y260667D01*
X343281Y259984D01*
X345919D01*
X348466Y260667D01*
X350750Y261985D01*
X352615Y263850D01*
X353933Y266134D01*
X354500Y268249D01*
X356000Y268051D01*
Y246549D01*
X354500Y246352D01*
X353933Y248466D01*
X352615Y250750D01*
X350750Y252615D01*
X348466Y253933D01*
X345919Y254616D01*
X345108D01*
Y244600D01*
Y234584D01*
X345919D01*
X348466Y235267D01*
X350750Y236585D01*
X352615Y238450D01*
X353933Y240734D01*
X354500Y242848D01*
X356000Y242651D01*
Y236000D01*
X351000Y231000D01*
Y116510D01*
X350917Y116366D01*
X350234Y113819D01*
Y111181D01*
X350917Y108634D01*
X351000Y108490D01*
Y73000D01*
X304000Y26000D01*
X163000D01*
X156432Y32568D01*
X157715Y33850D01*
X159033Y36134D01*
X159716Y38681D01*
Y41319D01*
X159033Y43866D01*
X157715Y46150D01*
X155850Y48015D01*
X153566Y49333D01*
X151019Y50016D01*
X148381D01*
X145834Y49333D01*
X143550Y48015D01*
X142268Y46732D01*
X123000Y66000D01*
Y269000D01*
X227529Y355278D01*
X229462Y354929D01*
X230085Y353850D01*
X231950Y351985D01*
X234234Y350667D01*
X236781Y349984D01*
X239419D01*
X241966Y350667D01*
X244250Y351985D01*
X246115Y353850D01*
X247433Y356134D01*
X248116Y358681D01*
Y361319D01*
X247433Y363866D01*
X246115Y366150D01*
X244732Y367533D01*
X244601Y369369D01*
X249000Y373000D01*
X283000D01*
X350994Y305006D01*
D02*
G37*
G36*
X151000Y367000D02*
Y340000D01*
X114347Y303347D01*
X113315Y303552D01*
X111718Y305150D01*
X111699Y306098D01*
X111835Y306822D01*
X112518Y307105D01*
X114281Y308868D01*
X115236Y311173D01*
Y313667D01*
X114281Y315972D01*
X112518Y317735D01*
X110213Y318690D01*
X107719D01*
X105414Y317735D01*
X103651Y315972D01*
X102696Y313667D01*
Y311173D01*
X103651Y308868D01*
X105248Y307271D01*
X105267Y306322D01*
X105131Y305598D01*
X104448Y305315D01*
X102685Y303552D01*
X101730Y301247D01*
Y298753D01*
X102685Y296448D01*
X104177Y294956D01*
X104262Y293262D01*
X98000Y287000D01*
Y234010D01*
X97767Y233854D01*
X95273D01*
X92968Y232899D01*
X91205Y231136D01*
X90250Y228831D01*
Y226337D01*
X91205Y224032D01*
X92968Y222269D01*
X95273Y221314D01*
X97767D01*
X98000Y221158D01*
Y212000D01*
X59000Y173000D01*
Y103000D01*
X111000Y51000D01*
Y35000D01*
X108666Y32666D01*
X107166Y33287D01*
Y39492D01*
X90634D01*
Y33487D01*
X89134Y32866D01*
X23000Y99000D01*
X23000Y310000D01*
X89000Y376000D01*
X142000D01*
X151000Y367000D01*
D02*
G37*
%LPC*%
G36*
X264819Y370016D02*
X264008D01*
Y360508D01*
X273516D01*
Y361319D01*
X272833Y363866D01*
X271515Y366150D01*
X269650Y368015D01*
X267366Y369333D01*
X264819Y370016D01*
D02*
G37*
G36*
X262992D02*
X262181D01*
X259634Y369333D01*
X257350Y368015D01*
X255485Y366150D01*
X254167Y363866D01*
X253484Y361319D01*
Y360508D01*
X262992D01*
Y370016D01*
D02*
G37*
G36*
X273516Y359492D02*
X264008D01*
Y349984D01*
X264819D01*
X267366Y350667D01*
X269650Y351985D01*
X271515Y353850D01*
X272833Y356134D01*
X273516Y358681D01*
Y359492D01*
D02*
G37*
G36*
X262992D02*
X253484D01*
Y358681D01*
X254167Y356134D01*
X255485Y353850D01*
X257350Y351985D01*
X259634Y350667D01*
X262181Y349984D01*
X262992D01*
Y359492D01*
D02*
G37*
G36*
X344092Y254616D02*
X343281D01*
X340734Y253933D01*
X338450Y252615D01*
X336585Y250750D01*
X335267Y248466D01*
X334584Y245919D01*
Y245108D01*
X344092D01*
Y254616D01*
D02*
G37*
G36*
Y244092D02*
X334584D01*
Y243281D01*
X335267Y240734D01*
X336585Y238450D01*
X337001Y238034D01*
X336775Y237372D01*
X336266Y236648D01*
X334033D01*
X331728Y235693D01*
X329965Y233930D01*
X329010Y231625D01*
Y229131D01*
X329965Y226826D01*
X331728Y225063D01*
X334033Y224108D01*
X336527D01*
X338832Y225063D01*
X340595Y226826D01*
X341550Y229131D01*
Y231625D01*
X340679Y233728D01*
X341034Y234402D01*
X341616Y235030D01*
X343281Y234584D01*
X344092D01*
Y244092D01*
D02*
G37*
G36*
X173459Y245284D02*
X170965D01*
X168660Y244329D01*
X166897Y242566D01*
X165942Y240261D01*
Y237767D01*
X166897Y235462D01*
X168660Y233699D01*
X170965Y232744D01*
X173459D01*
X175764Y233699D01*
X177527Y235462D01*
X178482Y237767D01*
Y240261D01*
X177527Y242566D01*
X175764Y244329D01*
X173459Y245284D01*
D02*
G37*
G36*
X208003Y202500D02*
X205509D01*
X203204Y201545D01*
X201441Y199782D01*
X200486Y197477D01*
Y194983D01*
X201441Y192678D01*
X203204Y190914D01*
X205509Y189960D01*
X208003D01*
X210308Y190914D01*
X212071Y192678D01*
X213026Y194983D01*
Y197477D01*
X212071Y199782D01*
X210308Y201545D01*
X208003Y202500D01*
D02*
G37*
G36*
X294109Y200580D02*
X291615D01*
X289310Y199625D01*
X287547Y197862D01*
X286592Y195557D01*
Y193063D01*
X287547Y190758D01*
X289310Y188995D01*
X291615Y188040D01*
X294109D01*
X296414Y188995D01*
X298177Y190758D01*
X299132Y193063D01*
Y195557D01*
X298177Y197862D01*
X296414Y199625D01*
X294109Y200580D01*
D02*
G37*
G36*
X232895Y187372D02*
X230401D01*
X228096Y186417D01*
X226333Y184654D01*
X225930Y183682D01*
X224307D01*
X224009Y184400D01*
X222246Y186163D01*
X219941Y187118D01*
X217447D01*
X215142Y186163D01*
X213379Y184400D01*
X212424Y182095D01*
Y179601D01*
X213379Y177296D01*
X215142Y175533D01*
X217447Y174578D01*
X219941D01*
X222246Y175533D01*
X224009Y177296D01*
X224412Y178268D01*
X226035D01*
X226333Y177550D01*
X228096Y175787D01*
X230401Y174832D01*
X232895D01*
X235200Y175787D01*
X236963Y177550D01*
X237918Y179855D01*
Y182349D01*
X236963Y184654D01*
X235200Y186417D01*
X232895Y187372D01*
D02*
G37*
G36*
X284247Y188270D02*
X281753D01*
X279448Y187315D01*
X277685Y185552D01*
X276730Y183247D01*
Y180753D01*
X277685Y178448D01*
X279448Y176685D01*
X281753Y175730D01*
X284247D01*
X286552Y176685D01*
X288315Y178448D01*
X289270Y180753D01*
Y183247D01*
X288315Y185552D01*
X286552Y187315D01*
X284247Y188270D01*
D02*
G37*
G36*
X248389Y187810D02*
X245895D01*
X243590Y186856D01*
X241827Y185092D01*
X240872Y182787D01*
Y180293D01*
X241827Y177988D01*
X243590Y176225D01*
X245895Y175270D01*
X248389D01*
X250694Y176225D01*
X252457Y177988D01*
X253412Y180293D01*
Y182787D01*
X252457Y185092D01*
X250694Y186856D01*
X248389Y187810D01*
D02*
G37*
G36*
X202207Y185270D02*
X199713D01*
X197408Y184315D01*
X195645Y182552D01*
X194690Y180247D01*
Y177753D01*
X195645Y175448D01*
X197408Y173685D01*
X199713Y172730D01*
X200195D01*
X200494Y171230D01*
X199140Y170669D01*
X197377Y168906D01*
X196422Y166601D01*
Y164107D01*
X197377Y161802D01*
X199140Y160039D01*
X201445Y159084D01*
X203939D01*
X206244Y160039D01*
X208007Y161802D01*
X208962Y164107D01*
Y166601D01*
X208007Y168906D01*
X206244Y170669D01*
X203939Y171624D01*
X203457D01*
X203158Y173124D01*
X204512Y173685D01*
X206276Y175448D01*
X207230Y177753D01*
Y180247D01*
X206276Y182552D01*
X204512Y184315D01*
X202207Y185270D01*
D02*
G37*
G36*
X257279Y162988D02*
X254785D01*
X252480Y162033D01*
X250717Y160270D01*
X249762Y157965D01*
Y155471D01*
X250717Y153166D01*
X252480Y151403D01*
X254785Y150448D01*
X257279D01*
X259584Y151403D01*
X261347Y153166D01*
X262302Y155471D01*
Y157965D01*
X261347Y160270D01*
X259584Y162033D01*
X257279Y162988D01*
D02*
G37*
G36*
X202669Y157400D02*
X200175D01*
X197870Y156445D01*
X196107Y154682D01*
X195152Y152377D01*
Y149883D01*
X196107Y147578D01*
X197870Y145815D01*
X200175Y144860D01*
X202669D01*
X204974Y145815D01*
X206737Y147578D01*
X207692Y149883D01*
Y152377D01*
X206737Y154682D01*
X204974Y156445D01*
X202669Y157400D01*
D02*
G37*
G36*
X171247Y156270D02*
X168753D01*
X166448Y155315D01*
X164685Y153552D01*
X163730Y151247D01*
Y148753D01*
X164685Y146448D01*
X166448Y144685D01*
X168753Y143730D01*
X171247D01*
X173552Y144685D01*
X175315Y146448D01*
X176270Y148753D01*
Y151247D01*
X175315Y153552D01*
X173552Y155315D01*
X171247Y156270D01*
D02*
G37*
G36*
X309857Y152066D02*
X307363D01*
X305058Y151111D01*
X303295Y149348D01*
X302340Y147043D01*
Y144549D01*
X303295Y142244D01*
X305058Y140481D01*
X307363Y139526D01*
X309857D01*
X312162Y140481D01*
X313925Y142244D01*
X314880Y144549D01*
Y147043D01*
X313925Y149348D01*
X312162Y151111D01*
X309857Y152066D01*
D02*
G37*
G36*
X239499Y114982D02*
X237005D01*
X234700Y114027D01*
X232937Y112264D01*
X231982Y109959D01*
Y107465D01*
X232937Y105160D01*
X234700Y103397D01*
X237005Y102442D01*
X239499D01*
X241804Y103397D01*
X243567Y105160D01*
X244522Y107465D01*
Y109959D01*
X243567Y112264D01*
X241804Y114027D01*
X239499Y114982D01*
D02*
G37*
G36*
X180438Y113540D02*
X177944D01*
X175639Y112585D01*
X173876Y110822D01*
X172921Y108517D01*
Y106023D01*
X173876Y103718D01*
X175639Y101955D01*
X177944Y101000D01*
X180438D01*
X182743Y101955D01*
X184506Y103718D01*
X185461Y106023D01*
Y108517D01*
X184506Y110822D01*
X182743Y112585D01*
X180438Y113540D01*
D02*
G37*
G36*
X254485Y104568D02*
X251991D01*
X249686Y103613D01*
X247923Y101850D01*
X246968Y99545D01*
Y97051D01*
X247923Y94746D01*
X249686Y92983D01*
X251991Y92028D01*
X254485D01*
X256790Y92983D01*
X258553Y94746D01*
X259508Y97051D01*
Y99545D01*
X258553Y101850D01*
X256790Y103613D01*
X254485Y104568D01*
D02*
G37*
G36*
X282181Y57404D02*
X280175D01*
X278237Y56885D01*
X276499Y55882D01*
X275081Y54463D01*
X274077Y52725D01*
X273558Y50787D01*
Y48781D01*
X274077Y46843D01*
X275081Y45105D01*
X276499Y43686D01*
X278237Y42683D01*
X280175Y42164D01*
X282181D01*
X284119Y42683D01*
X285857Y43686D01*
X287276Y45105D01*
X288279Y46843D01*
X288798Y48781D01*
Y50787D01*
X288279Y52725D01*
X287276Y54463D01*
X285857Y55882D01*
X284119Y56885D01*
X282181Y57404D01*
D02*
G37*
G36*
X217157Y56896D02*
X215151D01*
X213213Y56377D01*
X211475Y55374D01*
X210056Y53955D01*
X209053Y52217D01*
X208534Y50279D01*
Y48273D01*
X209053Y46335D01*
X210056Y44597D01*
X211475Y43179D01*
X213213Y42175D01*
X215151Y41656D01*
X217157D01*
X219095Y42175D01*
X220833Y43179D01*
X222251Y44597D01*
X223255Y46335D01*
X223774Y48273D01*
Y50279D01*
X223255Y52217D01*
X222251Y53955D01*
X220833Y55374D01*
X219095Y56377D01*
X217157Y56896D01*
D02*
G37*
G36*
X176419Y50016D02*
X173781D01*
X171234Y49333D01*
X168950Y48015D01*
X167085Y46150D01*
X165767Y43866D01*
X165084Y41319D01*
Y38681D01*
X165767Y36134D01*
X167085Y33850D01*
X168950Y31985D01*
X171234Y30667D01*
X173781Y29984D01*
X176419D01*
X178966Y30667D01*
X181250Y31985D01*
X183115Y33850D01*
X184433Y36134D01*
X185116Y38681D01*
Y41319D01*
X184433Y43866D01*
X183115Y46150D01*
X181250Y48015D01*
X178966Y49333D01*
X176419Y50016D01*
D02*
G37*
G36*
X137819Y370016D02*
X137008D01*
Y360508D01*
X146516D01*
Y361319D01*
X145833Y363866D01*
X144515Y366150D01*
X142650Y368015D01*
X140366Y369333D01*
X137819Y370016D01*
D02*
G37*
G36*
X135992D02*
X135181D01*
X132634Y369333D01*
X130350Y368015D01*
X128485Y366150D01*
X127167Y363866D01*
X126484Y361319D01*
Y360508D01*
X135992D01*
Y370016D01*
D02*
G37*
G36*
X146516Y359492D02*
X137008D01*
Y349984D01*
X137819D01*
X140366Y350667D01*
X142650Y351985D01*
X144515Y353850D01*
X145833Y356134D01*
X146516Y358681D01*
Y359492D01*
D02*
G37*
G36*
X135992D02*
X126484D01*
Y358681D01*
X127167Y356134D01*
X128485Y353850D01*
X130350Y351985D01*
X132634Y350667D01*
X135181Y349984D01*
X135992D01*
Y359492D01*
D02*
G37*
G36*
X110247Y353270D02*
X107753D01*
X105448Y352315D01*
X103685Y350552D01*
X102730Y348247D01*
Y345753D01*
X103685Y343448D01*
X105078Y342054D01*
X104984Y340652D01*
X104841Y340332D01*
X103636Y339833D01*
X101873Y338070D01*
X100918Y335765D01*
Y333271D01*
X101873Y330966D01*
X103636Y329203D01*
X105941Y328248D01*
X108435D01*
X110740Y329203D01*
X112503Y330966D01*
X113458Y333271D01*
Y335765D01*
X112503Y338070D01*
X111110Y339464D01*
X111204Y340867D01*
X111347Y341186D01*
X112552Y341685D01*
X114315Y343448D01*
X115270Y345753D01*
Y348247D01*
X114315Y350552D01*
X112552Y352315D01*
X110247Y353270D01*
D02*
G37*
G36*
X36319Y310816D02*
X33681D01*
X31134Y310133D01*
X28850Y308815D01*
X26985Y306950D01*
X25667Y304666D01*
X24984Y302119D01*
Y299481D01*
X25667Y296934D01*
X26985Y294650D01*
X28850Y292785D01*
X31134Y291467D01*
X33681Y290784D01*
X36319D01*
X38866Y291467D01*
X41150Y292785D01*
X43015Y294650D01*
X44333Y296934D01*
X45016Y299481D01*
Y302119D01*
X44333Y304666D01*
X43015Y306950D01*
X41150Y308815D01*
X38866Y310133D01*
X36319Y310816D01*
D02*
G37*
G36*
X74763Y280918D02*
X72269D01*
X69964Y279963D01*
X68200Y278199D01*
X67246Y275895D01*
Y273401D01*
X68200Y271096D01*
X69964Y269332D01*
X72269Y268378D01*
X74763D01*
X77068Y269332D01*
X78831Y271096D01*
X79786Y273401D01*
Y275895D01*
X78831Y278199D01*
X77068Y279963D01*
X74763Y280918D01*
D02*
G37*
G36*
X36319Y285416D02*
X33681D01*
X31134Y284733D01*
X28850Y283415D01*
X26985Y281550D01*
X25667Y279266D01*
X24984Y276719D01*
Y274081D01*
X25667Y271534D01*
X26985Y269250D01*
X28850Y267385D01*
X31134Y266067D01*
X33681Y265384D01*
X36319D01*
X38866Y266067D01*
X41150Y267385D01*
X43015Y269250D01*
X44333Y271534D01*
X45016Y274081D01*
Y276719D01*
X44333Y279266D01*
X43015Y281550D01*
X41150Y283415D01*
X38866Y284733D01*
X36319Y285416D01*
D02*
G37*
G36*
Y260016D02*
X33681D01*
X31134Y259333D01*
X28850Y258015D01*
X26985Y256150D01*
X25667Y253866D01*
X24984Y251319D01*
Y248681D01*
X25667Y246134D01*
X26985Y243850D01*
X28850Y241985D01*
X31134Y240667D01*
X33681Y239984D01*
X36319D01*
X38866Y240667D01*
X41150Y241985D01*
X43015Y243850D01*
X44333Y246134D01*
X45016Y248681D01*
Y251319D01*
X44333Y253866D01*
X43015Y256150D01*
X41150Y258015D01*
X38866Y259333D01*
X36319Y260016D01*
D02*
G37*
G36*
X43266Y232866D02*
X35508D01*
Y225108D01*
X43266D01*
Y232866D01*
D02*
G37*
G36*
X34492D02*
X26734D01*
Y225108D01*
X34492D01*
Y232866D01*
D02*
G37*
G36*
X43266Y224092D02*
X35508D01*
Y216334D01*
X43266D01*
Y224092D01*
D02*
G37*
G36*
X34492D02*
X26734D01*
Y216334D01*
X34492D01*
Y224092D01*
D02*
G37*
G36*
X43319Y161416D02*
X40681D01*
X38134Y160733D01*
X35850Y159415D01*
X33985Y157550D01*
X32667Y155266D01*
X31984Y152719D01*
Y150081D01*
X32667Y147534D01*
X33985Y145250D01*
X35850Y143385D01*
X38134Y142067D01*
X40681Y141384D01*
X43319D01*
X45866Y142067D01*
X48150Y143385D01*
X50015Y145250D01*
X51333Y147534D01*
X52016Y150081D01*
Y152719D01*
X51333Y155266D01*
X50015Y157550D01*
X48150Y159415D01*
X45866Y160733D01*
X43319Y161416D01*
D02*
G37*
G36*
Y136016D02*
X42508D01*
Y126508D01*
X52016D01*
Y127319D01*
X51333Y129866D01*
X50015Y132150D01*
X48150Y134015D01*
X45866Y135333D01*
X43319Y136016D01*
D02*
G37*
G36*
X41492D02*
X40681D01*
X38134Y135333D01*
X35850Y134015D01*
X33985Y132150D01*
X32667Y129866D01*
X31984Y127319D01*
Y126508D01*
X41492D01*
Y136016D01*
D02*
G37*
G36*
X52016Y125492D02*
X42508D01*
Y115984D01*
X43319D01*
X45866Y116667D01*
X48150Y117985D01*
X50015Y119850D01*
X51333Y122134D01*
X52016Y124681D01*
Y125492D01*
D02*
G37*
G36*
X41492D02*
X31984D01*
Y124681D01*
X32667Y122134D01*
X33985Y119850D01*
X35850Y117985D01*
X38134Y116667D01*
X40681Y115984D01*
X41492D01*
Y125492D01*
D02*
G37*
G36*
X43190Y109641D02*
X40810D01*
X38510Y109025D01*
X36449Y107835D01*
X34765Y106151D01*
X33575Y104090D01*
X32959Y101790D01*
Y99410D01*
X33575Y97110D01*
X34765Y95049D01*
X36449Y93365D01*
X38510Y92175D01*
X40810Y91559D01*
X43190D01*
X45490Y92175D01*
X47551Y93365D01*
X49235Y95049D01*
X50425Y97110D01*
X51041Y99410D01*
Y101790D01*
X50425Y104090D01*
X49235Y106151D01*
X47551Y107835D01*
X45490Y109025D01*
X43190Y109641D01*
D02*
G37*
G36*
X107166Y48266D02*
X99408D01*
Y40508D01*
X107166D01*
Y48266D01*
D02*
G37*
G36*
X98392D02*
X90634D01*
Y40508D01*
X98392D01*
Y48266D01*
D02*
G37*
%LPD*%
D25*
X344600Y270000D02*
D03*
X370000Y295400D02*
D03*
X344600D02*
D03*
X370000Y270000D02*
D03*
Y244600D02*
D03*
X344600D02*
D03*
X212700Y360000D02*
D03*
X238100D02*
D03*
X263500D02*
D03*
X187300D02*
D03*
X161900D02*
D03*
X136500D02*
D03*
X124300Y40000D02*
D03*
X149700D02*
D03*
X175100D02*
D03*
X35000Y300800D02*
D03*
Y275400D02*
D03*
Y250000D02*
D03*
X42000Y151400D02*
D03*
Y126000D02*
D03*
X360250Y112500D02*
D03*
D26*
X98900Y40000D02*
D03*
D27*
X35000Y224600D02*
D03*
D31*
X360000Y40000D02*
D03*
X40000D02*
D03*
Y360000D02*
D03*
X360000D02*
D03*
D32*
X299720Y51562D02*
D03*
X281178Y49784D02*
D03*
X216154Y49276D02*
D03*
D35*
X270000Y128350D02*
D03*
X308610Y145796D02*
D03*
X334010Y151638D02*
D03*
X170434Y136906D02*
D03*
X146000Y171000D02*
D03*
X108966Y312420D02*
D03*
X108000Y300000D02*
D03*
X106680Y242062D02*
D03*
X96520Y227584D02*
D03*
X247142Y181540D02*
D03*
X266700Y207264D02*
D03*
X231648Y181102D02*
D03*
X335280Y230378D02*
D03*
X379476Y182118D02*
D03*
X256032Y156718D02*
D03*
X202692Y165354D02*
D03*
X170000Y150000D02*
D03*
X238252Y108712D02*
D03*
X283000Y182000D02*
D03*
X107188Y334518D02*
D03*
X109982Y277114D02*
D03*
X73516Y274648D02*
D03*
X108751Y265000D02*
D03*
X172212Y239014D02*
D03*
X253238Y98298D02*
D03*
X201422Y151130D02*
D03*
X206756Y196230D02*
D03*
X218694Y180848D02*
D03*
X285496Y205740D02*
D03*
X292862Y194310D02*
D03*
X200960Y179000D02*
D03*
X206413Y221831D02*
D03*
X179191Y107270D02*
D03*
X333000Y318000D02*
D03*
X155000Y311000D02*
D03*
X53000Y169000D02*
D03*
X109000Y347000D02*
D03*
X112000Y168000D02*
D03*
D36*
X42000Y100600D02*
D03*
D37*
X360250Y137500D02*
D03*
M02*
