M48
;Layer_Color=9474304
;FILE_FORMAT=4:4
METRIC
;TYPE=PLATED
T01F00S00C0.6000
T02F00S00C0.7112
T03F00S00C1.0500
T04F00S00C1.0700
T05F00S00C1.1000
T06F00S00C2.2000
%
T01
X00433191Y00411270
X00424434Y00440906
X00424000Y00454000
X00455422Y00455130
X00456692Y00469354
X00454960Y00483000
X00472694Y00484848
X00485648Y00485102
X00501142Y00485540
X00510032Y00460718
X00524000Y00432350
X00507238Y00402298
X00492252Y00412712
X00562610Y00449796
X00588010Y00455638
X00633476Y00486118
X00589280Y00534378
X00539496Y00509740
X00546862Y00498310
X00537000Y00486000
X00520700Y00511264
X00460756Y00500230
X00460413Y00525831
X00426212Y00543014
X00409000Y00615000
X00400000Y00475000
X00587000Y00622000
X00362966Y00616420
X00362000Y00604000
X00363982Y00581114
X00362751Y00569000
X00360680Y00546062
X00350520Y00531584
X00327516Y00578648
X00361188Y00638518
X00363000Y00651000
X00366000Y00472000
X00307000Y00473000
T02
X00470154Y00353276
X00535178Y00353784
X00553720Y00355562
T03
X00614250Y00441500
T04
X00296000Y00404600
T05
X00352900Y00344000
X00378300
X00403700
X00429100
X00614250Y00416500
X00624000Y00548600
Y00574000
X00598600
Y00599400
X00624000
X00598600Y00548600
X00517500Y00664000
X00492100
X00466700
X00441300
X00415900
X00390500
X00289000Y00604800
Y00579400
Y00554000
Y00528600
X00296000Y00455400
Y00430000
T06
X00294000Y00344000
X00614000
Y00664000
X00294000
M30
