G04*
G04 #@! TF.GenerationSoftware,Altium Limited,Altium Designer,25.5.2 (35)*
G04*
G04 Layer_Color=16711935*
%FSLAX44Y44*%
%MOMM*%
G71*
G04*
G04 #@! TF.SameCoordinates,BC121CA0-E7C5-409D-9B46-04158C32EFF5*
G04*
G04*
G04 #@! TF.FilePolarity,Positive*
G04*
G01*
G75*
%ADD10C,0.1524*%
%ADD11C,0.5080*%
%ADD12C,0.2000*%
%ADD13C,0.2500*%
%ADD14C,0.1000*%
%ADD15C,0.1270*%
%ADD17C,0.0762*%
D10*
X256017Y49976D02*
G03*
X256017Y49976I-9017J0D01*
G01*
X78042Y151551D02*
G03*
X78042Y151551I-1270J0D01*
G01*
X228204Y46105D02*
Y53846D01*
X237888Y65724D02*
X256112D01*
X265796Y46105D02*
Y53846D01*
X237888Y34228D02*
X256112D01*
X330630Y230630D02*
Y309370D01*
Y230630D02*
X383970D01*
Y309370D01*
X330630D02*
X383970D01*
X84900Y142280D02*
X161100D01*
Y233720D01*
X84900D02*
X161100D01*
X84900Y142280D02*
Y233720D01*
D11*
X373810Y318400D02*
G03*
X373810Y318400I-3810J0D01*
G01*
D12*
X273000Y369000D02*
G03*
X273000Y369000I-1000J0D01*
G01*
X80700Y40000D02*
G03*
X80700Y40000I-1000J0D01*
G01*
X36000Y205400D02*
G03*
X36000Y205400I-1000J0D01*
G01*
X43000Y81150D02*
G03*
X43000Y81150I-1000J0D01*
G01*
X361250Y169400D02*
G03*
X361250Y169400I-1000J0D01*
G01*
X322570Y107950D02*
X345430D01*
X322570Y146050D02*
X345430D01*
X322570Y107950D02*
Y146050D01*
X345430Y107950D02*
Y146050D01*
X300482Y20574D02*
Y43434D01*
X262382Y20574D02*
Y43434D01*
Y20574D02*
X300482D01*
X262382Y43434D02*
X300482D01*
X302998Y276328D02*
X325858D01*
X302998Y238228D02*
X325858D01*
Y276328D01*
X302998Y238228D02*
Y276328D01*
X390311Y196290D02*
Y219150D01*
X352211Y196290D02*
Y219150D01*
Y196290D02*
X390311D01*
X352211Y219150D02*
X390311D01*
X375550Y311570D02*
Y334430D01*
X337450Y311570D02*
Y334430D01*
Y311570D02*
X375550D01*
X337450Y334430D02*
X375550D01*
X301752Y284226D02*
X324612D01*
X301752Y322326D02*
X324612D01*
X301752Y284226D02*
Y322326D01*
X324612Y284226D02*
Y322326D01*
X184430Y272700D02*
Y310800D01*
X161570D02*
X184430D01*
X161570Y272700D02*
Y310800D01*
Y272700D02*
X184430D01*
X240030Y278784D02*
Y301244D01*
X283210D01*
Y278784D02*
Y301244D01*
X240030Y278784D02*
X283210D01*
X235458Y278892D02*
Y301352D01*
X192278Y278892D02*
X235458D01*
X192278D02*
Y301352D01*
X235458D01*
X122800Y346300D02*
X277200D01*
X122800D02*
Y373700D01*
X277200D01*
Y346300D02*
Y373700D01*
X179030Y217390D02*
X261580D01*
X179030Y198000D02*
Y217390D01*
Y117060D02*
Y199610D01*
Y117060D02*
X279360D01*
Y137000D01*
Y136110D02*
Y208500D01*
X270470Y217390D02*
X279360Y208500D01*
X259500Y217390D02*
X270470D01*
X82150Y236490D02*
Y270000D01*
X114150D01*
Y236490D02*
Y270000D01*
X82150Y236490D02*
X114150D01*
X82150Y272490D02*
X114150D01*
Y306000D01*
X82150D02*
X114150D01*
X82150Y272490D02*
Y306000D01*
Y308490D02*
Y342000D01*
X114150D01*
Y308490D02*
Y342000D01*
X82150Y308490D02*
X114150D01*
X162130Y175570D02*
Y198430D01*
X113870Y175570D02*
X162130D01*
X113870D02*
Y198430D01*
X162130D01*
X65410Y175570D02*
Y198030D01*
Y175570D02*
X108590D01*
Y198030D01*
X65410D02*
X108590D01*
X211470Y185410D02*
X233930D01*
Y228590D01*
X211470D02*
X233930D01*
X211470Y185410D02*
Y228590D01*
X236970Y185410D02*
X259430D01*
Y228590D01*
X236970D02*
X259430D01*
X236970Y185410D02*
Y228590D01*
X94050Y312570D02*
Y335430D01*
X55950Y312570D02*
X94050D01*
X55950D02*
Y335430D01*
X94050D01*
X55200Y263430D02*
X93300D01*
X55200Y240570D02*
Y263430D01*
Y240570D02*
X93300D01*
Y263430D01*
X242970Y105410D02*
Y148590D01*
X265430D01*
Y105410D02*
Y148590D01*
X242970Y105410D02*
X265430D01*
X176970Y121410D02*
Y164590D01*
X199430D01*
Y121410D02*
Y164590D01*
X176970Y121410D02*
X199430D01*
X153800Y277570D02*
Y300430D01*
X115700Y277570D02*
X153800D01*
X115700D02*
Y300430D01*
X153800D01*
X116570Y235700D02*
X139430D01*
X116570D02*
Y273800D01*
X139430D01*
Y235700D02*
Y273800D01*
X150200Y244570D02*
Y267430D01*
X188300D01*
Y244570D02*
Y267430D01*
X150200Y244570D02*
X188300D01*
X188800Y318570D02*
Y341430D01*
X150700Y318570D02*
X188800D01*
X150700D02*
Y341430D01*
X188800D01*
X116570Y304950D02*
X139430D01*
X116570D02*
Y343050D01*
X139430D01*
Y304950D02*
Y343050D01*
X55200Y299430D02*
X93300D01*
X55200Y276570D02*
Y299430D01*
Y276570D02*
X93300D01*
Y299430D01*
X235970Y25410D02*
Y68590D01*
X258430D01*
Y25410D02*
Y68590D01*
X235970Y25410D02*
X258430D01*
X350200Y152570D02*
Y175430D01*
X388300D01*
Y152570D02*
Y175430D01*
X350200Y152570D02*
X388300D01*
X371970Y103410D02*
Y146590D01*
X394430D01*
Y103410D02*
Y146590D01*
X371970Y103410D02*
X394430D01*
X300736Y224136D02*
X343916D01*
Y201676D02*
Y224136D01*
X300736Y201676D02*
X343916D01*
X300736D02*
Y224136D01*
X285030Y185410D02*
Y228590D01*
X262570Y185410D02*
X285030D01*
X262570D02*
Y228590D01*
X285030D01*
D13*
X76560Y269510D02*
G03*
X76560Y269510I-1270J0D01*
G01*
Y305510D02*
G03*
X76560Y305510I-1270J0D01*
G01*
Y341510D02*
G03*
X76560Y341510I-1270J0D01*
G01*
D14*
X217000Y69976D02*
Y71976D01*
X276000D01*
Y27976D02*
Y71976D01*
X217000Y27976D02*
X276000D01*
X217000D02*
Y69976D01*
X341160Y140510D02*
X334162D01*
Y137011D01*
X335328Y135845D01*
X337661D01*
X338827Y137011D01*
Y140510D01*
Y138177D02*
X341160Y135845D01*
Y133512D02*
Y131180D01*
Y132346D01*
X334162D01*
X335328Y133512D01*
Y127681D02*
X334162Y126515D01*
Y124182D01*
X335328Y123016D01*
X339994D01*
X341160Y124182D01*
Y126515D01*
X339994Y127681D01*
X335328D01*
X267922Y39164D02*
Y32166D01*
X271421D01*
X272587Y33333D01*
Y35665D01*
X271421Y36831D01*
X267922D01*
X270255D02*
X272587Y39164D01*
X279585D02*
X274920D01*
X279585Y34499D01*
Y33333D01*
X278419Y32166D01*
X276086D01*
X274920Y33333D01*
X307268Y243768D02*
X314265D01*
Y247266D01*
X313099Y248433D01*
X310766D01*
X309600Y247266D01*
Y243768D01*
Y246100D02*
X307268Y248433D01*
Y250765D02*
Y253098D01*
Y251932D01*
X314265D01*
X313099Y250765D01*
X314265Y261262D02*
Y256597D01*
X310766D01*
X311933Y258929D01*
Y260096D01*
X310766Y261262D01*
X308434D01*
X307268Y260096D01*
Y257763D01*
X308434Y256597D01*
X357751Y214880D02*
Y207882D01*
X361250D01*
X362416Y209048D01*
Y211381D01*
X361250Y212547D01*
X357751D01*
X360084D02*
X362416Y214880D01*
X364749D02*
X367082D01*
X365915D01*
Y207882D01*
X364749Y209048D01*
X375246Y207882D02*
X372913Y209048D01*
X370580Y211381D01*
Y213713D01*
X371747Y214880D01*
X374079D01*
X375246Y213713D01*
Y212547D01*
X374079Y211381D01*
X370580D01*
X342990Y330160D02*
Y323162D01*
X346489D01*
X347655Y324328D01*
Y326661D01*
X346489Y327827D01*
X342990D01*
X345323D02*
X347655Y330160D01*
X349988D02*
X352320D01*
X351154D01*
Y323162D01*
X349988Y324328D01*
X355819D02*
X356986Y323162D01*
X359318D01*
X360484Y324328D01*
Y325495D01*
X359318Y326661D01*
X358152D01*
X359318D01*
X360484Y327827D01*
Y328994D01*
X359318Y330160D01*
X356986D01*
X355819Y328994D01*
X320342Y316786D02*
X313344D01*
Y313287D01*
X314510Y312121D01*
X316843D01*
X318009Y313287D01*
Y316786D01*
Y314453D02*
X320342Y312121D01*
Y309788D02*
Y307456D01*
Y308622D01*
X313344D01*
X314510Y309788D01*
X320342Y300458D02*
X313344D01*
X316843Y303957D01*
Y299292D01*
X164570Y275700D02*
X171568D01*
Y279199D01*
X170401Y280365D01*
X168069D01*
X166903Y279199D01*
Y275700D01*
Y278033D02*
X164570Y280365D01*
X171568Y287363D02*
Y282698D01*
X168069D01*
X169235Y285030D01*
Y286197D01*
X168069Y287363D01*
X165736D01*
X164570Y286197D01*
Y283864D01*
X165736Y282698D01*
X247695Y287616D02*
X246529Y288782D01*
X244196D01*
X243030Y287616D01*
Y282950D01*
X244196Y281784D01*
X246529D01*
X247695Y282950D01*
X250028Y281784D02*
X252360D01*
X251194D01*
Y288782D01*
X250028Y287616D01*
X227793Y292521D02*
X228959Y291354D01*
X231292D01*
X232458Y292521D01*
Y297186D01*
X231292Y298352D01*
X228959D01*
X227793Y297186D01*
X221961Y298352D02*
Y291354D01*
X225460Y294853D01*
X220795D01*
X224000Y46974D02*
Y39976D01*
X227499D01*
X228665Y41142D01*
Y42308D01*
X227499Y43475D01*
X224000D01*
X227499D01*
X228665Y44641D01*
Y45807D01*
X227499Y46974D01*
X224000D01*
X230998Y39976D02*
X233330D01*
X232164D01*
Y46974D01*
X230998Y45807D01*
X258440Y248432D02*
Y249599D01*
X256107Y251931D01*
X253775Y249599D01*
Y248432D01*
X256107Y251931D02*
Y255430D01*
X251442D02*
X249110D01*
X250276D01*
Y248432D01*
X251442Y249599D01*
X348870Y303830D02*
X355868D01*
Y300331D01*
X354701Y299165D01*
X352369D01*
X351203Y300331D01*
Y303830D01*
X354701Y296832D02*
X355868Y295666D01*
Y293333D01*
X354701Y292167D01*
X353535D01*
X352369Y293333D01*
Y294500D01*
Y293333D01*
X351203Y292167D01*
X350036D01*
X348870Y293333D01*
Y295666D01*
X350036Y296832D01*
X254150Y358892D02*
Y364724D01*
X252984Y365890D01*
X250651D01*
X249485Y364724D01*
Y358892D01*
X243653Y365890D02*
Y358892D01*
X247152Y362391D01*
X242487D01*
X110790Y42378D02*
Y36546D01*
X111956Y35380D01*
X114289D01*
X115455Y36546D01*
Y42378D01*
X117788Y41211D02*
X118954Y42378D01*
X121287D01*
X122453Y41211D01*
Y40045D01*
X121287Y38879D01*
X120120D01*
X121287D01*
X122453Y37713D01*
Y36546D01*
X121287Y35380D01*
X118954D01*
X117788Y36546D01*
X32622Y236490D02*
X38454D01*
X39620Y237656D01*
Y239989D01*
X38454Y241155D01*
X32622D01*
Y248153D02*
X33788Y245820D01*
X36121Y243488D01*
X38454D01*
X39620Y244654D01*
Y246987D01*
X38454Y248153D01*
X37287D01*
X36121Y246987D01*
Y243488D01*
X47002Y99000D02*
X52834D01*
X54000Y100166D01*
Y102499D01*
X52834Y103665D01*
X47002D01*
Y105998D02*
Y110663D01*
X48169D01*
X52834Y105998D01*
X54000D01*
X372320Y100060D02*
X365322D01*
Y103559D01*
X366488Y104725D01*
X368821D01*
X369987Y103559D01*
Y100060D01*
X372320Y110557D02*
X365322D01*
X368821Y107058D01*
Y111723D01*
X225858Y196610D02*
X220026D01*
X218860Y195444D01*
Y193111D01*
X220026Y191945D01*
X225858D01*
X218860Y184947D02*
Y189612D01*
X223525Y184947D01*
X224691D01*
X225858Y186113D01*
Y188446D01*
X224691Y189612D01*
X93115Y243196D02*
Y247861D01*
X91949Y249028D01*
X89616D01*
X88450Y247861D01*
Y243196D01*
X89616Y242030D01*
X91949D01*
X90783Y244363D02*
X93115Y242030D01*
X91949D02*
X93115Y243196D01*
X95448Y242030D02*
X97780D01*
X96614D01*
Y249028D01*
X95448Y247861D01*
X93115Y279196D02*
Y283862D01*
X91949Y285028D01*
X89616D01*
X88450Y283862D01*
Y279196D01*
X89616Y278030D01*
X91949D01*
X90783Y280363D02*
X93115Y278030D01*
X91949D02*
X93115Y279196D01*
X100113Y278030D02*
X95448D01*
X100113Y282695D01*
Y283862D01*
X98947Y285028D01*
X96614D01*
X95448Y283862D01*
X93115Y315196D02*
Y319862D01*
X91949Y321028D01*
X89616D01*
X88450Y319862D01*
Y315196D01*
X89616Y314030D01*
X91949D01*
X90783Y316363D02*
X93115Y314030D01*
X91949D02*
X93115Y315196D01*
X95448Y319862D02*
X96614Y321028D01*
X98947D01*
X100113Y319862D01*
Y318695D01*
X98947Y317529D01*
X97780D01*
X98947D01*
X100113Y316363D01*
Y315196D01*
X98947Y314030D01*
X96614D01*
X95448Y315196D01*
X92980Y186568D02*
Y180736D01*
X94146Y179570D01*
X96479D01*
X97645Y180736D01*
Y186568D01*
X104643D02*
X99978D01*
Y183069D01*
X102310Y184235D01*
X103477D01*
X104643Y183069D01*
Y180736D01*
X103477Y179570D01*
X101144D01*
X99978Y180736D01*
X154465Y184401D02*
X155631Y185568D01*
X157964D01*
X159130Y184401D01*
Y179736D01*
X157964Y178570D01*
X155631D01*
X154465Y179736D01*
X152132Y178570D02*
X149800D01*
X150966D01*
Y185568D01*
X152132Y184401D01*
X146301D02*
X145134Y185568D01*
X142802D01*
X141636Y184401D01*
Y179736D01*
X142802Y178570D01*
X145134D01*
X146301Y179736D01*
Y184401D01*
X73075Y189198D02*
X71909Y188032D01*
X69576D01*
X68410Y189198D01*
Y193864D01*
X69576Y195030D01*
X71909D01*
X73075Y193864D01*
X75408Y189198D02*
X76574Y188032D01*
X78907D01*
X80073Y189198D01*
Y190365D01*
X78907Y191531D01*
X77740D01*
X78907D01*
X80073Y192697D01*
Y193864D01*
X78907Y195030D01*
X76574D01*
X75408Y193864D01*
X220301Y193075D02*
X221468Y191909D01*
Y189576D01*
X220301Y188410D01*
X215636D01*
X214470Y189576D01*
Y191909D01*
X215636Y193075D01*
X221468Y200073D02*
X220301Y197740D01*
X217969Y195408D01*
X215636D01*
X214470Y196574D01*
Y198907D01*
X215636Y200073D01*
X216803D01*
X217969Y198907D01*
Y195408D01*
X245802Y193075D02*
X246968Y191909D01*
Y189576D01*
X245802Y188410D01*
X241136D01*
X239970Y189576D01*
Y191909D01*
X241136Y193075D01*
X246968Y195408D02*
Y200073D01*
X245802D01*
X241136Y195408D01*
X239970D01*
X91050Y315570D02*
Y322568D01*
X87551D01*
X86385Y321401D01*
Y319069D01*
X87551Y317903D01*
X91050D01*
X88717D02*
X86385Y315570D01*
X84052Y316736D02*
X82886Y315570D01*
X80553D01*
X79387Y316736D01*
Y321401D01*
X80553Y322568D01*
X82886D01*
X84052Y321401D01*
Y320235D01*
X82886Y319069D01*
X79387D01*
X90300Y243570D02*
Y250568D01*
X86801D01*
X85635Y249401D01*
Y247069D01*
X86801Y245903D01*
X90300D01*
X87967D02*
X85635Y243570D01*
X79803D02*
Y250568D01*
X83302Y247069D01*
X78637D01*
X251801Y113075D02*
X252968Y111909D01*
Y109576D01*
X251801Y108410D01*
X247136D01*
X245970Y109576D01*
Y111909D01*
X247136Y113075D01*
X251801Y115408D02*
X252968Y116574D01*
Y118907D01*
X251801Y120073D01*
X250635D01*
X249469Y118907D01*
X248303Y120073D01*
X247136D01*
X245970Y118907D01*
Y116574D01*
X247136Y115408D01*
X248303D01*
X249469Y116574D01*
X250635Y115408D01*
X251801D01*
X249469Y116574D02*
Y118907D01*
X185802Y129075D02*
X186968Y127909D01*
Y125576D01*
X185802Y124410D01*
X181136D01*
X179970Y125576D01*
Y127909D01*
X181136Y129075D01*
X179970Y131408D02*
Y133740D01*
Y132574D01*
X186968D01*
X185802Y131408D01*
X179970Y137239D02*
Y139572D01*
Y138406D01*
X186968D01*
X185802Y137239D01*
X150800Y280570D02*
Y287568D01*
X147301D01*
X146135Y286402D01*
Y284069D01*
X147301Y282903D01*
X150800D01*
X148467D02*
X146135Y280570D01*
X143802Y287568D02*
X139137D01*
Y286402D01*
X143802Y281736D01*
Y280570D01*
X119570Y238700D02*
X126568D01*
Y242199D01*
X125401Y243365D01*
X123069D01*
X121903Y242199D01*
Y238700D01*
Y241033D02*
X119570Y243365D01*
Y245698D02*
Y248030D01*
Y246864D01*
X126568D01*
X125401Y245698D01*
X153200Y264430D02*
Y257432D01*
X156699D01*
X157865Y258598D01*
Y260931D01*
X156699Y262097D01*
X153200D01*
X155533D02*
X157865Y264430D01*
X160198Y258598D02*
X161364Y257432D01*
X163696D01*
X164863Y258598D01*
Y259765D01*
X163696Y260931D01*
X162530D01*
X163696D01*
X164863Y262097D01*
Y263264D01*
X163696Y264430D01*
X161364D01*
X160198Y263264D01*
X185800Y321570D02*
Y328568D01*
X182301D01*
X181134Y327402D01*
Y325069D01*
X182301Y323903D01*
X185800D01*
X183467D02*
X181134Y321570D01*
X178802D02*
X176469D01*
X177635D01*
Y328568D01*
X178802Y327402D01*
X172970Y321570D02*
X170638D01*
X171804D01*
Y328568D01*
X172970Y327402D01*
X119570Y307950D02*
X126568D01*
Y311449D01*
X125401Y312615D01*
X123069D01*
X121903Y311449D01*
Y307950D01*
Y310283D02*
X119570Y312615D01*
Y314948D02*
Y317280D01*
Y316114D01*
X126568D01*
X125401Y314948D01*
X119570Y325444D02*
Y320779D01*
X124235Y325444D01*
X125401D01*
X126568Y324278D01*
Y321945D01*
X125401Y320779D01*
X90300Y279570D02*
Y286568D01*
X86801D01*
X85635Y285401D01*
Y283069D01*
X86801Y281903D01*
X90300D01*
X87967D02*
X85635Y279570D01*
X78637Y286568D02*
X80970Y285401D01*
X83302Y283069D01*
Y280736D01*
X82136Y279570D01*
X79803D01*
X78637Y280736D01*
Y281903D01*
X79803Y283069D01*
X83302D01*
X244802Y33075D02*
X245968Y31909D01*
Y29576D01*
X244802Y28410D01*
X240136D01*
X238970Y29576D01*
Y31909D01*
X240136Y33075D01*
X245968Y40073D02*
Y35408D01*
X242469D01*
X243635Y37740D01*
Y38907D01*
X242469Y40073D01*
X240136D01*
X238970Y38907D01*
Y36574D01*
X240136Y35408D01*
X353200Y172430D02*
Y165432D01*
X356699D01*
X357865Y166598D01*
Y168931D01*
X356699Y170097D01*
X353200D01*
X355532D02*
X357865Y172430D01*
X360198Y166598D02*
X361364Y165432D01*
X363697D01*
X364863Y166598D01*
Y167765D01*
X363697Y168931D01*
X364863Y170097D01*
Y171264D01*
X363697Y172430D01*
X361364D01*
X360198Y171264D01*
Y170097D01*
X361364Y168931D01*
X360198Y167765D01*
Y166598D01*
X361364Y168931D02*
X363697D01*
X380801Y111075D02*
X381968Y109909D01*
Y107576D01*
X380801Y106410D01*
X376136D01*
X374970Y107576D01*
Y109909D01*
X376136Y111075D01*
X374970Y113408D02*
Y115740D01*
Y114574D01*
X381968D01*
X380801Y113408D01*
X374970Y123904D02*
Y119239D01*
X379635Y123904D01*
X380801D01*
X381968Y122738D01*
Y120406D01*
X380801Y119239D01*
X308401Y215305D02*
X307235Y214138D01*
X304902D01*
X303736Y215305D01*
Y219970D01*
X304902Y221136D01*
X307235D01*
X308401Y219970D01*
X315399Y221136D02*
X310734D01*
X315399Y216471D01*
Y215305D01*
X314233Y214138D01*
X311900D01*
X310734Y215305D01*
X276199Y220925D02*
X275032Y222091D01*
Y224424D01*
X276199Y225590D01*
X280864D01*
X282030Y224424D01*
Y222091D01*
X280864Y220925D01*
Y218592D02*
X282030Y217426D01*
Y215093D01*
X280864Y213927D01*
X276199D01*
X275032Y215093D01*
Y217426D01*
X276199Y218592D01*
X277365D01*
X278531Y217426D01*
Y213927D01*
D15*
X267790Y226680D02*
Y267320D01*
X199210D02*
X267790D01*
X199210Y226680D02*
Y267320D01*
Y226680D02*
X267790D01*
X86200Y27300D02*
Y52700D01*
X187800Y27300D02*
Y52700D01*
X86200D02*
X187800D01*
X86200Y27300D02*
X187800D01*
X47700Y211900D02*
Y313500D01*
X22300Y211900D02*
Y313500D01*
X47700D01*
X22300Y211900D02*
X47700D01*
X11000Y88650D02*
Y163350D01*
X74500D01*
Y88650D02*
Y163350D01*
X11000Y88650D02*
X74500D01*
X326250Y162000D02*
X383750D01*
Y88000D02*
Y162000D01*
X326250Y88000D02*
X383750D01*
X326250D02*
Y162000D01*
D17*
X222870Y76390D02*
X231334Y67926D01*
X222870D02*
X231334Y76390D01*
X222870Y72158D02*
X231334D01*
X227102Y67926D02*
Y76390D01*
M02*
