G04*
G04 #@! TF.GenerationSoftware,Altium Limited,Altium Designer,25.5.2 (35)*
G04*
G04 Layer_Color=2752767*
%FSLAX44Y44*%
%MOMM*%
G71*
G04*
G04 #@! TF.SameCoordinates,BC121CA0-E7C5-409D-9B46-04158C32EFF5*
G04*
G04*
G04 #@! TF.FilePolarity,Positive*
G04*
G01*
G75*
%ADD15C,0.1270*%
%ADD44C,0.1693*%
D15*
X344600Y264920D02*
X339520Y275080D01*
X349680D01*
X344600Y264920D01*
X370000Y290320D02*
X364920Y300480D01*
X375080D01*
X370000Y290320D01*
X344600D02*
X339520Y300480D01*
X349680D01*
X344600Y290320D01*
X370000Y264920D02*
X364920Y275080D01*
X375080D01*
X370000Y264920D01*
Y239520D02*
X364920Y249680D01*
X375080D01*
X370000Y239520D01*
X344600D02*
X339520Y249680D01*
X349680D01*
X344600Y239520D01*
X212700Y354920D02*
X207620Y365080D01*
X217780D01*
X212700Y354920D01*
X238100D02*
X233020Y365080D01*
X243180D01*
X238100Y354920D01*
X263500D02*
X258420Y365080D01*
X268580D01*
X263500Y354920D01*
X187300D02*
X182220Y365080D01*
X192380D01*
X187300Y354920D01*
X161900D02*
X156820Y365080D01*
X166980D01*
X161900Y354920D01*
X136500D02*
X131420Y365080D01*
X141580D01*
X136500Y354920D01*
X98900Y34920D02*
X93820Y45080D01*
X103980D01*
X98900Y34920D01*
X124300D02*
X119220Y45080D01*
X129380D01*
X124300Y34920D01*
X149700D02*
X144620Y45080D01*
X154780D01*
X149700Y34920D01*
X175100D02*
X170020Y45080D01*
X180180D01*
X175100Y34920D01*
X35000Y295720D02*
X29920Y305880D01*
X40080D01*
X35000Y295720D01*
Y270320D02*
X29920Y280480D01*
X40080D01*
X35000Y270320D01*
Y244920D02*
X29920Y255080D01*
X40080D01*
X35000Y244920D01*
Y219520D02*
X29920Y229680D01*
X40080D01*
X35000Y219520D01*
X36920Y95520D02*
X39460Y100600D01*
X36920Y105680D01*
X42000Y103140D01*
X47080Y105680D01*
X44540Y100600D01*
X47080Y95520D01*
X42000Y98060D01*
X36920Y95520D01*
X42000Y146320D02*
X36920Y156480D01*
X47080D01*
X42000Y146320D01*
Y120920D02*
X36920Y131080D01*
X47080D01*
X42000Y120920D01*
X360250Y107420D02*
X355170Y117580D01*
X365330D01*
X360250Y107420D01*
X355170Y132420D02*
Y142580D01*
X365330D01*
Y132420D01*
X355170D01*
X360000Y34920D02*
X362540Y37460D01*
X365080D01*
X362540Y40000D01*
X365080Y42540D01*
X362540D01*
X360000Y45080D01*
X357460Y42540D01*
X354920D01*
X357460Y40000D01*
X354920Y37460D01*
X357460D01*
X360000Y34920D01*
X40000D02*
X42540Y37460D01*
X45080D01*
X42540Y40000D01*
X45080Y42540D01*
X42540D01*
X40000Y45080D01*
X37460Y42540D01*
X34920D01*
X37460Y40000D01*
X34920Y37460D01*
X37460D01*
X40000Y34920D01*
Y354920D02*
X42540Y357460D01*
X45080D01*
X42540Y360000D01*
X45080Y362540D01*
X42540D01*
X40000Y365080D01*
X37460Y362540D01*
X34920D01*
X37460Y360000D01*
X34920Y357460D01*
X37460D01*
X40000Y354920D01*
X360000D02*
X362540Y357460D01*
X365080D01*
X362540Y360000D01*
X365080Y362540D01*
X362540D01*
X360000Y365080D01*
X357460Y362540D01*
X354920D01*
X357460Y360000D01*
X354920Y357460D01*
X357460D01*
X360000Y354920D01*
X267460Y125810D02*
Y123270D01*
X272540D01*
Y125810D01*
X275080D01*
Y130890D01*
X272540D01*
Y133430D01*
X267460D01*
Y130890D01*
X264920D01*
Y125810D01*
X267460D01*
X306070Y143256D02*
Y140716D01*
X311150D01*
Y143256D01*
X313690D01*
Y148336D01*
X311150D01*
Y150876D01*
X306070D01*
Y148336D01*
X303530D01*
Y143256D01*
X306070D01*
X331470Y149098D02*
Y146558D01*
X336550D01*
Y149098D01*
X339090D01*
Y154178D01*
X336550D01*
Y156718D01*
X331470D01*
Y154178D01*
X328930D01*
Y149098D01*
X331470D01*
X167894Y134366D02*
Y131826D01*
X172974D01*
Y134366D01*
X175514D01*
Y139446D01*
X172974D01*
Y141986D01*
X167894D01*
Y139446D01*
X165354D01*
Y134366D01*
X167894D01*
X143460Y168460D02*
Y165920D01*
X148540D01*
Y168460D01*
X151080D01*
Y173540D01*
X148540D01*
Y176080D01*
X143460D01*
Y173540D01*
X140920D01*
Y168460D01*
X143460D01*
X106426Y309880D02*
Y307340D01*
X111506D01*
Y309880D01*
X114046D01*
Y314960D01*
X111506D01*
Y317500D01*
X106426D01*
Y314960D01*
X103886D01*
Y309880D01*
X106426D01*
X105460Y297460D02*
Y294920D01*
X110540D01*
Y297460D01*
X113080D01*
Y302540D01*
X110540D01*
Y305080D01*
X105460D01*
Y302540D01*
X102920D01*
Y297460D01*
X105460D01*
X104140Y239522D02*
Y236982D01*
X109220D01*
Y239522D01*
X111760D01*
Y244602D01*
X109220D01*
Y247142D01*
X104140D01*
Y244602D01*
X101600D01*
Y239522D01*
X104140D01*
X93980Y225044D02*
Y222504D01*
X99060D01*
Y225044D01*
X101600D01*
Y230124D01*
X99060D01*
Y232664D01*
X93980D01*
Y230124D01*
X91440D01*
Y225044D01*
X93980D01*
X244602Y179000D02*
Y176460D01*
X249682D01*
Y179000D01*
X252222D01*
Y184080D01*
X249682D01*
Y186620D01*
X244602D01*
Y184080D01*
X242062D01*
Y179000D01*
X244602D01*
X264160Y204724D02*
Y202184D01*
X269240D01*
Y204724D01*
X271780D01*
Y209804D01*
X269240D01*
Y212344D01*
X264160D01*
Y209804D01*
X261620D01*
Y204724D01*
X264160D01*
X229108Y178562D02*
Y176022D01*
X234188D01*
Y178562D01*
X236728D01*
Y183642D01*
X234188D01*
Y186182D01*
X229108D01*
Y183642D01*
X226568D01*
Y178562D01*
X229108D01*
X332740Y227838D02*
Y225298D01*
X337820D01*
Y227838D01*
X340360D01*
Y232918D01*
X337820D01*
Y235458D01*
X332740D01*
Y232918D01*
X330200D01*
Y227838D01*
X332740D01*
X376936Y179578D02*
Y177038D01*
X382016D01*
Y179578D01*
X384556D01*
Y184658D01*
X382016D01*
Y187198D01*
X376936D01*
Y184658D01*
X374396D01*
Y179578D01*
X376936D01*
X253492Y154178D02*
Y151638D01*
X258572D01*
Y154178D01*
X261112D01*
Y159258D01*
X258572D01*
Y161798D01*
X253492D01*
Y159258D01*
X250952D01*
Y154178D01*
X253492D01*
X200152Y162814D02*
Y160274D01*
X205232D01*
Y162814D01*
X207772D01*
Y167894D01*
X205232D01*
Y170434D01*
X200152D01*
Y167894D01*
X197612D01*
Y162814D01*
X200152D01*
X167460Y147460D02*
Y144920D01*
X172540D01*
Y147460D01*
X175080D01*
Y152540D01*
X172540D01*
Y155080D01*
X167460D01*
Y152540D01*
X164920D01*
Y147460D01*
X167460D01*
X235712Y106172D02*
Y103632D01*
X240792D01*
Y106172D01*
X243332D01*
Y111252D01*
X240792D01*
Y113792D01*
X235712D01*
Y111252D01*
X233172D01*
Y106172D01*
X235712D01*
X280460Y179460D02*
Y176920D01*
X285540D01*
Y179460D01*
X288080D01*
Y184540D01*
X285540D01*
Y187080D01*
X280460D01*
Y184540D01*
X277920D01*
Y179460D01*
X280460D01*
X104648Y331978D02*
Y329438D01*
X109728D01*
Y331978D01*
X112268D01*
Y337058D01*
X109728D01*
Y339598D01*
X104648D01*
Y337058D01*
X102108D01*
Y331978D01*
X104648D01*
X107442Y274574D02*
Y272034D01*
X112522D01*
Y274574D01*
X115062D01*
Y279654D01*
X112522D01*
Y282194D01*
X107442D01*
Y279654D01*
X104902D01*
Y274574D01*
X107442D01*
X70976Y272108D02*
Y269568D01*
X76056D01*
Y272108D01*
X78596D01*
Y277188D01*
X76056D01*
Y279728D01*
X70976D01*
Y277188D01*
X68436D01*
Y272108D01*
X70976D01*
X106211Y262460D02*
Y259920D01*
X111291D01*
Y262460D01*
X113831D01*
Y267540D01*
X111291D01*
Y270080D01*
X106211D01*
Y267540D01*
X103671D01*
Y262460D01*
X106211D01*
X169672Y236474D02*
Y233934D01*
X174752D01*
Y236474D01*
X177292D01*
Y241554D01*
X174752D01*
Y244094D01*
X169672D01*
Y241554D01*
X167132D01*
Y236474D01*
X169672D01*
X250698Y95758D02*
Y93218D01*
X255778D01*
Y95758D01*
X258318D01*
Y100838D01*
X255778D01*
Y103378D01*
X250698D01*
Y100838D01*
X248158D01*
Y95758D01*
X250698D01*
X198882Y148590D02*
Y146050D01*
X203962D01*
Y148590D01*
X206502D01*
Y153670D01*
X203962D01*
Y156210D01*
X198882D01*
Y153670D01*
X196342D01*
Y148590D01*
X198882D01*
X204216Y193690D02*
Y191150D01*
X209296D01*
Y193690D01*
X211836D01*
Y198770D01*
X209296D01*
Y201310D01*
X204216D01*
Y198770D01*
X201676D01*
Y193690D01*
X204216D01*
X216154Y178308D02*
Y175768D01*
X221234D01*
Y178308D01*
X223774D01*
Y183388D01*
X221234D01*
Y185928D01*
X216154D01*
Y183388D01*
X213614D01*
Y178308D01*
X216154D01*
X282956Y203200D02*
Y200660D01*
X288036D01*
Y203200D01*
X290576D01*
Y208280D01*
X288036D01*
Y210820D01*
X282956D01*
Y208280D01*
X280416D01*
Y203200D01*
X282956D01*
X290322Y191770D02*
Y189230D01*
X295402D01*
Y191770D01*
X297942D01*
Y196850D01*
X295402D01*
Y199390D01*
X290322D01*
Y196850D01*
X287782D01*
Y191770D01*
X290322D01*
X198420Y176460D02*
Y173920D01*
X203500D01*
Y176460D01*
X206040D01*
Y181540D01*
X203500D01*
Y184080D01*
X198420D01*
Y181540D01*
X195880D01*
Y176460D01*
X198420D01*
X203873Y219291D02*
Y216751D01*
X208953D01*
Y219291D01*
X211493D01*
Y224371D01*
X208953D01*
Y226911D01*
X203873D01*
Y224371D01*
X201333D01*
Y219291D01*
X203873D01*
X176651Y104730D02*
Y102190D01*
X181731D01*
Y104730D01*
X184271D01*
Y109810D01*
X181731D01*
Y112350D01*
X176651D01*
Y109810D01*
X174111D01*
Y104730D01*
X176651D01*
X330460Y315460D02*
Y312920D01*
X335540D01*
Y315460D01*
X338080D01*
Y320540D01*
X335540D01*
Y323080D01*
X330460D01*
Y320540D01*
X327920D01*
Y315460D01*
X330460D01*
X152460Y308460D02*
Y305920D01*
X157540D01*
Y308460D01*
X160080D01*
Y313540D01*
X157540D01*
Y316080D01*
X152460D01*
Y313540D01*
X149920D01*
Y308460D01*
X152460D01*
X50460Y166460D02*
Y163920D01*
X55540D01*
Y166460D01*
X58080D01*
Y171540D01*
X55540D01*
Y174080D01*
X50460D01*
Y171540D01*
X47920D01*
Y166460D01*
X50460D01*
X106460Y344460D02*
Y341920D01*
X111540D01*
Y344460D01*
X114080D01*
Y349540D01*
X111540D01*
Y352080D01*
X106460D01*
Y349540D01*
X103920D01*
Y344460D01*
X106460D01*
X109460Y165460D02*
Y162920D01*
X114540D01*
Y165460D01*
X117080D01*
Y170540D01*
X114540D01*
Y173080D01*
X109460D01*
Y170540D01*
X106920D01*
Y165460D01*
X109460D01*
D44*
X304800Y51562D02*
G03*
X304800Y51562I-5080J0D01*
G01*
X286258Y49784D02*
G03*
X286258Y49784I-5080J0D01*
G01*
X221234Y49276D02*
G03*
X221234Y49276I-5080J0D01*
G01*
M02*
