G04*
G04 #@! TF.GenerationSoftware,Altium Limited,Altium Designer,25.5.2 (35)*
G04*
G04 Layer_Physical_Order=1*
G04 Layer_Color=255*
%FSLAX44Y44*%
%MOMM*%
G71*
G04*
G04 #@! TF.SameCoordinates,BC121CA0-E7C5-409D-9B46-04158C32EFF5*
G04*
G04*
G04 #@! TF.FilePolarity,Positive*
G04*
G01*
G75*
%ADD11C,0.5080*%
%ADD16C,0.2540*%
%ADD18R,1.2000X1.6500*%
%ADD19R,1.3208X0.6604*%
%ADD20R,1.9000X2.4000*%
%ADD21R,0.3000X1.2000*%
%ADD22R,1.2000X0.3000*%
%ADD23R,0.9144X1.6002*%
%ADD24R,0.9720X0.8020*%
%ADD25C,1.8000*%
%ADD26R,1.4500X1.4500*%
%ADD27R,1.4500X1.4500*%
%ADD30R,1.5750X1.5750*%
%ADD31C,3.8000*%
%ADD32C,1.2700*%
%ADD33C,0.3810*%
%ADD34R,1.6050X1.6050*%
%ADD35C,1.0000*%
G36*
X139002Y212003D02*
Y228005D01*
X106998D01*
Y212003D01*
X139002D01*
D02*
G37*
D11*
X265176Y39476D02*
X265415D01*
X264414Y40238D02*
X265176Y39476D01*
X264414Y40238D02*
Y44958D01*
X267782Y48326D01*
X279720D01*
X281178Y49784D01*
X266819Y126500D02*
X268669Y128350D01*
X257540Y126500D02*
X266819D01*
X268669Y128350D02*
X270000D01*
X146000Y155996D02*
Y171000D01*
X104555Y315500D02*
X107635Y312420D01*
X89300Y315500D02*
X104555D01*
X107635Y312420D02*
X108966D01*
X89300Y234804D02*
X96520Y227584D01*
X89300Y234804D02*
Y243500D01*
X258572Y207772D02*
X266192D01*
X266700Y207264D01*
X78765Y279500D02*
X89300D01*
X73516Y274648D02*
X73912D01*
X78765Y279500D01*
X116000Y156000D02*
X122996D01*
X112000Y160000D02*
X116000Y156000D01*
X112000Y160000D02*
Y168000D01*
X99996Y156000D02*
X100000Y155996D01*
X93000Y156000D02*
X99996D01*
X53000Y169000D02*
X80000D01*
X93000Y156000D01*
D16*
X200868Y276316D02*
Y290322D01*
Y276316D02*
X202356Y274828D01*
X207518D01*
X213000Y269346D01*
Y247000D02*
Y269346D01*
X274620Y289814D02*
X275590Y288844D01*
Y274284D02*
Y288844D01*
X274102Y272796D02*
X275590Y274284D01*
X259588Y272796D02*
X274102D01*
X254000Y267208D02*
X259588Y272796D01*
X254000Y247000D02*
Y267208D01*
X248112Y290322D02*
X248620Y289814D01*
X226868Y290322D02*
X248112D01*
X228053Y59944D02*
X228585Y60476D01*
X219710Y59944D02*
X228053D01*
X218098Y58332D02*
X219710Y59944D01*
X218098Y51220D02*
Y58332D01*
X216154Y49276D02*
X218098Y51220D01*
X246500Y126500D02*
X246730Y126730D01*
X248648Y135890D02*
X314725D01*
X317754Y138919D01*
X246730Y126730D02*
Y133972D01*
X248648Y135890D01*
X213000Y230230D02*
Y247000D01*
Y230230D02*
X214630Y228600D01*
X226822D01*
X231500Y223922D01*
Y208500D02*
Y223922D01*
X254000Y230088D02*
Y247000D01*
X252512Y228600D02*
X254000Y230088D01*
X236500Y224002D02*
X241098Y228600D01*
X252512D01*
X317754Y158754D02*
X388620Y229620D01*
X317754Y138919D02*
Y158754D01*
X388620Y229620D02*
Y289052D01*
X307743Y145796D02*
X308610D01*
X236500Y208500D02*
Y224002D01*
X210232Y137716D02*
Y182091D01*
X206730Y134214D02*
X210232Y137716D01*
X206500Y126500D02*
X206730Y126730D01*
Y134214D01*
X103662Y304338D02*
X108000Y300000D01*
X95988Y304338D02*
X103662D01*
X89300Y298500D02*
X90150D01*
X95988Y304338D01*
X106680Y252680D02*
X107000Y253000D01*
X106680Y242062D02*
Y252680D01*
X251500Y188144D02*
X256032Y183612D01*
Y156718D02*
Y183612D01*
X251500Y188144D02*
Y208500D01*
X231088Y181662D02*
X231648Y181102D01*
X231088Y181662D02*
Y189912D01*
X226500Y194500D02*
Y208500D01*
Y194500D02*
X231088Y189912D01*
X301947Y140000D02*
X307743Y145796D01*
X270000Y140000D02*
X301947D01*
X196286Y196037D02*
X210232Y182091D01*
X160556Y170152D02*
X175708Y155000D01*
X188000D01*
X160556Y170152D02*
Y240944D01*
X170000Y150000D02*
X188000D01*
X170000Y150000D02*
X170000Y150000D01*
X282725Y182275D02*
X283000Y182000D01*
X107000Y325000D02*
X107188Y325188D01*
Y334518D01*
X108235Y346235D02*
X109000Y347000D01*
X104235Y346235D02*
X108235D01*
X89300Y334500D02*
X92310Y337510D01*
X95510D02*
X104235Y346235D01*
X92310Y337510D02*
X95510D01*
X109982Y277114D02*
Y279133D01*
X107442Y281673D02*
Y288558D01*
Y281673D02*
X109982Y279133D01*
X107000Y289000D02*
X107442Y288558D01*
X95460Y267810D02*
X105941D01*
X90150Y262500D02*
X95460Y267810D01*
X89300Y262500D02*
X90150D01*
X105941Y267810D02*
X108751Y265000D01*
X160556Y240944D02*
X172000Y252388D01*
X172000D01*
X187300Y267688D01*
X172212Y239014D02*
X196286Y214940D01*
Y196037D02*
Y214940D01*
X157000Y103000D02*
X162000Y98000D01*
X156427Y306355D02*
Y309573D01*
X155000Y311000D02*
X156427Y309573D01*
Y306355D02*
X157000Y305782D01*
Y103000D02*
Y305782D01*
X187300Y267688D02*
Y360000D01*
X231500Y113500D02*
Y126500D01*
X194000Y76000D02*
X231500Y113500D01*
X168000Y76000D02*
X194000D01*
X199024Y180000D02*
X200024Y179000D01*
X200960D01*
X188000Y180000D02*
X199024D01*
X382272Y295400D02*
X388620Y289052D01*
X370000Y295400D02*
X382272D01*
X146000Y155996D02*
X146000Y155996D01*
X122996Y156000D02*
X123000Y155996D01*
X201500Y116500D02*
Y126500D01*
X192932Y107932D02*
X201500Y116500D01*
X179853Y107932D02*
X192932D01*
X179191Y107270D02*
X179853Y107932D01*
X197000Y98000D02*
X211497Y112497D01*
Y126496D01*
X190196Y81234D02*
X226500Y117538D01*
Y126500D01*
X149234Y81234D02*
X190196D01*
X149700Y57700D02*
X168000Y76000D01*
X149700Y40000D02*
Y57700D01*
X124300Y40000D02*
Y56300D01*
X149234Y81234D01*
X318400Y295400D02*
X344600D01*
X308552Y285552D02*
X318400Y295400D01*
X308552Y179552D02*
Y285552D01*
X256500Y126500D02*
Y126500D01*
X162000Y98000D02*
X197000D01*
X270000Y150000D02*
X279000D01*
X308552Y179552D01*
D18*
X248620Y289814D02*
D03*
X274620D02*
D03*
X226868Y290322D02*
D03*
X200868D02*
D03*
D19*
X265415Y60476D02*
D03*
Y39476D02*
D03*
X228585D02*
D03*
Y60476D02*
D03*
D20*
X254000Y247000D02*
D03*
X213000D02*
D03*
D21*
X231500Y208500D02*
D03*
X226500D02*
D03*
X231500Y126500D02*
D03*
X246500D02*
D03*
X241500D02*
D03*
X236500D02*
D03*
X256500D02*
D03*
X251500D02*
D03*
X226500D02*
D03*
X221500D02*
D03*
X216500D02*
D03*
X211500D02*
D03*
X206500D02*
D03*
X201500D02*
D03*
X256500Y208500D02*
D03*
X241500D02*
D03*
X246500D02*
D03*
X251500D02*
D03*
X201500D02*
D03*
X206500D02*
D03*
X211500D02*
D03*
X216500D02*
D03*
X221500D02*
D03*
X236500D02*
D03*
D22*
X270000Y160000D02*
D03*
Y155000D02*
D03*
Y150000D02*
D03*
Y145000D02*
D03*
Y140000D02*
D03*
Y165000D02*
D03*
Y170000D02*
D03*
Y175000D02*
D03*
Y180000D02*
D03*
Y185000D02*
D03*
X188000D02*
D03*
Y170000D02*
D03*
Y175000D02*
D03*
Y180000D02*
D03*
Y160000D02*
D03*
Y155000D02*
D03*
Y150000D02*
D03*
Y145000D02*
D03*
Y140000D02*
D03*
Y165000D02*
D03*
X270000Y190000D02*
D03*
X188000D02*
D03*
X270000Y195000D02*
D03*
X188000D02*
D03*
D23*
X146000Y155996D02*
D03*
X100000D02*
D03*
X123000D02*
D03*
D24*
X107000Y253000D02*
D03*
X89300Y243500D02*
D03*
Y262500D02*
D03*
Y298500D02*
D03*
Y279500D02*
D03*
X107000Y289000D02*
D03*
Y325000D02*
D03*
X89300Y315500D02*
D03*
Y334500D02*
D03*
D25*
X344600Y270000D02*
D03*
X370000Y295400D02*
D03*
X344600D02*
D03*
X370000Y270000D02*
D03*
Y244600D02*
D03*
X344600D02*
D03*
X212700Y360000D02*
D03*
X238100D02*
D03*
X263500D02*
D03*
X187300D02*
D03*
X161900D02*
D03*
X136500D02*
D03*
X124300Y40000D02*
D03*
X149700D02*
D03*
X175100D02*
D03*
X35000Y300800D02*
D03*
Y275400D02*
D03*
Y250000D02*
D03*
X42000Y151400D02*
D03*
Y126000D02*
D03*
X360250Y112500D02*
D03*
D26*
X98900Y40000D02*
D03*
D27*
X35000Y224600D02*
D03*
D30*
X360250Y137500D02*
D03*
D31*
X360000Y40000D02*
D03*
X40000D02*
D03*
Y360000D02*
D03*
X360000D02*
D03*
D32*
X299720Y51562D02*
D03*
X281178Y49784D02*
D03*
X216154Y49276D02*
D03*
D33*
X170434Y136906D02*
X172109D01*
X175203Y140000D02*
X188000D01*
X172109Y136906D02*
X175203Y140000D01*
X188000Y145000D02*
X195292D01*
X201422Y151130D01*
X241527Y109896D02*
X251500Y119869D01*
X238252Y108712D02*
X239436Y109896D01*
X251500Y119869D02*
Y126500D01*
X239436Y109896D02*
X241527D01*
X270000Y190000D02*
X279000D01*
X282725Y182275D02*
Y186275D01*
X279000Y190000D02*
X282725Y186275D01*
X221500Y201869D02*
Y208500D01*
X217045Y197414D02*
X221500Y201869D01*
X207940Y197414D02*
X217045D01*
X206756Y196230D02*
X207940Y197414D01*
X285496Y200914D02*
Y205740D01*
X279582Y195000D02*
X285496Y200914D01*
X270000Y195000D02*
X279582D01*
X209800Y221831D02*
X216500Y215131D01*
Y208500D02*
Y215131D01*
X206413Y221831D02*
X209800D01*
X279067Y175000D02*
X283000Y178933D01*
Y182000D01*
X270000Y175000D02*
X279067D01*
D34*
X42000Y100600D02*
D03*
D35*
X270000Y128350D02*
D03*
X308610Y145796D02*
D03*
X334010Y151638D02*
D03*
X170434Y136906D02*
D03*
X146000Y171000D02*
D03*
X108966Y312420D02*
D03*
X108000Y300000D02*
D03*
X106680Y242062D02*
D03*
X96520Y227584D02*
D03*
X247142Y181540D02*
D03*
X266700Y207264D02*
D03*
X231648Y181102D02*
D03*
X335280Y230378D02*
D03*
X379476Y182118D02*
D03*
X256032Y156718D02*
D03*
X202692Y165354D02*
D03*
X170000Y150000D02*
D03*
X238252Y108712D02*
D03*
X283000Y182000D02*
D03*
X107188Y334518D02*
D03*
X109982Y277114D02*
D03*
X73516Y274648D02*
D03*
X108751Y265000D02*
D03*
X172212Y239014D02*
D03*
X253238Y98298D02*
D03*
X201422Y151130D02*
D03*
X206756Y196230D02*
D03*
X218694Y180848D02*
D03*
X285496Y205740D02*
D03*
X292862Y194310D02*
D03*
X200960Y179000D02*
D03*
X206413Y221831D02*
D03*
X179191Y107270D02*
D03*
X333000Y318000D02*
D03*
X155000Y311000D02*
D03*
X53000Y169000D02*
D03*
X109000Y347000D02*
D03*
X112000Y168000D02*
D03*
M02*
