G04*
G04 #@! TF.GenerationSoftware,Altium Limited,Altium Designer,25.5.2 (35)*
G04*
G04 Layer_Physical_Order=3*
G04 Layer_Color=16440176*
%FSLAX44Y44*%
%MOMM*%
G71*
G04*
G04 #@! TF.SameCoordinates,BC121CA0-E7C5-409D-9B46-04158C32EFF5*
G04*
G04*
G04 #@! TF.FilePolarity,Positive*
G04*
G01*
G75*
%ADD25C,1.8000*%
%ADD26R,1.4500X1.4500*%
%ADD27R,1.4500X1.4500*%
%ADD31C,3.8000*%
%ADD32C,1.2700*%
%ADD35C,1.0000*%
%ADD36C,1.6050*%
%ADD37C,1.5750*%
G36*
X397961Y2039D02*
X2039D01*
Y397961D01*
X397961D01*
Y2039D01*
D02*
G37*
%LPC*%
G36*
X163219Y370016D02*
X162408D01*
Y360508D01*
X171916D01*
Y361319D01*
X171233Y363866D01*
X169915Y366150D01*
X168050Y368015D01*
X165766Y369333D01*
X163219Y370016D01*
D02*
G37*
G36*
X161392D02*
X160581D01*
X158034Y369333D01*
X155750Y368015D01*
X153885Y366150D01*
X152567Y363866D01*
X151884Y361319D01*
Y360508D01*
X161392D01*
Y370016D01*
D02*
G37*
G36*
X264819D02*
X262181D01*
X259634Y369333D01*
X257350Y368015D01*
X255485Y366150D01*
X254167Y363866D01*
X253484Y361319D01*
Y358681D01*
X254167Y356134D01*
X255485Y353850D01*
X257350Y351985D01*
X259634Y350667D01*
X262181Y349984D01*
X264819D01*
X267366Y350667D01*
X269650Y351985D01*
X271515Y353850D01*
X272833Y356134D01*
X273516Y358681D01*
Y361319D01*
X272833Y363866D01*
X271515Y366150D01*
X269650Y368015D01*
X267366Y369333D01*
X264819Y370016D01*
D02*
G37*
G36*
X239419D02*
X236781D01*
X234234Y369333D01*
X231950Y368015D01*
X230085Y366150D01*
X228767Y363866D01*
X228084Y361319D01*
Y358681D01*
X228767Y356134D01*
X230085Y353850D01*
X231950Y351985D01*
X234234Y350667D01*
X236781Y349984D01*
X239419D01*
X241966Y350667D01*
X244250Y351985D01*
X246115Y353850D01*
X247433Y356134D01*
X248116Y358681D01*
Y361319D01*
X247433Y363866D01*
X246115Y366150D01*
X244250Y368015D01*
X241966Y369333D01*
X239419Y370016D01*
D02*
G37*
G36*
X214019D02*
X211381D01*
X208834Y369333D01*
X206550Y368015D01*
X204685Y366150D01*
X203367Y363866D01*
X202684Y361319D01*
Y358681D01*
X203367Y356134D01*
X204685Y353850D01*
X206550Y351985D01*
X208834Y350667D01*
X211381Y349984D01*
X214019D01*
X216566Y350667D01*
X218850Y351985D01*
X220715Y353850D01*
X222033Y356134D01*
X222716Y358681D01*
Y361319D01*
X222033Y363866D01*
X220715Y366150D01*
X218850Y368015D01*
X216566Y369333D01*
X214019Y370016D01*
D02*
G37*
G36*
X188619D02*
X185981D01*
X183434Y369333D01*
X181150Y368015D01*
X179285Y366150D01*
X177967Y363866D01*
X177284Y361319D01*
Y358681D01*
X177967Y356134D01*
X179285Y353850D01*
X181150Y351985D01*
X183434Y350667D01*
X185981Y349984D01*
X188619D01*
X191166Y350667D01*
X193450Y351985D01*
X195315Y353850D01*
X196633Y356134D01*
X197316Y358681D01*
Y361319D01*
X196633Y363866D01*
X195315Y366150D01*
X193450Y368015D01*
X191166Y369333D01*
X188619Y370016D01*
D02*
G37*
G36*
X171916Y359492D02*
X162408D01*
Y349984D01*
X163219D01*
X165766Y350667D01*
X168050Y351985D01*
X169915Y353850D01*
X171233Y356134D01*
X171916Y358681D01*
Y359492D01*
D02*
G37*
G36*
X161392D02*
X151884D01*
Y358681D01*
X152567Y356134D01*
X153885Y353850D01*
X155750Y351985D01*
X158034Y350667D01*
X160581Y349984D01*
X161392D01*
Y359492D01*
D02*
G37*
G36*
X137819Y370016D02*
X135181D01*
X132634Y369333D01*
X130350Y368015D01*
X128485Y366150D01*
X127167Y363866D01*
X126484Y361319D01*
Y358681D01*
X127167Y356134D01*
X128485Y353850D01*
X130350Y351985D01*
X132634Y350667D01*
X135181Y349984D01*
X137819D01*
X140366Y350667D01*
X142650Y351985D01*
X144515Y353850D01*
X145833Y356134D01*
X146516Y358681D01*
Y361319D01*
X145833Y363866D01*
X144515Y366150D01*
X142650Y368015D01*
X140366Y369333D01*
X137819Y370016D01*
D02*
G37*
G36*
X361971Y380016D02*
X358029D01*
X354161Y379247D01*
X350519Y377738D01*
X347240Y375547D01*
X344453Y372760D01*
X342262Y369481D01*
X340753Y365838D01*
X339984Y361971D01*
Y358029D01*
X340753Y354161D01*
X342262Y350519D01*
X344453Y347240D01*
X347240Y344453D01*
X350519Y342262D01*
X354161Y340753D01*
X358029Y339984D01*
X361971D01*
X365838Y340753D01*
X369481Y342262D01*
X372760Y344453D01*
X375547Y347240D01*
X377738Y350519D01*
X379247Y354161D01*
X380016Y358029D01*
Y361971D01*
X379247Y365838D01*
X377738Y369481D01*
X375547Y372760D01*
X372760Y375547D01*
X369481Y377738D01*
X365838Y379247D01*
X361971Y380016D01*
D02*
G37*
G36*
X41971D02*
X38029D01*
X34162Y379247D01*
X30519Y377738D01*
X27241Y375547D01*
X24453Y372760D01*
X22262Y369481D01*
X20753Y365838D01*
X19984Y361971D01*
Y358029D01*
X20753Y354161D01*
X22262Y350519D01*
X24453Y347240D01*
X27241Y344453D01*
X30519Y342262D01*
X34162Y340753D01*
X38029Y339984D01*
X41971D01*
X45838Y340753D01*
X49481Y342262D01*
X52759Y344453D01*
X55547Y347240D01*
X57738Y350519D01*
X59247Y354161D01*
X60016Y358029D01*
Y361971D01*
X59247Y365838D01*
X57738Y369481D01*
X55547Y372760D01*
X52759Y375547D01*
X49481Y377738D01*
X45838Y379247D01*
X41971Y380016D01*
D02*
G37*
G36*
X110247Y353270D02*
X107753D01*
X105448Y352315D01*
X103685Y350552D01*
X102730Y348247D01*
Y345753D01*
X103685Y343448D01*
X105078Y342054D01*
X104984Y340652D01*
X104841Y340332D01*
X103636Y339833D01*
X101873Y338070D01*
X100918Y335765D01*
Y333271D01*
X101873Y330966D01*
X103636Y329203D01*
X105941Y328248D01*
X108435D01*
X110740Y329203D01*
X112503Y330966D01*
X113458Y333271D01*
Y335765D01*
X112503Y338070D01*
X111110Y339464D01*
X111204Y340867D01*
X111347Y341186D01*
X112552Y341685D01*
X114315Y343448D01*
X115270Y345753D01*
Y348247D01*
X114315Y350552D01*
X112552Y352315D01*
X110247Y353270D01*
D02*
G37*
G36*
X334247Y324270D02*
X331753D01*
X329448Y323315D01*
X327685Y321552D01*
X326730Y319247D01*
Y316753D01*
X327685Y314448D01*
X329448Y312685D01*
X331753Y311730D01*
X334247D01*
X336552Y312685D01*
X338315Y314448D01*
X339270Y316753D01*
Y319247D01*
X338315Y321552D01*
X336552Y323315D01*
X334247Y324270D01*
D02*
G37*
G36*
X156247Y317270D02*
X153753D01*
X151448Y316315D01*
X149685Y314552D01*
X148730Y312247D01*
Y309753D01*
X149685Y307448D01*
X151448Y305685D01*
X153753Y304730D01*
X156247D01*
X158552Y305685D01*
X160315Y307448D01*
X161270Y309753D01*
Y312247D01*
X160315Y314552D01*
X158552Y316315D01*
X156247Y317270D01*
D02*
G37*
G36*
X109247Y306270D02*
X106753D01*
X104448Y305315D01*
X102685Y303552D01*
X101730Y301247D01*
Y298753D01*
X102685Y296448D01*
X104448Y294685D01*
X106753Y293730D01*
X109247D01*
X111552Y294685D01*
X113315Y296448D01*
X114270Y298753D01*
Y301247D01*
X113315Y303552D01*
X111552Y305315D01*
X109247Y306270D01*
D02*
G37*
G36*
X36319Y310816D02*
X33681D01*
X31134Y310133D01*
X28850Y308815D01*
X26985Y306950D01*
X25667Y304666D01*
X24984Y302119D01*
Y299481D01*
X25667Y296934D01*
X26985Y294650D01*
X28850Y292785D01*
X31134Y291467D01*
X33681Y290784D01*
X36319D01*
X38866Y291467D01*
X41150Y292785D01*
X43015Y294650D01*
X44333Y296934D01*
X45016Y299481D01*
Y302119D01*
X44333Y304666D01*
X43015Y306950D01*
X41150Y308815D01*
X38866Y310133D01*
X36319Y310816D01*
D02*
G37*
G36*
X371319Y305416D02*
X368681D01*
X366134Y304733D01*
X363850Y303415D01*
X361985Y301550D01*
X360667Y299266D01*
X359984Y296719D01*
Y294081D01*
X360667Y291534D01*
X361985Y289250D01*
X363850Y287385D01*
X366134Y286067D01*
X368681Y285384D01*
X371319D01*
X373866Y286067D01*
X376150Y287385D01*
X378015Y289250D01*
X379333Y291534D01*
X380016Y294081D01*
Y296719D01*
X379333Y299266D01*
X378015Y301550D01*
X376150Y303415D01*
X373866Y304733D01*
X371319Y305416D01*
D02*
G37*
G36*
X345919D02*
X343281D01*
X340734Y304733D01*
X338450Y303415D01*
X336585Y301550D01*
X335267Y299266D01*
X334584Y296719D01*
Y294081D01*
X335267Y291534D01*
X336585Y289250D01*
X338450Y287385D01*
X340734Y286067D01*
X343281Y285384D01*
X345919D01*
X348466Y286067D01*
X350750Y287385D01*
X352615Y289250D01*
X353933Y291534D01*
X354616Y294081D01*
Y296719D01*
X353933Y299266D01*
X352615Y301550D01*
X350750Y303415D01*
X348466Y304733D01*
X345919Y305416D01*
D02*
G37*
G36*
X36319Y285416D02*
X33681D01*
X31134Y284733D01*
X28850Y283415D01*
X26985Y281550D01*
X25667Y279266D01*
X24984Y276719D01*
Y274081D01*
X25667Y271534D01*
X26985Y269250D01*
X28850Y267385D01*
X31134Y266067D01*
X33681Y265384D01*
X36319D01*
X38866Y266067D01*
X41150Y267385D01*
X43015Y269250D01*
X44333Y271534D01*
X45016Y274081D01*
Y276719D01*
X44333Y279266D01*
X43015Y281550D01*
X41150Y283415D01*
X38866Y284733D01*
X36319Y285416D01*
D02*
G37*
G36*
X371319Y280016D02*
X368681D01*
X366134Y279333D01*
X363850Y278015D01*
X361985Y276150D01*
X360667Y273866D01*
X359984Y271319D01*
Y268681D01*
X360667Y266134D01*
X361985Y263850D01*
X363850Y261985D01*
X366134Y260667D01*
X368681Y259984D01*
X371319D01*
X373866Y260667D01*
X376150Y261985D01*
X378015Y263850D01*
X379333Y266134D01*
X380016Y268681D01*
Y271319D01*
X379333Y273866D01*
X378015Y276150D01*
X376150Y278015D01*
X373866Y279333D01*
X371319Y280016D01*
D02*
G37*
G36*
X345919D02*
X343281D01*
X340734Y279333D01*
X338450Y278015D01*
X336585Y276150D01*
X335267Y273866D01*
X334584Y271319D01*
Y268681D01*
X335267Y266134D01*
X336585Y263850D01*
X338450Y261985D01*
X340734Y260667D01*
X343281Y259984D01*
X345919D01*
X348466Y260667D01*
X350750Y261985D01*
X352615Y263850D01*
X353933Y266134D01*
X354616Y268681D01*
Y271319D01*
X353933Y273866D01*
X352615Y276150D01*
X350750Y278015D01*
X348466Y279333D01*
X345919Y280016D01*
D02*
G37*
G36*
X111229Y283384D02*
X108735D01*
X106430Y282429D01*
X104667Y280666D01*
X103712Y278361D01*
Y275867D01*
X104667Y273562D01*
X105970Y272258D01*
X105806Y270668D01*
X105733Y270536D01*
X105199Y270315D01*
X103436Y268552D01*
X102481Y266247D01*
Y263753D01*
X103436Y261448D01*
X105199Y259685D01*
X107504Y258730D01*
X109998D01*
X112303Y259685D01*
X114066Y261448D01*
X115021Y263753D01*
Y266247D01*
X114066Y268552D01*
X112763Y269856D01*
X112928Y271446D01*
X113000Y271578D01*
X113534Y271799D01*
X115297Y273562D01*
X116252Y275867D01*
Y278361D01*
X115297Y280666D01*
X113534Y282429D01*
X111229Y283384D01*
D02*
G37*
G36*
X371319Y254616D02*
X370508D01*
Y245108D01*
X380016D01*
Y245919D01*
X379333Y248466D01*
X378015Y250750D01*
X376150Y252615D01*
X373866Y253933D01*
X371319Y254616D01*
D02*
G37*
G36*
X369492D02*
X368681D01*
X366134Y253933D01*
X363850Y252615D01*
X361985Y250750D01*
X360667Y248466D01*
X359984Y245919D01*
Y245108D01*
X369492D01*
Y254616D01*
D02*
G37*
G36*
X36319Y260016D02*
X33681D01*
X31134Y259333D01*
X28850Y258015D01*
X26985Y256150D01*
X25667Y253866D01*
X24984Y251319D01*
Y248681D01*
X25667Y246134D01*
X26985Y243850D01*
X28850Y241985D01*
X31134Y240667D01*
X33681Y239984D01*
X36319D01*
X38866Y240667D01*
X41150Y241985D01*
X43015Y243850D01*
X44333Y246134D01*
X45016Y248681D01*
Y251319D01*
X44333Y253866D01*
X43015Y256150D01*
X41150Y258015D01*
X38866Y259333D01*
X36319Y260016D01*
D02*
G37*
G36*
X107927Y248332D02*
X105433D01*
X103128Y247377D01*
X101365Y245614D01*
X100410Y243309D01*
Y240815D01*
X101365Y238510D01*
X103128Y236747D01*
X105433Y235792D01*
X107927D01*
X110232Y236747D01*
X111995Y238510D01*
X112950Y240815D01*
Y243309D01*
X111995Y245614D01*
X110232Y247377D01*
X107927Y248332D01*
D02*
G37*
G36*
X380016Y244092D02*
X370508D01*
Y234584D01*
X371319D01*
X373866Y235267D01*
X376150Y236585D01*
X378015Y238450D01*
X379333Y240734D01*
X380016Y243281D01*
Y244092D01*
D02*
G37*
G36*
X369492D02*
X359984D01*
Y243281D01*
X360667Y240734D01*
X361985Y238450D01*
X363850Y236585D01*
X366134Y235267D01*
X368681Y234584D01*
X369492D01*
Y244092D01*
D02*
G37*
G36*
X345919Y254616D02*
X343281D01*
X340734Y253933D01*
X338450Y252615D01*
X336585Y250750D01*
X335267Y248466D01*
X334584Y245919D01*
Y243281D01*
X335267Y240734D01*
X336585Y238450D01*
X338450Y236585D01*
X340734Y235267D01*
X343281Y234584D01*
X345919D01*
X348466Y235267D01*
X350750Y236585D01*
X352615Y238450D01*
X353933Y240734D01*
X354616Y243281D01*
Y245919D01*
X353933Y248466D01*
X352615Y250750D01*
X350750Y252615D01*
X348466Y253933D01*
X345919Y254616D01*
D02*
G37*
G36*
X173459Y245284D02*
X170965D01*
X168660Y244329D01*
X166897Y242566D01*
X165942Y240261D01*
Y237767D01*
X166897Y235462D01*
X168660Y233699D01*
X170965Y232744D01*
X173459D01*
X175764Y233699D01*
X177527Y235462D01*
X178482Y237767D01*
Y240261D01*
X177527Y242566D01*
X175764Y244329D01*
X173459Y245284D01*
D02*
G37*
G36*
X43266Y232866D02*
X26734D01*
Y216334D01*
X43266D01*
Y232866D01*
D02*
G37*
G36*
X207660Y228101D02*
X205166D01*
X202861Y227146D01*
X201098Y225383D01*
X200143Y223078D01*
Y220584D01*
X201098Y218279D01*
X202861Y216516D01*
X205166Y215561D01*
X207660D01*
X209965Y216516D01*
X211728Y218279D01*
X212683Y220584D01*
Y223078D01*
X211728Y225383D01*
X209965Y227146D01*
X207660Y228101D01*
D02*
G37*
G36*
X267947Y213534D02*
X265453D01*
X263148Y212579D01*
X261385Y210816D01*
X260430Y208511D01*
Y206017D01*
X261385Y203712D01*
X263148Y201949D01*
X265453Y200994D01*
X267947D01*
X270252Y201949D01*
X272015Y203712D01*
X272970Y206017D01*
Y208511D01*
X272015Y210816D01*
X270252Y212579D01*
X267947Y213534D01*
D02*
G37*
G36*
X286743Y212010D02*
X284249D01*
X281944Y211055D01*
X280181Y209292D01*
X279226Y206987D01*
Y204493D01*
X280181Y202188D01*
X281944Y200425D01*
X284249Y199470D01*
X286743D01*
X289048Y200425D01*
X290811Y202188D01*
X291766Y204493D01*
Y206987D01*
X290811Y209292D01*
X289048Y211055D01*
X286743Y212010D01*
D02*
G37*
G36*
X232895Y187372D02*
X230401D01*
X228096Y186417D01*
X226333Y184654D01*
X225378Y182349D01*
Y179855D01*
X226333Y177550D01*
X228096Y175787D01*
X230401Y174832D01*
X232895D01*
X235200Y175787D01*
X236963Y177550D01*
X237918Y179855D01*
Y182349D01*
X236963Y184654D01*
X235200Y186417D01*
X232895Y187372D01*
D02*
G37*
G36*
X202207Y185270D02*
X199713D01*
X197408Y184315D01*
X195645Y182552D01*
X194690Y180247D01*
Y177753D01*
X195645Y175448D01*
X197408Y173685D01*
X199713Y172730D01*
X202207D01*
X204512Y173685D01*
X206276Y175448D01*
X207230Y177753D01*
Y180247D01*
X206276Y182552D01*
X204512Y184315D01*
X202207Y185270D01*
D02*
G37*
G36*
X147247Y177270D02*
X144753D01*
X142448Y176315D01*
X140685Y174552D01*
X139730Y172247D01*
Y169753D01*
X140685Y167448D01*
X142448Y165685D01*
X144753Y164730D01*
X147247D01*
X149552Y165685D01*
X151315Y167448D01*
X152270Y169753D01*
Y172247D01*
X151315Y174552D01*
X149552Y176315D01*
X147247Y177270D01*
D02*
G37*
G36*
X54247Y175270D02*
X51753D01*
X49448Y174315D01*
X47685Y172552D01*
X46730Y170247D01*
Y167753D01*
X47685Y165448D01*
X49448Y163685D01*
X51753Y162730D01*
X54247D01*
X56552Y163685D01*
X58315Y165448D01*
X59270Y167753D01*
Y170247D01*
X58315Y172552D01*
X56552Y174315D01*
X54247Y175270D01*
D02*
G37*
G36*
X43319Y161416D02*
X42508D01*
Y151908D01*
X52016D01*
Y152719D01*
X51333Y155266D01*
X50015Y157550D01*
X48150Y159415D01*
X45866Y160733D01*
X43319Y161416D01*
D02*
G37*
G36*
X41492D02*
X40681D01*
X38134Y160733D01*
X35850Y159415D01*
X33985Y157550D01*
X32667Y155266D01*
X31984Y152719D01*
Y151908D01*
X41492D01*
Y161416D01*
D02*
G37*
G36*
X257279Y162988D02*
X254785D01*
X252480Y162033D01*
X250717Y160270D01*
X249762Y157965D01*
Y155471D01*
X250717Y153166D01*
X252480Y151403D01*
X254785Y150448D01*
X257279D01*
X259584Y151403D01*
X261347Y153166D01*
X262302Y155471D01*
Y157965D01*
X261347Y160270D01*
X259584Y162033D01*
X257279Y162988D01*
D02*
G37*
G36*
X335257Y157908D02*
X332763D01*
X330458Y156953D01*
X328695Y155190D01*
X327740Y152885D01*
Y150391D01*
X328695Y148086D01*
X330458Y146323D01*
X332763Y145368D01*
X335257D01*
X337562Y146323D01*
X339325Y148086D01*
X340280Y150391D01*
Y152885D01*
X339325Y155190D01*
X337562Y156953D01*
X335257Y157908D01*
D02*
G37*
G36*
X52016Y150892D02*
X42508D01*
Y141384D01*
X43319D01*
X45866Y142067D01*
X48150Y143385D01*
X50015Y145250D01*
X51333Y147534D01*
X52016Y150081D01*
Y150892D01*
D02*
G37*
G36*
X41492D02*
X31984D01*
Y150081D01*
X32667Y147534D01*
X33985Y145250D01*
X35850Y143385D01*
X38134Y142067D01*
X40681Y141384D01*
X41492D01*
Y150892D01*
D02*
G37*
G36*
X309857Y152066D02*
X307363D01*
X305058Y151111D01*
X303295Y149348D01*
X302340Y147043D01*
Y144549D01*
X303295Y142244D01*
X305058Y140481D01*
X307363Y139526D01*
X309857D01*
X312162Y140481D01*
X313925Y142244D01*
X314880Y144549D01*
Y147043D01*
X313925Y149348D01*
X312162Y151111D01*
X309857Y152066D01*
D02*
G37*
G36*
X171247Y156270D02*
X168753D01*
X166448Y155315D01*
X164685Y153552D01*
X163730Y151247D01*
Y148753D01*
X164685Y146448D01*
X166448Y144685D01*
X167679Y144175D01*
Y142551D01*
X166882Y142221D01*
X165119Y140458D01*
X164164Y138153D01*
Y135659D01*
X165119Y133354D01*
X166882Y131591D01*
X169187Y130636D01*
X171681D01*
X173986Y131591D01*
X175749Y133354D01*
X176704Y135659D01*
Y138153D01*
X175749Y140458D01*
X173986Y142221D01*
X172755Y142731D01*
Y144355D01*
X173552Y144685D01*
X175315Y146448D01*
X176270Y148753D01*
Y151247D01*
X175315Y153552D01*
X173552Y155315D01*
X171247Y156270D01*
D02*
G37*
G36*
X361421Y146391D02*
X359080D01*
X356818Y145785D01*
X354791Y144615D01*
X353135Y142959D01*
X351965Y140932D01*
X351359Y138671D01*
Y136329D01*
X351965Y134068D01*
X353135Y132041D01*
X354791Y130385D01*
X356818Y129215D01*
X359080Y128609D01*
X361421D01*
X363682Y129215D01*
X365709Y130385D01*
X367365Y132041D01*
X368535Y134068D01*
X369141Y136329D01*
Y138671D01*
X368535Y140932D01*
X367365Y142959D01*
X365709Y144615D01*
X363682Y145785D01*
X361421Y146391D01*
D02*
G37*
G36*
X271247Y134620D02*
X268753D01*
X266448Y133665D01*
X264685Y131902D01*
X263730Y129597D01*
Y127103D01*
X264685Y124798D01*
X266448Y123035D01*
X268753Y122080D01*
X271247D01*
X273552Y123035D01*
X275315Y124798D01*
X276270Y127103D01*
Y129597D01*
X275315Y131902D01*
X273552Y133665D01*
X271247Y134620D01*
D02*
G37*
G36*
X43319Y136016D02*
X40681D01*
X38134Y135333D01*
X35850Y134015D01*
X33985Y132150D01*
X32667Y129866D01*
X31984Y127319D01*
Y124681D01*
X32667Y122134D01*
X33985Y119850D01*
X35850Y117985D01*
X38134Y116667D01*
X40681Y115984D01*
X43319D01*
X45866Y116667D01*
X48150Y117985D01*
X50015Y119850D01*
X51333Y122134D01*
X52016Y124681D01*
Y127319D01*
X51333Y129866D01*
X50015Y132150D01*
X48150Y134015D01*
X45866Y135333D01*
X43319Y136016D01*
D02*
G37*
G36*
X361569Y122516D02*
X358931D01*
X356384Y121833D01*
X354100Y120515D01*
X352235Y118650D01*
X350917Y116366D01*
X350234Y113819D01*
Y111181D01*
X350917Y108634D01*
X352235Y106350D01*
X354100Y104485D01*
X356384Y103167D01*
X358931Y102484D01*
X361569D01*
X364116Y103167D01*
X366400Y104485D01*
X368265Y106350D01*
X369583Y108634D01*
X370266Y111181D01*
Y113819D01*
X369583Y116366D01*
X368265Y118650D01*
X366400Y120515D01*
X364116Y121833D01*
X361569Y122516D01*
D02*
G37*
G36*
X180438Y113540D02*
X177944D01*
X175639Y112585D01*
X173876Y110822D01*
X172921Y108517D01*
Y106023D01*
X173876Y103718D01*
X175639Y101955D01*
X177944Y101000D01*
X180438D01*
X182743Y101955D01*
X184506Y103718D01*
X185461Y106023D01*
Y108517D01*
X184506Y110822D01*
X182743Y112585D01*
X180438Y113540D01*
D02*
G37*
G36*
X43190Y109641D02*
X40810D01*
X38510Y109025D01*
X36449Y107835D01*
X34765Y106151D01*
X33575Y104090D01*
X32959Y101790D01*
Y99410D01*
X33575Y97110D01*
X34765Y95049D01*
X36449Y93365D01*
X38510Y92175D01*
X40810Y91559D01*
X43190D01*
X45490Y92175D01*
X47551Y93365D01*
X49235Y95049D01*
X50425Y97110D01*
X51041Y99410D01*
Y101790D01*
X50425Y104090D01*
X49235Y106151D01*
X47551Y107835D01*
X45490Y109025D01*
X43190Y109641D01*
D02*
G37*
G36*
X300723Y59182D02*
X298717D01*
X296779Y58663D01*
X295041Y57660D01*
X293622Y56241D01*
X292619Y54503D01*
X292100Y52565D01*
Y50559D01*
X292619Y48621D01*
X293622Y46883D01*
X295041Y45465D01*
X296779Y44461D01*
X298717Y43942D01*
X300723D01*
X302661Y44461D01*
X304399Y45465D01*
X305818Y46883D01*
X306821Y48621D01*
X307340Y50559D01*
Y52565D01*
X306821Y54503D01*
X305818Y56241D01*
X304399Y57660D01*
X302661Y58663D01*
X300723Y59182D01*
D02*
G37*
G36*
X217157Y56896D02*
X215151D01*
X213213Y56377D01*
X211475Y55374D01*
X210056Y53955D01*
X209053Y52217D01*
X208534Y50279D01*
Y48273D01*
X209053Y46335D01*
X210056Y44597D01*
X211475Y43179D01*
X213213Y42175D01*
X215151Y41656D01*
X217157D01*
X219095Y42175D01*
X220833Y43179D01*
X222251Y44597D01*
X223255Y46335D01*
X223774Y48273D01*
Y50279D01*
X223255Y52217D01*
X222251Y53955D01*
X220833Y55374D01*
X219095Y56377D01*
X217157Y56896D01*
D02*
G37*
G36*
X176419Y50016D02*
X175608D01*
Y40508D01*
X185116D01*
Y41319D01*
X184433Y43866D01*
X183115Y46150D01*
X181250Y48015D01*
X178966Y49333D01*
X176419Y50016D01*
D02*
G37*
G36*
X174592D02*
X173781D01*
X171234Y49333D01*
X168950Y48015D01*
X167085Y46150D01*
X165767Y43866D01*
X165084Y41319D01*
Y40508D01*
X174592D01*
Y50016D01*
D02*
G37*
G36*
X107166Y48266D02*
X90634D01*
Y31734D01*
X107166D01*
Y48266D01*
D02*
G37*
G36*
X185116Y39492D02*
X175608D01*
Y29984D01*
X176419D01*
X178966Y30667D01*
X181250Y31985D01*
X183115Y33850D01*
X184433Y36134D01*
X185116Y38681D01*
Y39492D01*
D02*
G37*
G36*
X174592D02*
X165084D01*
Y38681D01*
X165767Y36134D01*
X167085Y33850D01*
X168950Y31985D01*
X171234Y30667D01*
X173781Y29984D01*
X174592D01*
Y39492D01*
D02*
G37*
G36*
X151019Y50016D02*
X148381D01*
X145834Y49333D01*
X143550Y48015D01*
X141685Y46150D01*
X140367Y43866D01*
X139684Y41319D01*
Y38681D01*
X140367Y36134D01*
X141685Y33850D01*
X143550Y31985D01*
X145834Y30667D01*
X148381Y29984D01*
X151019D01*
X153566Y30667D01*
X155850Y31985D01*
X157715Y33850D01*
X159033Y36134D01*
X159716Y38681D01*
Y41319D01*
X159033Y43866D01*
X157715Y46150D01*
X155850Y48015D01*
X153566Y49333D01*
X151019Y50016D01*
D02*
G37*
G36*
X125619D02*
X122981D01*
X120434Y49333D01*
X118150Y48015D01*
X116285Y46150D01*
X114967Y43866D01*
X114284Y41319D01*
Y38681D01*
X114967Y36134D01*
X116285Y33850D01*
X118150Y31985D01*
X120434Y30667D01*
X122981Y29984D01*
X125619D01*
X128166Y30667D01*
X130450Y31985D01*
X132315Y33850D01*
X133633Y36134D01*
X134316Y38681D01*
Y41319D01*
X133633Y43866D01*
X132315Y46150D01*
X130450Y48015D01*
X128166Y49333D01*
X125619Y50016D01*
D02*
G37*
G36*
X361971Y60016D02*
X358029D01*
X354161Y59247D01*
X350519Y57738D01*
X347240Y55547D01*
X344453Y52759D01*
X342262Y49481D01*
X340753Y45838D01*
X339984Y41971D01*
Y38029D01*
X340753Y34162D01*
X342262Y30519D01*
X344453Y27241D01*
X347240Y24453D01*
X350519Y22262D01*
X354161Y20753D01*
X358029Y19984D01*
X361971D01*
X365838Y20753D01*
X369481Y22262D01*
X372760Y24453D01*
X375547Y27241D01*
X377738Y30519D01*
X379247Y34162D01*
X380016Y38029D01*
Y41971D01*
X379247Y45838D01*
X377738Y49481D01*
X375547Y52759D01*
X372760Y55547D01*
X369481Y57738D01*
X365838Y59247D01*
X361971Y60016D01*
D02*
G37*
G36*
X41971D02*
X38029D01*
X34162Y59247D01*
X30519Y57738D01*
X27241Y55547D01*
X24453Y52759D01*
X22262Y49481D01*
X20753Y45838D01*
X19984Y41971D01*
Y38029D01*
X20753Y34162D01*
X22262Y30519D01*
X24453Y27241D01*
X27241Y24453D01*
X30519Y22262D01*
X34162Y20753D01*
X38029Y19984D01*
X41971D01*
X45838Y20753D01*
X49481Y22262D01*
X52759Y24453D01*
X55547Y27241D01*
X57738Y30519D01*
X59247Y34162D01*
X60016Y38029D01*
Y41971D01*
X59247Y45838D01*
X57738Y49481D01*
X55547Y52759D01*
X52759Y55547D01*
X49481Y57738D01*
X45838Y59247D01*
X41971Y60016D01*
D02*
G37*
%LPD*%
D25*
X344600Y270000D02*
D03*
X370000Y295400D02*
D03*
X344600D02*
D03*
X370000Y270000D02*
D03*
Y244600D02*
D03*
X344600D02*
D03*
X212700Y360000D02*
D03*
X238100D02*
D03*
X263500D02*
D03*
X187300D02*
D03*
X161900D02*
D03*
X136500D02*
D03*
X124300Y40000D02*
D03*
X149700D02*
D03*
X175100D02*
D03*
X35000Y300800D02*
D03*
Y275400D02*
D03*
Y250000D02*
D03*
X42000Y151400D02*
D03*
Y126000D02*
D03*
X360250Y112500D02*
D03*
D26*
X98900Y40000D02*
D03*
D27*
X35000Y224600D02*
D03*
D31*
X360000Y40000D02*
D03*
X40000D02*
D03*
Y360000D02*
D03*
X360000D02*
D03*
D32*
X299720Y51562D02*
D03*
X281178Y49784D02*
D03*
X216154Y49276D02*
D03*
D35*
X270000Y128350D02*
D03*
X308610Y145796D02*
D03*
X334010Y151638D02*
D03*
X170434Y136906D02*
D03*
X146000Y171000D02*
D03*
X108966Y312420D02*
D03*
X108000Y300000D02*
D03*
X106680Y242062D02*
D03*
X96520Y227584D02*
D03*
X247142Y181540D02*
D03*
X266700Y207264D02*
D03*
X231648Y181102D02*
D03*
X335280Y230378D02*
D03*
X379476Y182118D02*
D03*
X256032Y156718D02*
D03*
X202692Y165354D02*
D03*
X170000Y150000D02*
D03*
X238252Y108712D02*
D03*
X283000Y182000D02*
D03*
X107188Y334518D02*
D03*
X109982Y277114D02*
D03*
X73516Y274648D02*
D03*
X108751Y265000D02*
D03*
X172212Y239014D02*
D03*
X253238Y98298D02*
D03*
X201422Y151130D02*
D03*
X206756Y196230D02*
D03*
X218694Y180848D02*
D03*
X285496Y205740D02*
D03*
X292862Y194310D02*
D03*
X200960Y179000D02*
D03*
X206413Y221831D02*
D03*
X179191Y107270D02*
D03*
X333000Y318000D02*
D03*
X155000Y311000D02*
D03*
X53000Y169000D02*
D03*
X109000Y347000D02*
D03*
X112000Y168000D02*
D03*
D36*
X42000Y100600D02*
D03*
D37*
X360250Y137500D02*
D03*
M02*
