G04*
G04 #@! TF.GenerationSoftware,Altium Limited,Altium Designer,25.5.2 (35)*
G04*
G04 Layer_Color=128*
%FSLAX44Y44*%
%MOMM*%
G71*
G04*
G04 #@! TF.SameCoordinates,BC121CA0-E7C5-409D-9B46-04158C32EFF5*
G04*
G04*
G04 #@! TF.FilePolarity,Positive*
G04*
G01*
G75*
%ADD18R,1.2000X1.6500*%
%ADD38R,1.6000X1.2000*%
%ADD39R,1.2000X1.6000*%
%ADD40R,1.6000X1.1500*%
%ADD41R,1.6500X1.2000*%
%ADD42R,1.1500X1.6000*%
%ADD43R,1.5000X1.7500*%
D18*
X309326Y213106D02*
D03*
X74000Y187000D02*
D03*
X100000D02*
D03*
X335326Y213106D02*
D03*
D38*
X334000Y136500D02*
D03*
Y117500D02*
D03*
X314428Y247778D02*
D03*
Y266778D02*
D03*
X313182Y312776D02*
D03*
Y293776D02*
D03*
D39*
X271932Y32004D02*
D03*
X290932D02*
D03*
X361761Y207720D02*
D03*
X380761D02*
D03*
X347000Y323000D02*
D03*
X366000D02*
D03*
D40*
X173000Y301500D02*
D03*
Y282000D02*
D03*
X128000Y314250D02*
D03*
Y245000D02*
D03*
Y264500D02*
D03*
Y333750D02*
D03*
D41*
X383000Y112000D02*
D03*
X247000Y34000D02*
D03*
X254000Y140000D02*
D03*
X188000Y130000D02*
D03*
X274000Y220000D02*
D03*
X248000D02*
D03*
X222500D02*
D03*
Y194000D02*
D03*
X248000D02*
D03*
X247000Y60000D02*
D03*
X274000Y194000D02*
D03*
X188000Y156000D02*
D03*
X254000Y114000D02*
D03*
X383000Y138000D02*
D03*
D42*
X159500Y256000D02*
D03*
X179500Y330000D02*
D03*
X84750Y324000D02*
D03*
X65250D02*
D03*
X379000Y164000D02*
D03*
X144500Y289000D02*
D03*
X64500Y252000D02*
D03*
X84000D02*
D03*
X125000Y289000D02*
D03*
X179000Y256000D02*
D03*
X160000Y330000D02*
D03*
X64500Y288000D02*
D03*
X84000D02*
D03*
X359500Y164000D02*
D03*
D43*
X151000Y187000D02*
D03*
X125000D02*
D03*
M02*
