G04*
G04 #@! TF.GenerationSoftware,Altium Limited,Altium Designer,25.5.2 (35)*
G04*
G04 Layer_Physical_Order=4*
G04 Layer_Color=16711680*
%FSLAX44Y44*%
%MOMM*%
G71*
G04*
G04 #@! TF.SameCoordinates,BC121CA0-E7C5-409D-9B46-04158C32EFF5*
G04*
G04*
G04 #@! TF.FilePolarity,Positive*
G04*
G01*
G75*
%ADD11C,0.5080*%
%ADD12C,0.2000*%
%ADD16C,0.2540*%
%ADD18R,1.2000X1.6500*%
%ADD25C,1.8000*%
%ADD26R,1.4500X1.4500*%
%ADD27R,1.4500X1.4500*%
%ADD30R,1.5750X1.5750*%
%ADD31C,3.8000*%
%ADD32C,1.2700*%
%ADD34R,1.6050X1.6050*%
%ADD35C,1.0000*%
%ADD38R,1.6000X1.2000*%
%ADD39R,1.2000X1.6000*%
%ADD40R,1.6000X1.1500*%
%ADD41R,1.6500X1.2000*%
%ADD42R,1.1500X1.6000*%
%ADD43R,1.5000X1.7500*%
D11*
X290932Y32004D02*
X291084Y32156D01*
Y42926D01*
X299720Y51562D01*
X327694Y312776D02*
X332918Y318000D01*
X313182Y312776D02*
X327694D01*
X332918Y318000D02*
X333000D01*
X247000Y60000D02*
X247310Y59690D01*
X260858D01*
X269393Y51155D01*
X279807D01*
X281178Y49784D01*
X256250Y140000D02*
X266959Y129291D01*
X254000Y140000D02*
X256250D01*
X266959Y129291D02*
X269059D01*
X270000Y128350D01*
X334010Y136510D02*
Y151638D01*
X187794Y129794D02*
X188000Y130000D01*
X177038Y129794D02*
X187794D01*
X170434Y136398D02*
X177038Y129794D01*
X170434Y136398D02*
Y136906D01*
X151000Y187000D02*
X152146Y185854D01*
Y174172D02*
Y185854D01*
X149170Y171196D02*
X152146Y174172D01*
X146196Y171196D02*
X149170D01*
X146000Y171000D02*
X146196Y171196D01*
X100000Y172034D02*
Y187000D01*
X104034Y168000D02*
X121010D01*
X100000Y172034D02*
X104034Y168000D01*
X125000Y171990D02*
Y187000D01*
X121010Y168000D02*
X125000Y171990D01*
X127085Y313335D02*
X127948Y314198D01*
X109881Y313335D02*
X127085D01*
X108966Y312420D02*
X109881Y313335D01*
X339000Y213000D02*
Y214913D01*
X335326Y218587D02*
X339000Y214913D01*
X127948Y314198D02*
X139700D01*
X128000Y233156D02*
Y245000D01*
X122428Y227584D02*
X128000Y233156D01*
X96520Y227584D02*
X122428D01*
X139700Y314198D02*
X144500Y309398D01*
Y289000D02*
Y309398D01*
X314960Y248310D02*
X337394D01*
X341104Y244600D01*
X344600D01*
X362000Y227200D01*
X247142Y181540D02*
Y193142D01*
X335326Y218587D02*
Y218707D01*
Y217645D02*
Y218587D01*
Y213106D02*
Y217645D01*
X335205Y218707D02*
X335326Y218587D01*
X253928Y207264D02*
X266700D01*
X248666Y212526D02*
X253928Y207264D01*
X248666Y212526D02*
Y219334D01*
X248000Y220000D02*
X248666Y219334D01*
X335280Y230378D02*
X335303Y230355D01*
Y218730D02*
X335326Y218707D01*
X335303Y218730D02*
Y230355D01*
X335326Y217645D02*
X335557Y217876D01*
X362000Y213000D02*
Y227200D01*
X379000Y164000D02*
X379238Y164238D01*
Y181880D02*
X379476Y182118D01*
X379238Y164238D02*
Y181880D01*
X187706Y156294D02*
Y164084D01*
X188976Y165354D01*
X202692D01*
X35000Y300800D02*
X37472Y303272D01*
X35000Y210364D02*
Y224600D01*
Y210364D02*
X56806Y188558D01*
X72442D02*
X74000Y187000D01*
X56806Y188558D02*
X72442D01*
X253238Y98298D02*
Y113238D01*
X222500Y185715D02*
Y194000D01*
X218694Y181909D02*
X222500Y185715D01*
X277729Y207271D02*
X283965D01*
X274000Y211000D02*
X277729Y207271D01*
X274310Y194310D02*
X292862D01*
X208600Y220726D02*
X221774D01*
X274000Y211000D02*
Y220000D01*
X338000Y323000D02*
X347000D01*
X333000Y318000D02*
X338000Y323000D01*
D12*
X269235Y129115D02*
Y129765D01*
Y129115D02*
X270000Y128350D01*
X366000Y323000D02*
X370000Y319000D01*
X178948Y329448D02*
X179500Y330000D01*
X109000Y347000D02*
X109765Y346235D01*
X105664Y336042D02*
X107188Y334518D01*
X238888Y106806D02*
X241082Y109000D01*
X124798Y288798D02*
X125000Y289000D01*
X309326Y209326D02*
Y213106D01*
X247142Y193142D02*
X248000Y194000D01*
X212698Y359998D02*
X212848Y359848D01*
X314428Y266778D02*
X314960Y267310D01*
X334000Y136500D02*
X334010Y136510D01*
X187706Y156294D02*
X188000Y156000D01*
X201161Y163823D02*
X202692Y165354D01*
X70886Y192364D02*
X74000Y189250D01*
X238888Y106552D02*
Y106806D01*
X107817Y277114D02*
X109982D01*
X127500Y265000D02*
X128000Y264500D01*
X172212Y239014D02*
X172410Y239212D01*
X253238Y113238D02*
X254000Y114000D01*
X218694Y180848D02*
Y181909D01*
X283965Y207271D02*
X285496Y205740D01*
X274000Y194000D02*
X274310Y194310D01*
X200960Y179000D02*
X201000D01*
X206413Y221831D02*
X207495D01*
X208600Y220726D01*
X221774D02*
X222500Y220000D01*
X382500Y112500D02*
X383000Y112000D01*
X178921Y107000D02*
X179191Y107270D01*
X155765Y311765D02*
X159515D01*
X155000Y311000D02*
X155765Y311765D01*
X74000Y187000D02*
Y189250D01*
D16*
X269936Y34000D02*
X271932Y32004D01*
X247000Y34000D02*
X269936D01*
X342976Y293776D02*
X344600Y295400D01*
X313182Y293776D02*
X342976D01*
X227410Y49276D02*
X227918Y49784D01*
X216154Y49276D02*
X227410D01*
X227918Y49784D02*
Y67611D01*
X213000Y86961D02*
X227918Y67611D01*
Y39798D02*
Y49784D01*
X213000Y86961D02*
Y167000D01*
X246782Y33782D02*
X247000Y34000D01*
X233934Y33782D02*
X246782D01*
X227918Y39798D02*
X233934Y33782D01*
X308610Y145796D02*
X339101Y176287D01*
X354370D02*
X380761Y202678D01*
Y212761D01*
X366000Y303584D02*
X370000Y299583D01*
Y295400D02*
Y299583D01*
X366000Y303584D02*
Y323000D01*
X159515Y311765D02*
X166266Y318516D01*
X177292D02*
X178948Y320172D01*
Y329448D01*
X166266Y318516D02*
X177292D01*
X128000Y333750D02*
X156250D01*
X160000Y330000D01*
X123157Y346235D02*
X128000Y341392D01*
Y333750D02*
Y341392D01*
X109765Y346235D02*
X123157D01*
X85922Y336042D02*
X105664D01*
X84750Y334870D02*
X85922Y336042D01*
X84750Y324000D02*
Y334870D01*
X108000Y291833D02*
Y300000D01*
Y291833D02*
X111035Y288798D01*
X124798D01*
X96931Y288000D02*
X107817Y277114D01*
X84000Y288000D02*
X96931D01*
X35000Y250000D02*
X48832D01*
X50832Y252000D01*
X64500D01*
X106680Y242062D02*
Y250190D01*
X104870Y252000D02*
X106680Y250190D01*
X84000Y252000D02*
X104870D01*
X135836Y278488D02*
Y286914D01*
Y278488D02*
X137324Y277000D01*
X156350D01*
X162054Y301500D02*
X173000D01*
X159004Y298450D02*
X162054Y301500D01*
X159004Y279654D02*
Y298450D01*
X156350Y277000D02*
X159004Y279654D01*
X147574Y267716D02*
X177828D01*
X144358Y264500D02*
X147574Y267716D01*
X128000Y264500D02*
X144358D01*
X177828Y267716D02*
X179000Y266544D01*
Y256000D02*
Y266544D01*
X173000Y282000D02*
X175250D01*
X184598D02*
X187960Y278638D01*
Y245960D02*
Y278638D01*
X175250Y282000D02*
X184598D01*
X173000D02*
X175250D01*
X181212Y239212D02*
X187960Y245960D01*
X170000Y150000D02*
Y218514D01*
X212848Y261362D02*
Y359848D01*
X170000Y218514D02*
X212848Y261362D01*
X309214Y213218D02*
X309326Y213106D01*
X309214Y213218D02*
Y223678D01*
X303000Y229892D02*
X309214Y223678D01*
X303000Y229892D02*
Y264646D01*
X309326Y195534D02*
Y209326D01*
X286258Y172466D02*
X309326Y195534D01*
X240284Y172466D02*
X286258D01*
X231648Y181102D02*
X240284Y172466D01*
X303000Y264646D02*
X305132Y266778D01*
X314428D01*
X341910Y267310D02*
X344600Y270000D01*
X314960Y267310D02*
X341910D01*
X370000Y270000D02*
X382524Y257476D01*
X380761Y212761D02*
X382524Y214524D01*
Y257476D01*
X339101Y176287D02*
X354370D01*
X360250Y137500D02*
Y163250D01*
X359500Y164000D02*
X360250Y163250D01*
X360750Y138000D02*
X383000D01*
X360250Y137500D02*
X360750Y138000D01*
X351067Y117500D02*
X356067Y112500D01*
X360250D01*
X334000Y117500D02*
X351067D01*
X323444D02*
X334000D01*
X284322Y156622D02*
X323444Y117500D01*
X256129Y156622D02*
X284322D01*
X256032Y156718D02*
X256129Y156622D01*
X44854Y324000D02*
X65250D01*
X37472Y316618D02*
X44854Y324000D01*
X37472Y303272D02*
Y316618D01*
X35000Y275400D02*
X47600Y288000D01*
X64500D01*
X108751Y265000D02*
X127500D01*
X172410Y239212D02*
X181212D01*
X159500Y199500D02*
Y256000D01*
Y199500D02*
X161730Y197270D01*
X201000Y179000D02*
X213000Y167000D01*
X360250Y112500D02*
X382500D01*
X161730Y117270D02*
X172000Y107000D01*
X161730Y117270D02*
Y197270D01*
X172000Y107000D02*
X178921D01*
X133750Y289000D02*
X135836Y286914D01*
X125000Y289000D02*
X133750D01*
D18*
X309326Y213106D02*
D03*
X74000Y187000D02*
D03*
X100000D02*
D03*
X335326Y213106D02*
D03*
D25*
X344600Y270000D02*
D03*
X370000Y295400D02*
D03*
X344600D02*
D03*
X370000Y270000D02*
D03*
Y244600D02*
D03*
X344600D02*
D03*
X212700Y360000D02*
D03*
X238100D02*
D03*
X263500D02*
D03*
X187300D02*
D03*
X161900D02*
D03*
X136500D02*
D03*
X124300Y40000D02*
D03*
X149700D02*
D03*
X175100D02*
D03*
X35000Y300800D02*
D03*
Y275400D02*
D03*
Y250000D02*
D03*
X42000Y151400D02*
D03*
Y126000D02*
D03*
X360250Y112500D02*
D03*
D26*
X98900Y40000D02*
D03*
D27*
X35000Y224600D02*
D03*
D30*
X360250Y137500D02*
D03*
D31*
X360000Y40000D02*
D03*
X40000D02*
D03*
Y360000D02*
D03*
X360000D02*
D03*
D32*
X299720Y51562D02*
D03*
X281178Y49784D02*
D03*
X216154Y49276D02*
D03*
D34*
X42000Y100600D02*
D03*
D35*
X270000Y128350D02*
D03*
X308610Y145796D02*
D03*
X334010Y151638D02*
D03*
X170434Y136906D02*
D03*
X146000Y171000D02*
D03*
X108966Y312420D02*
D03*
X108000Y300000D02*
D03*
X106680Y242062D02*
D03*
X96520Y227584D02*
D03*
X247142Y181540D02*
D03*
X266700Y207264D02*
D03*
X231648Y181102D02*
D03*
X335280Y230378D02*
D03*
X379476Y182118D02*
D03*
X256032Y156718D02*
D03*
X202692Y165354D02*
D03*
X170000Y150000D02*
D03*
X238252Y108712D02*
D03*
X283000Y182000D02*
D03*
X107188Y334518D02*
D03*
X109982Y277114D02*
D03*
X73516Y274648D02*
D03*
X108751Y265000D02*
D03*
X172212Y239014D02*
D03*
X253238Y98298D02*
D03*
X201422Y151130D02*
D03*
X206756Y196230D02*
D03*
X218694Y180848D02*
D03*
X285496Y205740D02*
D03*
X292862Y194310D02*
D03*
X200960Y179000D02*
D03*
X206413Y221831D02*
D03*
X179191Y107270D02*
D03*
X333000Y318000D02*
D03*
X155000Y311000D02*
D03*
X53000Y169000D02*
D03*
X109000Y347000D02*
D03*
X112000Y168000D02*
D03*
D38*
X334000Y136500D02*
D03*
Y117500D02*
D03*
X314428Y247778D02*
D03*
Y266778D02*
D03*
X313182Y312776D02*
D03*
Y293776D02*
D03*
D39*
X271932Y32004D02*
D03*
X290932D02*
D03*
X361761Y207720D02*
D03*
X380761D02*
D03*
X347000Y323000D02*
D03*
X366000D02*
D03*
D40*
X173000Y301500D02*
D03*
Y282000D02*
D03*
X128000Y314250D02*
D03*
Y245000D02*
D03*
Y264500D02*
D03*
Y333750D02*
D03*
D41*
X383000Y112000D02*
D03*
X247000Y34000D02*
D03*
X254000Y140000D02*
D03*
X188000Y130000D02*
D03*
X274000Y220000D02*
D03*
X248000D02*
D03*
X222500D02*
D03*
Y194000D02*
D03*
X248000D02*
D03*
X247000Y60000D02*
D03*
X274000Y194000D02*
D03*
X188000Y156000D02*
D03*
X254000Y114000D02*
D03*
X383000Y138000D02*
D03*
D42*
X159500Y256000D02*
D03*
X179500Y330000D02*
D03*
X84750Y324000D02*
D03*
X65250D02*
D03*
X379000Y164000D02*
D03*
X144500Y289000D02*
D03*
X64500Y252000D02*
D03*
X84000D02*
D03*
X125000Y289000D02*
D03*
X179000Y256000D02*
D03*
X160000Y330000D02*
D03*
X64500Y288000D02*
D03*
X84000D02*
D03*
X359500Y164000D02*
D03*
D43*
X151000Y187000D02*
D03*
X125000D02*
D03*
M02*
