G04*
G04 #@! TF.GenerationSoftware,Altium Limited,Altium Designer,22.9.1 (49)*
G04*
G04 Layer_Color=32896*
%FSLAX25Y25*%
%MOIN*%
G70*
G04*
G04 #@! TF.SameCoordinates,A1EC2913-06BD-4919-8A85-AC871236DD0E*
G04*
G04*
G04 #@! TF.FilePolarity,Positive*
G04*
G01*
G75*
%ADD10C,0.00600*%
%ADD11C,0.00787*%
%ADD12C,0.02000*%
%ADD13C,0.00984*%
%ADD14C,0.00394*%
%ADD15C,0.00500*%
%ADD16C,0.00300*%
%ADD17C,0.01000*%
%ADD18C,0.01968*%
G36*
X43600Y53794D02*
X43640Y53788D01*
X43653Y53784D01*
X43681Y53776D01*
X43708Y53769D01*
X43725Y53766D01*
X43766Y53761D01*
X43793Y53754D01*
X43816Y53748D01*
X43833Y53741D01*
X43856Y53734D01*
X43896Y53728D01*
X43915Y53723D01*
X43948Y53709D01*
X44000Y53698D01*
X44013Y53694D01*
X44052Y53676D01*
X44065Y53672D01*
X44087Y53667D01*
X44100Y53664D01*
X44148Y53642D01*
X44162Y53639D01*
X44183Y53634D01*
X44207Y53624D01*
X44214Y53621D01*
X44219Y53616D01*
X44240Y53607D01*
X44267Y53601D01*
X44290Y53591D01*
X44297Y53587D01*
X44302Y53582D01*
X44329Y53572D01*
X44350Y53567D01*
X44387Y53544D01*
X44400Y53541D01*
X44437Y53524D01*
X44455Y53512D01*
X44474Y53507D01*
X44491Y53501D01*
X44495Y53496D01*
X44515Y53482D01*
X44547Y53471D01*
X44567Y53457D01*
X44579Y53449D01*
X44611Y53437D01*
X44622Y53426D01*
X44669Y53402D01*
X44687Y53387D01*
X44721Y53374D01*
X44734Y53360D01*
X44741Y53357D01*
X44746Y53352D01*
X44767Y53344D01*
X44781Y53330D01*
X44824Y53307D01*
X44834Y53297D01*
X44864Y53280D01*
X44872Y53272D01*
X44891Y53257D01*
X44898Y53254D01*
X44923Y53239D01*
X44926Y53232D01*
X44951Y53217D01*
X44958Y53214D01*
X44974Y53197D01*
X44998Y53184D01*
X45018Y53164D01*
X45041Y53150D01*
X45058Y53134D01*
X45081Y53120D01*
X45096Y53105D01*
X45114Y53090D01*
X45121Y53087D01*
X45129Y53075D01*
X45148Y53060D01*
X45155Y53057D01*
X45166Y53045D01*
X45169Y53039D01*
X45175Y53037D01*
X45181Y53030D01*
X45188Y53027D01*
X45211Y53004D01*
X45218Y53000D01*
X45248Y52970D01*
X45255Y52967D01*
X45291Y52930D01*
X45298Y52927D01*
X45320Y52905D01*
X45340Y52888D01*
X45343Y52882D01*
X45383Y52842D01*
X45386Y52835D01*
X45440Y52782D01*
X45443Y52775D01*
X45453Y52765D01*
X45456Y52758D01*
X45483Y52732D01*
X45487Y52725D01*
X45507Y52705D01*
X45516Y52688D01*
X45525Y52680D01*
X45531Y52676D01*
X45543Y52662D01*
X45547Y52655D01*
X45567Y52635D01*
X45577Y52618D01*
X45592Y52603D01*
X45613Y52571D01*
X45617Y52565D01*
X45633Y52548D01*
X45652Y52520D01*
X45663Y52511D01*
X45680Y52481D01*
X45693Y52468D01*
X45710Y52438D01*
X45727Y52421D01*
X45743Y52391D01*
X45757Y52378D01*
X45777Y52341D01*
X45780Y52334D01*
X45790Y52324D01*
X45800Y52308D01*
X45807Y52291D01*
X45820Y52278D01*
X45843Y52234D01*
X45847Y52228D01*
X45857Y52218D01*
X45860Y52211D01*
X45867Y52194D01*
X45875Y52176D01*
X45892Y52156D01*
X45904Y52124D01*
X45914Y52114D01*
X45917Y52108D01*
X45922Y52103D01*
X45930Y52081D01*
X45934Y52068D01*
X45947Y52047D01*
X45955Y52036D01*
X45964Y52014D01*
X45970Y51997D01*
X45977Y51991D01*
X45989Y51972D01*
X45994Y51951D01*
X46004Y51927D01*
X46007Y51921D01*
X46015Y51912D01*
X46024Y51891D01*
X46027Y51877D01*
X46035Y51856D01*
X46052Y51829D01*
X46055Y51816D01*
X46060Y51794D01*
X46082Y51752D01*
X46089Y51736D01*
X46092Y51719D01*
X46097Y51697D01*
X46112Y51672D01*
X46121Y51650D01*
X46124Y51627D01*
X46127Y51614D01*
X46145Y51579D01*
X46149Y51565D01*
X46157Y51527D01*
X46161Y51514D01*
X46176Y51479D01*
X46179Y51465D01*
X46186Y51429D01*
X46191Y51407D01*
X46194Y51394D01*
X46206Y51365D01*
X46209Y51352D01*
X46214Y51330D01*
X46217Y51317D01*
X46221Y51283D01*
X46227Y51257D01*
X46239Y51218D01*
X46242Y51205D01*
X46246Y51188D01*
X46251Y51150D01*
X46256Y51105D01*
X46262Y51072D01*
X46269Y51045D01*
X46276Y51001D01*
X46286Y50871D01*
X46291Y50796D01*
X46294Y50786D01*
X46297Y50733D01*
X46301Y50723D01*
X46304Y50509D01*
X46299Y50411D01*
X46296Y50381D01*
X46292Y50344D01*
X46289Y50297D01*
X46286Y50261D01*
X46281Y50179D01*
X46276Y50134D01*
X46272Y50114D01*
X46269Y50097D01*
X46262Y50070D01*
X46256Y50030D01*
X46251Y49999D01*
X46247Y49965D01*
X46244Y49942D01*
X46237Y49915D01*
X46229Y49887D01*
X46222Y49860D01*
X46219Y49840D01*
X46214Y49799D01*
X46211Y49785D01*
X46196Y49750D01*
X46192Y49737D01*
X46187Y49712D01*
X46184Y49698D01*
X46181Y49675D01*
X46166Y49640D01*
X46159Y49623D01*
X46156Y49607D01*
X46150Y49575D01*
X46136Y49540D01*
X46126Y49513D01*
X46117Y49475D01*
X46095Y49433D01*
X46092Y49420D01*
X46087Y49398D01*
X46084Y49385D01*
X46074Y49368D01*
X46060Y49345D01*
X46057Y49325D01*
X46044Y49295D01*
X46040Y49288D01*
X46035Y49283D01*
X46027Y49261D01*
X46024Y49248D01*
X46014Y49224D01*
X45997Y49194D01*
X45987Y49161D01*
X45970Y49138D01*
X45965Y49126D01*
X45955Y49099D01*
X45934Y49068D01*
X45930Y49054D01*
X45920Y49031D01*
X45914Y49024D01*
X45900Y49001D01*
X45894Y48984D01*
X45880Y48964D01*
X45867Y48941D01*
X45857Y48917D01*
X45847Y48908D01*
X45834Y48884D01*
X45827Y48867D01*
X45814Y48854D01*
X45803Y48838D01*
X45794Y48814D01*
X45780Y48801D01*
X45763Y48771D01*
X45760Y48764D01*
X45750Y48754D01*
X45733Y48724D01*
X45730Y48717D01*
X45713Y48701D01*
X45700Y48677D01*
X45687Y48664D01*
X45670Y48634D01*
X45657Y48621D01*
X45640Y48597D01*
X45637Y48590D01*
X45620Y48574D01*
X45610Y48557D01*
X45593Y48540D01*
X45577Y48517D01*
X45573Y48510D01*
X45563Y48500D01*
X45540Y48470D01*
X45537Y48464D01*
X45528Y48455D01*
X45522Y48452D01*
X45520Y48447D01*
X45513Y48440D01*
X45510Y48434D01*
X45483Y48407D01*
X45480Y48400D01*
X45458Y48379D01*
X45443Y48360D01*
X45425Y48345D01*
X45411Y48325D01*
X45405Y48322D01*
X45390Y48307D01*
X45386Y48300D01*
X45375Y48289D01*
X45368Y48285D01*
X45360Y48277D01*
X45356Y48270D01*
X45350Y48263D01*
X45330Y48247D01*
X45326Y48240D01*
X45311Y48225D01*
X45305Y48222D01*
X45293Y48210D01*
X45290Y48204D01*
X45281Y48195D01*
X45275Y48192D01*
X45241Y48158D01*
X45235Y48155D01*
X45226Y48147D01*
X45223Y48140D01*
X45208Y48128D01*
X45201Y48125D01*
X45193Y48117D01*
X45189Y48110D01*
X45171Y48095D01*
X45164Y48092D01*
X45145Y48072D01*
X45138Y48068D01*
X45131Y48062D01*
X45125Y48058D01*
X45111Y48045D01*
X45088Y48028D01*
X45081Y48025D01*
X45061Y48005D01*
X45044Y47995D01*
X45024Y47975D01*
X45008Y47965D01*
X44999Y47956D01*
X44981Y47941D01*
X44958Y47928D01*
X44951Y47925D01*
X44938Y47912D01*
X44914Y47898D01*
X44894Y47878D01*
X44864Y47861D01*
X44857Y47858D01*
X44851Y47851D01*
X44821Y47835D01*
X44804Y47818D01*
X44787Y47808D01*
X44764Y47798D01*
X44757Y47791D01*
X44734Y47775D01*
X44721Y47771D01*
X44707Y47758D01*
X44677Y47741D01*
X44664Y47738D01*
X44657Y47731D01*
X44646Y47723D01*
X44599Y47700D01*
X44581Y47685D01*
X44554Y47675D01*
X44537Y47665D01*
X44519Y47653D01*
X44497Y47644D01*
X44480Y47638D01*
X44475Y47633D01*
X44455Y47620D01*
X44437Y47614D01*
X44414Y47605D01*
X44407Y47601D01*
X44399Y47593D01*
X44382Y47586D01*
X44364Y47581D01*
X44345Y47573D01*
X44344Y47571D01*
X44322Y47559D01*
X44305Y47553D01*
X44284Y47548D01*
X44262Y47539D01*
X44235Y47523D01*
X44214Y47518D01*
X44200Y47514D01*
X44162Y47496D01*
X44145Y47489D01*
X44107Y47481D01*
X44083Y47471D01*
X44078Y47466D01*
X44052Y47456D01*
X44033Y47451D01*
X44018Y47433D01*
X44022Y47393D01*
X44018Y47383D01*
X44020Y47361D01*
X44018Y47302D01*
X44022Y47293D01*
X44020Y47244D01*
X44022Y35236D01*
X44018Y35227D01*
X44022Y35163D01*
X44018Y35153D01*
X44022Y35090D01*
X44018Y35076D01*
X44022Y35003D01*
X44018Y34993D01*
X44022Y34970D01*
X44018Y34946D01*
X44007Y34934D01*
X42081Y34931D01*
X42048Y34934D01*
X42035Y34948D01*
X42031Y34961D01*
X42033Y47429D01*
X42030Y47443D01*
X42023Y47449D01*
X42001Y47458D01*
X41966Y47473D01*
X41934Y47484D01*
X41894Y47494D01*
X41871Y47508D01*
X41859Y47513D01*
X41841Y47518D01*
X41818Y47524D01*
X41793Y47539D01*
X41776Y47546D01*
X41758Y47551D01*
X41744Y47554D01*
X41726Y47563D01*
X41699Y47580D01*
X41677Y47585D01*
X41659Y47593D01*
X41633Y47609D01*
X41614Y47614D01*
X41597Y47621D01*
X41572Y47640D01*
X41551Y47648D01*
X41534Y47655D01*
X41511Y47671D01*
X41474Y47685D01*
X41467Y47691D01*
X41461Y47695D01*
X41452Y47703D01*
X41431Y47711D01*
X41414Y47718D01*
X41404Y47728D01*
X41392Y47736D01*
X41361Y47748D01*
X41347Y47761D01*
X41324Y47775D01*
X41307Y47781D01*
X41302Y47786D01*
X41284Y47801D01*
X41277Y47805D01*
X41260Y47811D01*
X41247Y47825D01*
X41209Y47846D01*
X41190Y47861D01*
X41167Y47875D01*
X41150Y47892D01*
X41127Y47905D01*
X41120Y47908D01*
X41104Y47925D01*
X41080Y47938D01*
X41074Y47941D01*
X41057Y47958D01*
X41028Y47976D01*
X41025Y47983D01*
X41000Y48002D01*
X40993Y48005D01*
X40987Y48012D01*
X40957Y48035D01*
X40950Y48038D01*
X40938Y48050D01*
X40920Y48065D01*
X40913Y48068D01*
X40905Y48080D01*
X40887Y48095D01*
X40880Y48098D01*
X40853Y48125D01*
X40847Y48128D01*
X40820Y48155D01*
X40813Y48158D01*
X40805Y48167D01*
X40802Y48173D01*
X40790Y48185D01*
X40783Y48188D01*
X40701Y48270D01*
X40698Y48277D01*
X40693Y48278D01*
X40683Y48289D01*
X40666Y48309D01*
X40660Y48312D01*
X40645Y48327D01*
X40641Y48334D01*
X40611Y48364D01*
X40608Y48370D01*
X40600Y48379D01*
X40593Y48382D01*
X40585Y48390D01*
X40581Y48397D01*
X40575Y48404D01*
X40571Y48410D01*
X40563Y48415D01*
X40548Y48434D01*
X40545Y48440D01*
X40533Y48452D01*
X40526Y48455D01*
X40525Y48460D01*
X40518Y48467D01*
X40515Y48474D01*
X40495Y48494D01*
X40481Y48517D01*
X40475Y48524D01*
X40451Y48554D01*
X40448Y48561D01*
X40431Y48577D01*
X40415Y48601D01*
X40411Y48607D01*
X40398Y48621D01*
X40385Y48644D01*
X40368Y48661D01*
X40351Y48691D01*
X40334Y48707D01*
X40318Y48737D01*
X40314Y48744D01*
X40304Y48754D01*
X40284Y48791D01*
X40271Y48804D01*
X40263Y48816D01*
X40254Y48838D01*
X40249Y48842D01*
X40228Y48874D01*
X40224Y48888D01*
X40211Y48901D01*
X40194Y48931D01*
X40184Y48954D01*
X40176Y48963D01*
X40153Y49009D01*
X40138Y49028D01*
X40132Y49039D01*
X40128Y49058D01*
X40114Y49078D01*
X40101Y49101D01*
X40097Y49114D01*
X40091Y49131D01*
X40086Y49136D01*
X40073Y49156D01*
X40067Y49174D01*
X40058Y49198D01*
X40054Y49204D01*
X40046Y49213D01*
X40027Y49265D01*
X40014Y49285D01*
X40004Y49311D01*
X40001Y49325D01*
X39994Y49348D01*
X39977Y49371D01*
X39971Y49401D01*
X39952Y49443D01*
X39942Y49470D01*
X39937Y49488D01*
X39934Y49501D01*
X39919Y49536D01*
X39912Y49553D01*
X39909Y49567D01*
X39904Y49598D01*
X39889Y49633D01*
X39882Y49650D01*
X39877Y49668D01*
X39871Y49708D01*
X39862Y49737D01*
X39849Y49770D01*
X39846Y49790D01*
X39842Y49817D01*
X39836Y49850D01*
X39829Y49877D01*
X39819Y49904D01*
X39814Y49932D01*
X39811Y49955D01*
X39805Y50000D01*
X39802Y50017D01*
X39799Y50030D01*
X39796Y50047D01*
X39792Y50060D01*
X39786Y50094D01*
X39782Y50124D01*
X39779Y50160D01*
X39775Y50214D01*
X39772Y50244D01*
X39767Y50286D01*
X39764Y50296D01*
X39761Y50352D01*
X39757Y50362D01*
X39754Y50472D01*
X39750Y50482D01*
X39752Y50628D01*
X39755Y50741D01*
X39759Y50778D01*
X39762Y50805D01*
X39766Y50838D01*
X39769Y50865D01*
X39772Y50898D01*
X39775Y50928D01*
X39781Y50996D01*
X39786Y51041D01*
X39789Y51061D01*
X39792Y51078D01*
X39802Y51118D01*
X39805Y51135D01*
X39814Y51203D01*
X39817Y51227D01*
X39826Y51255D01*
X39832Y51272D01*
X39836Y51285D01*
X39844Y51333D01*
X39847Y51357D01*
X39859Y51395D01*
X39871Y51427D01*
X39874Y51440D01*
X39881Y51480D01*
X39899Y51522D01*
X39911Y51577D01*
X39927Y51614D01*
X39932Y51625D01*
X39936Y51639D01*
X39944Y51677D01*
X39966Y51719D01*
X39971Y51737D01*
X39977Y51761D01*
X39999Y51802D01*
X40004Y51827D01*
X40017Y51857D01*
X40026Y51869D01*
X40034Y51891D01*
X40041Y51914D01*
X40058Y51937D01*
X40067Y51964D01*
X40071Y51977D01*
X40077Y51994D01*
X40091Y52007D01*
X40101Y52034D01*
X40108Y52051D01*
X40111Y52057D01*
X40117Y52064D01*
X40121Y52071D01*
X40126Y52076D01*
X40131Y52094D01*
X40141Y52118D01*
X40151Y52128D01*
X40161Y52144D01*
X40171Y52168D01*
X40174Y52174D01*
X40181Y52181D01*
X40189Y52193D01*
X40201Y52224D01*
X40211Y52234D01*
X40234Y52278D01*
X40248Y52291D01*
X40268Y52328D01*
X40271Y52334D01*
X40278Y52341D01*
X40298Y52378D01*
X40311Y52391D01*
X40331Y52428D01*
X40341Y52438D01*
X40358Y52461D01*
X40361Y52468D01*
X40378Y52485D01*
X40391Y52508D01*
X40394Y52515D01*
X40401Y52521D01*
X40424Y52551D01*
X40428Y52558D01*
X40435Y52565D01*
X40458Y52595D01*
X40461Y52601D01*
X40470Y52610D01*
X40485Y52628D01*
X40488Y52635D01*
X40511Y52658D01*
X40515Y52665D01*
X40533Y52683D01*
X40548Y52701D01*
X40551Y52708D01*
X40566Y52723D01*
X40581Y52741D01*
X40585Y52748D01*
X40615Y52778D01*
X40618Y52785D01*
X40675Y52842D01*
X40678Y52848D01*
X40693Y52863D01*
X40700Y52867D01*
X40705Y52872D01*
X40708Y52878D01*
X40723Y52893D01*
X40730Y52897D01*
X40742Y52908D01*
X40745Y52915D01*
X40750Y52920D01*
X40756Y52923D01*
X40790Y52957D01*
X40802Y52965D01*
X40805Y52972D01*
X40820Y52987D01*
X40827Y52990D01*
X40833Y52997D01*
X40840Y53000D01*
X40855Y53015D01*
X40873Y53030D01*
X40880Y53034D01*
X40903Y53057D01*
X40910Y53060D01*
X40928Y53079D01*
X40947Y53094D01*
X40953Y53097D01*
X40965Y53109D01*
X40983Y53124D01*
X40990Y53127D01*
X41004Y53140D01*
X41027Y53157D01*
X41034Y53160D01*
X41045Y53172D01*
X41077Y53194D01*
X41084Y53197D01*
X41094Y53207D01*
X41117Y53224D01*
X41124Y53227D01*
X41137Y53240D01*
X41167Y53257D01*
X41189Y53279D01*
X41210Y53287D01*
X41217Y53294D01*
X41224Y53297D01*
X41225Y53302D01*
X41234Y53307D01*
X41264Y53324D01*
X41270Y53327D01*
X41277Y53334D01*
X41314Y53354D01*
X41324Y53364D01*
X41354Y53381D01*
X41367Y53384D01*
X41381Y53397D01*
X41411Y53414D01*
X41424Y53417D01*
X41429Y53422D01*
X41447Y53437D01*
X41464Y53444D01*
X41487Y53454D01*
X41494Y53461D01*
X41512Y53472D01*
X41531Y53477D01*
X41549Y53486D01*
X41567Y53501D01*
X41604Y53514D01*
X41621Y53524D01*
X41644Y53537D01*
X41658Y53541D01*
X41686Y53552D01*
X41712Y53569D01*
X41734Y53574D01*
X41751Y53581D01*
X41771Y53594D01*
X41783Y53599D01*
X41818Y53607D01*
X41836Y53616D01*
X41856Y53629D01*
X41891Y53637D01*
X41933Y53656D01*
X41965Y53667D01*
X41988Y53671D01*
X42030Y53689D01*
X42046Y53696D01*
X42063Y53699D01*
X42098Y53704D01*
X42133Y53719D01*
X42150Y53726D01*
X42163Y53729D01*
X42195Y53734D01*
X42208Y53738D01*
X42226Y53743D01*
X42253Y53753D01*
X42266Y53756D01*
X42303Y53763D01*
X42342Y53768D01*
X42355Y53771D01*
X42393Y53783D01*
X42412Y53788D01*
X42422Y53791D01*
X42468Y53794D01*
X42478Y53798D01*
X42977Y53796D01*
X43516Y53798D01*
X43600Y53794D01*
D02*
G37*
G36*
X47052Y53686D02*
X47055Y53679D01*
X47078Y53656D01*
X47082Y53649D01*
X47090Y53641D01*
X47096Y53637D01*
X47103Y53631D01*
X47120Y53611D01*
X47127Y53607D01*
X47142Y53592D01*
X47145Y53586D01*
X47157Y53574D01*
X47163Y53571D01*
X47175Y53559D01*
X47178Y53552D01*
X47190Y53541D01*
X47197Y53537D01*
X47208Y53526D01*
X47212Y53519D01*
X47220Y53511D01*
X47227Y53507D01*
X47235Y53499D01*
X47238Y53492D01*
X47253Y53477D01*
X47265Y53469D01*
X47268Y53462D01*
X47287Y53444D01*
X47298Y53436D01*
X47302Y53429D01*
X47308Y53422D01*
X47328Y53406D01*
X47332Y53399D01*
X47402Y53329D01*
X47405Y53322D01*
X47410Y53317D01*
X47417Y53314D01*
X47429Y53302D01*
X47432Y53295D01*
X47440Y53287D01*
X47447Y53284D01*
X47462Y53269D01*
X47470Y53257D01*
X47477Y53254D01*
X47495Y53235D01*
X47499Y53229D01*
X47504Y53224D01*
X47510Y53220D01*
X47529Y53202D01*
X47532Y53195D01*
X47540Y53187D01*
X47547Y53184D01*
X47559Y53172D01*
X47562Y53165D01*
X47570Y53157D01*
X47577Y53154D01*
X47589Y53142D01*
X47592Y53135D01*
X47607Y53120D01*
X47614Y53117D01*
X47619Y53112D01*
X47622Y53105D01*
X47686Y53042D01*
X47694Y53030D01*
X47701Y53027D01*
X47741Y52987D01*
X47757Y52967D01*
X47764Y52964D01*
X47782Y52945D01*
X47786Y52938D01*
X47794Y52930D01*
X47801Y52927D01*
X47812Y52915D01*
X47816Y52908D01*
X47824Y52900D01*
X47831Y52897D01*
X47842Y52885D01*
X47846Y52878D01*
X47861Y52863D01*
X47867Y52860D01*
X47872Y52855D01*
X47876Y52848D01*
X48006Y52718D01*
X48009Y52711D01*
X48017Y52703D01*
X48024Y52700D01*
X48066Y52658D01*
X48069Y52652D01*
X48229Y52491D01*
X48233Y52485D01*
X48238Y52483D01*
X48243Y52478D01*
X48251Y52466D01*
X48258Y52463D01*
X48259Y52458D01*
X48336Y52381D01*
X48349Y52358D01*
X48353Y40682D01*
X48356Y40669D01*
X48368Y40657D01*
X48379Y40652D01*
X48638Y40654D01*
X48648Y40650D01*
X48708Y40654D01*
X48722Y40650D01*
X48805Y40654D01*
X48848Y40650D01*
X48863Y40655D01*
X48873Y40672D01*
X48877Y40682D01*
X48875Y40817D01*
X48877Y51647D01*
X48873Y51657D01*
X48877Y51720D01*
X48873Y51794D01*
X48877Y51807D01*
X48882Y51812D01*
X48892Y51816D01*
X48905Y51812D01*
X48920Y51790D01*
X48924Y51784D01*
X48928Y51782D01*
X48940Y51771D01*
X48943Y51764D01*
X48952Y51755D01*
X48959Y51752D01*
X48970Y51740D01*
X48974Y51734D01*
X48989Y51719D01*
X48995Y51715D01*
X49003Y51707D01*
X49007Y51701D01*
X49018Y51689D01*
X49025Y51685D01*
X49037Y51674D01*
X49040Y51667D01*
X49052Y51655D01*
X49059Y51652D01*
X49067Y51644D01*
X49070Y51637D01*
X49089Y51619D01*
X49095Y51615D01*
X49097Y51610D01*
X49197Y51510D01*
X49200Y51504D01*
X49209Y51495D01*
X49215Y51492D01*
X49227Y51480D01*
X49230Y51474D01*
X49242Y51462D01*
X49249Y51459D01*
X49257Y51450D01*
X49261Y51443D01*
X49272Y51432D01*
X49279Y51429D01*
X49290Y51417D01*
X49294Y51410D01*
X49305Y51398D01*
X49312Y51395D01*
X49324Y51384D01*
X49327Y51377D01*
X49339Y51365D01*
X49346Y51362D01*
X49354Y51353D01*
X49357Y51347D01*
X49372Y51332D01*
X49379Y51328D01*
X49384Y51323D01*
X49387Y51317D01*
X49402Y51302D01*
X49414Y51293D01*
X49417Y51287D01*
X49439Y51265D01*
X49446Y51262D01*
X49447Y51257D01*
X49472Y51232D01*
X49479Y51228D01*
X49481Y51223D01*
X49506Y51198D01*
X49522Y51178D01*
X49529Y51175D01*
X49547Y51157D01*
X49551Y51150D01*
X49556Y51145D01*
X49562Y51142D01*
X49611Y51093D01*
X49614Y51086D01*
X49622Y51078D01*
X49629Y51075D01*
X49644Y51060D01*
X49648Y51053D01*
X49659Y51041D01*
X49666Y51038D01*
X49671Y51033D01*
X49674Y51026D01*
X49689Y51011D01*
X49696Y51008D01*
X49704Y51000D01*
X49708Y50993D01*
X49723Y50978D01*
X49729Y50975D01*
X49734Y50970D01*
X49738Y50963D01*
X49756Y50945D01*
X49763Y50941D01*
X49768Y50936D01*
X49771Y50930D01*
X49789Y50911D01*
X49796Y50908D01*
X49798Y50903D01*
X49868Y50833D01*
X49876Y50821D01*
X49883Y50818D01*
X49901Y50800D01*
X49905Y50793D01*
X49909Y50788D01*
X49916Y50784D01*
X49931Y50770D01*
X49935Y50763D01*
X49940Y50758D01*
X49946Y50754D01*
X49958Y50743D01*
X49961Y50736D01*
X49976Y50721D01*
X49983Y50718D01*
X49991Y50709D01*
X49995Y50703D01*
X50010Y50688D01*
X50016Y50684D01*
X50025Y50676D01*
X50028Y50669D01*
X50040Y50658D01*
X50046Y50654D01*
X50055Y50646D01*
X50058Y50639D01*
X50073Y50624D01*
X50080Y50621D01*
X50088Y50613D01*
X50091Y50606D01*
X50106Y50591D01*
X50113Y50588D01*
X50115Y50583D01*
X50143Y50554D01*
X50150Y50551D01*
X50151Y50546D01*
X50158Y50539D01*
X50161Y50533D01*
X50166Y50531D01*
X50176Y50521D01*
X50191Y50503D01*
X50205Y50479D01*
X50203Y50441D01*
X50205Y40706D01*
X50201Y40692D01*
X50208Y40669D01*
X50226Y40654D01*
X50270Y40650D01*
X50280Y40654D01*
X50288Y40652D01*
X50363Y40654D01*
X50373Y40650D01*
X50635Y40652D01*
X50690Y40650D01*
X50717Y40657D01*
X50729Y40669D01*
X50732Y40702D01*
X50729Y40712D01*
X50730Y40737D01*
X50729Y49061D01*
Y49064D01*
Y49642D01*
X50732Y49685D01*
X50729Y49695D01*
X50730Y49767D01*
X50729Y49825D01*
X50732Y49835D01*
X50729Y49909D01*
X50732Y49932D01*
X50744Y49940D01*
X50757Y49937D01*
X50765Y49929D01*
X50769Y49922D01*
X50779Y49912D01*
X50782Y49905D01*
X50986Y49702D01*
X50989Y49695D01*
X51092Y49592D01*
X51096Y49585D01*
X51101Y49580D01*
X51107Y49577D01*
X51122Y49562D01*
X51131Y49550D01*
X51137Y49547D01*
X51156Y49528D01*
X51159Y49521D01*
X51168Y49513D01*
X51174Y49510D01*
X51186Y49498D01*
X51189Y49492D01*
X51204Y49477D01*
X51211Y49473D01*
X51219Y49465D01*
X51222Y49458D01*
X51231Y49450D01*
X51237Y49446D01*
X51249Y49435D01*
X51253Y49428D01*
X51264Y49416D01*
X51271Y49413D01*
X51276Y49408D01*
X51279Y49401D01*
X51346Y49335D01*
X51354Y49323D01*
X51361Y49320D01*
X51383Y49298D01*
X51386Y49291D01*
X51391Y49290D01*
X51409Y49271D01*
X51418Y49260D01*
X51424Y49256D01*
X51439Y49241D01*
X51443Y49235D01*
X51454Y49223D01*
X51461Y49220D01*
X51466Y49215D01*
X51469Y49208D01*
X51491Y49186D01*
X51498Y49183D01*
X51499Y49178D01*
X51600Y49078D01*
X51608Y49066D01*
X51615Y49063D01*
X51663Y49014D01*
X51666Y49008D01*
X51678Y48996D01*
X51685Y48993D01*
X51696Y48981D01*
X51700Y48974D01*
X51708Y48966D01*
X51715Y48963D01*
X51726Y48951D01*
X51730Y48944D01*
X51741Y48932D01*
X51748Y48929D01*
X51756Y48921D01*
X51760Y48914D01*
X51775Y48899D01*
X51781Y48896D01*
X51790Y48888D01*
X51793Y48881D01*
X51808Y48866D01*
X51815Y48862D01*
X51820Y48858D01*
X51823Y48851D01*
X51830Y48844D01*
X51850Y48827D01*
X51853Y48821D01*
X51875Y48799D01*
X51882Y48796D01*
X51883Y48791D01*
X51942Y48732D01*
X51958Y48712D01*
X51965Y48709D01*
X51975Y48699D01*
X51992Y48679D01*
X51998Y48676D01*
X52013Y48661D01*
X52017Y48654D01*
X52028Y48642D01*
X52035Y48639D01*
X52043Y48631D01*
X52053Y48614D01*
X52057Y40692D01*
X52053Y40669D01*
X52043Y40646D01*
X52038Y40641D01*
X52032Y40637D01*
X52017Y40622D01*
X52013Y40615D01*
X52002Y40604D01*
X51995Y40600D01*
X51987Y40592D01*
X51983Y40586D01*
X51968Y40570D01*
X51962Y40567D01*
X51957Y40562D01*
X51953Y40555D01*
X51947Y40549D01*
X51943Y40542D01*
X51938Y40540D01*
X51920Y40522D01*
X51912Y40510D01*
X51905Y40507D01*
X51890Y40492D01*
X51887Y40485D01*
X51878Y40477D01*
X51872Y40474D01*
X51860Y40462D01*
X51856Y40455D01*
X51841Y40440D01*
X51830Y40432D01*
X51827Y40425D01*
X51811Y40410D01*
X51805Y40407D01*
X51797Y40399D01*
X51793Y40392D01*
X51763Y40362D01*
X51755Y40350D01*
X51748Y40347D01*
X51730Y40328D01*
X51726Y40322D01*
X51718Y40314D01*
X51711Y40310D01*
X51700Y40299D01*
X51696Y40292D01*
X51685Y40280D01*
X51678Y40277D01*
X51663Y40258D01*
X51643Y40242D01*
X51640Y40235D01*
X51603Y40198D01*
X51595Y40187D01*
X51588Y40183D01*
X51573Y40168D01*
X51570Y40162D01*
X51558Y40150D01*
X51551Y40147D01*
X51543Y40138D01*
X51539Y40132D01*
X51443Y40035D01*
X51439Y40028D01*
X51431Y40020D01*
X51424Y40016D01*
X51416Y40008D01*
X51413Y40001D01*
X51343Y39931D01*
X51339Y39925D01*
X51334Y39923D01*
X51319Y39908D01*
X51316Y39901D01*
X51219Y39805D01*
X51216Y39798D01*
X51149Y39731D01*
X51146Y39724D01*
X51131Y39709D01*
X51119Y39701D01*
X51116Y39694D01*
X51052Y39631D01*
X51049Y39625D01*
X51037Y39613D01*
X51031Y39609D01*
X51026Y39604D01*
X51022Y39598D01*
X50971Y39546D01*
X50964Y39543D01*
X50962Y39538D01*
X50925Y39501D01*
X50922Y39494D01*
X50914Y39486D01*
X50907Y39483D01*
X50899Y39474D01*
X50896Y39468D01*
X50880Y39453D01*
X50874Y39449D01*
X50866Y39441D01*
X50862Y39434D01*
X50799Y39371D01*
X50795Y39364D01*
X50790Y39359D01*
X50784Y39356D01*
X50765Y39338D01*
X50762Y39331D01*
X50754Y39323D01*
X50747Y39319D01*
X50739Y39311D01*
X50735Y39304D01*
X50724Y39292D01*
X50687Y39272D01*
X44422Y39274D01*
X44404Y39272D01*
X44394Y39269D01*
X44370Y39276D01*
X44362Y39287D01*
X44359Y40615D01*
X44365Y40642D01*
X44380Y40654D01*
X44424Y40650D01*
X44434Y40654D01*
X44472Y40652D01*
X46846Y40654D01*
X46920Y40650D01*
X46930Y40654D01*
X47003Y40650D01*
X47008Y40655D01*
X47016Y40667D01*
X47021Y40699D01*
X47018Y40709D01*
X47021Y40752D01*
X47018Y40762D01*
X47020Y53441D01*
X47018Y53623D01*
X47021Y53632D01*
X47018Y53676D01*
X47021Y53689D01*
X47026Y53694D01*
X47040Y53698D01*
X47052Y53686D01*
D02*
G37*
G36*
X39036Y53689D02*
X39040Y53666D01*
X39036Y53656D01*
X39038Y53581D01*
X39036Y53542D01*
X39040Y53479D01*
X39036Y53469D01*
X39038Y53437D01*
X39036Y40689D01*
X39040Y40676D01*
X39043Y40666D01*
X39046Y40659D01*
X39051Y40654D01*
X39081Y40650D01*
X39092Y40654D01*
X39171Y40650D01*
X39182Y40654D01*
X41469Y40652D01*
X41537Y40654D01*
X41547Y40650D01*
X41661Y40654D01*
X41684Y40650D01*
X41696Y40635D01*
X41699Y39311D01*
X41696Y39287D01*
X41677Y39272D01*
X35446Y39274D01*
X35381Y39272D01*
X35357Y39279D01*
X35341Y39286D01*
X35334Y39289D01*
X35321Y39309D01*
X35314Y39312D01*
X35296Y39331D01*
X35293Y39338D01*
X35284Y39346D01*
X35277Y39349D01*
X35262Y39364D01*
X35259Y39371D01*
X35251Y39379D01*
X35244Y39382D01*
X35236Y39391D01*
X35232Y39397D01*
X35211Y39419D01*
X35194Y39439D01*
X35187Y39443D01*
X35136Y39494D01*
X35132Y39501D01*
X35127Y39506D01*
X35121Y39509D01*
X35106Y39524D01*
X35102Y39531D01*
X35091Y39543D01*
X35084Y39546D01*
X35076Y39554D01*
X35072Y39561D01*
X35054Y39579D01*
X35047Y39583D01*
X35045Y39588D01*
X34975Y39658D01*
X34972Y39665D01*
X34967Y39669D01*
X34960Y39673D01*
X34949Y39685D01*
X34945Y39691D01*
X34934Y39703D01*
X34927Y39706D01*
X34915Y39718D01*
X34912Y39724D01*
X34852Y39785D01*
X34849Y39791D01*
X34844Y39796D01*
X34837Y39800D01*
X34822Y39815D01*
X34819Y39821D01*
X34722Y39918D01*
X34718Y39925D01*
X34707Y39936D01*
X34700Y39940D01*
X34699Y39945D01*
X34622Y40021D01*
X34618Y40028D01*
X34522Y40125D01*
X34518Y40132D01*
X34467Y40183D01*
X34450Y40203D01*
X34443Y40207D01*
X34428Y40222D01*
X34425Y40228D01*
X34413Y40240D01*
X34407Y40243D01*
X34402Y40248D01*
X34398Y40255D01*
X34332Y40322D01*
X34323Y40334D01*
X34316Y40337D01*
X34301Y40352D01*
X34298Y40359D01*
X34290Y40367D01*
X34283Y40370D01*
X34268Y40385D01*
X34265Y40392D01*
X34253Y40404D01*
X34246Y40407D01*
X34238Y40415D01*
X34235Y40422D01*
X34205Y40452D01*
X34201Y40459D01*
X34196Y40464D01*
X34190Y40467D01*
X34171Y40485D01*
X34168Y40492D01*
X34163Y40497D01*
X34156Y40500D01*
X34145Y40512D01*
X34141Y40519D01*
X34126Y40534D01*
X34120Y40537D01*
X34115Y40542D01*
X34111Y40549D01*
X34096Y40564D01*
X34089Y40567D01*
X34081Y40576D01*
X34078Y40582D01*
X34048Y40612D01*
X34040Y40624D01*
X34028Y40632D01*
X34014Y40635D01*
X33999Y40634D01*
X33994Y40629D01*
X33984Y40612D01*
X33976Y40604D01*
X33956Y40600D01*
X33943Y40624D01*
X33931Y40632D01*
X33813Y40630D01*
X33799Y40634D01*
X33791Y40646D01*
X33788Y48614D01*
X33794Y48637D01*
X33803Y48646D01*
X33841Y48644D01*
X33869Y48646D01*
X33923Y48642D01*
X33936Y48646D01*
X33948Y48667D01*
X33953Y48672D01*
X33973Y48676D01*
X33978Y48671D01*
X33988Y48654D01*
X33996Y48646D01*
X34013Y48639D01*
X34034Y48647D01*
X34038Y48654D01*
X34071Y48687D01*
X34080Y48699D01*
X34086Y48702D01*
X34105Y48721D01*
X34113Y48732D01*
X34120Y48736D01*
X34135Y48751D01*
X34138Y48757D01*
X34150Y48769D01*
X34156Y48772D01*
X34168Y48784D01*
X34171Y48791D01*
X34180Y48799D01*
X34186Y48802D01*
X34195Y48811D01*
X34198Y48817D01*
X34213Y48832D01*
X34220Y48836D01*
X34228Y48844D01*
X34231Y48851D01*
X34246Y48866D01*
X34253Y48869D01*
X34258Y48874D01*
X34261Y48881D01*
X34328Y48948D01*
X34332Y48954D01*
X34337Y48956D01*
X34358Y48978D01*
X34367Y48989D01*
X34373Y48993D01*
X34388Y49008D01*
X34391Y49014D01*
X34407Y49029D01*
X34413Y49033D01*
X34418Y49038D01*
X34422Y49044D01*
X34437Y49059D01*
X34443Y49063D01*
X34452Y49071D01*
X34455Y49078D01*
X34500Y49123D01*
X34512Y49131D01*
X34515Y49138D01*
X34588Y49211D01*
X34592Y49218D01*
X34610Y49236D01*
X34617Y49240D01*
X34618Y49244D01*
X34623Y49246D01*
X34627Y49253D01*
X34633Y49256D01*
X34635Y49261D01*
X34652Y49278D01*
X34672Y49295D01*
X34675Y49301D01*
X34852Y49478D01*
X34855Y49485D01*
X34975Y49605D01*
X34984Y49617D01*
X34991Y49620D01*
X35012Y49642D01*
X35015Y49648D01*
X35021Y49653D01*
X35027Y49657D01*
X35042Y49672D01*
X35050Y49683D01*
X35057Y49687D01*
X35072Y49702D01*
X35076Y49708D01*
X35084Y49717D01*
X35091Y49720D01*
X35102Y49732D01*
X35106Y49738D01*
X35121Y49753D01*
X35127Y49757D01*
X35142Y49775D01*
X35162Y49792D01*
X35166Y49799D01*
X35274Y49907D01*
X35289Y49925D01*
X35293Y49932D01*
X35309Y49945D01*
X35318Y49944D01*
X35324Y49937D01*
X35328Y49924D01*
X35326Y49598D01*
Y49595D01*
X35328Y40724D01*
X35326Y40682D01*
X35334Y40661D01*
X35346Y40652D01*
X35765Y40654D01*
X35808Y40650D01*
X35831Y40654D01*
X35846Y40672D01*
X35850Y50439D01*
X35846Y50472D01*
X35855Y50491D01*
X35870Y50509D01*
X35873Y50516D01*
X35881Y50524D01*
X35888Y50528D01*
X35900Y50539D01*
X35903Y50546D01*
X35915Y50558D01*
X35921Y50561D01*
X35933Y50573D01*
X35936Y50579D01*
X35948Y50591D01*
X35955Y50594D01*
X35970Y50613D01*
X35990Y50629D01*
X35993Y50636D01*
X36003Y50646D01*
X36023Y50663D01*
X36027Y50669D01*
X36075Y50718D01*
X36087Y50726D01*
X36090Y50733D01*
X36157Y50800D01*
X36160Y50806D01*
X36165Y50811D01*
X36172Y50814D01*
X36190Y50833D01*
X36193Y50840D01*
X36198Y50845D01*
X36205Y50848D01*
X36220Y50863D01*
X36224Y50870D01*
X36232Y50878D01*
X36239Y50881D01*
X36250Y50893D01*
X36253Y50900D01*
X36265Y50911D01*
X36272Y50915D01*
X36283Y50926D01*
X36287Y50933D01*
X36298Y50945D01*
X36305Y50948D01*
X36314Y50956D01*
X36317Y50963D01*
X36332Y50978D01*
X36339Y50981D01*
X36344Y50986D01*
X36347Y50993D01*
X36362Y51008D01*
X36369Y51011D01*
X36377Y51020D01*
X36380Y51026D01*
X36395Y51041D01*
X36402Y51045D01*
X36407Y51050D01*
X36410Y51056D01*
X36417Y51063D01*
X36437Y51080D01*
X36440Y51086D01*
X36544Y51190D01*
X36547Y51197D01*
X36552Y51198D01*
X36574Y51220D01*
X36577Y51227D01*
X36582Y51232D01*
X36589Y51235D01*
X36604Y51250D01*
X36607Y51257D01*
X36612Y51262D01*
X36619Y51265D01*
X36634Y51280D01*
X36637Y51287D01*
X36649Y51298D01*
X36656Y51302D01*
X36667Y51313D01*
X36671Y51320D01*
X36682Y51332D01*
X36689Y51335D01*
X36697Y51343D01*
X36701Y51350D01*
X36746Y51395D01*
X36752Y51398D01*
X36757Y51403D01*
X36761Y51410D01*
X36831Y51480D01*
X36834Y51487D01*
X36839Y51489D01*
X36857Y51507D01*
X36861Y51514D01*
X36869Y51522D01*
X36876Y51525D01*
X36887Y51537D01*
X36891Y51544D01*
X36902Y51555D01*
X36914Y51564D01*
X36917Y51570D01*
X36936Y51589D01*
X36948Y51597D01*
X36951Y51604D01*
X36973Y51625D01*
X36979Y51629D01*
X36981Y51634D01*
X37003Y51655D01*
X37009Y51659D01*
X37014Y51664D01*
X37018Y51670D01*
X37138Y51790D01*
X37141Y51797D01*
X37148Y51804D01*
X37151Y51811D01*
X37159Y51816D01*
X37173Y51819D01*
X37181Y51811D01*
X37184Y51774D01*
X37181Y51764D01*
X37183Y51732D01*
X37181Y40879D01*
X37184Y40869D01*
X37181Y40756D01*
X37184Y40742D01*
X37181Y40689D01*
X37188Y40662D01*
X37200Y40650D01*
X37231Y40652D01*
X37290Y40650D01*
X37300Y40654D01*
X37348Y40652D01*
X37600Y40654D01*
X37673Y40650D01*
X37687Y40654D01*
X37698Y40666D01*
X37702Y52334D01*
X37705Y52358D01*
X37708Y52371D01*
X37732Y52394D01*
X37735Y52401D01*
X37743Y52409D01*
X37750Y52413D01*
X37765Y52428D01*
X37768Y52435D01*
X37777Y52443D01*
X37783Y52446D01*
X37795Y52458D01*
X37798Y52465D01*
X37810Y52476D01*
X37817Y52480D01*
X37825Y52488D01*
X37828Y52495D01*
X37985Y52652D01*
X37989Y52658D01*
X37997Y52666D01*
X38004Y52670D01*
X38019Y52685D01*
X38022Y52692D01*
X38030Y52700D01*
X38037Y52703D01*
X38049Y52715D01*
X38052Y52722D01*
X38064Y52733D01*
X38070Y52737D01*
X38079Y52745D01*
X38082Y52752D01*
X38097Y52767D01*
X38104Y52770D01*
X38112Y52778D01*
X38115Y52785D01*
X38127Y52797D01*
X38139Y52805D01*
X38142Y52812D01*
X38160Y52830D01*
X38172Y52838D01*
X38175Y52845D01*
X38239Y52908D01*
X38247Y52920D01*
X38254Y52923D01*
X38279Y52948D01*
X38282Y52955D01*
X38287Y52957D01*
X38306Y52975D01*
X38309Y52982D01*
X38314Y52987D01*
X38321Y52990D01*
X38336Y53005D01*
X38339Y53012D01*
X38347Y53020D01*
X38354Y53023D01*
X38369Y53039D01*
X38372Y53045D01*
X38381Y53053D01*
X38387Y53057D01*
X38399Y53069D01*
X38402Y53075D01*
X38414Y53087D01*
X38421Y53090D01*
X38429Y53099D01*
X38432Y53105D01*
X38447Y53120D01*
X38454Y53124D01*
X38462Y53132D01*
X38466Y53139D01*
X38481Y53154D01*
X38487Y53157D01*
X38493Y53162D01*
X38496Y53169D01*
X38511Y53184D01*
X38522Y53192D01*
X38526Y53199D01*
X38593Y53265D01*
X38601Y53277D01*
X38608Y53280D01*
X38626Y53299D01*
X38629Y53306D01*
X38634Y53311D01*
X38641Y53314D01*
X38656Y53329D01*
X38659Y53335D01*
X38668Y53344D01*
X38674Y53347D01*
X38686Y53359D01*
X38689Y53365D01*
X38701Y53377D01*
X38708Y53381D01*
X38716Y53389D01*
X38719Y53396D01*
X38734Y53411D01*
X38741Y53414D01*
X38749Y53422D01*
X38753Y53429D01*
X38768Y53444D01*
X38774Y53447D01*
X38780Y53452D01*
X38783Y53459D01*
X38801Y53477D01*
X38808Y53481D01*
X38813Y53486D01*
X38816Y53492D01*
X38853Y53529D01*
X38873Y53546D01*
X38876Y53552D01*
X38946Y53623D01*
X38950Y53629D01*
X38955Y53631D01*
X38976Y53653D01*
X38980Y53659D01*
X38985Y53664D01*
X38991Y53667D01*
X39015Y53691D01*
X39031Y53694D01*
X39036Y53689D01*
D02*
G37*
G36*
X50215Y38797D02*
X50218Y38787D01*
X50215Y38774D01*
X50198Y38757D01*
X50195Y38750D01*
X50105Y38660D01*
X50101Y38653D01*
X50083Y38635D01*
X50076Y38632D01*
X50075Y38627D01*
X50025Y38577D01*
X50016Y38565D01*
X50005Y38557D01*
X50001Y38550D01*
X49996Y38548D01*
X49995Y38543D01*
X49901Y38450D01*
X49898Y38443D01*
X49883Y38428D01*
X49871Y38420D01*
X49868Y38413D01*
X49808Y38353D01*
X49804Y38346D01*
X49793Y38335D01*
X49786Y38331D01*
X49774Y38320D01*
X49771Y38313D01*
X49764Y38306D01*
X49744Y38290D01*
X49741Y38283D01*
X49678Y38220D01*
X49674Y38213D01*
X49666Y38205D01*
X49659Y38201D01*
X49648Y38190D01*
X49644Y38183D01*
X49629Y38168D01*
X49622Y38165D01*
X49617Y38160D01*
X49614Y38153D01*
X49544Y38083D01*
X49541Y38076D01*
X49536Y38074D01*
X49517Y38056D01*
X49514Y38050D01*
X49506Y38041D01*
X49499Y38038D01*
X49487Y38026D01*
X49484Y38019D01*
X49472Y38008D01*
X49466Y38004D01*
X49457Y37996D01*
X49454Y37989D01*
X49439Y37974D01*
X49432Y37971D01*
X49427Y37966D01*
X49424Y37959D01*
X49406Y37941D01*
X49399Y37938D01*
X49397Y37933D01*
X49391Y37926D01*
X49382Y37914D01*
X49376Y37911D01*
X49361Y37896D01*
X49357Y37889D01*
X49346Y37878D01*
X49339Y37874D01*
X49327Y37863D01*
X49324Y37856D01*
X49316Y37848D01*
X49309Y37844D01*
X49297Y37833D01*
X49294Y37826D01*
X49282Y37814D01*
X49270Y37806D01*
X49267Y37799D01*
X49230Y37762D01*
X49227Y37756D01*
X49222Y37751D01*
X49215Y37747D01*
X49200Y37732D01*
X49197Y37726D01*
X49189Y37718D01*
X49182Y37714D01*
X49170Y37702D01*
X49167Y37696D01*
X49155Y37684D01*
X49144Y37676D01*
X49140Y37669D01*
X49115Y37644D01*
X49099Y37624D01*
X49092Y37621D01*
X49077Y37606D01*
X49074Y37599D01*
X49059Y37584D01*
X49052Y37581D01*
X49047Y37576D01*
X49044Y37569D01*
X48974Y37499D01*
X48970Y37492D01*
X48965Y37490D01*
X48947Y37472D01*
X48943Y37466D01*
X48928Y37451D01*
X48922Y37447D01*
X48920Y37442D01*
X48912Y37434D01*
X48905Y37431D01*
X48898Y37424D01*
X44400Y37420D01*
X44390Y37417D01*
X44374Y37420D01*
X44362Y37432D01*
X44359Y37773D01*
Y37776D01*
Y38754D01*
X44362Y38787D01*
X44367Y38792D01*
X44379Y38800D01*
X50156Y38799D01*
X50200Y38802D01*
X50215Y38797D01*
D02*
G37*
G36*
X38120Y38799D02*
X41684D01*
X41696Y38784D01*
X41699Y37446D01*
X41693Y37429D01*
X41688Y37424D01*
X37173Y37420D01*
X37149Y37431D01*
X37143Y37434D01*
X37121Y37455D01*
X37118Y37462D01*
X36994Y37586D01*
X36991Y37592D01*
X36933Y37651D01*
X36916Y37671D01*
X36909Y37674D01*
X36894Y37689D01*
X36891Y37696D01*
X36857Y37729D01*
X36854Y37736D01*
X36849Y37738D01*
X36827Y37759D01*
X36824Y37766D01*
X36816Y37774D01*
X36809Y37778D01*
X36801Y37786D01*
X36797Y37793D01*
X36779Y37811D01*
X36772Y37814D01*
X36771Y37819D01*
X36704Y37886D01*
X36701Y37893D01*
X36696Y37898D01*
X36689Y37901D01*
X36671Y37919D01*
X36667Y37926D01*
X36659Y37934D01*
X36652Y37938D01*
X36644Y37946D01*
X36641Y37953D01*
X36586Y38008D01*
X36569Y38028D01*
X36562Y38031D01*
X36544Y38050D01*
X36540Y38056D01*
X36532Y38065D01*
X36525Y38068D01*
X36514Y38080D01*
X36510Y38086D01*
X36499Y38098D01*
X36492Y38101D01*
X36484Y38109D01*
X36480Y38116D01*
X36447Y38150D01*
X36444Y38156D01*
X36439Y38161D01*
X36432Y38165D01*
X36417Y38180D01*
X36409Y38191D01*
X36402Y38195D01*
X36387Y38210D01*
X36384Y38216D01*
X36375Y38225D01*
X36369Y38228D01*
X36354Y38243D01*
X36350Y38250D01*
X36342Y38258D01*
X36335Y38261D01*
X36324Y38273D01*
X36320Y38280D01*
X36257Y38343D01*
X36253Y38350D01*
X36248Y38355D01*
X36242Y38358D01*
X36227Y38373D01*
X36224Y38380D01*
X36218Y38385D01*
X36212Y38388D01*
X36197Y38403D01*
X36193Y38410D01*
X36175Y38428D01*
X36168Y38432D01*
X36167Y38436D01*
X36100Y38503D01*
X36097Y38510D01*
X36088Y38518D01*
X36082Y38522D01*
X36070Y38533D01*
X36067Y38540D01*
X36018Y38588D01*
X36012Y38592D01*
X36010Y38597D01*
X35973Y38633D01*
X35965Y38645D01*
X35958Y38648D01*
X35947Y38660D01*
X35943Y38667D01*
X35928Y38682D01*
X35917Y38690D01*
X35913Y38697D01*
X35863Y38747D01*
X35860Y38754D01*
X35853Y38760D01*
X35836Y38784D01*
X35841Y38795D01*
X35853Y38800D01*
X38120Y38799D01*
D02*
G37*
G36*
X48261Y36797D02*
X48266Y36792D01*
X48269Y36778D01*
X48263Y36761D01*
X48258Y36760D01*
X48251Y36753D01*
X48244Y36750D01*
X48236Y36741D01*
X48233Y36735D01*
X48228Y36730D01*
X48221Y36726D01*
X48209Y36715D01*
X48206Y36708D01*
X48204Y36706D01*
X48143Y36645D01*
X48139Y36638D01*
X48131Y36630D01*
X48124Y36626D01*
X48109Y36611D01*
X48106Y36605D01*
X48098Y36596D01*
X48091Y36593D01*
X48079Y36581D01*
X48076Y36575D01*
X48068Y36566D01*
X48061Y36563D01*
X48049Y36551D01*
X48046Y36544D01*
X47982Y36481D01*
X47979Y36474D01*
X47974Y36470D01*
X47967Y36466D01*
X47952Y36451D01*
X47949Y36444D01*
X47937Y36433D01*
X47931Y36429D01*
X47926Y36424D01*
X47922Y36418D01*
X47901Y36396D01*
X47894Y36393D01*
X47892Y36388D01*
X47856Y36351D01*
X47852Y36344D01*
X47847Y36339D01*
X47841Y36336D01*
X47829Y36324D01*
X47826Y36318D01*
X47811Y36303D01*
X47804Y36299D01*
X47799Y36294D01*
X47796Y36288D01*
X47725Y36217D01*
X47722Y36211D01*
X47629Y36117D01*
X47625Y36111D01*
X47532Y36017D01*
X47529Y36011D01*
X47432Y35914D01*
X47423Y35902D01*
X47417Y35899D01*
X47405Y35887D01*
X47402Y35881D01*
X47387Y35866D01*
X47380Y35862D01*
X47372Y35854D01*
X47368Y35847D01*
X47350Y35829D01*
X47344Y35825D01*
X47342Y35820D01*
X47305Y35784D01*
X47302Y35777D01*
X47297Y35772D01*
X47290Y35769D01*
X47272Y35750D01*
X47268Y35744D01*
X47263Y35739D01*
X47257Y35735D01*
X47245Y35724D01*
X47242Y35717D01*
X47223Y35699D01*
X47217Y35695D01*
X47215Y35690D01*
X47172Y35647D01*
X47168Y35640D01*
X47163Y35639D01*
X47148Y35624D01*
X47145Y35617D01*
X47140Y35612D01*
X47133Y35609D01*
X47118Y35594D01*
X47115Y35587D01*
X47100Y35572D01*
X47093Y35568D01*
X47088Y35563D01*
X47085Y35557D01*
X47067Y35539D01*
X47060Y35535D01*
X47058Y35530D01*
X47018Y35490D01*
X47015Y35483D01*
X47010Y35478D01*
X47003Y35475D01*
X46988Y35460D01*
X46985Y35453D01*
X46976Y35445D01*
X46970Y35442D01*
X46961Y35433D01*
X46958Y35427D01*
X46943Y35412D01*
X46936Y35408D01*
X46928Y35400D01*
X46925Y35393D01*
X46895Y35363D01*
X46886Y35352D01*
X46880Y35348D01*
X46865Y35333D01*
X46856Y35322D01*
X46850Y35318D01*
X46828Y35297D01*
X46825Y35290D01*
X46820Y35285D01*
X46813Y35282D01*
X46798Y35267D01*
X46795Y35260D01*
X46783Y35248D01*
X46776Y35245D01*
X46771Y35240D01*
X46768Y35233D01*
X46701Y35166D01*
X46698Y35160D01*
X46689Y35151D01*
X46683Y35148D01*
X46674Y35140D01*
X46671Y35133D01*
X46574Y35036D01*
X46571Y35030D01*
X46554Y35013D01*
X46536Y34998D01*
X44407Y34995D01*
X44397Y34991D01*
X44370Y34995D01*
X44362Y35003D01*
X44359Y36768D01*
X44365Y36792D01*
X44375Y36798D01*
X44534Y36797D01*
X44587Y36800D01*
X44597Y36797D01*
X47889Y36798D01*
X48068Y36797D01*
X48151Y36800D01*
X48161Y36797D01*
X48238Y36800D01*
X48261Y36797D01*
D02*
G37*
G36*
X41684D02*
X41696Y36785D01*
X41699Y35016D01*
X41696Y35003D01*
X41691Y34998D01*
X39532Y34995D01*
X39515Y35001D01*
X39509Y35005D01*
X39500Y35013D01*
X39497Y35020D01*
X39360Y35156D01*
X39357Y35163D01*
X39308Y35212D01*
X39307Y35213D01*
X39297Y35223D01*
X39288Y35235D01*
X39282Y35238D01*
X39267Y35253D01*
X39263Y35260D01*
X39167Y35357D01*
X39163Y35363D01*
X39158Y35368D01*
X39151Y35372D01*
X39143Y35380D01*
X39140Y35387D01*
X39107Y35420D01*
X39098Y35432D01*
X39092Y35435D01*
X39073Y35453D01*
X39065Y35465D01*
X39058Y35468D01*
X39043Y35483D01*
X39040Y35490D01*
X39028Y35502D01*
X39021Y35505D01*
X39013Y35513D01*
X39010Y35520D01*
X38955Y35575D01*
X38938Y35595D01*
X38931Y35599D01*
X38916Y35614D01*
X38913Y35620D01*
X38901Y35632D01*
X38895Y35635D01*
X38883Y35647D01*
X38880Y35654D01*
X38871Y35662D01*
X38865Y35665D01*
X38856Y35674D01*
X38853Y35680D01*
X38835Y35699D01*
X38828Y35702D01*
X38826Y35707D01*
X38798Y35735D01*
X38781Y35755D01*
X38774Y35759D01*
X38756Y35777D01*
X38753Y35784D01*
X38744Y35792D01*
X38738Y35795D01*
X38726Y35807D01*
X38723Y35814D01*
X38711Y35825D01*
X38704Y35829D01*
X38696Y35837D01*
X38693Y35844D01*
X38678Y35859D01*
X38671Y35862D01*
X38666Y35867D01*
X38663Y35874D01*
X38644Y35892D01*
X38633Y35901D01*
X38629Y35907D01*
X38596Y35941D01*
X38593Y35947D01*
X38584Y35956D01*
X38578Y35959D01*
X38569Y35967D01*
X38566Y35974D01*
X38529Y36011D01*
X38509Y36027D01*
X38506Y36034D01*
X38469Y36071D01*
X38466Y36077D01*
X38458Y36086D01*
X38451Y36089D01*
X38446Y36094D01*
X38442Y36101D01*
X38346Y36198D01*
X38342Y36204D01*
X38334Y36213D01*
X38327Y36216D01*
X38312Y36231D01*
X38309Y36238D01*
X38246Y36301D01*
X38242Y36308D01*
X38142Y36408D01*
X38139Y36414D01*
X38134Y36419D01*
X38122Y36428D01*
X38119Y36434D01*
X38045Y36508D01*
X38042Y36514D01*
X38034Y36523D01*
X38027Y36526D01*
X38015Y36538D01*
X38012Y36544D01*
X37949Y36608D01*
X37945Y36615D01*
X37940Y36620D01*
X37934Y36623D01*
X37922Y36635D01*
X37919Y36641D01*
X37907Y36653D01*
X37895Y36661D01*
X37892Y36668D01*
X37852Y36708D01*
X37848Y36715D01*
X37843Y36716D01*
X37810Y36750D01*
X37803Y36753D01*
X37792Y36768D01*
X37788Y36792D01*
X37793Y36797D01*
X37827Y36800D01*
X37837Y36797D01*
X37868Y36798D01*
X37987Y36797D01*
X37997Y36800D01*
X38064Y36797D01*
X38107Y36800D01*
X38117Y36797D01*
X41462Y36798D01*
X41651Y36797D01*
X41661Y36800D01*
X41684Y36797D01*
D02*
G37*
G36*
X43680Y32819D02*
X43688Y32811D01*
X43691Y28726D01*
X43695Y28716D01*
X43688Y28693D01*
X43683Y28688D01*
X41234Y28685D01*
X41224Y28695D01*
X41220Y28708D01*
X41222Y28930D01*
X41229Y28953D01*
X41240Y28962D01*
X41272Y28960D01*
X42819Y28962D01*
X42902Y28958D01*
X42917Y28977D01*
X42921Y30655D01*
X42914Y30682D01*
X42902Y30693D01*
X42839Y30690D01*
X42829Y30693D01*
X42784Y30692D01*
X41431Y30693D01*
X41377Y30690D01*
X41364Y30693D01*
X41352Y30705D01*
X41349Y30909D01*
X41352Y30942D01*
X41362Y30952D01*
X41375Y30955D01*
X42895Y30954D01*
X42909Y30957D01*
X42917Y30965D01*
X42921Y31326D01*
Y31329D01*
Y32537D01*
X42917Y32550D01*
X42909Y32559D01*
X42885Y32562D01*
X42862Y32559D01*
X42852Y32562D01*
X42810Y32560D01*
X41317Y32562D01*
X41284Y32559D01*
X41260Y32562D01*
X41252Y32570D01*
X41249Y32587D01*
X41252Y32620D01*
X41249Y32630D01*
X41252Y32707D01*
X41249Y32717D01*
X41250Y32752D01*
X41249Y32797D01*
X41255Y32814D01*
X41264Y32819D01*
X41287Y32822D01*
X41310Y32819D01*
X41320Y32822D01*
X43621Y32821D01*
X43666Y32822D01*
X43680Y32819D01*
D02*
G37*
G36*
X40440D02*
X40450Y32809D01*
X40453Y28718D01*
X40451Y28696D01*
X40443Y28688D01*
X38037Y28685D01*
X38024Y28688D01*
X38017Y28701D01*
X38019Y28930D01*
X38015Y28973D01*
X38019Y28997D01*
X38029Y29007D01*
X38045Y29010D01*
X39655Y29008D01*
X39669Y29012D01*
X39677Y29020D01*
X39680Y32797D01*
X39684Y32811D01*
X39699Y32822D01*
X39737Y32821D01*
X39962Y32822D01*
X39966D01*
X40391Y32821D01*
X40426Y32822D01*
X40440Y32819D01*
D02*
G37*
G36*
X47614D02*
X47625Y32804D01*
X47624Y29869D01*
X47620Y29779D01*
X47617Y29746D01*
X47607Y29696D01*
X47602Y29654D01*
X47599Y29641D01*
X47592Y29574D01*
X47589Y29561D01*
X47582Y29537D01*
X47572Y29504D01*
X47565Y29480D01*
X47562Y29457D01*
X47555Y29430D01*
X47547Y29412D01*
X47535Y29380D01*
X47529Y29354D01*
X47522Y29337D01*
X47502Y29300D01*
X47499Y29287D01*
X47485Y29257D01*
X47474Y29239D01*
X47462Y29207D01*
X47454Y29199D01*
X47438Y29180D01*
X47435Y29167D01*
X47429Y29150D01*
X47415Y29137D01*
X47398Y29107D01*
X47385Y29093D01*
X47368Y29070D01*
X47365Y29063D01*
X47348Y29047D01*
X47335Y29023D01*
X47275Y28963D01*
X47272Y28957D01*
X47263Y28948D01*
X47257Y28945D01*
X47230Y28918D01*
X47213Y28908D01*
X47200Y28895D01*
X47170Y28872D01*
X47163Y28868D01*
X47147Y28852D01*
X47140Y28848D01*
X47115Y28833D01*
X47111Y28826D01*
X47076Y28808D01*
X47070Y28805D01*
X47060Y28795D01*
X47030Y28778D01*
X47013Y28771D01*
X47008Y28766D01*
X46988Y28753D01*
X46970Y28748D01*
X46946Y28738D01*
X46941Y28733D01*
X46921Y28720D01*
X46903Y28715D01*
X46880Y28708D01*
X46860Y28695D01*
X46843Y28688D01*
X46803Y28678D01*
X46775Y28663D01*
X46758Y28656D01*
X46723Y28651D01*
X46709Y28648D01*
X46686Y28641D01*
X46663Y28631D01*
X46646Y28625D01*
X46589Y28618D01*
X46566Y28615D01*
X46553Y28611D01*
X46524Y28603D01*
X46499Y28598D01*
X46498Y28596D01*
X46477Y28593D01*
X46444Y28589D01*
X46381Y28586D01*
X46347Y28583D01*
X46317Y28580D01*
X46281Y28576D01*
X46162Y28571D01*
X46152Y28568D01*
X46077Y28569D01*
X46024Y28573D01*
X45967Y28576D01*
X45904Y28580D01*
X45877Y28583D01*
X45797Y28589D01*
X45760Y28593D01*
X45718Y28598D01*
X45705Y28601D01*
X45662Y28615D01*
X45648Y28618D01*
X45625Y28621D01*
X45592Y28625D01*
X45548Y28638D01*
X45531Y28645D01*
X45505Y28651D01*
X45482Y28655D01*
X45458Y28661D01*
X45436Y28673D01*
X45420Y28680D01*
X45395Y28685D01*
X45381Y28688D01*
X45340Y28706D01*
X45308Y28718D01*
X45286Y28726D01*
X45268Y28741D01*
X45251Y28748D01*
X45238Y28751D01*
X45223Y28756D01*
X45204Y28771D01*
X45198Y28775D01*
X45164Y28788D01*
X45151Y28801D01*
X45121Y28818D01*
X45114Y28821D01*
X45109Y28826D01*
X45091Y28842D01*
X45074Y28848D01*
X45068Y28855D01*
X45038Y28878D01*
X45031Y28881D01*
X45008Y28905D01*
X45001Y28908D01*
X44971Y28938D01*
X44964Y28942D01*
X44934Y28972D01*
X44928Y28975D01*
X44921Y28982D01*
X44906Y29000D01*
X44903Y29007D01*
X44892Y29017D01*
X44884Y29028D01*
X44869Y29047D01*
X44866Y29053D01*
X44854Y29065D01*
X44839Y29083D01*
X44836Y29090D01*
X44827Y29098D01*
X44811Y29118D01*
X44802Y29140D01*
X44796Y29147D01*
X44787Y29158D01*
X44764Y29205D01*
X44749Y29223D01*
X44741Y29245D01*
X44734Y29262D01*
X44717Y29289D01*
X44714Y29302D01*
X44711Y29319D01*
X44706Y29340D01*
X44692Y29360D01*
X44679Y29397D01*
X44672Y29437D01*
X44656Y29491D01*
X44652Y29500D01*
X44649Y29541D01*
X44646Y29554D01*
X44641Y29599D01*
X44637Y29652D01*
X44634Y29682D01*
X44631Y29709D01*
X44627Y29756D01*
X44624Y32786D01*
X44626Y32804D01*
X44644Y32819D01*
X44687Y32822D01*
X44701Y32819D01*
X44754Y32822D01*
X44837Y32819D01*
X44848Y32822D01*
X44906Y32821D01*
X44941Y32822D01*
X44954Y32819D01*
X44966Y32807D01*
X44969Y32781D01*
X44966Y32771D01*
X44968Y29819D01*
X44971Y29709D01*
X44974Y29679D01*
X44978Y29662D01*
X44984Y29636D01*
X44989Y29607D01*
X44999Y29567D01*
X45003Y29544D01*
X45009Y29517D01*
X45021Y29495D01*
X45028Y29479D01*
X45031Y29465D01*
X45036Y29444D01*
X45049Y29424D01*
X45063Y29400D01*
X45073Y29377D01*
X45083Y29367D01*
X45099Y29337D01*
X45114Y29322D01*
X45129Y29304D01*
X45133Y29297D01*
X45138Y29292D01*
X45149Y29284D01*
X45153Y29277D01*
X45160Y29270D01*
X45163Y29264D01*
X45171Y29255D01*
X45178Y29252D01*
X45201Y29228D01*
X45208Y29225D01*
X45223Y29210D01*
X45241Y29195D01*
X45248Y29192D01*
X45265Y29175D01*
X45301Y29155D01*
X45311Y29145D01*
X45348Y29125D01*
X45355Y29122D01*
X45370Y29110D01*
X45386Y29103D01*
X45408Y29098D01*
X45430Y29090D01*
X45456Y29073D01*
X45495Y29065D01*
X45508Y29062D01*
X45526Y29053D01*
X45553Y29043D01*
X45567Y29040D01*
X45607Y29033D01*
X45633Y29027D01*
X45650Y29020D01*
X45667Y29017D01*
X45680Y29013D01*
X45700Y29010D01*
X45717Y29007D01*
X45772Y29002D01*
X45805Y28998D01*
X45850Y28993D01*
X45885Y28988D01*
X45895Y28985D01*
X45927Y28987D01*
X45947Y28990D01*
X45974Y28997D01*
X45994Y29000D01*
X46049Y29005D01*
X46092Y29008D01*
X46106Y29012D01*
X46127Y29020D01*
X46154Y29030D01*
X46172Y29035D01*
X46186Y29038D01*
X46209Y29042D01*
X46239Y29055D01*
X46261Y29063D01*
X46282Y29068D01*
X46306Y29078D01*
X46312Y29082D01*
X46327Y29093D01*
X46369Y29108D01*
X46376Y29115D01*
X46406Y29132D01*
X46429Y29138D01*
X46446Y29155D01*
X46469Y29168D01*
X46486Y29185D01*
X46516Y29202D01*
X46526Y29212D01*
X46538Y29220D01*
X46564Y29237D01*
X46568Y29243D01*
X46576Y29252D01*
X46583Y29255D01*
X46634Y29307D01*
X46638Y29314D01*
X46659Y29335D01*
X46673Y29355D01*
X46684Y29364D01*
X46705Y29400D01*
X46708Y29407D01*
X46718Y29417D01*
X46731Y29440D01*
X46740Y29459D01*
X46755Y29477D01*
X46760Y29489D01*
X46764Y29507D01*
X46775Y29531D01*
X46778Y29537D01*
X46783Y29542D01*
X46790Y29559D01*
X46793Y29572D01*
X46798Y29597D01*
X46801Y29611D01*
X46808Y29634D01*
X46818Y29657D01*
X46821Y29671D01*
X46825Y29681D01*
X46828Y29754D01*
X46831Y29764D01*
X46835Y32804D01*
X46853Y32819D01*
X47580Y32822D01*
X47614Y32819D01*
D02*
G37*
%LPC*%
G36*
X43099Y53708D02*
X42914Y53706D01*
X42837Y53703D01*
X42754Y53699D01*
X42697Y53696D01*
X42670Y53693D01*
X42654Y53689D01*
X42634Y53686D01*
X42617Y53683D01*
X42557Y53672D01*
X42505Y53667D01*
X42458Y53661D01*
X42445Y53658D01*
X42427Y53653D01*
X42400Y53646D01*
X42362Y53637D01*
X42315Y53631D01*
X42257Y53613D01*
X42221Y53604D01*
X42198Y53601D01*
X42185Y53597D01*
X42155Y53584D01*
X42143Y53579D01*
X42130Y53576D01*
X42098Y53571D01*
X42085Y53567D01*
X42041Y53547D01*
X41995Y53537D01*
X41958Y53521D01*
X41936Y53512D01*
X41901Y53504D01*
X41883Y53496D01*
X41863Y53482D01*
X41828Y53474D01*
X41811Y53467D01*
X41791Y53454D01*
X41754Y53441D01*
X41731Y53431D01*
X41712Y53419D01*
X41691Y53411D01*
X41668Y53404D01*
X41661Y53397D01*
X41631Y53381D01*
X41601Y53367D01*
X41589Y53359D01*
X41569Y53349D01*
X41551Y53344D01*
X41522Y53322D01*
X41491Y53311D01*
X41481Y53300D01*
X41474Y53297D01*
X41467Y53290D01*
X41434Y53277D01*
X41426Y53269D01*
X41405Y53255D01*
X41384Y53247D01*
X41370Y53234D01*
X41334Y53214D01*
X41327Y53210D01*
X41317Y53200D01*
X41280Y53180D01*
X41267Y53167D01*
X41237Y53150D01*
X41225Y53139D01*
X41189Y53115D01*
X41185Y53109D01*
X41180Y53104D01*
X41174Y53100D01*
X41147Y53084D01*
X41140Y53080D01*
X41127Y53067D01*
X41110Y53057D01*
X41099Y53045D01*
X41080Y53030D01*
X41074Y53027D01*
X41067Y53020D01*
X41060Y53017D01*
X41058Y53012D01*
X41043Y53000D01*
X41037Y52997D01*
X41030Y52990D01*
X41023Y52987D01*
X41017Y52977D01*
X41010Y52974D01*
X41004Y52967D01*
X40997Y52964D01*
X40982Y52948D01*
X40963Y52933D01*
X40957Y52930D01*
X40927Y52900D01*
X40920Y52897D01*
X40890Y52867D01*
X40883Y52863D01*
X40872Y52852D01*
X40868Y52845D01*
X40863Y52840D01*
X40857Y52837D01*
X40823Y52803D01*
X40817Y52800D01*
X40808Y52792D01*
X40805Y52785D01*
X40775Y52755D01*
X40772Y52748D01*
X40767Y52743D01*
X40760Y52740D01*
X40745Y52725D01*
X40742Y52718D01*
X40708Y52685D01*
X40705Y52678D01*
X40700Y52673D01*
X40693Y52670D01*
X40688Y52665D01*
X40685Y52658D01*
X40678Y52652D01*
X40675Y52645D01*
X40660Y52630D01*
X40645Y52611D01*
X40641Y52605D01*
X40626Y52590D01*
X40611Y52571D01*
X40608Y52565D01*
X40593Y52550D01*
X40578Y52531D01*
X40575Y52525D01*
X40565Y52515D01*
X40541Y52485D01*
X40538Y52478D01*
X40528Y52468D01*
X40511Y52445D01*
X40508Y52438D01*
X40495Y52425D01*
X40478Y52394D01*
X40458Y52375D01*
X40444Y52351D01*
X40441Y52345D01*
X40431Y52334D01*
X40415Y52304D01*
X40401Y52291D01*
X40388Y52268D01*
X40381Y52251D01*
X40368Y52238D01*
X40348Y52201D01*
X40344Y52194D01*
X40329Y52179D01*
X40318Y52148D01*
X40311Y52141D01*
X40303Y52129D01*
X40283Y52089D01*
X40268Y52071D01*
X40258Y52044D01*
X40251Y52027D01*
X40244Y52021D01*
X40233Y52002D01*
X40224Y51981D01*
X40218Y51964D01*
X40211Y51957D01*
X40208Y51951D01*
X40203Y51946D01*
X40194Y51924D01*
X40188Y51901D01*
X40181Y51894D01*
X40178Y51887D01*
X40173Y51882D01*
X40166Y51866D01*
X40161Y51844D01*
X40154Y51827D01*
X40148Y51821D01*
X40134Y51797D01*
X40131Y51784D01*
X40124Y51761D01*
X40109Y51732D01*
X40102Y51715D01*
X40097Y51697D01*
X40094Y51684D01*
X40073Y51642D01*
X40069Y51625D01*
X40064Y51604D01*
X40058Y51580D01*
X40042Y51555D01*
X40031Y51504D01*
X40024Y51480D01*
X40016Y51462D01*
X40009Y51445D01*
X39999Y51395D01*
X39996Y51382D01*
X39982Y51348D01*
X39979Y51335D01*
X39976Y51318D01*
X39967Y51263D01*
X39964Y51250D01*
X39959Y51232D01*
X39949Y51205D01*
X39942Y51165D01*
X39937Y51117D01*
X39934Y51103D01*
X39931Y51080D01*
X39924Y51053D01*
X39921Y51043D01*
X39916Y51011D01*
X39912Y50985D01*
X39909Y50951D01*
X39906Y50908D01*
X39899Y50811D01*
X39894Y50763D01*
X39891Y50753D01*
X39887Y50653D01*
X39884Y50643D01*
X39886Y50484D01*
X39889Y50418D01*
X39892Y50387D01*
X39896Y50351D01*
X39899Y50321D01*
X39902Y50281D01*
X39906Y50237D01*
X39909Y50177D01*
X39912Y50147D01*
X39916Y50127D01*
X39919Y50111D01*
X39922Y50090D01*
X39926Y50077D01*
X39929Y50060D01*
X39932Y50047D01*
X39936Y50027D01*
X39941Y49979D01*
X39944Y49965D01*
X39947Y49942D01*
X39962Y49894D01*
X39967Y49869D01*
X39971Y49855D01*
X39974Y49822D01*
X39977Y49808D01*
X39984Y49785D01*
X39996Y49757D01*
X39999Y49743D01*
X40004Y49712D01*
X40011Y49685D01*
X40021Y49662D01*
X40024Y49655D01*
X40031Y49638D01*
X40034Y49618D01*
X40041Y49592D01*
X40056Y49556D01*
X40062Y49540D01*
X40067Y49518D01*
X40071Y49505D01*
X40089Y49463D01*
X40096Y49446D01*
X40101Y49425D01*
X40114Y49395D01*
X40128Y49371D01*
X40131Y49351D01*
X40144Y49321D01*
X40161Y49291D01*
X40168Y49268D01*
X40176Y49250D01*
X40193Y49223D01*
X40198Y49204D01*
X40204Y49188D01*
X40211Y49181D01*
X40214Y49174D01*
X40219Y49169D01*
X40228Y49148D01*
X40238Y49124D01*
X40241Y49118D01*
X40251Y49108D01*
X40258Y49091D01*
X40268Y49068D01*
X40271Y49061D01*
X40278Y49054D01*
X40291Y49031D01*
X40298Y49014D01*
X40301Y49008D01*
X40308Y49001D01*
X40324Y48971D01*
X40331Y48954D01*
X40341Y48944D01*
X40365Y48901D01*
X40381Y48884D01*
X40385Y48878D01*
X40394Y48854D01*
X40411Y48838D01*
X40428Y48807D01*
X40431Y48801D01*
X40441Y48791D01*
X40455Y48767D01*
X40465Y48757D01*
X40468Y48751D01*
X40475Y48744D01*
X40488Y48721D01*
X40505Y48704D01*
X40518Y48681D01*
X40538Y48661D01*
X40551Y48637D01*
X40571Y48617D01*
X40585Y48594D01*
X40600Y48579D01*
X40615Y48561D01*
X40618Y48554D01*
X40623Y48549D01*
X40630Y48546D01*
X40641Y48531D01*
X40645Y48524D01*
X40671Y48497D01*
X40675Y48490D01*
X40690Y48475D01*
X40696Y48472D01*
X40705Y48460D01*
X40708Y48454D01*
X40735Y48427D01*
X40738Y48420D01*
X40815Y48344D01*
X40817Y48342D01*
X40843Y48315D01*
X40855Y48307D01*
X40858Y48300D01*
X40867Y48292D01*
X40873Y48289D01*
X40910Y48252D01*
X40917Y48248D01*
X40940Y48225D01*
X40947Y48222D01*
X40977Y48192D01*
X40983Y48188D01*
X40999Y48173D01*
X41017Y48158D01*
X41023Y48155D01*
X41032Y48147D01*
X41035Y48140D01*
X41060Y48125D01*
X41070Y48115D01*
X41077Y48112D01*
X41087Y48102D01*
X41104Y48092D01*
X41124Y48072D01*
X41147Y48058D01*
X41164Y48042D01*
X41187Y48028D01*
X41204Y48012D01*
X41240Y47992D01*
X41254Y47978D01*
X41284Y47962D01*
X41297Y47948D01*
X41342Y47923D01*
X41346Y47916D01*
X41357Y47908D01*
X41364Y47905D01*
X41387Y47895D01*
X41396Y47886D01*
X41416Y47873D01*
X41437Y47865D01*
X41447Y47855D01*
X41471Y47841D01*
X41494Y47831D01*
X41501Y47828D01*
X41511Y47818D01*
X41527Y47808D01*
X41557Y47795D01*
X41564Y47791D01*
X41572Y47783D01*
X41594Y47775D01*
X41617Y47765D01*
X41624Y47761D01*
X41634Y47751D01*
X41661Y47741D01*
X41691Y47728D01*
X41702Y47720D01*
X41744Y47705D01*
X41769Y47690D01*
X41801Y47678D01*
X41814Y47675D01*
X41863Y47649D01*
X41884Y47644D01*
X41939Y47620D01*
X41953Y47616D01*
X41974Y47611D01*
X41988Y47608D01*
X42016Y47593D01*
X42033Y47586D01*
X42061Y47581D01*
X42088Y47574D01*
X42110Y47563D01*
X42131Y47554D01*
X42155Y47548D01*
X42166Y47536D01*
X42170Y35090D01*
X42175Y35075D01*
X42181Y35071D01*
X42186Y35066D01*
X42203Y35063D01*
X43830Y35065D01*
X43840Y35061D01*
X43870Y35065D01*
X43881Y35076D01*
X43885Y47526D01*
X43888Y47539D01*
X43893Y47541D01*
X43898Y47546D01*
X43920Y47554D01*
X43933Y47558D01*
X43975Y47576D01*
X43997Y47581D01*
X44037Y47591D01*
X44058Y47603D01*
X44075Y47609D01*
X44102Y47616D01*
X44123Y47621D01*
X44148Y47636D01*
X44165Y47643D01*
X44187Y47648D01*
X44217Y47661D01*
X44223Y47665D01*
X44229Y47670D01*
X44250Y47678D01*
X44263Y47681D01*
X44282Y47686D01*
X44309Y47703D01*
X44330Y47711D01*
X44360Y47725D01*
X44390Y47741D01*
X44410Y47745D01*
X44430Y47758D01*
X44442Y47766D01*
X44474Y47778D01*
X44494Y47791D01*
X44517Y47805D01*
X44541Y47815D01*
X44547Y47818D01*
X44549Y47823D01*
X44577Y47838D01*
X44594Y47845D01*
X44601Y47848D01*
X44607Y47855D01*
X44626Y47866D01*
X44647Y47875D01*
X44659Y47886D01*
X44679Y47900D01*
X44701Y47908D01*
X44714Y47921D01*
X44726Y47930D01*
X44747Y47938D01*
X44756Y47947D01*
X44774Y47962D01*
X44781Y47965D01*
X44797Y47972D01*
X44814Y47988D01*
X44844Y48005D01*
X44861Y48022D01*
X44868Y48025D01*
X44888Y48038D01*
X44894Y48042D01*
X44896Y48047D01*
X44901Y48052D01*
X44931Y48068D01*
X44936Y48073D01*
X44939Y48080D01*
X44954Y48092D01*
X44961Y48095D01*
X44981Y48115D01*
X45004Y48128D01*
X45011Y48135D01*
X45018Y48138D01*
X45026Y48147D01*
X45044Y48162D01*
X45051Y48165D01*
X45059Y48173D01*
X45063Y48180D01*
X45074Y48188D01*
X45081Y48192D01*
X45108Y48219D01*
X45114Y48222D01*
X45145Y48252D01*
X45151Y48255D01*
X45160Y48263D01*
X45163Y48270D01*
X45171Y48278D01*
X45178Y48282D01*
X45215Y48319D01*
X45221Y48322D01*
X45223Y48327D01*
X45320Y48424D01*
X45323Y48430D01*
X45331Y48439D01*
X45343Y48447D01*
X45346Y48454D01*
X45353Y48460D01*
X45356Y48467D01*
X45361Y48472D01*
X45368Y48475D01*
X45380Y48487D01*
X45383Y48494D01*
X45390Y48500D01*
X45393Y48507D01*
X45398Y48512D01*
X45405Y48515D01*
X45413Y48527D01*
X45416Y48534D01*
X45432Y48549D01*
X45447Y48567D01*
X45450Y48574D01*
X45460Y48584D01*
X45483Y48614D01*
X45487Y48621D01*
X45503Y48637D01*
X45522Y48666D01*
X45533Y48674D01*
X45547Y48697D01*
X45553Y48704D01*
X45557Y48711D01*
X45567Y48721D01*
X45583Y48751D01*
X45600Y48767D01*
X45617Y48797D01*
X45630Y48811D01*
X45647Y48841D01*
X45650Y48847D01*
X45663Y48861D01*
X45680Y48891D01*
X45683Y48897D01*
X45693Y48908D01*
X45703Y48924D01*
X45713Y48948D01*
X45723Y48958D01*
X45735Y48976D01*
X45743Y48998D01*
X45753Y49008D01*
X45757Y49014D01*
X45762Y49019D01*
X45770Y49041D01*
X45777Y49058D01*
X45787Y49068D01*
X45800Y49091D01*
X45807Y49114D01*
X45817Y49124D01*
X45820Y49131D01*
X45825Y49136D01*
X45837Y49168D01*
X45843Y49185D01*
X45850Y49191D01*
X45862Y49209D01*
X45867Y49228D01*
X45877Y49251D01*
X45880Y49258D01*
X45889Y49266D01*
X45897Y49288D01*
X45904Y49315D01*
X45920Y49338D01*
X45927Y49355D01*
X45930Y49368D01*
X45937Y49391D01*
X45952Y49416D01*
X45959Y49433D01*
X45964Y49455D01*
X45967Y49468D01*
X45974Y49485D01*
X45977Y49492D01*
X45982Y49496D01*
X45989Y49513D01*
X45992Y49527D01*
X45997Y49551D01*
X46014Y49588D01*
X46024Y49615D01*
X46030Y49655D01*
X46045Y49690D01*
X46054Y49712D01*
X46060Y49758D01*
X46064Y49772D01*
X46072Y49793D01*
X46082Y49820D01*
X46090Y49872D01*
X46094Y49895D01*
X46097Y49909D01*
X46109Y49947D01*
X46112Y49960D01*
X46115Y49977D01*
X46119Y49997D01*
X46122Y50024D01*
X46126Y50057D01*
X46129Y50084D01*
X46132Y50100D01*
X46136Y50114D01*
X46139Y50130D01*
X46142Y50144D01*
X46145Y50160D01*
X46149Y50191D01*
X46152Y50234D01*
X46156Y50294D01*
X46161Y50392D01*
X46164Y50402D01*
X46167Y50549D01*
X46171Y50559D01*
X46169Y50591D01*
X46166Y50671D01*
X46162Y50741D01*
X46159Y50781D01*
X46154Y50880D01*
X46150Y50923D01*
X46145Y50968D01*
X46139Y51008D01*
X46136Y51025D01*
X46132Y51038D01*
X46126Y51078D01*
X46121Y51130D01*
X46117Y51143D01*
X46110Y51183D01*
X46099Y51222D01*
X46092Y51248D01*
X46087Y51290D01*
X46080Y51317D01*
X46075Y51335D01*
X46065Y51362D01*
X46060Y51384D01*
X46057Y51397D01*
X46054Y51420D01*
X46050Y51433D01*
X46039Y51462D01*
X46032Y51479D01*
X46024Y51517D01*
X46017Y51540D01*
X46005Y51562D01*
X45999Y51579D01*
X45994Y51600D01*
X45990Y51614D01*
X45984Y51637D01*
X45972Y51659D01*
X45965Y51675D01*
X45960Y51697D01*
X45934Y51754D01*
X45927Y51780D01*
X45919Y51802D01*
X45902Y51829D01*
X45897Y51847D01*
X45884Y51877D01*
X45867Y51907D01*
X45864Y51921D01*
X45857Y51937D01*
X45854Y51944D01*
X45842Y51956D01*
X45830Y51987D01*
X45823Y52004D01*
X45817Y52011D01*
X45814Y52017D01*
X45809Y52022D01*
X45800Y52044D01*
X45794Y52061D01*
X45790Y52068D01*
X45783Y52074D01*
X45770Y52097D01*
X45760Y52121D01*
X45745Y52136D01*
X45737Y52158D01*
X45730Y52174D01*
X45720Y52184D01*
X45697Y52228D01*
X45687Y52238D01*
X45667Y52274D01*
X45657Y52284D01*
X45637Y52321D01*
X45620Y52338D01*
X45603Y52368D01*
X45595Y52376D01*
X45573Y52408D01*
X45570Y52415D01*
X45553Y52431D01*
X45540Y52455D01*
X45526Y52468D01*
X45510Y52491D01*
X45507Y52498D01*
X45490Y52515D01*
X45480Y52531D01*
X45468Y52543D01*
X45453Y52561D01*
X45450Y52568D01*
X45423Y52595D01*
X45420Y52601D01*
X45401Y52620D01*
X45386Y52638D01*
X45383Y52645D01*
X45360Y52668D01*
X45356Y52675D01*
X45350Y52681D01*
X45346Y52688D01*
X45338Y52697D01*
X45331Y52700D01*
X45326Y52705D01*
X45323Y52711D01*
X45290Y52745D01*
X45286Y52752D01*
X45275Y52763D01*
X45263Y52772D01*
X45260Y52778D01*
X45238Y52800D01*
X45231Y52803D01*
X45223Y52812D01*
X45220Y52818D01*
X45211Y52827D01*
X45204Y52830D01*
X45193Y52842D01*
X45189Y52848D01*
X45181Y52857D01*
X45175Y52860D01*
X45168Y52867D01*
X45161Y52870D01*
X45156Y52875D01*
X45153Y52882D01*
X45145Y52890D01*
X45138Y52893D01*
X45131Y52900D01*
X45125Y52903D01*
X45101Y52927D01*
X45094Y52930D01*
X45088Y52937D01*
X45081Y52940D01*
X45061Y52960D01*
X45054Y52964D01*
X45031Y52987D01*
X45014Y52997D01*
X44999Y53012D01*
X44981Y53027D01*
X44974Y53030D01*
X44968Y53037D01*
X44938Y53060D01*
X44931Y53064D01*
X44924Y53070D01*
X44918Y53074D01*
X44908Y53084D01*
X44891Y53094D01*
X44884Y53100D01*
X44877Y53104D01*
X44876Y53109D01*
X44868Y53114D01*
X44844Y53127D01*
X44827Y53144D01*
X44791Y53164D01*
X44774Y53180D01*
X44744Y53197D01*
X44737Y53200D01*
X44731Y53207D01*
X44719Y53215D01*
X44697Y53224D01*
X44684Y53237D01*
X44639Y53262D01*
X44621Y53277D01*
X44609Y53282D01*
X44587Y53290D01*
X44577Y53300D01*
X44554Y53314D01*
X44524Y53327D01*
X44512Y53339D01*
X44491Y53347D01*
X44474Y53354D01*
X44450Y53371D01*
X44444Y53374D01*
X44427Y53381D01*
X44414Y53384D01*
X44394Y53397D01*
X44382Y53406D01*
X44364Y53411D01*
X44327Y53427D01*
X44315Y53436D01*
X44294Y53444D01*
X44280Y53447D01*
X44263Y53454D01*
X44257Y53457D01*
X44249Y53466D01*
X44232Y53472D01*
X44214Y53477D01*
X44200Y53481D01*
X44158Y53502D01*
X44145Y53506D01*
X44123Y53511D01*
X44073Y53534D01*
X44027Y53544D01*
X43985Y53562D01*
X43963Y53571D01*
X43940Y53574D01*
X43927Y53577D01*
X43903Y53584D01*
X43870Y53597D01*
X43843Y53604D01*
X43820Y53607D01*
X43806Y53611D01*
X43748Y53629D01*
X43731Y53632D01*
X43700Y53637D01*
X43676Y53641D01*
X43663Y53644D01*
X43640Y53651D01*
X43621Y53656D01*
X43601Y53659D01*
X43584Y53663D01*
X43565Y53666D01*
X43474Y53676D01*
X43441Y53683D01*
X43428Y53686D01*
X43389Y53691D01*
X43379Y53694D01*
X43309Y53698D01*
X43299Y53701D01*
X43109Y53704D01*
X43099Y53708D01*
D02*
G37*
%LPD*%
D10*
X30725Y59666D02*
G03*
X30725Y59666I-500J0D01*
G01*
X113294Y20675D02*
G03*
X113294Y20675I-3550J0D01*
G01*
X33425Y56016D02*
Y92016D01*
X63425D01*
Y56016D02*
Y92016D01*
X33425Y56016D02*
X63425D01*
X106157Y14476D02*
X113331D01*
X117144Y19152D02*
Y22199D01*
X106157Y26875D02*
X113331D01*
X102344Y19152D02*
Y22199D01*
X151327Y89972D02*
Y120972D01*
X130327D02*
X151327D01*
X130327Y89972D02*
Y120972D01*
Y89972D02*
X151327D01*
D11*
X108100Y124900D02*
X123100D01*
X108100Y133900D02*
X123100D01*
Y124900D02*
Y133900D01*
X108100Y124900D02*
Y133900D01*
Y124900D02*
X123100D01*
X108100Y133900D02*
X123100D01*
Y124900D02*
Y133900D01*
X108100Y124900D02*
Y133900D01*
X147540Y122800D02*
Y131800D01*
X132540Y122800D02*
Y131800D01*
Y122800D02*
X147540D01*
X132540Y131800D02*
X147540D01*
Y122800D02*
Y131800D01*
X132540Y122800D02*
Y131800D01*
Y122800D02*
X147540D01*
X132540Y131800D02*
X147540D01*
X123900Y72000D02*
Y87000D01*
X132900Y72000D02*
Y87000D01*
X123900Y72000D02*
X132900D01*
X123900Y87000D02*
X132900D01*
X123900Y72000D02*
Y87000D01*
X132900Y72000D02*
Y87000D01*
X123900Y72000D02*
X132900D01*
X123900Y87000D02*
X132900D01*
X85300Y137040D02*
X94300D01*
X85300Y122040D02*
X94300D01*
Y137040D01*
X85300Y122040D02*
Y137040D01*
X94300D01*
X85300Y122040D02*
X94300D01*
Y137040D01*
X85300Y122040D02*
Y137040D01*
X45894Y120059D02*
X54894D01*
X45894D02*
Y135059D01*
X54894D01*
Y120059D02*
Y135059D01*
X45551Y118280D02*
X60551D01*
X45551Y109280D02*
Y118280D01*
Y109280D02*
X60551D01*
Y118280D01*
X36732Y108886D02*
Y117886D01*
X21732Y108886D02*
X36732D01*
X21732D02*
Y117886D01*
X36732D01*
X59331Y134421D02*
X74331D01*
X59331Y125421D02*
Y134421D01*
Y125421D02*
X74331D01*
Y134421D01*
X126996Y42500D02*
X135996D01*
X126996Y57500D02*
X135996D01*
X126996Y42500D02*
Y57500D01*
X135996Y42500D02*
Y57500D01*
X126996Y42500D02*
X135996D01*
X126996Y57500D02*
X135996D01*
X126996Y42500D02*
Y57500D01*
X135996Y42500D02*
Y57500D01*
X130800Y9100D02*
Y18100D01*
X115800Y9100D02*
Y18100D01*
Y9100D02*
X130800D01*
X115800Y18100D02*
X130800D01*
Y9100D02*
Y18100D01*
X115800Y9100D02*
Y18100D01*
Y9100D02*
X130800D01*
X115800Y18100D02*
X130800D01*
X153666Y77279D02*
Y86279D01*
X138666Y77279D02*
Y86279D01*
Y77279D02*
X153666D01*
X138666Y86279D02*
X153666D01*
Y77279D02*
Y86279D01*
X138666Y77279D02*
Y86279D01*
Y77279D02*
X153666D01*
X138666Y86279D02*
X153666D01*
X72610Y107362D02*
Y122362D01*
X63610D02*
X72610D01*
X63610Y107362D02*
Y122362D01*
Y107362D02*
X72610D01*
X63831Y69122D02*
Y78122D01*
X44831Y69122D02*
X63831D01*
X44831D02*
Y78122D01*
X63831D01*
X25752Y69122D02*
Y77965D01*
Y69122D02*
X42752D01*
Y77965D01*
X25752D02*
X42752D01*
X83256Y72996D02*
X92098D01*
Y89996D01*
X83256D02*
X92098D01*
X83256Y72996D02*
Y89996D01*
X93295Y72996D02*
X102138D01*
Y89996D01*
X93295D02*
X102138D01*
X93295Y72996D02*
Y89996D01*
X37028Y123059D02*
Y132059D01*
X22028Y123059D02*
X37028D01*
X22028D02*
Y132059D01*
X37028D01*
X21732Y103713D02*
X36732D01*
X21732Y94713D02*
Y103713D01*
Y94713D02*
X36732D01*
Y103713D01*
X96642Y41303D02*
Y58303D01*
X105484D01*
Y41303D02*
Y58303D01*
X96642Y41303D02*
X105484D01*
X69673Y47799D02*
Y64799D01*
X78516D01*
Y47799D02*
Y64799D01*
X69673Y47799D02*
X78516D01*
X45894Y92795D02*
X54894D01*
X45894D02*
Y107795D01*
X54894D01*
Y92795D02*
Y107795D01*
X59134Y96287D02*
Y105287D01*
X74134D01*
Y96287D02*
Y105287D01*
X59134Y96287D02*
X74134D01*
X105402Y11004D02*
Y28004D01*
X114244D01*
Y11004D02*
Y28004D01*
X105402Y11004D02*
X114244D01*
X137874Y60067D02*
Y69067D01*
X152874D01*
Y60067D02*
Y69067D01*
X137874Y60067D02*
X152874D01*
X146445Y40713D02*
Y57713D01*
X155287D01*
Y40713D02*
Y57713D01*
X146445Y40713D02*
X155287D01*
X112216Y72996D02*
Y89996D01*
X103374Y72996D02*
X112216D01*
X103374D02*
Y89996D01*
X112216D01*
X92189Y17500D02*
G03*
X92189Y17500I-394J0D01*
G01*
X107992Y141732D02*
G03*
X107992Y141732I-394J0D01*
G01*
X141394Y31941D02*
G03*
X141394Y31941I-394J0D01*
G01*
X14173Y80866D02*
G03*
X14173Y80866I-394J0D01*
G01*
X16929Y67264D02*
G03*
X16929Y67264I-394J0D01*
G01*
X108100Y124900D02*
X123100D01*
X108100Y133900D02*
X123100D01*
Y124900D02*
Y133900D01*
X108100Y124900D02*
Y133900D01*
X147540Y122800D02*
Y131800D01*
X132540Y122800D02*
Y131800D01*
Y122800D02*
X147540D01*
X132540Y131800D02*
X147540D01*
X70484Y85587D02*
X102984D01*
X70484Y77953D02*
Y85587D01*
Y46087D02*
Y78587D01*
Y46087D02*
X109984D01*
Y53937D01*
Y53587D02*
Y82087D01*
X106484Y85587D02*
X109984Y82087D01*
X102165Y85587D02*
X106484D01*
X123900Y72000D02*
Y87000D01*
X132900Y72000D02*
Y87000D01*
X123900Y72000D02*
X132900D01*
X123900Y87000D02*
X132900D01*
X85300Y137040D02*
X94300D01*
X85300Y122040D02*
X94300D01*
Y137040D01*
X85300Y122040D02*
Y137040D01*
X47717Y135799D02*
X62717D01*
X47717Y126799D02*
X62717D01*
Y135799D01*
X47717Y126799D02*
Y135799D01*
X45894Y120059D02*
X54894D01*
X45894D02*
Y135059D01*
X54894D01*
Y120059D02*
Y135059D01*
X45551Y118280D02*
X60551D01*
X45551Y109280D02*
Y118280D01*
Y109280D02*
X60551D01*
Y118280D01*
X36732Y108886D02*
Y117886D01*
X21732Y108886D02*
X36732D01*
X21732D02*
Y117886D01*
X36732D01*
X93900Y104957D02*
X110900D01*
Y113800D01*
X93900D02*
X110900D01*
X93900Y104957D02*
Y113800D01*
X59331Y134421D02*
X74331D01*
X59331Y125421D02*
Y134421D01*
Y125421D02*
X74331D01*
Y134421D01*
X126996Y42500D02*
X135996D01*
X126996Y57500D02*
X135996D01*
X126996Y42500D02*
Y57500D01*
X135996Y42500D02*
Y57500D01*
X130800Y9100D02*
Y18100D01*
X115800Y9100D02*
Y18100D01*
Y9100D02*
X130800D01*
X115800Y18100D02*
X130800D01*
X153666Y77279D02*
Y86279D01*
X138666Y77279D02*
Y86279D01*
Y77279D02*
X153666D01*
X138666Y86279D02*
X153666D01*
X72610Y107362D02*
Y122362D01*
X63610D02*
X72610D01*
X63610Y107362D02*
Y122362D01*
Y107362D02*
X72610D01*
X91900Y104900D02*
Y113742D01*
X74900Y104900D02*
X91900D01*
X74900D02*
Y113742D01*
X91900D01*
X32342Y93106D02*
Y106299D01*
X44941D01*
Y93106D02*
Y106299D01*
X32342Y93106D02*
X44941D01*
X32342Y107280D02*
X44941D01*
Y120472D01*
X32342D02*
X44941D01*
X32342Y107280D02*
Y120472D01*
Y121453D02*
Y134646D01*
X44941D01*
Y121453D02*
Y134646D01*
X32342Y121453D02*
X44941D01*
X63831Y69122D02*
Y78122D01*
X44831Y69122D02*
X63831D01*
X44831D02*
Y78122D01*
X63831D01*
X25752Y69122D02*
Y77965D01*
Y69122D02*
X42752D01*
Y77965D01*
X25752D02*
X42752D01*
X83256Y72996D02*
X92098D01*
Y89996D01*
X83256D02*
X92098D01*
X83256Y72996D02*
Y89996D01*
X93295Y72996D02*
X102138D01*
Y89996D01*
X93295D02*
X102138D01*
X93295Y72996D02*
Y89996D01*
X37028Y123059D02*
Y132059D01*
X22028Y123059D02*
X37028D01*
X22028D02*
Y132059D01*
X37028D01*
X21732Y103713D02*
X36732D01*
X21732Y94713D02*
Y103713D01*
Y94713D02*
X36732D01*
Y103713D01*
X96642Y41303D02*
Y58303D01*
X105484D01*
Y41303D02*
Y58303D01*
X96642Y41303D02*
X105484D01*
X69673Y47799D02*
Y64799D01*
X78516D01*
Y47799D02*
Y64799D01*
X69673Y47799D02*
X78516D01*
X45894Y92795D02*
X54894D01*
X45894D02*
Y107795D01*
X54894D01*
Y92795D02*
Y107795D01*
X59134Y96287D02*
Y105287D01*
X74134D01*
Y96287D02*
Y105287D01*
X59134Y96287D02*
X74134D01*
X105402Y11004D02*
Y28004D01*
X114244D01*
Y11004D02*
Y28004D01*
X105402Y11004D02*
X114244D01*
X137874Y60067D02*
Y69067D01*
X152874D01*
Y60067D02*
Y69067D01*
X137874Y60067D02*
X152874D01*
X146445Y40713D02*
Y57713D01*
X155287D01*
Y40713D02*
Y57713D01*
X146445Y40713D02*
X155287D01*
X112216Y72996D02*
Y89996D01*
X103374Y72996D02*
X112216D01*
X103374D02*
Y89996D01*
X112216D01*
D12*
X147563Y85630D02*
G03*
X147563Y85630I-1500J0D01*
G01*
D13*
X30142Y106106D02*
G03*
X30142Y106106I-500J0D01*
G01*
Y120280D02*
G03*
X30142Y120280I-500J0D01*
G01*
Y134453D02*
G03*
X30142Y134453I-500J0D01*
G01*
D14*
X97933Y12014D02*
Y28550D01*
Y12014D02*
X121161D01*
Y29337D01*
X97933D02*
X121161D01*
X97933Y28550D02*
Y29337D01*
X120919Y126581D02*
Y129336D01*
X119541D01*
X119082Y128877D01*
Y127959D01*
X119541Y127499D01*
X120919D01*
X120001D02*
X119082Y126581D01*
X118164D02*
X117245D01*
X117705D01*
Y129336D01*
X118164Y128877D01*
X134721Y130119D02*
Y127364D01*
X136099D01*
X136558Y127823D01*
Y128741D01*
X136099Y129201D01*
X134721D01*
X135640D02*
X136558Y130119D01*
X137476D02*
X138395D01*
X137935D01*
Y127364D01*
X137476Y127823D01*
X139772D02*
X140231Y127364D01*
X141150D01*
X141609Y127823D01*
Y128282D01*
X141150Y128741D01*
X141609Y129201D01*
Y129660D01*
X141150Y130119D01*
X140231D01*
X139772Y129660D01*
Y129201D01*
X140231Y128741D01*
X139772Y128282D01*
Y127823D01*
X140231Y128741D02*
X141150D01*
X36606Y73452D02*
Y71156D01*
X37066Y70697D01*
X37984D01*
X38443Y71156D01*
Y73452D01*
X41198D02*
X40280Y72993D01*
X39361Y72074D01*
Y71156D01*
X39821Y70697D01*
X40739D01*
X41198Y71156D01*
Y71615D01*
X40739Y72074D01*
X39361D01*
X125581Y74181D02*
X128336D01*
Y75559D01*
X127877Y76018D01*
X126959D01*
X126499Y75559D01*
Y74181D01*
Y75099D02*
X125581Y76018D01*
Y76936D02*
Y77855D01*
Y77395D01*
X128336D01*
X127877Y76936D01*
X128336Y79232D02*
Y81069D01*
X127877D01*
X126040Y79232D01*
X125581D01*
X86981Y124221D02*
X89736D01*
Y125599D01*
X89277Y126058D01*
X88359D01*
X87899Y125599D01*
Y124221D01*
Y125140D02*
X86981Y126058D01*
X89277Y126976D02*
X89736Y127435D01*
Y128354D01*
X89277Y128813D01*
X88818D01*
X88359Y128354D01*
Y127895D01*
Y128354D01*
X87899Y128813D01*
X87440D01*
X86981Y128354D01*
Y127435D01*
X87440Y126976D01*
X88920Y77406D02*
X86624D01*
X86165Y76946D01*
Y76028D01*
X86624Y75569D01*
X88920D01*
X86165Y73273D02*
X88920D01*
X87543Y74651D01*
Y72814D01*
X60535Y134118D02*
Y131363D01*
X59158D01*
X58699Y131822D01*
Y132741D01*
X59158Y133200D01*
X60535D01*
X59617D02*
X58699Y134118D01*
X55944D02*
X57780D01*
X55944Y132281D01*
Y131822D01*
X56403Y131363D01*
X57321D01*
X57780Y131822D01*
X47075Y121240D02*
X49830D01*
Y122618D01*
X49371Y123077D01*
X48452D01*
X47993Y122618D01*
Y121240D01*
Y122159D02*
X47075Y123077D01*
Y123995D02*
Y124914D01*
Y124454D01*
X49830D01*
X49371Y123995D01*
X47075Y127668D02*
X49830D01*
X48452Y126291D01*
Y128128D01*
X100689Y19493D02*
Y16738D01*
X102067D01*
X102526Y17198D01*
Y17657D01*
X102067Y18116D01*
X100689D01*
X102067D01*
X102526Y18575D01*
Y19034D01*
X102067Y19493D01*
X100689D01*
X103444Y16738D02*
X104362D01*
X103903D01*
Y19493D01*
X103444Y19034D01*
X70417Y16320D02*
Y18616D01*
X69958Y19075D01*
X69040D01*
X68581Y18616D01*
Y16320D01*
X67662Y19075D02*
X66744D01*
X67203D01*
Y16320D01*
X67662Y16779D01*
X86221Y140552D02*
Y142848D01*
X85761Y143307D01*
X84843D01*
X84384Y142848D01*
Y140552D01*
X81629Y143307D02*
X83465D01*
X81629Y141470D01*
Y141011D01*
X82088Y140552D01*
X83006D01*
X83465Y141011D01*
X59370Y110461D02*
Y113216D01*
X57993D01*
X57533Y112757D01*
Y111838D01*
X57993Y111379D01*
X59370D01*
X58452D02*
X57533Y110461D01*
X56615Y110920D02*
X56156Y110461D01*
X55238D01*
X54778Y110920D01*
Y112757D01*
X55238Y113216D01*
X56156D01*
X56615Y112757D01*
Y112297D01*
X56156Y111838D01*
X54778D01*
X35551Y110067D02*
Y112822D01*
X34174D01*
X33715Y112363D01*
Y111444D01*
X34174Y110985D01*
X35551D01*
X34633D02*
X33715Y110067D01*
X32796Y112363D02*
X32337Y112822D01*
X31419D01*
X30959Y112363D01*
Y111904D01*
X31419Y111444D01*
X30959Y110985D01*
Y110526D01*
X31419Y110067D01*
X32337D01*
X32796Y110526D01*
Y110985D01*
X32337Y111444D01*
X32796Y111904D01*
Y112363D01*
X32337Y111444D02*
X31419D01*
X96918Y108434D02*
X96459Y108894D01*
X95540D01*
X95081Y108434D01*
Y106598D01*
X95540Y106139D01*
X96459D01*
X96918Y106598D01*
X97836Y108434D02*
X98295Y108894D01*
X99214D01*
X99673Y108434D01*
Y107975D01*
X99214Y107516D01*
X99673Y107057D01*
Y106598D01*
X99214Y106139D01*
X98295D01*
X97836Y106598D01*
Y107057D01*
X98295Y107516D01*
X97836Y107975D01*
Y108434D01*
X98295Y107516D02*
X99214D01*
X73149Y126602D02*
Y129357D01*
X71772D01*
X71313Y128898D01*
Y127980D01*
X71772Y127521D01*
X73149D01*
X72231D02*
X71313Y126602D01*
X70394D02*
X69476D01*
X69935D01*
Y129357D01*
X70394Y128898D01*
X66262Y126602D02*
X68098D01*
X66262Y128439D01*
Y128898D01*
X66721Y129357D01*
X67639D01*
X68098Y128898D01*
X136248Y59240D02*
X139003D01*
Y57863D01*
X138544Y57403D01*
X137626D01*
X137166Y57863D01*
Y59240D01*
X136248Y56485D02*
Y55567D01*
Y56026D01*
X139003D01*
X138544Y56485D01*
X134315Y55319D02*
X131560D01*
Y53941D01*
X132019Y53482D01*
X132937D01*
X133397Y53941D01*
Y55319D01*
Y54401D02*
X134315Y53482D01*
Y52564D02*
Y51645D01*
Y52105D01*
X131560D01*
X132019Y52564D01*
Y50268D02*
X131560Y49809D01*
Y48891D01*
X132019Y48431D01*
X133856D01*
X134315Y48891D01*
Y49809D01*
X133856Y50268D01*
X132019D01*
X117981Y16419D02*
Y13664D01*
X119359D01*
X119818Y14123D01*
Y15041D01*
X119359Y15501D01*
X117981D01*
X118899D02*
X119818Y16419D01*
X120736D02*
X121654D01*
X121195D01*
Y13664D01*
X120736Y14123D01*
X124869Y13664D02*
X123032D01*
Y15041D01*
X123950Y14582D01*
X124409D01*
X124869Y15041D01*
Y15960D01*
X124409Y16419D01*
X123491D01*
X123032Y15960D01*
X140847Y84598D02*
Y81843D01*
X142225D01*
X142684Y82302D01*
Y83221D01*
X142225Y83680D01*
X140847D01*
X141765D02*
X142684Y84598D01*
X143602D02*
X144520D01*
X144061D01*
Y81843D01*
X143602Y82302D01*
X147734Y81843D02*
X146816Y82302D01*
X145898Y83221D01*
Y84139D01*
X146357Y84598D01*
X147275D01*
X147734Y84139D01*
Y83680D01*
X147275Y83221D01*
X145898D01*
X64791Y108543D02*
X67546D01*
Y109921D01*
X67087Y110380D01*
X66169D01*
X65710Y109921D01*
Y108543D01*
Y109462D02*
X64791Y110380D01*
X67546Y111298D02*
Y113135D01*
X67087D01*
X65250Y111298D01*
X64791D01*
X88882Y110266D02*
X89341Y109806D01*
X90260D01*
X90719Y110266D01*
Y112102D01*
X90260Y112561D01*
X89341D01*
X88882Y112102D01*
X87964D02*
X87505Y112561D01*
X86586D01*
X86127Y112102D01*
Y110266D01*
X86586Y109806D01*
X87505D01*
X87964Y110266D01*
Y110725D01*
X87505Y111184D01*
X86127D01*
X102119Y95864D02*
Y96323D01*
X101201Y97241D01*
X100282Y96323D01*
Y95864D01*
X101201Y97241D02*
Y98619D01*
X99364D02*
X98445D01*
X98905D01*
Y95864D01*
X99364Y96323D01*
X154146Y92154D02*
X151391D01*
Y93531D01*
X151850Y93990D01*
X152768D01*
X153227Y93531D01*
Y92154D01*
X154146Y96745D02*
Y94909D01*
X152309Y96745D01*
X151850D01*
X151391Y96286D01*
Y95368D01*
X151850Y94909D01*
X12843Y93106D02*
X15139D01*
X15598Y93565D01*
Y94484D01*
X15139Y94943D01*
X12843D01*
X13303Y95861D02*
X12843Y96320D01*
Y97239D01*
X13303Y97698D01*
X13762D01*
X14221Y97239D01*
Y96780D01*
Y97239D01*
X14680Y97698D01*
X15139D01*
X15598Y97239D01*
Y96320D01*
X15139Y95861D01*
X14566Y60236D02*
X12270D01*
X11811Y59777D01*
Y58859D01*
X12270Y58399D01*
X14566D01*
Y55645D02*
Y57481D01*
X13189D01*
X13648Y56563D01*
Y56104D01*
X13189Y55645D01*
X12270D01*
X11811Y56104D01*
Y57022D01*
X12270Y57481D01*
X36660Y95747D02*
Y97583D01*
X36200Y98042D01*
X35282D01*
X34823Y97583D01*
Y95747D01*
X35282Y95287D01*
X36200D01*
X35741Y96206D02*
X36660Y95287D01*
X36200D02*
X36660Y95747D01*
X37578Y95287D02*
X38496D01*
X38037D01*
Y98042D01*
X37578Y97583D01*
X36660Y109920D02*
Y111757D01*
X36200Y112216D01*
X35282D01*
X34823Y111757D01*
Y109920D01*
X35282Y109461D01*
X36200D01*
X35741Y110379D02*
X36660Y109461D01*
X36200D02*
X36660Y109920D01*
X39415Y109461D02*
X37578D01*
X39415Y111297D01*
Y111757D01*
X38955Y112216D01*
X38037D01*
X37578Y111757D01*
X36660Y124093D02*
Y125930D01*
X36200Y126389D01*
X35282D01*
X34823Y125930D01*
Y124093D01*
X35282Y123634D01*
X36200D01*
X35741Y124552D02*
X36660Y123634D01*
X36200D02*
X36660Y124093D01*
X37578Y125930D02*
X38037Y126389D01*
X38955D01*
X39415Y125930D01*
Y125470D01*
X38955Y125011D01*
X38496D01*
X38955D01*
X39415Y124552D01*
Y124093D01*
X38955Y123634D01*
X38037D01*
X37578Y124093D01*
X60813Y72599D02*
X61272Y73058D01*
X62190D01*
X62650Y72599D01*
Y70762D01*
X62190Y70303D01*
X61272D01*
X60813Y70762D01*
X59895Y70303D02*
X58976D01*
X59435D01*
Y73058D01*
X59895Y72599D01*
X57599Y70303D02*
X56680D01*
X57140D01*
Y73058D01*
X57599Y72599D01*
X28770Y74488D02*
X28311Y74028D01*
X27392D01*
X26933Y74488D01*
Y76324D01*
X27392Y76784D01*
X28311D01*
X28770Y76324D01*
X29688Y76784D02*
X30606D01*
X30147D01*
Y74028D01*
X29688Y74488D01*
X31984D02*
X32443Y74028D01*
X33362D01*
X33821Y74488D01*
Y76324D01*
X33362Y76784D01*
X32443D01*
X31984Y76324D01*
Y74488D01*
X86733Y76014D02*
X87192Y75555D01*
Y74636D01*
X86733Y74177D01*
X84896D01*
X84437Y74636D01*
Y75555D01*
X84896Y76014D01*
X84437Y78769D02*
Y76932D01*
X86274Y78769D01*
X86733D01*
X87192Y78310D01*
Y77391D01*
X86733Y76932D01*
X96772Y76014D02*
X97231Y75555D01*
Y74636D01*
X96772Y74177D01*
X94936D01*
X94476Y74636D01*
Y75555D01*
X94936Y76014D01*
X96772Y76932D02*
X97231Y77391D01*
Y78310D01*
X96772Y78769D01*
X96313D01*
X95854Y78310D01*
Y77851D01*
Y78310D01*
X95395Y78769D01*
X94936D01*
X94476Y78310D01*
Y77391D01*
X94936Y76932D01*
X35846Y124240D02*
Y126995D01*
X34469D01*
X34010Y126536D01*
Y125618D01*
X34469Y125159D01*
X35846D01*
X34928D02*
X34010Y124240D01*
X33091D02*
X32173D01*
X32632D01*
Y126995D01*
X33091Y126536D01*
X30796D02*
X30336Y126995D01*
X29418D01*
X28959Y126536D01*
Y126077D01*
X29418Y125618D01*
X29877D01*
X29418D01*
X28959Y125159D01*
Y124699D01*
X29418Y124240D01*
X30336D01*
X30796Y124699D01*
X35551Y95894D02*
Y98649D01*
X34174D01*
X33715Y98190D01*
Y97271D01*
X34174Y96812D01*
X35551D01*
X34633D02*
X33715Y95894D01*
X30959Y98649D02*
X32796D01*
Y97271D01*
X31878Y97730D01*
X31419D01*
X30959Y97271D01*
Y96353D01*
X31419Y95894D01*
X32337D01*
X32796Y96353D01*
X100119Y44321D02*
X100578Y43862D01*
Y42943D01*
X100119Y42484D01*
X98282D01*
X97823Y42943D01*
Y43862D01*
X98282Y44321D01*
X97823Y46617D02*
X100578D01*
X99200Y45239D01*
Y47076D01*
X73150Y50817D02*
X73609Y50358D01*
Y49439D01*
X73150Y48980D01*
X71314D01*
X70854Y49439D01*
Y50358D01*
X71314Y50817D01*
X73609Y51735D02*
Y53572D01*
X73150D01*
X71314Y51735D01*
X70854D01*
X47075Y93976D02*
X49830D01*
Y95354D01*
X49371Y95813D01*
X48452D01*
X47993Y95354D01*
Y93976D01*
Y94895D02*
X47075Y95813D01*
X49830Y98568D02*
X49371Y97650D01*
X48452Y96731D01*
X47534D01*
X47075Y97190D01*
Y98109D01*
X47534Y98568D01*
X47993D01*
X48452Y98109D01*
Y96731D01*
X60315Y104106D02*
Y101351D01*
X61692D01*
X62152Y101811D01*
Y102729D01*
X61692Y103188D01*
X60315D01*
X61233D02*
X62152Y104106D01*
X64447D02*
Y101351D01*
X63070Y102729D01*
X64907D01*
X108879Y14022D02*
X109338Y13563D01*
Y12644D01*
X108879Y12185D01*
X107042D01*
X106583Y12644D01*
Y13563D01*
X107042Y14022D01*
X109338Y16777D02*
Y14940D01*
X107960D01*
X108419Y15858D01*
Y16318D01*
X107960Y16777D01*
X107042D01*
X106583Y16318D01*
Y15399D01*
X107042Y14940D01*
X139055Y67886D02*
Y65131D01*
X140433D01*
X140892Y65590D01*
Y66508D01*
X140433Y66967D01*
X139055D01*
X139973D02*
X140892Y67886D01*
X141810D02*
X142728D01*
X142269D01*
Y65131D01*
X141810Y65590D01*
X144106Y67886D02*
X145024D01*
X144565D01*
Y65131D01*
X144106Y65590D01*
X149922Y43730D02*
X150381Y43271D01*
Y42353D01*
X149922Y41894D01*
X148085D01*
X147626Y42353D01*
Y43271D01*
X148085Y43730D01*
X147626Y44649D02*
Y45567D01*
Y45108D01*
X150381D01*
X149922Y44649D01*
X108740Y86978D02*
X108280Y87437D01*
Y88356D01*
X108740Y88815D01*
X110576D01*
X111035Y88356D01*
Y87437D01*
X110576Y86978D01*
X108280Y84223D02*
X108740Y85142D01*
X109658Y86060D01*
X110576D01*
X111035Y85601D01*
Y84682D01*
X110576Y84223D01*
X110117D01*
X109658Y84682D01*
Y86060D01*
D15*
X28213Y22421D02*
X89787D01*
Y12579D02*
Y22421D01*
X28213Y12579D02*
X89787D01*
X28213D02*
Y22421D01*
X44016Y146653D02*
X105591D01*
Y136811D02*
Y146653D01*
X44016Y136811D02*
X105591D01*
X44016D02*
Y146653D01*
X154386Y34854D02*
Y63988D01*
X131748D02*
X154386D01*
X131748Y34854D02*
Y63988D01*
Y34854D02*
X154386D01*
X105800Y87300D02*
Y103300D01*
X78800D02*
X105800D01*
X78800Y87300D02*
Y103300D01*
Y87300D02*
X105800D01*
X18779Y83425D02*
Y123425D01*
X8779Y83425D02*
Y123425D01*
X18779D01*
X8779Y83425D02*
X18779D01*
X28740Y34902D02*
Y64311D01*
X3740Y34902D02*
X28740D01*
X3740D02*
Y64311D01*
X28740D01*
D16*
X100244Y31075D02*
X103576Y27742D01*
X100244D02*
X103576Y31075D01*
X100244Y29409D02*
X103576D01*
X101910Y27742D02*
Y31075D01*
D17*
X96632Y125820D02*
X100568D01*
Y127788D01*
X99912Y128444D01*
X98600D01*
X97944Y127788D01*
Y125820D01*
Y127132D02*
X96632Y128444D01*
X99912Y129756D02*
X100568Y130412D01*
Y131724D01*
X99912Y132380D01*
X99256D01*
X98600Y131724D01*
Y131068D01*
Y131724D01*
X97944Y132380D01*
X97288D01*
X96632Y131724D01*
Y130412D01*
X97288Y129756D01*
X115824Y136532D02*
Y140468D01*
X113856D01*
X113200Y139812D01*
Y138500D01*
X113856Y137844D01*
X115824D01*
X114512D02*
X113200Y136532D01*
X111888D02*
X110576D01*
X111232D01*
Y140468D01*
X111888Y139812D01*
X151432Y88480D02*
X155368D01*
Y90448D01*
X154712Y91104D01*
X153400D01*
X152744Y90448D01*
Y88480D01*
Y89792D02*
X151432Y91104D01*
Y92416D02*
Y93728D01*
Y93072D01*
X155368D01*
X154712Y92416D01*
X155368Y98320D02*
X154712Y97008D01*
X153400Y95696D01*
X152088D01*
X151432Y96352D01*
Y97664D01*
X152088Y98320D01*
X152744D01*
X153400Y97664D01*
Y95696D01*
X129383Y89343D02*
Y93279D01*
X127415D01*
X126759Y92623D01*
Y91311D01*
X127415Y90655D01*
X129383D01*
X128071D02*
X126759Y89343D01*
X125447D02*
X124135D01*
X124791D01*
Y93279D01*
X125447Y92623D01*
X122167Y93279D02*
X119543D01*
Y92623D01*
X122167Y89999D01*
Y89343D01*
X127832Y133780D02*
X131768D01*
Y135748D01*
X131112Y136404D01*
X129800D01*
X129144Y135748D01*
Y133780D01*
Y135092D02*
X127832Y136404D01*
Y137716D02*
Y139028D01*
Y138372D01*
X131768D01*
X131112Y137716D01*
Y140996D02*
X131768Y141652D01*
Y142964D01*
X131112Y143620D01*
X130456D01*
X129800Y142964D01*
X129144Y143620D01*
X128488D01*
X127832Y142964D01*
Y141652D01*
X128488Y140996D01*
X129144D01*
X129800Y141652D01*
X130456Y140996D01*
X131112D01*
X129800Y141652D02*
Y142964D01*
X127520Y25432D02*
Y29368D01*
X125552D01*
X124896Y28712D01*
Y27400D01*
X125552Y26744D01*
X127520D01*
X126208D02*
X124896Y25432D01*
X123584D02*
X122272D01*
X122928D01*
Y29368D01*
X123584Y28712D01*
X117680Y29368D02*
X120304D01*
Y27400D01*
X118992Y28056D01*
X118336D01*
X117680Y27400D01*
Y26088D01*
X118336Y25432D01*
X119648D01*
X120304Y26088D01*
X41432Y143580D02*
X45368D01*
Y145548D01*
X44712Y146204D01*
X43400D01*
X42744Y145548D01*
Y143580D01*
Y144892D02*
X41432Y146204D01*
Y147516D02*
Y148828D01*
Y148172D01*
X45368D01*
X44712Y147516D01*
X41432Y152764D02*
X45368D01*
X43400Y150796D01*
Y153420D01*
X77532Y124980D02*
X81468D01*
Y126948D01*
X80812Y127604D01*
X79500D01*
X78844Y126948D01*
Y124980D01*
Y126292D02*
X77532Y127604D01*
Y128916D02*
Y130228D01*
Y129572D01*
X81468D01*
X80812Y128916D01*
X77532Y134820D02*
Y132196D01*
X80156Y134820D01*
X80812D01*
X81468Y134164D01*
Y132852D01*
X80812Y132196D01*
X120632Y44980D02*
X124568D01*
Y46948D01*
X123912Y47604D01*
X122600D01*
X121944Y46948D01*
Y44980D01*
Y46292D02*
X120632Y47604D01*
Y48916D02*
Y50228D01*
Y49572D01*
X124568D01*
X123912Y48916D01*
Y52196D02*
X124568Y52852D01*
Y54164D01*
X123912Y54820D01*
X121288D01*
X120632Y54164D01*
Y52852D01*
X121288Y52196D01*
X123912D01*
X34120Y135032D02*
Y138968D01*
X32152D01*
X31496Y138312D01*
Y137000D01*
X32152Y136344D01*
X34120D01*
X32808D02*
X31496Y135032D01*
X30184D02*
X28872D01*
X29528D01*
Y138968D01*
X30184Y138312D01*
X26904D02*
X26248Y138968D01*
X24936D01*
X24280Y138312D01*
Y137656D01*
X24936Y137000D01*
X25592D01*
X24936D01*
X24280Y136344D01*
Y135688D01*
X24936Y135032D01*
X26248D01*
X26904Y135688D01*
X135464Y64032D02*
Y67968D01*
X133496D01*
X132840Y67312D01*
Y66000D01*
X133496Y65344D01*
X135464D01*
X134152D02*
X132840Y64032D01*
X131528D02*
X130216D01*
X130872D01*
Y67968D01*
X131528Y67312D01*
X128248Y64032D02*
X126936D01*
X127592D01*
Y67968D01*
X128248Y67312D01*
X61980Y87132D02*
Y91068D01*
X60012D01*
X59356Y90412D01*
Y89100D01*
X60012Y88444D01*
X61980D01*
X60668D02*
X59356Y87132D01*
X58044Y87788D02*
X57388Y87132D01*
X56076D01*
X55420Y87788D01*
Y90412D01*
X56076Y91068D01*
X57388D01*
X58044Y90412D01*
Y89756D01*
X57388Y89100D01*
X55420D01*
X8980Y111532D02*
Y115468D01*
X7012D01*
X6356Y114812D01*
Y113500D01*
X7012Y112844D01*
X8980D01*
X7668D02*
X6356Y111532D01*
X5044Y114812D02*
X4388Y115468D01*
X3076D01*
X2420Y114812D01*
Y114156D01*
X3076Y113500D01*
X2420Y112844D01*
Y112188D01*
X3076Y111532D01*
X4388D01*
X5044Y112188D01*
Y112844D01*
X4388Y113500D01*
X5044Y114156D01*
Y114812D01*
X4388Y113500D02*
X3076D01*
X76232Y111920D02*
X80168D01*
Y113888D01*
X79512Y114544D01*
X78200D01*
X77544Y113888D01*
Y111920D01*
Y113232D02*
X76232Y114544D01*
X80168Y115856D02*
Y118480D01*
X79512D01*
X76888Y115856D01*
X76232D01*
X32807Y88190D02*
Y92125D01*
X30839D01*
X30184Y91469D01*
Y90158D01*
X30839Y89502D01*
X32807D01*
X31495D02*
X30184Y88190D01*
X26248Y92125D02*
X28872D01*
Y90158D01*
X27560Y90813D01*
X26904D01*
X26248Y90158D01*
Y88846D01*
X26904Y88190D01*
X28216D01*
X28872Y88846D01*
X83280Y99232D02*
Y103168D01*
X81312D01*
X80656Y102512D01*
Y101200D01*
X81312Y100544D01*
X83280D01*
X81968D02*
X80656Y99232D01*
X77376D02*
Y103168D01*
X79344Y101200D01*
X76720D01*
X48332Y83920D02*
X52268D01*
Y85888D01*
X51612Y86544D01*
X50300D01*
X49644Y85888D01*
Y83920D01*
Y85232D02*
X48332Y86544D01*
X52268Y90480D02*
X51612Y89168D01*
X50300Y87856D01*
X48988D01*
X48332Y88512D01*
Y89824D01*
X48988Y90480D01*
X49644D01*
X50300Y89824D01*
Y87856D01*
X150900Y37612D02*
X151556Y38268D01*
X152868D01*
X153524Y37612D01*
Y34988D01*
X152868Y34332D01*
X151556D01*
X150900Y34988D01*
X149588Y34332D02*
X148276D01*
X148932D01*
Y38268D01*
X149588Y37612D01*
X78212Y41644D02*
X78868Y40988D01*
Y39676D01*
X78212Y39020D01*
X75588D01*
X74932Y39676D01*
Y40988D01*
X75588Y41644D01*
X78868Y42956D02*
Y45580D01*
X78212D01*
X75588Y42956D01*
X74932D01*
X55440Y62912D02*
X56096Y63568D01*
X57408D01*
X58064Y62912D01*
Y60288D01*
X57408Y59632D01*
X56096D01*
X55440Y60288D01*
X54128Y59632D02*
X52816D01*
X53472D01*
Y63568D01*
X54128Y62912D01*
X50848Y59632D02*
X49536D01*
X50192D01*
Y63568D01*
X50848Y62912D01*
X109412Y95544D02*
X110068Y94888D01*
Y93576D01*
X109412Y92920D01*
X106788D01*
X106132Y93576D01*
Y94888D01*
X106788Y95544D01*
X110068Y99480D02*
X109412Y98168D01*
X108100Y96856D01*
X106788D01*
X106132Y97512D01*
Y98824D01*
X106788Y99480D01*
X107444D01*
X108100Y98824D01*
Y96856D01*
X93212Y50544D02*
X93868Y49888D01*
Y48576D01*
X93212Y47920D01*
X90588D01*
X89932Y48576D01*
Y49888D01*
X90588Y50544D01*
X89932Y53824D02*
X93868D01*
X91900Y51856D01*
Y54480D01*
X99312Y95444D02*
X99968Y94788D01*
Y93476D01*
X99312Y92820D01*
X96688D01*
X96032Y93476D01*
Y94788D01*
X96688Y95444D01*
X99312Y96756D02*
X99968Y97412D01*
Y98724D01*
X99312Y99380D01*
X98656D01*
X98000Y98724D01*
Y98068D01*
Y98724D01*
X97344Y99380D01*
X96688D01*
X96032Y98724D01*
Y97412D01*
X96688Y96756D01*
X89612Y96044D02*
X90268Y95388D01*
Y94076D01*
X89612Y93420D01*
X86988D01*
X86332Y94076D01*
Y95388D01*
X86988Y96044D01*
X86332Y99980D02*
Y97356D01*
X88956Y99980D01*
X89612D01*
X90268Y99324D01*
Y98012D01*
X89612Y97356D01*
X111056Y34212D02*
X111712Y34868D01*
X113024D01*
X113680Y34212D01*
Y31588D01*
X113024Y30932D01*
X111712D01*
X111056Y31588D01*
X107120Y34868D02*
X109744D01*
Y32900D01*
X108432Y33556D01*
X107776D01*
X107120Y32900D01*
Y31588D01*
X107776Y30932D01*
X109088D01*
X109744Y31588D01*
X35596Y63112D02*
X36252Y63768D01*
X37564D01*
X38220Y63112D01*
Y60488D01*
X37564Y59832D01*
X36252D01*
X35596Y60488D01*
X34284Y59832D02*
X32972D01*
X33628D01*
Y63768D01*
X34284Y63112D01*
X31004D02*
X30348Y63768D01*
X29036D01*
X28380Y63112D01*
Y60488D01*
X29036Y59832D01*
X30348D01*
X31004Y60488D01*
Y63112D01*
D18*
X0Y0D02*
X157480D01*
Y157480D01*
X0Y0D02*
Y157480D01*
X157480D01*
M02*
