G04*
G04 #@! TF.GenerationSoftware,Altium Limited,Altium Designer,22.9.1 (49)*
G04*
G04 Layer_Physical_Order=2*
G04 Layer_Color=36540*
%FSLAX25Y25*%
%MOIN*%
G70*
G04*
G04 #@! TF.SameCoordinates,A1EC2913-06BD-4919-8A85-AC871236DD0E*
G04*
G04*
G04 #@! TF.FilePolarity,Positive*
G04*
G01*
G75*
%ADD10C,0.00600*%
%ADD11C,0.00787*%
%ADD12C,0.02000*%
%ADD13C,0.00984*%
%ADD14C,0.00394*%
%ADD15C,0.00500*%
%ADD16C,0.00300*%
%ADD18C,0.01968*%
%ADD27C,0.07087*%
%ADD28C,0.05937*%
%ADD33R,0.05709X0.05709*%
%ADD35C,0.05000*%
%ADD38C,0.03937*%
G36*
X139370Y118898D02*
X140157D01*
Y116827D01*
X139567Y116750D01*
X139501Y116995D01*
X138982Y117894D01*
X138248Y118628D01*
X137349Y119147D01*
X136346Y119416D01*
X136027D01*
Y115472D01*
Y111529D01*
X136346D01*
X137349Y111798D01*
X138248Y112317D01*
X138982Y113051D01*
X139501Y113950D01*
X139567Y114195D01*
X140157Y114117D01*
Y106827D01*
X139567Y106750D01*
X139501Y106994D01*
X138982Y107894D01*
X138248Y108628D01*
X137349Y109147D01*
X136346Y109416D01*
X135308D01*
X134305Y109147D01*
X133405Y108628D01*
X132671Y107894D01*
X132152Y106994D01*
X131884Y105992D01*
Y104953D01*
X132152Y103950D01*
X132671Y103051D01*
X133405Y102317D01*
X134305Y101798D01*
X135308Y101529D01*
X136346D01*
X137349Y101798D01*
X138248Y102317D01*
X138982Y103051D01*
X139501Y103950D01*
X139567Y104195D01*
X140157Y104117D01*
Y96828D01*
X139567Y96750D01*
X139501Y96995D01*
X138982Y97894D01*
X138248Y98628D01*
X137349Y99147D01*
X136346Y99416D01*
X135308D01*
X134305Y99147D01*
X133405Y98628D01*
X132671Y97894D01*
X132152Y96995D01*
X131884Y95992D01*
Y94953D01*
X132152Y93950D01*
X132671Y93051D01*
X133405Y92317D01*
X134305Y91798D01*
X135308Y91529D01*
X136346D01*
X137349Y91798D01*
X138248Y92317D01*
X138982Y93051D01*
X139501Y93950D01*
X139567Y94195D01*
X140157Y94117D01*
Y92913D01*
X138189Y90945D01*
Y78969D01*
X138189Y57108D01*
X137845Y56764D01*
X137325Y55865D01*
X137057Y54862D01*
Y53823D01*
X137325Y52820D01*
X137845Y51921D01*
X138189Y51577D01*
Y46632D01*
X137738Y45851D01*
X137500Y44961D01*
Y44039D01*
X137738Y43149D01*
X138189Y42368D01*
X138189Y24289D01*
X124136Y10236D01*
X64173D01*
X57365Y17044D01*
X57368Y17056D01*
Y17943D01*
X57139Y18800D01*
X56695Y19568D01*
X56068Y20196D01*
X55300Y20639D01*
X54444Y20868D01*
X53557D01*
X53544Y20865D01*
X48425Y25984D01*
X48425Y100978D01*
X61208Y111529D01*
X95472Y139811D01*
Y144685D01*
X97441Y146653D01*
X106299D01*
X106299Y146653D01*
X111614Y146653D01*
X139370Y118898D01*
D02*
G37*
G36*
X55118Y144685D02*
Y129527D01*
X45018Y119428D01*
X44612Y119509D01*
X43983Y120138D01*
X43976Y120511D01*
X44030Y120796D01*
X44298Y120907D01*
X44993Y121602D01*
X45368Y122509D01*
Y123491D01*
X44993Y124398D01*
X44298Y125093D01*
X43391Y125469D01*
X42409D01*
X41502Y125093D01*
X40807Y124398D01*
X40431Y123491D01*
Y122509D01*
X40807Y121602D01*
X41436Y120973D01*
X41444Y120599D01*
X41390Y120314D01*
X41121Y120203D01*
X40427Y119509D01*
X40051Y118601D01*
Y117619D01*
X40427Y116712D01*
X41015Y116124D01*
X41048Y115457D01*
X38583Y112992D01*
Y92130D01*
X38491Y92068D01*
X37509D01*
X36602Y91693D01*
X35907Y90998D01*
X35531Y90091D01*
Y89109D01*
X35907Y88202D01*
X36602Y87507D01*
X37509Y87132D01*
X38491D01*
X38583Y87070D01*
Y83465D01*
X23228Y68110D01*
Y45672D01*
X49700Y19200D01*
Y13900D01*
X46807Y11759D01*
X43141D01*
X37369Y17531D01*
Y17943D01*
X37139Y18800D01*
X36696Y19568D01*
X36068Y20196D01*
X35300Y20639D01*
X34444Y20868D01*
X34032D01*
X18898Y36002D01*
X18957Y36451D01*
X19691Y37185D01*
X20210Y38084D01*
X20479Y39087D01*
Y40126D01*
X20210Y41128D01*
X19691Y42028D01*
X18957Y42762D01*
X18057Y43281D01*
X17055Y43550D01*
X16016D01*
X15013Y43281D01*
X14114Y42762D01*
X13380Y42028D01*
X12932Y41969D01*
X9055Y45845D01*
X9055Y122047D01*
X35039Y148031D01*
X51772D01*
X55118Y144685D01*
D02*
G37*
%LPC*%
G36*
X100247Y145101D02*
X99360D01*
X98503Y144871D01*
X97735Y144428D01*
X97108Y143801D01*
X96664Y143033D01*
X96435Y142176D01*
Y141289D01*
X96664Y140432D01*
X97108Y139664D01*
X97735Y139037D01*
X98503Y138593D01*
X99360Y138364D01*
X100247D01*
X101103Y138593D01*
X101872Y139037D01*
X102499Y139664D01*
X102942Y140432D01*
X103172Y141289D01*
Y142176D01*
X102942Y143033D01*
X102499Y143801D01*
X101927Y144372D01*
D01*
X101872Y144428D01*
X101103Y144871D01*
X100247Y145101D01*
D02*
G37*
G36*
X135627Y119416D02*
X135308D01*
X134305Y119147D01*
X133405Y118628D01*
X132671Y117894D01*
X132152Y116995D01*
X131884Y115992D01*
Y115673D01*
X135627D01*
Y119416D01*
D02*
G37*
G36*
Y115272D02*
X131884D01*
Y114953D01*
X132152Y113950D01*
X132671Y113051D01*
X133405Y112317D01*
X134305Y111798D01*
X135308Y111529D01*
X135627D01*
Y115272D01*
D02*
G37*
G36*
X68291Y96569D02*
X67309D01*
X66402Y96193D01*
X65707Y95498D01*
X65332Y94591D01*
Y93609D01*
X65707Y92702D01*
X66402Y92007D01*
X67309Y91632D01*
X68291D01*
X69198Y92007D01*
X69893Y92702D01*
X70268Y93609D01*
Y94591D01*
X69893Y95498D01*
X69198Y96193D01*
X68291Y96569D01*
D02*
G37*
G36*
X76791Y93568D02*
X75809D01*
X74902Y93193D01*
X74207Y92498D01*
X73831Y91591D01*
Y90609D01*
X74207Y89702D01*
X74902Y89007D01*
X75809Y88631D01*
X76791D01*
X77698Y89007D01*
X78393Y89702D01*
X78768Y90609D01*
Y91591D01*
X78393Y92498D01*
X77698Y93193D01*
X76791Y93568D01*
D02*
G37*
G36*
X81891Y79724D02*
X80909D01*
X80002Y79349D01*
X79307Y78654D01*
X78931Y77747D01*
Y76765D01*
X79307Y75858D01*
X80002Y75163D01*
X80909Y74787D01*
X81891D01*
X82798Y75163D01*
X83493Y75858D01*
X83868Y76765D01*
Y77747D01*
X83493Y78654D01*
X82798Y79349D01*
X81891Y79724D01*
D02*
G37*
G36*
X115791Y78969D02*
X114809D01*
X113902Y78593D01*
X113207Y77898D01*
X112831Y76991D01*
Y76009D01*
X113207Y75102D01*
X113902Y74407D01*
X114809Y74032D01*
X115791D01*
X116698Y74407D01*
X117393Y75102D01*
X117769Y76009D01*
Y76991D01*
X117393Y77898D01*
X116698Y78593D01*
X115791Y78969D01*
D02*
G37*
G36*
X91691Y73769D02*
X90709D01*
X89802Y73393D01*
X89107Y72698D01*
X88949Y72316D01*
X88310D01*
X88193Y72598D01*
X87498Y73293D01*
X86591Y73668D01*
X85609D01*
X84702Y73293D01*
X84007Y72598D01*
X83631Y71691D01*
Y70709D01*
X84007Y69802D01*
X84702Y69107D01*
X85609Y68731D01*
X86591D01*
X87498Y69107D01*
X88193Y69802D01*
X88351Y70184D01*
X88990D01*
X89107Y69902D01*
X89802Y69207D01*
X90709Y68831D01*
X91691D01*
X92598Y69207D01*
X93293Y69902D01*
X93669Y70809D01*
Y71791D01*
X93293Y72698D01*
X92598Y73393D01*
X91691Y73769D01*
D02*
G37*
G36*
X111908Y74122D02*
X110926D01*
X110019Y73746D01*
X109325Y73052D01*
X108949Y72145D01*
Y71162D01*
X109325Y70255D01*
X110019Y69561D01*
X110926Y69185D01*
X111908D01*
X112816Y69561D01*
X113510Y70255D01*
X113886Y71162D01*
Y72145D01*
X113510Y73052D01*
X112816Y73746D01*
X111908Y74122D01*
D02*
G37*
G36*
X97791Y73941D02*
X96809D01*
X95902Y73565D01*
X95207Y72871D01*
X94832Y71964D01*
Y70981D01*
X95207Y70074D01*
X95902Y69380D01*
X96809Y69004D01*
X97791D01*
X98698Y69380D01*
X99393Y70074D01*
X99769Y70981D01*
Y71964D01*
X99393Y72871D01*
X98698Y73565D01*
X97791Y73941D01*
D02*
G37*
G36*
X80291Y67568D02*
X79309D01*
X78402Y67193D01*
X77707Y66498D01*
X77332Y65591D01*
Y64609D01*
X77707Y63702D01*
X78402Y63007D01*
X79309Y62631D01*
X80291D01*
X81198Y63007D01*
X81893Y63702D01*
X82269Y64609D01*
Y65591D01*
X81893Y66498D01*
X81198Y67193D01*
X80291Y67568D01*
D02*
G37*
G36*
X120274Y64870D02*
X119292D01*
X118385Y64494D01*
X117691Y63800D01*
X117315Y62893D01*
Y61911D01*
X117691Y61003D01*
X118385Y60309D01*
X119292Y59933D01*
X120274D01*
X121182Y60309D01*
X121876Y61003D01*
X122252Y61911D01*
Y62893D01*
X121876Y63800D01*
X121182Y64494D01*
X120274Y64870D01*
D02*
G37*
G36*
X101291Y64169D02*
X100309D01*
X99402Y63793D01*
X98707Y63098D01*
X98331Y62191D01*
Y61209D01*
X98707Y60302D01*
X99402Y59607D01*
X100309Y59232D01*
X101291D01*
X102198Y59607D01*
X102893Y60302D01*
X103269Y61209D01*
Y62191D01*
X102893Y63098D01*
X102198Y63793D01*
X101291Y64169D01*
D02*
G37*
G36*
X79791Y61968D02*
X78809D01*
X77902Y61593D01*
X77207Y60898D01*
X76832Y59991D01*
Y59009D01*
X77207Y58102D01*
X77902Y57407D01*
X78809Y57032D01*
X79791D01*
X80698Y57407D01*
X81393Y58102D01*
X81769Y59009D01*
Y59991D01*
X81393Y60898D01*
X80698Y61593D01*
X79791Y61968D01*
D02*
G37*
G36*
X67420Y61524D02*
X66438D01*
X65531Y61148D01*
X64836Y60453D01*
X64461Y59546D01*
Y58564D01*
X64836Y57657D01*
X65531Y56962D01*
X66438Y56587D01*
X67420D01*
X68327Y56962D01*
X69022Y57657D01*
X69398Y58564D01*
Y59546D01*
X69022Y60453D01*
X68327Y61148D01*
X67420Y61524D01*
D02*
G37*
G36*
X101291Y47127D02*
X100309D01*
X99402Y46751D01*
X98707Y46057D01*
X98331Y45149D01*
Y44167D01*
X98707Y43260D01*
X99402Y42566D01*
X100309Y42190D01*
X101291D01*
X102198Y42566D01*
X102893Y43260D01*
X103269Y44167D01*
Y45149D01*
X102893Y46057D01*
X102198Y46751D01*
X101291Y47127D01*
D02*
G37*
G36*
X71039Y44701D02*
X70057D01*
X69149Y44325D01*
X68455Y43631D01*
X68079Y42723D01*
Y41741D01*
X68455Y40834D01*
X69149Y40140D01*
X70057Y39764D01*
X71039D01*
X71946Y40140D01*
X72640Y40834D01*
X73016Y41741D01*
Y42723D01*
X72640Y43631D01*
X71946Y44325D01*
X71039Y44701D01*
D02*
G37*
G36*
X123595Y23600D02*
X122805D01*
X122042Y23396D01*
X121358Y23001D01*
X120799Y22442D01*
X120404Y21758D01*
X120200Y20995D01*
Y20205D01*
X120404Y19442D01*
X120799Y18758D01*
X121358Y18199D01*
X122042Y17804D01*
X122805Y17600D01*
X123595D01*
X124358Y17804D01*
X125042Y18199D01*
X125601Y18758D01*
X125996Y19442D01*
X126200Y20205D01*
Y20995D01*
X125996Y21758D01*
X125601Y22442D01*
X125042Y23001D01*
X124358Y23396D01*
X123595Y23600D01*
D02*
G37*
G36*
X97995Y23400D02*
X97205D01*
X96442Y23196D01*
X95758Y22801D01*
X95199Y22242D01*
X94804Y21558D01*
X94600Y20795D01*
Y20005D01*
X94804Y19242D01*
X95199Y18558D01*
X95758Y17999D01*
X96442Y17604D01*
X97205Y17400D01*
X97995D01*
X98758Y17604D01*
X99442Y17999D01*
X100001Y18558D01*
X100396Y19242D01*
X100600Y20005D01*
Y20795D01*
X100396Y21558D01*
X100001Y22242D01*
X99442Y22801D01*
X98758Y23196D01*
X97995Y23400D01*
D02*
G37*
G36*
X84443Y20868D02*
X83556D01*
X82700Y20639D01*
X81932Y20196D01*
X81305Y19568D01*
X80861Y18800D01*
X80632Y17943D01*
Y17056D01*
X80861Y16200D01*
X81305Y15432D01*
X81932Y14805D01*
X82700Y14361D01*
X83556Y14131D01*
X84443D01*
X85300Y14361D01*
X86068Y14805D01*
X86695Y15432D01*
X87139Y16200D01*
X87369Y17056D01*
Y17943D01*
X87139Y18800D01*
X86695Y19568D01*
X86068Y20196D01*
X85300Y20639D01*
X84443Y20868D01*
D02*
G37*
G36*
X74444D02*
X73557D01*
X72700Y20639D01*
X71932Y20196D01*
X71305Y19568D01*
X70861Y18800D01*
X70631Y17943D01*
Y17056D01*
X70861Y16200D01*
X71305Y15432D01*
X71932Y14805D01*
X72700Y14361D01*
X73557Y14131D01*
X74444D01*
X75300Y14361D01*
X76068Y14805D01*
X76696Y15432D01*
X77139Y16200D01*
X77368Y17056D01*
Y17943D01*
X77139Y18800D01*
X76696Y19568D01*
X76068Y20196D01*
X75300Y20639D01*
X74444Y20868D01*
D02*
G37*
G36*
X64443D02*
X63556D01*
X62700Y20639D01*
X61932Y20196D01*
X61304Y19568D01*
X60861Y18800D01*
X60632Y17943D01*
Y17056D01*
X60861Y16200D01*
X61304Y15432D01*
X61932Y14805D01*
X62700Y14361D01*
X63556Y14131D01*
X64443D01*
X65300Y14361D01*
X66068Y14805D01*
X66695Y15432D01*
X67139Y16200D01*
X67369Y17056D01*
Y17943D01*
X67139Y18800D01*
X66695Y19568D01*
X66068Y20196D01*
X65300Y20639D01*
X64443Y20868D01*
D02*
G37*
G36*
X50247Y145101D02*
X49360D01*
X48503Y144871D01*
X47735Y144428D01*
X47108Y143801D01*
X46664Y143033D01*
X46435Y142176D01*
Y141289D01*
X46664Y140432D01*
X47108Y139664D01*
X47735Y139037D01*
X48503Y138593D01*
X49360Y138364D01*
X50247D01*
X51103Y138593D01*
X51872Y139037D01*
X52499Y139664D01*
X52942Y140432D01*
X53172Y141289D01*
Y142176D01*
X52942Y143033D01*
X52499Y143801D01*
X51872Y144428D01*
X51103Y144871D01*
X50247Y145101D01*
D02*
G37*
G36*
X43404Y139083D02*
X42422D01*
X41515Y138707D01*
X40821Y138013D01*
X40445Y137105D01*
Y136123D01*
X40821Y135216D01*
X41370Y134667D01*
X41332Y134115D01*
X41276Y133989D01*
X40802Y133793D01*
X40107Y133098D01*
X39731Y132191D01*
Y131209D01*
X40107Y130302D01*
X40802Y129607D01*
X41709Y129232D01*
X42691D01*
X43598Y129607D01*
X44293Y130302D01*
X44668Y131209D01*
Y132191D01*
X44293Y133098D01*
X43744Y133647D01*
X43781Y134199D01*
X43837Y134325D01*
X44312Y134521D01*
X45006Y135216D01*
X45382Y136123D01*
Y137105D01*
X45006Y138013D01*
X44312Y138707D01*
X43404Y139083D01*
D02*
G37*
G36*
X14299Y122369D02*
X13260D01*
X12257Y122100D01*
X11358Y121581D01*
X10624Y120846D01*
X10105Y119947D01*
X9836Y118944D01*
Y117906D01*
X10105Y116903D01*
X10624Y116004D01*
X11358Y115270D01*
X12257Y114751D01*
X13260Y114482D01*
X14299D01*
X15302Y114751D01*
X16201Y115270D01*
X16935Y116004D01*
X17454Y116903D01*
X17723Y117906D01*
Y118944D01*
X17454Y119947D01*
X16935Y120846D01*
X16201Y121581D01*
X15302Y122100D01*
X14299Y122369D01*
D02*
G37*
G36*
X29434Y110598D02*
X28452D01*
X27545Y110222D01*
X26851Y109527D01*
X26475Y108620D01*
Y107638D01*
X26851Y106731D01*
X27545Y106036D01*
X28452Y105660D01*
X29434D01*
X30342Y106036D01*
X31036Y106731D01*
X31412Y107638D01*
Y108620D01*
X31036Y109527D01*
X30342Y110222D01*
X29434Y110598D01*
D02*
G37*
G36*
X14299Y112369D02*
X13260D01*
X12257Y112100D01*
X11358Y111581D01*
X10624Y110846D01*
X10105Y109947D01*
X9836Y108944D01*
Y107906D01*
X10105Y106903D01*
X10624Y106004D01*
X11358Y105270D01*
X12257Y104751D01*
X13260Y104482D01*
X14299D01*
X15302Y104751D01*
X16201Y105270D01*
X16935Y106004D01*
X17454Y106903D01*
X17723Y107906D01*
Y108944D01*
X17454Y109947D01*
X16935Y110846D01*
X16201Y111581D01*
X15302Y112100D01*
X14299Y112369D01*
D02*
G37*
G36*
Y102368D02*
X13260D01*
X12257Y102100D01*
X11358Y101581D01*
X10624Y100847D01*
X10105Y99947D01*
X9836Y98944D01*
Y97906D01*
X10105Y96903D01*
X10624Y96004D01*
X11358Y95270D01*
X12257Y94751D01*
X13260Y94482D01*
X14299D01*
X15302Y94751D01*
X16201Y95270D01*
X16935Y96004D01*
X17454Y96903D01*
X17723Y97906D01*
Y98944D01*
X17454Y99947D01*
X16935Y100847D01*
X16201Y101581D01*
X15302Y102100D01*
X14299Y102368D01*
D02*
G37*
G36*
X17034Y91680D02*
X13980D01*
Y88625D01*
X17034D01*
Y91680D01*
D02*
G37*
G36*
X13579D02*
X10525D01*
Y88625D01*
X13579D01*
Y91680D01*
D02*
G37*
G36*
X17034Y88225D02*
X13980D01*
Y85171D01*
X17034D01*
Y88225D01*
D02*
G37*
G36*
X13579D02*
X10525D01*
Y85171D01*
X13579D01*
Y88225D01*
D02*
G37*
G36*
X17004Y63166D02*
X16067D01*
X15161Y62923D01*
X14350Y62455D01*
X13687Y61792D01*
X13218Y60980D01*
X12976Y60075D01*
Y59138D01*
X13218Y58232D01*
X13687Y57421D01*
X14350Y56758D01*
X15161Y56289D01*
X16067Y56047D01*
X17004D01*
X17909Y56289D01*
X18721Y56758D01*
X19384Y57421D01*
X19852Y58232D01*
X20095Y59138D01*
Y60075D01*
X19852Y60980D01*
X19384Y61792D01*
X18721Y62455D01*
X17909Y62923D01*
X17004Y63166D01*
D02*
G37*
G36*
X17055Y53550D02*
X16735D01*
Y49806D01*
X20479D01*
Y50125D01*
X20210Y51128D01*
X19691Y52027D01*
X18957Y52762D01*
X18057Y53281D01*
X17055Y53550D01*
D02*
G37*
G36*
X16335D02*
X16016D01*
X15013Y53281D01*
X14114Y52762D01*
X13380Y52027D01*
X12861Y51128D01*
X12592Y50125D01*
Y49806D01*
X16335D01*
Y53550D01*
D02*
G37*
G36*
X20479Y49406D02*
X16735D01*
Y45663D01*
X17055D01*
X18057Y45932D01*
X18957Y46451D01*
X19691Y47185D01*
X20210Y48084D01*
X20479Y49087D01*
Y49406D01*
D02*
G37*
G36*
X16335D02*
X12592D01*
Y49087D01*
X12861Y48084D01*
X13380Y47185D01*
X14114Y46451D01*
X15013Y45932D01*
X16016Y45663D01*
X16335D01*
Y49406D01*
D02*
G37*
G36*
X44444Y20868D02*
X44200D01*
Y17700D01*
X47368D01*
Y17943D01*
X47139Y18800D01*
X46696Y19568D01*
X46068Y20196D01*
X45300Y20639D01*
X44444Y20868D01*
D02*
G37*
G36*
X43800D02*
X43556D01*
X42700Y20639D01*
X41932Y20196D01*
X41304Y19568D01*
X40861Y18800D01*
X40631Y17943D01*
Y17700D01*
X43800D01*
Y20868D01*
D02*
G37*
G36*
X47368Y17300D02*
X44200D01*
Y14131D01*
X44444D01*
X45300Y14361D01*
X46068Y14805D01*
X46696Y15432D01*
X47139Y16200D01*
X47368Y17056D01*
Y17300D01*
D02*
G37*
G36*
X43800D02*
X40631D01*
Y17056D01*
X40861Y16200D01*
X41304Y15432D01*
X41932Y14805D01*
X42700Y14361D01*
X43556Y14131D01*
X43800D01*
Y17300D01*
D02*
G37*
%LPD*%
D10*
X30725Y59666D02*
G03*
X30725Y59666I-500J0D01*
G01*
X113294Y20675D02*
G03*
X113294Y20675I-3550J0D01*
G01*
X33425Y56016D02*
Y92016D01*
X63425D01*
Y56016D02*
Y92016D01*
X33425Y56016D02*
X63425D01*
X106157Y14476D02*
X113331D01*
X117144Y19152D02*
Y22199D01*
X106157Y26875D02*
X113331D01*
X102344Y19152D02*
Y22199D01*
X151327Y89972D02*
Y120972D01*
X130327D02*
X151327D01*
X130327Y89972D02*
Y120972D01*
Y89972D02*
X151327D01*
D11*
X92189Y17500D02*
G03*
X92189Y17500I-394J0D01*
G01*
X107992Y141732D02*
G03*
X107992Y141732I-394J0D01*
G01*
X141394Y31941D02*
G03*
X141394Y31941I-394J0D01*
G01*
X14173Y80866D02*
G03*
X14173Y80866I-394J0D01*
G01*
X16929Y67264D02*
G03*
X16929Y67264I-394J0D01*
G01*
X108100Y124900D02*
X123100D01*
X108100Y133900D02*
X123100D01*
Y124900D02*
Y133900D01*
X108100Y124900D02*
Y133900D01*
X147540Y122800D02*
Y131800D01*
X132540Y122800D02*
Y131800D01*
Y122800D02*
X147540D01*
X132540Y131800D02*
X147540D01*
X70484Y85587D02*
X102984D01*
X70484Y77953D02*
Y85587D01*
Y46087D02*
Y78587D01*
Y46087D02*
X109984D01*
Y53937D01*
Y53587D02*
Y82087D01*
X106484Y85587D02*
X109984Y82087D01*
X102165Y85587D02*
X106484D01*
X123900Y72000D02*
Y87000D01*
X132900Y72000D02*
Y87000D01*
X123900Y72000D02*
X132900D01*
X123900Y87000D02*
X132900D01*
X85300Y137040D02*
X94300D01*
X85300Y122040D02*
X94300D01*
Y137040D01*
X85300Y122040D02*
Y137040D01*
X47717Y135799D02*
X62717D01*
X47717Y126799D02*
X62717D01*
Y135799D01*
X47717Y126799D02*
Y135799D01*
X45894Y120059D02*
X54894D01*
X45894D02*
Y135059D01*
X54894D01*
Y120059D02*
Y135059D01*
X45551Y118280D02*
X60551D01*
X45551Y109280D02*
Y118280D01*
Y109280D02*
X60551D01*
Y118280D01*
X36732Y108886D02*
Y117886D01*
X21732Y108886D02*
X36732D01*
X21732D02*
Y117886D01*
X36732D01*
X93900Y104957D02*
X110900D01*
Y113800D01*
X93900D02*
X110900D01*
X93900Y104957D02*
Y113800D01*
X59331Y134421D02*
X74331D01*
X59331Y125421D02*
Y134421D01*
Y125421D02*
X74331D01*
Y134421D01*
X126996Y42500D02*
X135996D01*
X126996Y57500D02*
X135996D01*
X126996Y42500D02*
Y57500D01*
X135996Y42500D02*
Y57500D01*
X130800Y9100D02*
Y18100D01*
X115800Y9100D02*
Y18100D01*
Y9100D02*
X130800D01*
X115800Y18100D02*
X130800D01*
X153666Y77279D02*
Y86279D01*
X138666Y77279D02*
Y86279D01*
Y77279D02*
X153666D01*
X138666Y86279D02*
X153666D01*
X72610Y107362D02*
Y122362D01*
X63610D02*
X72610D01*
X63610Y107362D02*
Y122362D01*
Y107362D02*
X72610D01*
X91900Y104900D02*
Y113742D01*
X74900Y104900D02*
X91900D01*
X74900D02*
Y113742D01*
X91900D01*
X32342Y93106D02*
Y106299D01*
X44941D01*
Y93106D02*
Y106299D01*
X32342Y93106D02*
X44941D01*
X32342Y107280D02*
X44941D01*
Y120472D01*
X32342D02*
X44941D01*
X32342Y107280D02*
Y120472D01*
Y121453D02*
Y134646D01*
X44941D01*
Y121453D02*
Y134646D01*
X32342Y121453D02*
X44941D01*
X63831Y69122D02*
Y78122D01*
X44831Y69122D02*
X63831D01*
X44831D02*
Y78122D01*
X63831D01*
X25752Y69122D02*
Y77965D01*
Y69122D02*
X42752D01*
Y77965D01*
X25752D02*
X42752D01*
X83256Y72996D02*
X92098D01*
Y89996D01*
X83256D02*
X92098D01*
X83256Y72996D02*
Y89996D01*
X93295Y72996D02*
X102138D01*
Y89996D01*
X93295D02*
X102138D01*
X93295Y72996D02*
Y89996D01*
X37028Y123059D02*
Y132059D01*
X22028Y123059D02*
X37028D01*
X22028D02*
Y132059D01*
X37028D01*
X21732Y103713D02*
X36732D01*
X21732Y94713D02*
Y103713D01*
Y94713D02*
X36732D01*
Y103713D01*
X96642Y41303D02*
Y58303D01*
X105484D01*
Y41303D02*
Y58303D01*
X96642Y41303D02*
X105484D01*
X69673Y47799D02*
Y64799D01*
X78516D01*
Y47799D02*
Y64799D01*
X69673Y47799D02*
X78516D01*
X45894Y92795D02*
X54894D01*
X45894D02*
Y107795D01*
X54894D01*
Y92795D02*
Y107795D01*
X59134Y96287D02*
Y105287D01*
X74134D01*
Y96287D02*
Y105287D01*
X59134Y96287D02*
X74134D01*
X105402Y11004D02*
Y28004D01*
X114244D01*
Y11004D02*
Y28004D01*
X105402Y11004D02*
X114244D01*
X137874Y60067D02*
Y69067D01*
X152874D01*
Y60067D02*
Y69067D01*
X137874Y60067D02*
X152874D01*
X146445Y40713D02*
Y57713D01*
X155287D01*
Y40713D02*
Y57713D01*
X146445Y40713D02*
X155287D01*
X112216Y72996D02*
Y89996D01*
X103374Y72996D02*
X112216D01*
X103374D02*
Y89996D01*
X112216D01*
D12*
X147563Y85630D02*
G03*
X147563Y85630I-1500J0D01*
G01*
D13*
X30142Y106106D02*
G03*
X30142Y106106I-500J0D01*
G01*
Y120280D02*
G03*
X30142Y120280I-500J0D01*
G01*
Y134453D02*
G03*
X30142Y134453I-500J0D01*
G01*
D14*
X97933Y12014D02*
Y28550D01*
Y12014D02*
X121161D01*
Y29337D01*
X97933D02*
X121161D01*
X97933Y28550D02*
Y29337D01*
X120919Y126581D02*
Y129336D01*
X119541D01*
X119082Y128877D01*
Y127959D01*
X119541Y127499D01*
X120919D01*
X120001D02*
X119082Y126581D01*
X118164D02*
X117245D01*
X117705D01*
Y129336D01*
X118164Y128877D01*
X134721Y130119D02*
Y127364D01*
X136099D01*
X136558Y127823D01*
Y128741D01*
X136099Y129201D01*
X134721D01*
X135640D02*
X136558Y130119D01*
X137476D02*
X138395D01*
X137935D01*
Y127364D01*
X137476Y127823D01*
X139772D02*
X140231Y127364D01*
X141150D01*
X141609Y127823D01*
Y128282D01*
X141150Y128741D01*
X141609Y129201D01*
Y129660D01*
X141150Y130119D01*
X140231D01*
X139772Y129660D01*
Y129201D01*
X140231Y128741D01*
X139772Y128282D01*
Y127823D01*
X140231Y128741D02*
X141150D01*
X36606Y73452D02*
Y71156D01*
X37066Y70697D01*
X37984D01*
X38443Y71156D01*
Y73452D01*
X41198D02*
X40280Y72993D01*
X39361Y72074D01*
Y71156D01*
X39821Y70697D01*
X40739D01*
X41198Y71156D01*
Y71615D01*
X40739Y72074D01*
X39361D01*
X125581Y74181D02*
X128336D01*
Y75559D01*
X127877Y76018D01*
X126959D01*
X126499Y75559D01*
Y74181D01*
Y75099D02*
X125581Y76018D01*
Y76936D02*
Y77855D01*
Y77395D01*
X128336D01*
X127877Y76936D01*
X128336Y79232D02*
Y81069D01*
X127877D01*
X126040Y79232D01*
X125581D01*
X86981Y124221D02*
X89736D01*
Y125599D01*
X89277Y126058D01*
X88359D01*
X87899Y125599D01*
Y124221D01*
Y125140D02*
X86981Y126058D01*
X89277Y126976D02*
X89736Y127435D01*
Y128354D01*
X89277Y128813D01*
X88818D01*
X88359Y128354D01*
Y127895D01*
Y128354D01*
X87899Y128813D01*
X87440D01*
X86981Y128354D01*
Y127435D01*
X87440Y126976D01*
X88920Y77406D02*
X86624D01*
X86165Y76946D01*
Y76028D01*
X86624Y75569D01*
X88920D01*
X86165Y73273D02*
X88920D01*
X87543Y74651D01*
Y72814D01*
X60535Y134118D02*
Y131363D01*
X59158D01*
X58699Y131822D01*
Y132741D01*
X59158Y133200D01*
X60535D01*
X59617D02*
X58699Y134118D01*
X55944D02*
X57780D01*
X55944Y132281D01*
Y131822D01*
X56403Y131363D01*
X57321D01*
X57780Y131822D01*
X47075Y121240D02*
X49830D01*
Y122618D01*
X49371Y123077D01*
X48452D01*
X47993Y122618D01*
Y121240D01*
Y122159D02*
X47075Y123077D01*
Y123995D02*
Y124914D01*
Y124454D01*
X49830D01*
X49371Y123995D01*
X47075Y127668D02*
X49830D01*
X48452Y126291D01*
Y128128D01*
X100689Y19493D02*
Y16738D01*
X102067D01*
X102526Y17198D01*
Y17657D01*
X102067Y18116D01*
X100689D01*
X102067D01*
X102526Y18575D01*
Y19034D01*
X102067Y19493D01*
X100689D01*
X103444Y16738D02*
X104362D01*
X103903D01*
Y19493D01*
X103444Y19034D01*
X70417Y16320D02*
Y18616D01*
X69958Y19075D01*
X69040D01*
X68581Y18616D01*
Y16320D01*
X67662Y19075D02*
X66744D01*
X67203D01*
Y16320D01*
X67662Y16779D01*
X86221Y140552D02*
Y142848D01*
X85761Y143307D01*
X84843D01*
X84384Y142848D01*
Y140552D01*
X81629Y143307D02*
X83465D01*
X81629Y141470D01*
Y141011D01*
X82088Y140552D01*
X83006D01*
X83465Y141011D01*
X59370Y110461D02*
Y113216D01*
X57993D01*
X57533Y112757D01*
Y111838D01*
X57993Y111379D01*
X59370D01*
X58452D02*
X57533Y110461D01*
X56615Y110920D02*
X56156Y110461D01*
X55238D01*
X54778Y110920D01*
Y112757D01*
X55238Y113216D01*
X56156D01*
X56615Y112757D01*
Y112297D01*
X56156Y111838D01*
X54778D01*
X35551Y110067D02*
Y112822D01*
X34174D01*
X33715Y112363D01*
Y111444D01*
X34174Y110985D01*
X35551D01*
X34633D02*
X33715Y110067D01*
X32796Y112363D02*
X32337Y112822D01*
X31419D01*
X30959Y112363D01*
Y111904D01*
X31419Y111444D01*
X30959Y110985D01*
Y110526D01*
X31419Y110067D01*
X32337D01*
X32796Y110526D01*
Y110985D01*
X32337Y111444D01*
X32796Y111904D01*
Y112363D01*
X32337Y111444D02*
X31419D01*
X96918Y108434D02*
X96459Y108894D01*
X95540D01*
X95081Y108434D01*
Y106598D01*
X95540Y106139D01*
X96459D01*
X96918Y106598D01*
X97836Y108434D02*
X98295Y108894D01*
X99214D01*
X99673Y108434D01*
Y107975D01*
X99214Y107516D01*
X99673Y107057D01*
Y106598D01*
X99214Y106139D01*
X98295D01*
X97836Y106598D01*
Y107057D01*
X98295Y107516D01*
X97836Y107975D01*
Y108434D01*
X98295Y107516D02*
X99214D01*
X73149Y126602D02*
Y129357D01*
X71772D01*
X71313Y128898D01*
Y127980D01*
X71772Y127521D01*
X73149D01*
X72231D02*
X71313Y126602D01*
X70394D02*
X69476D01*
X69935D01*
Y129357D01*
X70394Y128898D01*
X66262Y126602D02*
X68098D01*
X66262Y128439D01*
Y128898D01*
X66721Y129357D01*
X67639D01*
X68098Y128898D01*
X136248Y59240D02*
X139003D01*
Y57863D01*
X138544Y57403D01*
X137626D01*
X137166Y57863D01*
Y59240D01*
X136248Y56485D02*
Y55567D01*
Y56026D01*
X139003D01*
X138544Y56485D01*
X134315Y55319D02*
X131560D01*
Y53941D01*
X132019Y53482D01*
X132937D01*
X133397Y53941D01*
Y55319D01*
Y54401D02*
X134315Y53482D01*
Y52564D02*
Y51645D01*
Y52105D01*
X131560D01*
X132019Y52564D01*
Y50268D02*
X131560Y49809D01*
Y48891D01*
X132019Y48431D01*
X133856D01*
X134315Y48891D01*
Y49809D01*
X133856Y50268D01*
X132019D01*
X117981Y16419D02*
Y13664D01*
X119359D01*
X119818Y14123D01*
Y15041D01*
X119359Y15501D01*
X117981D01*
X118899D02*
X119818Y16419D01*
X120736D02*
X121654D01*
X121195D01*
Y13664D01*
X120736Y14123D01*
X124869Y13664D02*
X123032D01*
Y15041D01*
X123950Y14582D01*
X124409D01*
X124869Y15041D01*
Y15960D01*
X124409Y16419D01*
X123491D01*
X123032Y15960D01*
X140847Y84598D02*
Y81843D01*
X142225D01*
X142684Y82302D01*
Y83221D01*
X142225Y83680D01*
X140847D01*
X141765D02*
X142684Y84598D01*
X143602D02*
X144520D01*
X144061D01*
Y81843D01*
X143602Y82302D01*
X147734Y81843D02*
X146816Y82302D01*
X145898Y83221D01*
Y84139D01*
X146357Y84598D01*
X147275D01*
X147734Y84139D01*
Y83680D01*
X147275Y83221D01*
X145898D01*
X64791Y108543D02*
X67546D01*
Y109921D01*
X67087Y110380D01*
X66169D01*
X65710Y109921D01*
Y108543D01*
Y109462D02*
X64791Y110380D01*
X67546Y111298D02*
Y113135D01*
X67087D01*
X65250Y111298D01*
X64791D01*
X88882Y110266D02*
X89341Y109806D01*
X90260D01*
X90719Y110266D01*
Y112102D01*
X90260Y112561D01*
X89341D01*
X88882Y112102D01*
X87964D02*
X87505Y112561D01*
X86586D01*
X86127Y112102D01*
Y110266D01*
X86586Y109806D01*
X87505D01*
X87964Y110266D01*
Y110725D01*
X87505Y111184D01*
X86127D01*
X102119Y95864D02*
Y96323D01*
X101201Y97241D01*
X100282Y96323D01*
Y95864D01*
X101201Y97241D02*
Y98619D01*
X99364D02*
X98445D01*
X98905D01*
Y95864D01*
X99364Y96323D01*
X154146Y92154D02*
X151391D01*
Y93531D01*
X151850Y93990D01*
X152768D01*
X153227Y93531D01*
Y92154D01*
X154146Y96745D02*
Y94909D01*
X152309Y96745D01*
X151850D01*
X151391Y96286D01*
Y95368D01*
X151850Y94909D01*
X12843Y93106D02*
X15139D01*
X15598Y93565D01*
Y94484D01*
X15139Y94943D01*
X12843D01*
X13303Y95861D02*
X12843Y96320D01*
Y97239D01*
X13303Y97698D01*
X13762D01*
X14221Y97239D01*
Y96780D01*
Y97239D01*
X14680Y97698D01*
X15139D01*
X15598Y97239D01*
Y96320D01*
X15139Y95861D01*
X14566Y60236D02*
X12270D01*
X11811Y59777D01*
Y58859D01*
X12270Y58399D01*
X14566D01*
Y55645D02*
Y57481D01*
X13189D01*
X13648Y56563D01*
Y56104D01*
X13189Y55645D01*
X12270D01*
X11811Y56104D01*
Y57022D01*
X12270Y57481D01*
X36660Y95747D02*
Y97583D01*
X36200Y98042D01*
X35282D01*
X34823Y97583D01*
Y95747D01*
X35282Y95287D01*
X36200D01*
X35741Y96206D02*
X36660Y95287D01*
X36200D02*
X36660Y95747D01*
X37578Y95287D02*
X38496D01*
X38037D01*
Y98042D01*
X37578Y97583D01*
X36660Y109920D02*
Y111757D01*
X36200Y112216D01*
X35282D01*
X34823Y111757D01*
Y109920D01*
X35282Y109461D01*
X36200D01*
X35741Y110379D02*
X36660Y109461D01*
X36200D02*
X36660Y109920D01*
X39415Y109461D02*
X37578D01*
X39415Y111297D01*
Y111757D01*
X38955Y112216D01*
X38037D01*
X37578Y111757D01*
X36660Y124093D02*
Y125930D01*
X36200Y126389D01*
X35282D01*
X34823Y125930D01*
Y124093D01*
X35282Y123634D01*
X36200D01*
X35741Y124552D02*
X36660Y123634D01*
X36200D02*
X36660Y124093D01*
X37578Y125930D02*
X38037Y126389D01*
X38955D01*
X39415Y125930D01*
Y125470D01*
X38955Y125011D01*
X38496D01*
X38955D01*
X39415Y124552D01*
Y124093D01*
X38955Y123634D01*
X38037D01*
X37578Y124093D01*
X60813Y72599D02*
X61272Y73058D01*
X62190D01*
X62650Y72599D01*
Y70762D01*
X62190Y70303D01*
X61272D01*
X60813Y70762D01*
X59895Y70303D02*
X58976D01*
X59435D01*
Y73058D01*
X59895Y72599D01*
X57599Y70303D02*
X56680D01*
X57140D01*
Y73058D01*
X57599Y72599D01*
X28770Y74488D02*
X28311Y74028D01*
X27392D01*
X26933Y74488D01*
Y76324D01*
X27392Y76784D01*
X28311D01*
X28770Y76324D01*
X29688Y76784D02*
X30606D01*
X30147D01*
Y74028D01*
X29688Y74488D01*
X31984D02*
X32443Y74028D01*
X33362D01*
X33821Y74488D01*
Y76324D01*
X33362Y76784D01*
X32443D01*
X31984Y76324D01*
Y74488D01*
X86733Y76014D02*
X87192Y75555D01*
Y74636D01*
X86733Y74177D01*
X84896D01*
X84437Y74636D01*
Y75555D01*
X84896Y76014D01*
X84437Y78769D02*
Y76932D01*
X86274Y78769D01*
X86733D01*
X87192Y78310D01*
Y77391D01*
X86733Y76932D01*
X96772Y76014D02*
X97231Y75555D01*
Y74636D01*
X96772Y74177D01*
X94936D01*
X94476Y74636D01*
Y75555D01*
X94936Y76014D01*
X96772Y76932D02*
X97231Y77391D01*
Y78310D01*
X96772Y78769D01*
X96313D01*
X95854Y78310D01*
Y77851D01*
Y78310D01*
X95395Y78769D01*
X94936D01*
X94476Y78310D01*
Y77391D01*
X94936Y76932D01*
X35846Y124240D02*
Y126995D01*
X34469D01*
X34010Y126536D01*
Y125618D01*
X34469Y125159D01*
X35846D01*
X34928D02*
X34010Y124240D01*
X33091D02*
X32173D01*
X32632D01*
Y126995D01*
X33091Y126536D01*
X30796D02*
X30336Y126995D01*
X29418D01*
X28959Y126536D01*
Y126077D01*
X29418Y125618D01*
X29877D01*
X29418D01*
X28959Y125159D01*
Y124699D01*
X29418Y124240D01*
X30336D01*
X30796Y124699D01*
X35551Y95894D02*
Y98649D01*
X34174D01*
X33715Y98190D01*
Y97271D01*
X34174Y96812D01*
X35551D01*
X34633D02*
X33715Y95894D01*
X30959Y98649D02*
X32796D01*
Y97271D01*
X31878Y97730D01*
X31419D01*
X30959Y97271D01*
Y96353D01*
X31419Y95894D01*
X32337D01*
X32796Y96353D01*
X100119Y44321D02*
X100578Y43862D01*
Y42943D01*
X100119Y42484D01*
X98282D01*
X97823Y42943D01*
Y43862D01*
X98282Y44321D01*
X97823Y46617D02*
X100578D01*
X99200Y45239D01*
Y47076D01*
X73150Y50817D02*
X73609Y50358D01*
Y49439D01*
X73150Y48980D01*
X71314D01*
X70854Y49439D01*
Y50358D01*
X71314Y50817D01*
X73609Y51735D02*
Y53572D01*
X73150D01*
X71314Y51735D01*
X70854D01*
X47075Y93976D02*
X49830D01*
Y95354D01*
X49371Y95813D01*
X48452D01*
X47993Y95354D01*
Y93976D01*
Y94895D02*
X47075Y95813D01*
X49830Y98568D02*
X49371Y97650D01*
X48452Y96731D01*
X47534D01*
X47075Y97190D01*
Y98109D01*
X47534Y98568D01*
X47993D01*
X48452Y98109D01*
Y96731D01*
X60315Y104106D02*
Y101351D01*
X61692D01*
X62152Y101811D01*
Y102729D01*
X61692Y103188D01*
X60315D01*
X61233D02*
X62152Y104106D01*
X64447D02*
Y101351D01*
X63070Y102729D01*
X64907D01*
X108879Y14022D02*
X109338Y13563D01*
Y12644D01*
X108879Y12185D01*
X107042D01*
X106583Y12644D01*
Y13563D01*
X107042Y14022D01*
X109338Y16777D02*
Y14940D01*
X107960D01*
X108419Y15858D01*
Y16318D01*
X107960Y16777D01*
X107042D01*
X106583Y16318D01*
Y15399D01*
X107042Y14940D01*
X139055Y67886D02*
Y65131D01*
X140433D01*
X140892Y65590D01*
Y66508D01*
X140433Y66967D01*
X139055D01*
X139973D02*
X140892Y67886D01*
X141810D02*
X142728D01*
X142269D01*
Y65131D01*
X141810Y65590D01*
X144106Y67886D02*
X145024D01*
X144565D01*
Y65131D01*
X144106Y65590D01*
X149922Y43730D02*
X150381Y43271D01*
Y42353D01*
X149922Y41894D01*
X148085D01*
X147626Y42353D01*
Y43271D01*
X148085Y43730D01*
X147626Y44649D02*
Y45567D01*
Y45108D01*
X150381D01*
X149922Y44649D01*
X108740Y86978D02*
X108280Y87437D01*
Y88356D01*
X108740Y88815D01*
X110576D01*
X111035Y88356D01*
Y87437D01*
X110576Y86978D01*
X108280Y84223D02*
X108740Y85142D01*
X109658Y86060D01*
X110576D01*
X111035Y85601D01*
Y84682D01*
X110576Y84223D01*
X110117D01*
X109658Y84682D01*
Y86060D01*
D15*
X28213Y22421D02*
X89787D01*
Y12579D02*
Y22421D01*
X28213Y12579D02*
X89787D01*
X28213D02*
Y22421D01*
X44016Y146653D02*
X105591D01*
Y136811D02*
Y146653D01*
X44016Y136811D02*
X105591D01*
X44016D02*
Y146653D01*
X154386Y34854D02*
Y63988D01*
X131748D02*
X154386D01*
X131748Y34854D02*
Y63988D01*
Y34854D02*
X154386D01*
X105800Y87300D02*
Y103300D01*
X78800D02*
X105800D01*
X78800Y87300D02*
Y103300D01*
Y87300D02*
X105800D01*
X18779Y83425D02*
Y123425D01*
X8779Y83425D02*
Y123425D01*
X18779D01*
X8779Y83425D02*
X18779D01*
X28740Y34902D02*
Y64311D01*
X3740Y34902D02*
X28740D01*
X3740D02*
Y64311D01*
X28740D01*
D16*
X100244Y31075D02*
X103576Y27742D01*
X100244D02*
X103576Y31075D01*
X100244Y29409D02*
X103576D01*
X101910Y27742D02*
Y31075D01*
D18*
X0Y0D02*
X157480D01*
Y157480D01*
X0Y0D02*
Y157480D01*
X157480D01*
D27*
X135827Y115472D02*
D03*
X16535Y49606D02*
D03*
D28*
X44000Y17500D02*
D03*
D33*
X13780Y88425D02*
D03*
D35*
X130500Y21300D02*
D03*
D38*
X128100Y129500D02*
D03*
X112400Y81000D02*
D03*
X136000Y76100D02*
D03*
X131500Y59700D02*
D03*
X87000Y87000D02*
D03*
X105000Y81600D02*
D03*
X57480Y67323D02*
D03*
X101000Y55000D02*
D03*
X67100Y53900D02*
D03*
X38976Y140256D02*
D03*
X20866Y66535D02*
D03*
M02*
