G04*
G04 #@! TF.GenerationSoftware,Altium Limited,Altium Designer,22.9.1 (49)*
G04*
G04 Layer_Color=255*
%FSLAX44Y44*%
%MOMM*%
G71*
G04*
G04 #@! TF.SameCoordinates,61005C84-9D19-44E1-A316-678A7C99F310*
G04*
G04*
G04 #@! TF.FilePolarity,Positive*
G04*
G01*
G75*
%ADD10C,0.1524*%
%ADD11C,0.2000*%
%ADD12C,0.5080*%
%ADD13C,0.2500*%
%ADD14C,0.1000*%
%ADD15C,0.1270*%
%ADD16C,0.0762*%
%ADD18C,0.0000*%
%ADD19C,0.0254*%
%ADD20C,0.0500*%
%ADD26R,1.2000X1.6000*%
%ADD27R,1.2000X1.6500*%
%ADD29C,1.8000*%
%ADD30C,1.5080*%
%ADD32R,1.5080X1.5080*%
%ADD33C,5.5000*%
%ADD34R,1.5750X1.5750*%
%ADD35R,1.4500X1.4500*%
%ADD39R,1.6050X1.6050*%
%ADD41R,1.6500X1.2000*%
%ADD42R,1.6000X1.2000*%
%ADD43R,1.5000X1.7500*%
%ADD44R,1.1500X1.6000*%
%ADD45R,1.6000X1.1500*%
G36*
X329760Y308540D02*
Y227260D01*
X385640D01*
Y308540D01*
X329760D01*
D02*
G37*
D10*
X86932Y166918D02*
X93142D01*
Y145455D02*
Y166918D01*
Y145455D02*
X152858D01*
Y166918D01*
X159068D01*
Y209082D01*
X141288D02*
X159068D01*
X141288D02*
Y230545D01*
X104712D02*
X141288D01*
X104712Y209082D02*
Y230545D01*
X86932Y209082D02*
X104712D01*
X86932Y166918D02*
Y209082D01*
X258684Y35498D02*
X298816D01*
Y33126D02*
Y35498D01*
Y33126D02*
X305293D01*
Y71906D01*
X298816D02*
X305293D01*
X298816Y69534D02*
Y71906D01*
X258684Y69534D02*
X298816D01*
X258684D02*
Y71906D01*
X252207D02*
X258684D01*
X252207Y33126D02*
Y71906D01*
Y33126D02*
X258684D01*
Y35498D01*
Y33126D02*
Y35498D01*
X252207Y33126D02*
X258684D01*
X252207Y71906D02*
X258684D01*
Y69534D02*
Y71906D01*
Y69534D02*
X298816D01*
Y71906D01*
X305293D01*
Y33126D02*
Y71906D01*
X298816Y33126D02*
X305293D01*
X298816D02*
Y35498D01*
X258684D02*
X298816D01*
X329760Y227260D02*
X385640D01*
Y308540D01*
X329760D02*
X385640D01*
X329760Y227260D02*
Y308540D01*
X78042Y151551D02*
G03*
X78042Y151551I-1270J0D01*
G01*
X287767Y52516D02*
G03*
X287767Y52516I-9017J0D01*
G01*
X84900Y142280D02*
Y233720D01*
X161100D01*
Y142280D02*
Y233720D01*
X84900Y142280D02*
X161100D01*
X269638Y36768D02*
X287862D01*
X297546Y48645D02*
Y56386D01*
X269638Y68264D02*
X287862D01*
X259954Y48645D02*
Y56386D01*
X384370Y228530D02*
Y307270D01*
X331030D02*
X384370D01*
X331030Y228530D02*
Y307270D01*
Y228530D02*
X384370D01*
D11*
X234160Y44450D02*
G03*
X234160Y44450I-1000J0D01*
G01*
X274300Y360000D02*
G03*
X274300Y360000I-1000J0D01*
G01*
X359140Y81130D02*
G03*
X359140Y81130I-1000J0D01*
G01*
X36000Y205400D02*
G03*
X36000Y205400I-1000J0D01*
G01*
X43000Y170850D02*
G03*
X43000Y170850I-1000J0D01*
G01*
X259500Y213500D02*
X270000D01*
X183000D02*
X198500D01*
X183000Y198000D02*
Y213500D01*
Y121500D02*
Y137000D01*
Y121500D02*
X198500D01*
X259500D02*
X275000D01*
Y137000D01*
Y198000D02*
Y208500D01*
X270000Y213500D02*
X275000Y208500D01*
X234160Y44450D02*
G03*
X234160Y44450I-1000J0D01*
G01*
X274300Y360000D02*
G03*
X274300Y360000I-1000J0D01*
G01*
X359140Y81130D02*
G03*
X359140Y81130I-1000J0D01*
G01*
X36000Y205400D02*
G03*
X36000Y205400I-1000J0D01*
G01*
X43000Y170850D02*
G03*
X43000Y170850I-1000J0D01*
G01*
X274574Y317246D02*
X312674D01*
X274574Y340106D02*
X312674D01*
Y317246D02*
Y340106D01*
X274574Y317246D02*
Y340106D01*
X374752Y311912D02*
Y334772D01*
X336652Y311912D02*
Y334772D01*
Y311912D02*
X374752D01*
X336652Y334772D02*
X374752D01*
X179030Y217390D02*
X261580D01*
X179030Y198000D02*
Y217390D01*
Y117060D02*
Y199610D01*
Y117060D02*
X279360D01*
Y137000D01*
Y136110D02*
Y208500D01*
X270470Y217390D02*
X279360Y208500D01*
X259500Y217390D02*
X270470D01*
X314706Y182880D02*
Y220980D01*
X337566Y182880D02*
Y220980D01*
X314706Y182880D02*
X337566D01*
X314706Y220980D02*
X337566D01*
X216662Y348082D02*
X239522D01*
X216662Y309982D02*
X239522D01*
Y348082D01*
X216662Y309982D02*
Y348082D01*
X121200Y344930D02*
X159300D01*
X121200Y322070D02*
X159300D01*
Y344930D01*
X121200Y322070D02*
Y344930D01*
X116570Y304950D02*
X139430D01*
X116570D02*
Y343050D01*
X139430D01*
Y304950D02*
Y343050D01*
X115700Y300430D02*
X153800D01*
X115700Y277570D02*
Y300430D01*
Y277570D02*
X153800D01*
Y300430D01*
X93300Y276570D02*
Y299430D01*
X55200Y276570D02*
X93300D01*
X55200D02*
Y299430D01*
X93300D01*
X238506Y266592D02*
X281686D01*
Y289052D01*
X238506D02*
X281686D01*
X238506Y266592D02*
Y289052D01*
X150700Y341430D02*
X188800D01*
X150700Y318570D02*
Y341430D01*
Y318570D02*
X188800D01*
Y341430D01*
X322570Y107950D02*
X345430D01*
X322570Y146050D02*
X345430D01*
X322570Y107950D02*
Y146050D01*
X345430Y107950D02*
Y146050D01*
X332232Y23114D02*
Y45974D01*
X294132Y23114D02*
Y45974D01*
Y23114D02*
X332232D01*
X294132Y45974D02*
X332232D01*
X390311Y196290D02*
Y219150D01*
X352211Y196290D02*
Y219150D01*
Y196290D02*
X390311D01*
X352211Y219150D02*
X390311D01*
X184430Y272700D02*
Y310800D01*
X161570D02*
X184430D01*
X161570Y272700D02*
Y310800D01*
Y272700D02*
X184430D01*
X233426Y266446D02*
Y288906D01*
X190246Y266446D02*
X233426D01*
X190246D02*
Y288906D01*
X233426D01*
X82150Y236490D02*
Y270000D01*
X114150D01*
Y236490D02*
Y270000D01*
X82150Y236490D02*
X114150D01*
X82150Y272490D02*
X114150D01*
Y306000D01*
X82150D02*
X114150D01*
X82150Y272490D02*
Y306000D01*
Y308490D02*
Y342000D01*
X114150D01*
Y308490D02*
Y342000D01*
X82150Y308490D02*
X114150D01*
X162130Y175570D02*
Y198430D01*
X113870Y175570D02*
X162130D01*
X113870D02*
Y198430D01*
X162130D01*
X65410Y175570D02*
Y198030D01*
Y175570D02*
X108590D01*
Y198030D01*
X65410D02*
X108590D01*
X211470Y185410D02*
X233930D01*
Y228590D01*
X211470D02*
X233930D01*
X211470Y185410D02*
Y228590D01*
X236970Y185410D02*
X259430D01*
Y228590D01*
X236970D02*
X259430D01*
X236970Y185410D02*
Y228590D01*
X94050Y312570D02*
Y335430D01*
X55950Y312570D02*
X94050D01*
X55950D02*
Y335430D01*
X94050D01*
X55200Y263430D02*
X93300D01*
X55200Y240570D02*
Y263430D01*
Y240570D02*
X93300D01*
Y263430D01*
X245470Y104910D02*
Y148090D01*
X267930D01*
Y104910D02*
Y148090D01*
X245470Y104910D02*
X267930D01*
X176970Y121410D02*
Y164590D01*
X199430D01*
Y121410D02*
Y164590D01*
X176970Y121410D02*
X199430D01*
X116570Y235700D02*
X139430D01*
X116570D02*
Y273800D01*
X139430D01*
Y235700D02*
Y273800D01*
X150200Y244570D02*
Y267430D01*
X188300D01*
Y244570D02*
Y267430D01*
X150200Y244570D02*
X188300D01*
X267720Y27950D02*
Y71130D01*
X290180D01*
Y27950D02*
Y71130D01*
X267720Y27950D02*
X290180D01*
X350200Y152570D02*
Y175430D01*
X388300D01*
Y152570D02*
Y175430D01*
X350200Y152570D02*
X388300D01*
X371970Y103410D02*
Y146590D01*
X394430D01*
Y103410D02*
Y146590D01*
X371970Y103410D02*
X394430D01*
X285030Y185410D02*
Y228590D01*
X262570Y185410D02*
X285030D01*
X262570D02*
Y228590D01*
X285030D01*
D12*
X374810Y217500D02*
G03*
X374810Y217500I-3810J0D01*
G01*
D13*
X76560Y269510D02*
G03*
X76560Y269510I-1270J0D01*
G01*
Y305510D02*
G03*
X76560Y305510I-1270J0D01*
G01*
Y341510D02*
G03*
X76560Y341510I-1270J0D01*
G01*
D14*
X104650Y238400D02*
Y267600D01*
X91650Y238400D02*
X104650D01*
X91650Y267600D02*
X104650D01*
X91650Y238400D02*
Y267600D01*
Y274400D02*
Y303600D01*
X104650D01*
X91650Y274400D02*
X104650D01*
Y303600D01*
Y310400D02*
Y339600D01*
X91650Y310400D02*
X104650D01*
X91650Y339600D02*
X104650D01*
X91650Y310400D02*
Y339600D01*
X93150Y253000D02*
X103150D01*
X98150Y248000D02*
Y258000D01*
X78940Y233990D02*
Y272010D01*
X117360D01*
Y233990D02*
Y272010D01*
X78940Y233990D02*
X117360D01*
X78940Y269990D02*
X117360D01*
Y308010D01*
X78940D02*
X117360D01*
X78940Y269990D02*
Y308010D01*
X98150Y284000D02*
Y294000D01*
X93150Y289000D02*
X103150D01*
X93150Y325000D02*
X103150D01*
X98150Y320000D02*
Y330000D01*
X78940Y305990D02*
Y344010D01*
X117360D01*
Y305990D02*
Y344010D01*
X78940Y305990D02*
X117360D01*
X238498Y203500D02*
X232666D01*
X231500Y202334D01*
Y200001D01*
X232666Y198835D01*
X238498D01*
X231500Y193003D02*
X238498D01*
X234999Y196502D01*
Y191837D01*
X248750Y30516D02*
Y72516D01*
Y30516D02*
X307750D01*
Y74516D01*
X248750D02*
X307750D01*
X248750Y72516D02*
Y74516D01*
X307134Y321516D02*
Y328514D01*
X303635D01*
X302469Y327347D01*
Y325015D01*
X303635Y323849D01*
X307134D01*
X304801D02*
X302469Y321516D01*
X300136D02*
X297804D01*
X298970D01*
Y328514D01*
X300136Y327347D01*
X342192Y330502D02*
Y323504D01*
X345691D01*
X346857Y324670D01*
Y327003D01*
X345691Y328169D01*
X342192D01*
X344525D02*
X346857Y330502D01*
X349190D02*
X351522D01*
X350356D01*
Y323504D01*
X349190Y324670D01*
X355021D02*
X356188Y323504D01*
X358520D01*
X359686Y324670D01*
Y325837D01*
X358520Y327003D01*
X359686Y328169D01*
Y329336D01*
X358520Y330502D01*
X356188D01*
X355021Y329336D01*
Y328169D01*
X356188Y327003D01*
X355021Y325837D01*
Y324670D01*
X356188Y327003D02*
X358520D01*
X92980Y186568D02*
Y180736D01*
X94146Y179570D01*
X96479D01*
X97645Y180736D01*
Y186568D01*
X104643D02*
X102310Y185401D01*
X99978Y183069D01*
Y180736D01*
X101144Y179570D01*
X103477D01*
X104643Y180736D01*
Y181903D01*
X103477Y183069D01*
X99978D01*
X318976Y188420D02*
X325974D01*
Y191919D01*
X324808Y193085D01*
X322475D01*
X321309Y191919D01*
Y188420D01*
Y190753D02*
X318976Y193085D01*
Y195418D02*
Y197750D01*
Y196584D01*
X325974D01*
X324808Y195418D01*
X325974Y201249D02*
Y205914D01*
X324808D01*
X320142Y201249D01*
X318976D01*
X220932Y315522D02*
X227930D01*
Y319021D01*
X226763Y320187D01*
X224431D01*
X223265Y319021D01*
Y315522D01*
Y317854D02*
X220932Y320187D01*
X226763Y322520D02*
X227930Y323686D01*
Y326019D01*
X226763Y327185D01*
X225597D01*
X224431Y326019D01*
Y324852D01*
Y326019D01*
X223265Y327185D01*
X222098D01*
X220932Y326019D01*
Y323686D01*
X222098Y322520D01*
X225858Y196610D02*
X220026D01*
X218860Y195444D01*
Y193111D01*
X220026Y191945D01*
X225858D01*
X218860Y186113D02*
X225858D01*
X222359Y189612D01*
Y184947D01*
X153760Y340660D02*
Y333662D01*
X150261D01*
X149095Y334828D01*
Y337161D01*
X150261Y338327D01*
X153760D01*
X151427D02*
X149095Y340660D01*
X142097D02*
X146762D01*
X142097Y335995D01*
Y334828D01*
X143263Y333662D01*
X145596D01*
X146762Y334828D01*
X119570Y307950D02*
X126568D01*
Y311449D01*
X125401Y312615D01*
X123069D01*
X121903Y311449D01*
Y307950D01*
Y310282D02*
X119570Y312615D01*
Y314948D02*
Y317280D01*
Y316114D01*
X126568D01*
X125401Y314948D01*
X119570Y324278D02*
X126568D01*
X123069Y320779D01*
Y325444D01*
X255750Y49514D02*
Y42516D01*
X259249D01*
X260415Y43682D01*
Y44848D01*
X259249Y46015D01*
X255750D01*
X259249D01*
X260415Y47181D01*
Y48347D01*
X259249Y49514D01*
X255750D01*
X262748Y42516D02*
X265080D01*
X263914D01*
Y49514D01*
X262748Y48347D01*
X178860Y41452D02*
Y47284D01*
X177694Y48450D01*
X175361D01*
X174195Y47284D01*
Y41452D01*
X171862Y48450D02*
X169530D01*
X170696D01*
Y41452D01*
X171862Y42618D01*
X219000Y357002D02*
Y362834D01*
X217834Y364000D01*
X215501D01*
X214335Y362834D01*
Y357002D01*
X207337Y364000D02*
X212002D01*
X207337Y359335D01*
Y358168D01*
X208503Y357002D01*
X210836D01*
X212002Y358168D01*
X150800Y280570D02*
Y287568D01*
X147301D01*
X146135Y286402D01*
Y284069D01*
X147301Y282903D01*
X150800D01*
X148467D02*
X146135Y280570D01*
X143802Y281736D02*
X142636Y280570D01*
X140303D01*
X139137Y281736D01*
Y286402D01*
X140303Y287568D01*
X142636D01*
X143802Y286402D01*
Y285235D01*
X142636Y284069D01*
X139137D01*
X90300Y279570D02*
Y286568D01*
X86801D01*
X85635Y285401D01*
Y283069D01*
X86801Y281903D01*
X90300D01*
X87967D02*
X85635Y279570D01*
X83302Y285401D02*
X82136Y286568D01*
X79803D01*
X78637Y285401D01*
Y284235D01*
X79803Y283069D01*
X78637Y281903D01*
Y280736D01*
X79803Y279570D01*
X82136D01*
X83302Y280736D01*
Y281903D01*
X82136Y283069D01*
X83302Y284235D01*
Y285401D01*
X82136Y283069D02*
X79803D01*
X246171Y275424D02*
X245005Y276590D01*
X242672D01*
X241506Y275424D01*
Y270758D01*
X242672Y269592D01*
X245005D01*
X246171Y270758D01*
X248504Y275424D02*
X249670Y276590D01*
X252003D01*
X253169Y275424D01*
Y274257D01*
X252003Y273091D01*
X253169Y271925D01*
Y270758D01*
X252003Y269592D01*
X249670D01*
X248504Y270758D01*
Y271925D01*
X249670Y273091D01*
X248504Y274257D01*
Y275424D01*
X249670Y273091D02*
X252003D01*
X185800Y321570D02*
Y328568D01*
X182301D01*
X181134Y327402D01*
Y325069D01*
X182301Y323903D01*
X185800D01*
X183467D02*
X181134Y321570D01*
X178802D02*
X176469D01*
X177635D01*
Y328568D01*
X178802Y327402D01*
X168305Y321570D02*
X172970D01*
X168305Y326235D01*
Y327402D01*
X169471Y328568D01*
X171804D01*
X172970Y327402D01*
X346070Y150470D02*
X353068D01*
Y146971D01*
X351902Y145805D01*
X349569D01*
X348403Y146971D01*
Y150470D01*
X346070Y143472D02*
Y141140D01*
Y142306D01*
X353068D01*
X351902Y143472D01*
X341160Y140510D02*
X334162D01*
Y137011D01*
X335328Y135845D01*
X337661D01*
X338827Y137011D01*
Y140510D01*
Y138177D02*
X341160Y135845D01*
Y133512D02*
Y131180D01*
Y132346D01*
X334162D01*
X335328Y133512D01*
Y127681D02*
X334162Y126515D01*
Y124182D01*
X335328Y123016D01*
X339994D01*
X341160Y124182D01*
Y126515D01*
X339994Y127681D01*
X335328D01*
X299672Y41704D02*
Y34706D01*
X303171D01*
X304337Y35872D01*
Y38205D01*
X303171Y39371D01*
X299672D01*
X302005D02*
X304337Y41704D01*
X306670D02*
X309002D01*
X307836D01*
Y34706D01*
X306670Y35872D01*
X317166Y34706D02*
X312501D01*
Y38205D01*
X314834Y37039D01*
X316000D01*
X317166Y38205D01*
Y40538D01*
X316000Y41704D01*
X313668D01*
X312501Y40538D01*
X357751Y214880D02*
Y207882D01*
X361250D01*
X362416Y209048D01*
Y211381D01*
X361250Y212547D01*
X357751D01*
X360084D02*
X362416Y214880D01*
X364749D02*
X367082D01*
X365915D01*
Y207882D01*
X364749Y209048D01*
X375246Y207882D02*
X372913Y209048D01*
X370580Y211381D01*
Y213713D01*
X371747Y214880D01*
X374079D01*
X375246Y213713D01*
Y212547D01*
X374079Y211381D01*
X370580D01*
X164570Y275700D02*
X171568D01*
Y279199D01*
X170401Y280365D01*
X168069D01*
X166903Y279199D01*
Y275700D01*
Y278033D02*
X164570Y280365D01*
X171568Y282698D02*
Y287363D01*
X170401D01*
X165736Y282698D01*
X164570D01*
X225761Y280075D02*
X226927Y278908D01*
X229260D01*
X230426Y280075D01*
Y284740D01*
X229260Y285906D01*
X226927D01*
X225761Y284740D01*
X223428D02*
X222262Y285906D01*
X219929D01*
X218763Y284740D01*
Y280075D01*
X219929Y278908D01*
X222262D01*
X223428Y280075D01*
Y281241D01*
X222262Y282407D01*
X218763D01*
X259382Y243494D02*
Y244660D01*
X257049Y246993D01*
X254717Y244660D01*
Y243494D01*
X257049Y246993D02*
Y250492D01*
X252384D02*
X250052D01*
X251218D01*
Y243494D01*
X252384Y244660D01*
X391530Y234070D02*
X384532D01*
Y237569D01*
X385699Y238735D01*
X388031D01*
X389197Y237569D01*
Y234070D01*
X391530Y245733D02*
Y241068D01*
X386865Y245733D01*
X385699D01*
X384532Y244567D01*
Y242234D01*
X385699Y241068D01*
X32622Y236490D02*
X38454D01*
X39620Y237656D01*
Y239989D01*
X38454Y241155D01*
X32622D01*
X33788Y243488D02*
X32622Y244654D01*
Y246987D01*
X33788Y248153D01*
X34955D01*
X36121Y246987D01*
Y245820D01*
Y246987D01*
X37287Y248153D01*
X38454D01*
X39620Y246987D01*
Y244654D01*
X38454Y243488D01*
X36998Y153000D02*
X31166D01*
X30000Y151834D01*
Y149501D01*
X31166Y148335D01*
X36998D01*
Y141337D02*
Y146002D01*
X33499D01*
X34665Y143670D01*
Y142503D01*
X33499Y141337D01*
X31166D01*
X30000Y142503D01*
Y144836D01*
X31166Y146002D01*
X93115Y243196D02*
Y247861D01*
X91949Y249028D01*
X89616D01*
X88450Y247861D01*
Y243196D01*
X89616Y242030D01*
X91949D01*
X90783Y244363D02*
X93115Y242030D01*
X91949D02*
X93115Y243196D01*
X95448Y242030D02*
X97780D01*
X96614D01*
Y249028D01*
X95448Y247861D01*
X93115Y279196D02*
Y283862D01*
X91949Y285028D01*
X89616D01*
X88450Y283862D01*
Y279196D01*
X89616Y278030D01*
X91949D01*
X90783Y280363D02*
X93115Y278030D01*
X91949D02*
X93115Y279196D01*
X100113Y278030D02*
X95448D01*
X100113Y282695D01*
Y283862D01*
X98947Y285028D01*
X96614D01*
X95448Y283862D01*
X93115Y315196D02*
Y319862D01*
X91949Y321028D01*
X89616D01*
X88450Y319862D01*
Y315196D01*
X89616Y314030D01*
X91949D01*
X90783Y316363D02*
X93115Y314030D01*
X91949D02*
X93115Y315196D01*
X95448Y319862D02*
X96614Y321028D01*
X98947D01*
X100113Y319862D01*
Y318695D01*
X98947Y317529D01*
X97780D01*
X98947D01*
X100113Y316363D01*
Y315196D01*
X98947Y314030D01*
X96614D01*
X95448Y315196D01*
X154465Y184401D02*
X155631Y185568D01*
X157964D01*
X159130Y184401D01*
Y179736D01*
X157964Y178570D01*
X155631D01*
X154465Y179736D01*
X152132Y178570D02*
X149800D01*
X150966D01*
Y185568D01*
X152132Y184401D01*
X146301Y178570D02*
X143968D01*
X145134D01*
Y185568D01*
X146301Y184401D01*
X73075Y189198D02*
X71909Y188032D01*
X69576D01*
X68410Y189198D01*
Y193864D01*
X69576Y195030D01*
X71909D01*
X73075Y193864D01*
X75408Y195030D02*
X77740D01*
X76574D01*
Y188032D01*
X75408Y189198D01*
X81239D02*
X82406Y188032D01*
X84738D01*
X85904Y189198D01*
Y193864D01*
X84738Y195030D01*
X82406D01*
X81239Y193864D01*
Y189198D01*
X220301Y193075D02*
X221468Y191909D01*
Y189576D01*
X220301Y188410D01*
X215636D01*
X214470Y189576D01*
Y191909D01*
X215636Y193075D01*
X214470Y200073D02*
Y195408D01*
X219135Y200073D01*
X220301D01*
X221468Y198907D01*
Y196574D01*
X220301Y195408D01*
X245802Y193075D02*
X246968Y191909D01*
Y189576D01*
X245802Y188410D01*
X241136D01*
X239970Y189576D01*
Y191909D01*
X241136Y193075D01*
X245802Y195408D02*
X246968Y196574D01*
Y198907D01*
X245802Y200073D01*
X244635D01*
X243469Y198907D01*
Y197740D01*
Y198907D01*
X242303Y200073D01*
X241136D01*
X239970Y198907D01*
Y196574D01*
X241136Y195408D01*
X91050Y315570D02*
Y322568D01*
X87551D01*
X86385Y321401D01*
Y319069D01*
X87551Y317903D01*
X91050D01*
X88717D02*
X86385Y315570D01*
X84052D02*
X81720D01*
X82886D01*
Y322568D01*
X84052Y321401D01*
X78221D02*
X77055Y322568D01*
X74722D01*
X73556Y321401D01*
Y320235D01*
X74722Y319069D01*
X75888D01*
X74722D01*
X73556Y317903D01*
Y316736D01*
X74722Y315570D01*
X77055D01*
X78221Y316736D01*
X90300Y243570D02*
Y250568D01*
X86801D01*
X85635Y249401D01*
Y247069D01*
X86801Y245903D01*
X90300D01*
X87967D02*
X85635Y243570D01*
X78637Y250568D02*
X83302D01*
Y247069D01*
X80970Y248235D01*
X79803D01*
X78637Y247069D01*
Y244736D01*
X79803Y243570D01*
X82136D01*
X83302Y244736D01*
X254301Y112575D02*
X255468Y111409D01*
Y109076D01*
X254301Y107910D01*
X249636D01*
X248470Y109076D01*
Y111409D01*
X249636Y112575D01*
X248470Y118407D02*
X255468D01*
X251969Y114908D01*
Y119573D01*
X185802Y129075D02*
X186968Y127909D01*
Y125576D01*
X185802Y124410D01*
X181136D01*
X179970Y125576D01*
Y127909D01*
X181136Y129075D01*
X186968Y131408D02*
Y136073D01*
X185802D01*
X181136Y131408D01*
X179970D01*
X119570Y238700D02*
X126568D01*
Y242199D01*
X125401Y243365D01*
X123069D01*
X121903Y242199D01*
Y238700D01*
Y241033D02*
X119570Y243365D01*
X126568Y250363D02*
X125401Y248030D01*
X123069Y245698D01*
X120736D01*
X119570Y246864D01*
Y249197D01*
X120736Y250363D01*
X121903D01*
X123069Y249197D01*
Y245698D01*
X153200Y264430D02*
Y257432D01*
X156699D01*
X157865Y258598D01*
Y260931D01*
X156699Y262097D01*
X153200D01*
X155533D02*
X157865Y264430D01*
X163696D02*
Y257432D01*
X160198Y260931D01*
X164863D01*
X276551Y35615D02*
X277718Y34449D01*
Y32116D01*
X276551Y30950D01*
X271886D01*
X270720Y32116D01*
Y34449D01*
X271886Y35615D01*
X277718Y42613D02*
Y37948D01*
X274219D01*
X275385Y40280D01*
Y41447D01*
X274219Y42613D01*
X271886D01*
X270720Y41447D01*
Y39114D01*
X271886Y37948D01*
X353200Y172430D02*
Y165432D01*
X356699D01*
X357865Y166598D01*
Y168931D01*
X356699Y170097D01*
X353200D01*
X355533D02*
X357865Y172430D01*
X360198D02*
X362530D01*
X361364D01*
Y165432D01*
X360198Y166598D01*
X366029Y172430D02*
X368362D01*
X367196D01*
Y165432D01*
X366029Y166598D01*
X380801Y111075D02*
X381968Y109909D01*
Y107576D01*
X380801Y106410D01*
X376136D01*
X374970Y107576D01*
Y109909D01*
X376136Y111075D01*
X374970Y113408D02*
Y115740D01*
Y114574D01*
X381968D01*
X380801Y113408D01*
X276199Y220925D02*
X275032Y222091D01*
Y224424D01*
X276199Y225590D01*
X280864D01*
X282030Y224424D01*
Y222091D01*
X280864Y220925D01*
X275032Y213927D02*
X276199Y216260D01*
X278531Y218592D01*
X280864D01*
X282030Y217426D01*
Y215093D01*
X280864Y213927D01*
X279697D01*
X278531Y215093D01*
Y218592D01*
D15*
X71660Y56950D02*
X228060D01*
Y31950D02*
Y56950D01*
X71660Y31950D02*
X228060D01*
X71660D02*
Y56950D01*
X111800Y372500D02*
X268200D01*
Y347500D02*
Y372500D01*
X111800Y347500D02*
X268200D01*
X111800D02*
Y372500D01*
X392140Y88530D02*
Y162530D01*
X334640D02*
X392140D01*
X334640Y88530D02*
Y162530D01*
Y88530D02*
X392140D01*
X209442Y258062D02*
X259442D01*
X209442Y226062D02*
X259442D01*
X209442D02*
Y258062D01*
X259442Y226062D02*
Y258062D01*
X47700Y211900D02*
Y313500D01*
X22300D02*
X47700D01*
X22300Y211900D02*
Y313500D01*
Y211900D02*
X47700D01*
X73000Y88650D02*
Y163350D01*
X9500Y88650D02*
X73000D01*
X9500D02*
Y163350D01*
X73000D01*
X71660Y56950D02*
X228060D01*
Y31950D02*
Y56950D01*
X71660Y31950D02*
X228060D01*
X71660D02*
Y56950D01*
X111800Y372500D02*
X268200D01*
Y347500D02*
Y372500D01*
X111800Y347500D02*
X268200D01*
X111800D02*
Y372500D01*
X392140Y88530D02*
Y162530D01*
X334640D02*
X392140D01*
X334640Y88530D02*
Y162530D01*
Y88530D02*
X392140D01*
X268732Y221742D02*
Y262382D01*
X200152D02*
X268732D01*
X200152Y221742D02*
Y262382D01*
Y221742D02*
X268732D01*
X47700Y211900D02*
Y313500D01*
X22300Y211900D02*
Y313500D01*
X47700D01*
X22300Y211900D02*
X47700D01*
X73000Y88650D02*
Y163350D01*
X9500Y88650D02*
X73000D01*
X9500D02*
Y163350D01*
X73000D01*
D16*
X254620Y78930D02*
X263084Y70466D01*
X254620D02*
X263084Y78930D01*
X254620Y74698D02*
X263084D01*
X258852Y70466D02*
Y78930D01*
D18*
X93282Y171998D02*
G03*
X93282Y171998I-1270J0D01*
G01*
X287767Y52516D02*
G03*
X287767Y52516I-9017J0D01*
G01*
D02*
G03*
X287767Y52516I-9017J0D01*
G01*
D19*
X89472Y169458D02*
Y206542D01*
X156528D01*
Y169458D02*
Y206542D01*
X89472Y169458D02*
X156528D01*
X107252Y206542D02*
Y224449D01*
X138748D01*
Y206542D02*
Y224449D01*
X107252Y206542D02*
X138748D01*
X150318Y151551D02*
Y169458D01*
X141682Y151551D02*
X150318D01*
X141682D02*
Y169458D01*
X150318D01*
X127318Y151551D02*
Y169458D01*
X118682Y151551D02*
X127318D01*
X118682D02*
Y169458D01*
X127318D01*
X104318Y151551D02*
Y169458D01*
X95682Y151551D02*
X104318D01*
X95682D02*
Y169458D01*
X104318D01*
X261224Y38038D02*
Y66994D01*
X296276D01*
Y38038D02*
Y66994D01*
X261224Y38038D02*
X296276D01*
Y66064D02*
X300213D01*
Y59968D02*
Y66064D01*
X296276Y59968D02*
X300213D01*
X296276D02*
Y66064D01*
Y45064D02*
X300213D01*
Y38968D02*
Y45064D01*
X296276Y38968D02*
X300213D01*
X296276D02*
Y45064D01*
X257287Y38968D02*
X261224D01*
X257287D02*
Y45064D01*
X261224D01*
Y38968D02*
Y45064D01*
X257287Y59968D02*
X261224D01*
X257287D02*
Y66064D01*
X261224D01*
Y59968D02*
Y66064D01*
Y59968D02*
Y66064D01*
X257287D02*
X261224D01*
X257287Y59968D02*
Y66064D01*
Y59968D02*
X261224D01*
Y38968D02*
Y45064D01*
X257287D02*
X261224D01*
X257287Y38968D02*
Y45064D01*
Y38968D02*
X261224D01*
X296276D02*
Y45064D01*
Y38968D02*
X300213D01*
Y45064D01*
X296276D02*
X300213D01*
X296276Y59968D02*
Y66064D01*
Y59968D02*
X300213D01*
Y66064D01*
X296276D02*
X300213D01*
X261224Y38038D02*
X296276D01*
Y66994D01*
X261224D02*
X296276D01*
X261224Y38038D02*
Y66994D01*
X383100Y229800D02*
Y306000D01*
X332300D02*
X383100D01*
X332300Y229800D02*
Y306000D01*
Y229800D02*
X383100D01*
D20*
X69160Y59450D02*
X230560D01*
Y29450D02*
Y59450D01*
X69160Y29450D02*
X230560D01*
X69160D02*
Y59450D01*
X109300Y375000D02*
X270700D01*
Y345000D02*
Y375000D01*
X109300Y345000D02*
X270700D01*
X109300D02*
Y375000D01*
X394640Y86030D02*
Y165030D01*
X332140Y86030D02*
X394640D01*
X332140D02*
Y165030D01*
X394640D01*
X201942Y223562D02*
X266942D01*
X201942D02*
Y260562D01*
X266942D01*
Y223562D02*
Y260562D01*
X50200Y209400D02*
Y316000D01*
X19800D02*
X50200D01*
X19800Y209400D02*
Y316000D01*
Y209400D02*
X50200D01*
X7000Y165850D02*
X75500D01*
X7000Y86150D02*
Y165850D01*
Y86150D02*
X75500D01*
Y165850D01*
D26*
X284124Y328676D02*
D03*
X303124D02*
D03*
X346202Y323342D02*
D03*
X365202D02*
D03*
X361761Y207720D02*
D03*
X322682Y34544D02*
D03*
X380761Y207720D02*
D03*
X303682Y34544D02*
D03*
D27*
X100000Y187000D02*
D03*
X74000D02*
D03*
D29*
X370400Y242500D02*
D03*
X345000Y293300D02*
D03*
X370400D02*
D03*
X42000Y100600D02*
D03*
X345000Y242500D02*
D03*
X370400Y267900D02*
D03*
X345000D02*
D03*
X358140Y138030D02*
D03*
X35000Y300800D02*
D03*
Y275400D02*
D03*
Y250000D02*
D03*
X42000Y126000D02*
D03*
D30*
X151900Y360000D02*
D03*
X137160Y44450D02*
D03*
X162560D02*
D03*
X187960D02*
D03*
X111760D02*
D03*
X86360D02*
D03*
X228100Y360000D02*
D03*
X202700D02*
D03*
X177300D02*
D03*
X126500D02*
D03*
D32*
X213360Y44450D02*
D03*
X253500Y360000D02*
D03*
D33*
X367000Y367000D02*
D03*
Y33000D02*
D03*
X33000D02*
D03*
Y367000D02*
D03*
D34*
X358140Y113030D02*
D03*
D35*
X35000Y224600D02*
D03*
D39*
X42000Y151400D02*
D03*
D41*
X274000Y220000D02*
D03*
X248000D02*
D03*
X222500D02*
D03*
X256500Y139500D02*
D03*
X188000Y130000D02*
D03*
X274000Y194000D02*
D03*
X248000D02*
D03*
X222500D02*
D03*
X256500Y113500D02*
D03*
X278750Y62540D02*
D03*
X188000Y156000D02*
D03*
X278750Y36540D02*
D03*
X383000Y112000D02*
D03*
Y138000D02*
D03*
D42*
X334000Y136500D02*
D03*
X326136Y192430D02*
D03*
Y211430D02*
D03*
X228092Y319532D02*
D03*
Y338532D02*
D03*
X334000Y117500D02*
D03*
D43*
X151000Y187000D02*
D03*
X125000D02*
D03*
D44*
X379000Y164000D02*
D03*
X144500Y289000D02*
D03*
X160000Y330000D02*
D03*
X125000Y289000D02*
D03*
X84000Y288000D02*
D03*
X64500D02*
D03*
X179500Y330000D02*
D03*
X159500Y256000D02*
D03*
X84750Y324000D02*
D03*
X65250D02*
D03*
X64500Y252000D02*
D03*
X84000D02*
D03*
X179000Y256000D02*
D03*
X359500Y164000D02*
D03*
D45*
X128000Y314250D02*
D03*
Y245000D02*
D03*
Y333750D02*
D03*
X173000Y301500D02*
D03*
Y282000D02*
D03*
X128000Y264500D02*
D03*
M02*
