M48
;Layer_Color=9474304
;FILE_FORMAT=2:5
INCH
;TYPE=PLATED
T1F00S00C0.02362
T2F00S00C0.02800
T3F00S00C0.03937
T4F00S00C0.04134
T5F00S00C0.04213
T6F00S00C0.04331
T7F00S00C0.12598
%
T01
X0170548Y0161917
X0167100Y0173585
X0166929Y0178740
X0179300Y0179185
X0179800Y0184785
X0186100Y0190885
X0191200Y0190985
X0197300Y0191157
X0200800Y0181385
X0201000Y0174685
X0200800Y0164343
X0219783Y0182087
X0231500Y0179385
X0236000Y0195785
X0249400Y0191385
X0211417Y0191339
X0215300Y0196185
X0212400Y0200685
X0205000Y0201285
X0187000Y0206685
X0176300Y0210785
X0167800Y0213785
X0181400Y0196941
X0157480Y0187008
X0161024Y0242126
X0228100Y0249185
X0251500Y0244085
X0142900Y0242685
X0142520Y0237795
X0143300Y0228785
X0142815Y0224016
X0142000Y0214985
X0138000Y0209285
X0128943Y0227814
X0142200Y0251385
X0142913Y0256299
X0138976Y0259941
X0144095Y0185827
X0120866Y0186221
T02
X0197600Y0140085
X0223200Y0140285
X0230500Y0140985
T03
X0134000Y0137185
X0144000
X0154000
X0164000
X0174000
X0184000
X0179803Y0261417
X0189803
X0199803
X0169803
X0159803
X0149803
T04
X0241000Y0164185
T05
X0116535Y0179291
T06
X0241000Y0174028
X0245827Y0215158
X0235827
Y0225157
Y0235157
X0245827
Y0225157
X0113779Y0228110
Y0238110
Y0218110
Y0208110
X0116535Y0169291
Y0159291
T07
X0112992Y0132677
X0244488
Y0264173
X0112992
M30
