G04*
G04 #@! TF.GenerationSoftware,Altium Limited,Altium Designer,22.9.1 (49)*
G04*
G04 Layer_Color=32768*
%FSLAX25Y25*%
%MOIN*%
G70*
G04*
G04 #@! TF.SameCoordinates,29D2F4FE-2809-456D-9DC6-49FB2EAC7AC4*
G04*
G04*
G04 #@! TF.FilePolarity,Positive*
G04*
G01*
G75*
%ADD10C,0.00600*%
%ADD14C,0.00394*%
%ADD46C,0.00197*%
G36*
X129827Y121472D02*
Y89472D01*
X151827D01*
Y121472D01*
X129827D01*
D02*
G37*
D10*
X34225Y65716D02*
X36670D01*
Y57266D02*
Y65716D01*
Y57266D02*
X60180D01*
Y65716D01*
X62625D01*
Y82316D01*
X55625D02*
X62625D01*
X55625D02*
Y90766D01*
X41225D02*
X55625D01*
X41225Y82316D02*
Y90766D01*
X34225Y82316D02*
X41225D01*
X34225Y65716D02*
Y82316D01*
X101844Y13975D02*
X117644D01*
Y13042D02*
Y13975D01*
Y13042D02*
X120194D01*
Y28309D01*
X117644D02*
X120194D01*
X117644Y27376D02*
Y28309D01*
X101844Y27376D02*
X117644D01*
X101844D02*
Y28309D01*
X99294D02*
X101844D01*
X99294Y13042D02*
Y28309D01*
Y13042D02*
X101844D01*
Y13975D01*
Y13042D02*
Y13975D01*
X99294Y13042D02*
X101844D01*
X99294Y28309D02*
X101844D01*
Y27376D02*
Y28309D01*
Y27376D02*
X117644D01*
Y28309D01*
X120194D01*
Y13042D02*
Y28309D01*
X117644Y13042D02*
X120194D01*
X117644D02*
Y13975D01*
X101844D02*
X117644D01*
X129827Y89472D02*
X151827D01*
Y121472D01*
X129827D02*
X151827D01*
X129827Y89472D02*
Y121472D01*
D14*
X36673Y99606D02*
X40610D01*
X38642Y97638D02*
Y101575D01*
X31079Y92122D02*
Y107091D01*
X46205D01*
Y92122D02*
Y107091D01*
X31079Y92122D02*
X46205D01*
X31079Y106295D02*
X46205D01*
Y121264D01*
X31079D02*
X46205D01*
X31079Y106295D02*
Y121264D01*
X38642Y111811D02*
Y115748D01*
X36673Y113779D02*
X40610D01*
X36673Y127953D02*
X40610D01*
X38642Y125984D02*
Y129921D01*
X31079Y120468D02*
Y135437D01*
X46205D01*
Y120468D02*
Y135437D01*
X31079Y120468D02*
X46205D01*
D46*
X27228Y23405D02*
X90772D01*
Y11594D02*
Y23405D01*
X27228Y11594D02*
X90772D01*
X27228D02*
Y23405D01*
X43031Y147638D02*
X106575D01*
Y135827D02*
Y147638D01*
X43031Y135827D02*
X106575D01*
X43031D02*
Y147638D01*
X155370Y33870D02*
Y64972D01*
X130764Y33870D02*
X155370D01*
X130764D02*
Y64972D01*
X155370D01*
X79505Y88016D02*
X105095D01*
X79505D02*
Y102584D01*
X105095D01*
Y88016D02*
Y102584D01*
X19764Y82441D02*
Y124409D01*
X7795D02*
X19764D01*
X7795Y82441D02*
Y124409D01*
Y82441D02*
X19764D01*
X2756Y65295D02*
X29724D01*
X2756Y33917D02*
Y65295D01*
Y33917D02*
X29724D01*
Y65295D01*
M02*
