G04*
G04 #@! TF.GenerationSoftware,Altium Limited,Altium Designer,22.9.1 (49)*
G04*
G04 Layer_Color=128*
%FSLAX25Y25*%
%MOIN*%
G70*
G04*
G04 #@! TF.SameCoordinates,29D2F4FE-2809-456D-9DC6-49FB2EAC7AC4*
G04*
G04*
G04 #@! TF.FilePolarity,Positive*
G04*
G01*
G75*
%ADD23R,0.04724X0.06299*%
%ADD24R,0.04724X0.06496*%
%ADD38R,0.06496X0.04724*%
%ADD39R,0.06299X0.04724*%
%ADD40R,0.05906X0.06890*%
%ADD41R,0.04528X0.06299*%
%ADD42R,0.06299X0.04528*%
D23*
X111860Y129400D02*
D03*
X119340D02*
D03*
X136300Y127300D02*
D03*
X143780D02*
D03*
X142426Y81779D02*
D03*
X127040Y13600D02*
D03*
X149906Y81779D02*
D03*
X119560Y13600D02*
D03*
D24*
X39370Y73622D02*
D03*
X29134D02*
D03*
D38*
X107874Y86614D02*
D03*
X97638D02*
D03*
X87598D02*
D03*
X100984Y54921D02*
D03*
X74016Y51181D02*
D03*
X107874Y76378D02*
D03*
X97638D02*
D03*
X87598D02*
D03*
X100984Y44685D02*
D03*
X109744Y24622D02*
D03*
X74016Y61417D02*
D03*
X109744Y14386D02*
D03*
X150787Y44094D02*
D03*
Y54331D02*
D03*
D39*
X131496Y53740D02*
D03*
X128400Y75760D02*
D03*
Y83240D02*
D03*
X89800Y125800D02*
D03*
Y133280D02*
D03*
X131496Y46260D02*
D03*
D40*
X59449Y73622D02*
D03*
X49213D02*
D03*
D41*
X149213Y64567D02*
D03*
X56890Y113779D02*
D03*
X62992Y129921D02*
D03*
X49213Y113779D02*
D03*
X33071Y113386D02*
D03*
X25394D02*
D03*
X70669Y129921D02*
D03*
X62795Y100787D02*
D03*
X33366Y127559D02*
D03*
X25689D02*
D03*
X25394Y99213D02*
D03*
X33071D02*
D03*
X70472Y100787D02*
D03*
X141535Y64567D02*
D03*
D42*
X50394Y123721D02*
D03*
Y96457D02*
D03*
Y131398D02*
D03*
X68110Y118701D02*
D03*
Y111024D02*
D03*
X50394Y104134D02*
D03*
M02*
