G04*
G04 #@! TF.GenerationSoftware,Altium Limited,Altium Designer,22.9.1 (49)*
G04*
G04 Layer_Color=16711935*
%FSLAX25Y25*%
%MOIN*%
G70*
G04*
G04 #@! TF.SameCoordinates,29D2F4FE-2809-456D-9DC6-49FB2EAC7AC4*
G04*
G04*
G04 #@! TF.FilePolarity,Positive*
G04*
G01*
G75*
%ADD11C,0.00787*%
%ADD14C,0.00394*%
%ADD15C,0.00500*%
%ADD44C,0.00000*%
%ADD45C,0.00100*%
D11*
X92189Y17500D02*
G03*
X92189Y17500I-394J0D01*
G01*
X107992Y141732D02*
G03*
X107992Y141732I-394J0D01*
G01*
X141394Y31941D02*
G03*
X141394Y31941I-394J0D01*
G01*
X14173Y80866D02*
G03*
X14173Y80866I-394J0D01*
G01*
X16929Y67264D02*
G03*
X16929Y67264I-394J0D01*
G01*
D14*
X41201Y93858D02*
Y105354D01*
X36083Y93858D02*
X41201D01*
X36083Y105354D02*
X41201D01*
X36083Y93858D02*
Y105354D01*
Y108031D02*
Y119528D01*
X41201D01*
X36083Y108031D02*
X41201D01*
Y119528D01*
Y122205D02*
Y133701D01*
X36083Y122205D02*
X41201D01*
X36083Y133701D02*
X41201D01*
X36083Y122205D02*
Y133701D01*
D15*
X28213Y22421D02*
X89787D01*
Y12579D02*
Y22421D01*
X28213Y12579D02*
X89787D01*
X28213D02*
Y22421D01*
X44016Y146653D02*
X105591D01*
Y136811D02*
Y146653D01*
X44016Y136811D02*
X105591D01*
X44016D02*
Y146653D01*
X154386Y34854D02*
Y63988D01*
X131748D02*
X154386D01*
X131748Y34854D02*
Y63988D01*
Y34854D02*
X154386D01*
X82458Y101599D02*
X102143D01*
X82458Y89001D02*
X102143D01*
X82458D02*
Y101599D01*
X102143Y89001D02*
Y101599D01*
X18779Y83425D02*
Y123425D01*
X8779D02*
X18779D01*
X8779Y83425D02*
Y123425D01*
Y83425D02*
X18779D01*
X28740Y34902D02*
Y64311D01*
X3740Y34902D02*
X28740D01*
X3740D02*
Y64311D01*
X28740D01*
D44*
X36725Y67716D02*
G03*
X36725Y67716I-500J0D01*
G01*
X113294Y20675D02*
G03*
X113294Y20675I-3550J0D01*
G01*
D02*
G03*
X113294Y20675I-3550J0D01*
G01*
D45*
X35225Y66716D02*
Y81316D01*
X61625D01*
Y66716D02*
Y81316D01*
X35225Y66716D02*
X61625D01*
X42225Y81316D02*
Y88366D01*
X54625D01*
Y81316D02*
Y88366D01*
X42225Y81316D02*
X54625D01*
X59180Y59666D02*
Y66716D01*
X55780Y59666D02*
X59180D01*
X55780D02*
Y66716D01*
X59180D01*
X50125Y59666D02*
Y66716D01*
X46725Y59666D02*
X50125D01*
X46725D02*
Y66716D01*
X50125D01*
X41070Y59666D02*
Y66716D01*
X37670Y59666D02*
X41070D01*
X37670D02*
Y66716D01*
X41070D01*
X102844Y14976D02*
Y26375D01*
X116644D01*
Y14976D02*
Y26375D01*
X102844Y14976D02*
X116644D01*
Y26009D02*
X118194D01*
Y23609D02*
Y26009D01*
X116644Y23609D02*
X118194D01*
X116644D02*
Y26009D01*
Y17742D02*
X118194D01*
Y15342D02*
Y17742D01*
X116644Y15342D02*
X118194D01*
X116644D02*
Y17742D01*
X101294Y15342D02*
X102844D01*
X101294D02*
Y17742D01*
X102844D01*
Y15342D02*
Y17742D01*
X101294Y23609D02*
X102844D01*
X101294D02*
Y26009D01*
X102844D01*
Y23609D02*
Y26009D01*
Y23609D02*
Y26009D01*
X101294D02*
X102844D01*
X101294Y23609D02*
Y26009D01*
Y23609D02*
X102844D01*
Y15342D02*
Y17742D01*
X101294D02*
X102844D01*
X101294Y15342D02*
Y17742D01*
Y15342D02*
X102844D01*
X116644D02*
Y17742D01*
Y15342D02*
X118194D01*
Y17742D01*
X116644D02*
X118194D01*
X116644Y23609D02*
Y26009D01*
Y23609D02*
X118194D01*
Y26009D01*
X116644D02*
X118194D01*
X102844Y14976D02*
X116644D01*
Y26375D01*
X102844D02*
X116644D01*
X102844Y14976D02*
Y26375D01*
X150827Y90472D02*
Y120472D01*
X130827D02*
X150827D01*
X130827Y90472D02*
Y120472D01*
Y90472D02*
X150827D01*
M02*
