G04*
G04 #@! TF.GenerationSoftware,Altium Limited,Altium Designer,22.9.1 (49)*
G04*
G04 Layer_Physical_Order=4*
G04 Layer_Color=13010237*
%FSLAX25Y25*%
%MOIN*%
G70*
G04*
G04 #@! TF.SameCoordinates,29D2F4FE-2809-456D-9DC6-49FB2EAC7AC4*
G04*
G04*
G04 #@! TF.FilePolarity,Positive*
G04*
G01*
G75*
%ADD11C,0.00787*%
%ADD12C,0.02000*%
%ADD17C,0.01000*%
%ADD23R,0.04724X0.06299*%
%ADD24R,0.04724X0.06496*%
%ADD26C,0.07087*%
%ADD27C,0.05937*%
%ADD29R,0.05937X0.05937*%
%ADD30C,0.21654*%
%ADD31R,0.06201X0.06201*%
%ADD32R,0.05709X0.05709*%
%ADD34C,0.05000*%
%ADD36R,0.06319X0.06319*%
%ADD37C,0.03937*%
%ADD38R,0.06496X0.04724*%
%ADD39R,0.06299X0.04724*%
%ADD40R,0.05906X0.06890*%
%ADD41R,0.04528X0.06299*%
%ADD42R,0.06299X0.04528*%
D11*
X131496Y53740D02*
X131500Y53744D01*
X107874Y76378D02*
X107996Y76500D01*
X86100Y71200D02*
Y71618D01*
X100957Y44658D02*
X100984Y44685D01*
X100800Y44658D02*
X100957D01*
X79197Y64497D02*
X79800Y65100D01*
X73900Y61533D02*
X74016Y61417D01*
X61024Y122441D02*
X62108Y123526D01*
X70452Y129704D02*
X70669Y129921D01*
X42913Y136614D02*
X43215Y136313D01*
X49133Y113700D02*
X49213Y113779D01*
X42448Y109100D02*
X43300D01*
X50197Y104331D02*
X50394Y104134D01*
X67800Y94100D02*
X67878Y94178D01*
X70441Y42126D02*
X70548Y42232D01*
D12*
X108760Y86614D02*
X110122Y85252D01*
Y84366D02*
Y85252D01*
X107874Y86614D02*
X108760D01*
X112029Y81371D02*
X112400Y81000D01*
X112029Y81371D02*
Y82459D01*
X110122Y84366D02*
X112029Y82459D01*
X137117Y76471D02*
X142426Y81779D01*
X136371Y76471D02*
X137117D01*
X136000Y76100D02*
X136371Y76471D01*
X135830Y75930D02*
X136000Y76100D01*
X131500Y53744D02*
Y59700D01*
X128542Y75930D02*
X135830D01*
X128400Y75787D02*
X128542Y75930D01*
X127100Y13600D02*
Y17900D01*
X130500Y21300D01*
X97638Y86614D02*
X97900Y86352D01*
Y83672D02*
Y86352D01*
Y83672D02*
X99972Y81600D01*
X105000D01*
X59449Y73622D02*
X59900Y73171D01*
Y68572D02*
Y73171D01*
X57557Y67400D02*
X58728D01*
X59900Y68572D01*
X57480Y67323D02*
X57557Y67400D01*
X73935Y51100D02*
X74016Y51181D01*
X69700Y51100D02*
X73935D01*
X67100Y53700D02*
Y53900D01*
Y53700D02*
X69700Y51100D01*
X39370Y67730D02*
X40958Y66142D01*
X39370Y67730D02*
Y73622D01*
X40958Y66142D02*
X44094D01*
X109744Y24622D02*
X109987Y24379D01*
X114821D01*
X118600Y20600D01*
X123200D01*
X107996Y76500D02*
X115300D01*
X149306Y71606D02*
X149400Y71700D01*
X97300Y76040D02*
X97638Y76378D01*
X87598Y73116D02*
Y76378D01*
X97300Y71473D02*
Y76040D01*
X86100Y71618D02*
X87598Y73116D01*
X149213Y64567D02*
X149306Y64661D01*
Y71606D01*
X50373Y123700D02*
X55000D01*
X56890Y121810D01*
X50033Y123360D02*
X50373Y123700D01*
X56890Y113779D02*
Y121810D01*
X50394Y91794D02*
Y96457D01*
X43260Y123360D02*
X50033D01*
X38000Y89600D02*
X48200D01*
X50394Y91794D01*
X42900Y123000D02*
X43260Y123360D01*
X74400Y65100D02*
X79800D01*
X73900Y61533D02*
Y64600D01*
X74400Y65100D01*
X49213Y67713D02*
Y73622D01*
X47642Y66142D02*
X49213Y67713D01*
X44094Y66142D02*
X47642D01*
X13780Y82820D02*
X22978Y73622D01*
X29134D01*
X13780Y82820D02*
Y88425D01*
D17*
X143780Y127300D02*
X143880Y127200D01*
X148700D02*
X151500Y124400D01*
X143880Y127200D02*
X148700D01*
X128100Y129500D02*
X128605D01*
X127900Y129700D02*
X128100Y129500D01*
X119640Y129700D02*
X127900D01*
X130805Y127300D02*
X136300D01*
X128605Y129500D02*
X130805Y127300D01*
X119340Y129400D02*
X119640Y129700D01*
X63801Y118701D02*
X68110D01*
X62600Y117500D02*
X63801Y118701D01*
X62600Y112021D02*
Y117500D01*
X54065Y109055D02*
X59635D01*
X62600Y112021D01*
X33366Y127559D02*
X41059D01*
X42200Y128700D02*
Y131700D01*
X41059Y127559D02*
X42200Y128700D01*
X128400Y83240D02*
Y92900D01*
X130972Y95472D01*
X135827D01*
X62108Y123526D02*
X62583Y124000D01*
X68400D01*
X70452Y126052D01*
Y129704D01*
X57302Y131398D02*
X58779Y129921D01*
X50394Y131398D02*
X57302D01*
X58779Y129921D02*
X62992D01*
X62795Y83405D02*
X63673Y82527D01*
Y46169D02*
Y82527D01*
X62795Y83405D02*
Y100787D01*
X13780Y123679D02*
X17659Y127559D01*
X13780Y118425D02*
Y123679D01*
X41438Y95862D02*
Y97162D01*
Y95862D02*
X42000Y95300D01*
X39387Y99213D02*
X41438Y97162D01*
X33071Y99213D02*
X39387D01*
X63673Y46169D02*
X67716Y42126D01*
X116000Y13600D02*
X119560D01*
X109744Y14386D02*
X115214D01*
X116000Y13600D01*
X103700Y14300D02*
X109658D01*
X97600Y20400D02*
X103700Y14300D01*
X137300Y45000D02*
X140500D01*
X141000Y44500D01*
X137300Y45000D02*
Y45060D01*
X136100Y46260D02*
X137300Y45060D01*
X141000Y44500D02*
X141405Y44094D01*
X150787D01*
X136000Y62981D02*
X137586Y64567D01*
X136000Y59342D02*
X141000Y54343D01*
X136000Y59342D02*
Y62981D01*
X137586Y64567D02*
X141535D01*
X141000Y54343D02*
X150776D01*
X150787Y54331D01*
X149566Y77715D02*
Y81439D01*
X149906Y81779D01*
Y82567D01*
X153800Y86461D01*
Y97499D01*
X141255Y69404D02*
X149566Y77715D01*
X126786Y69404D02*
X141255D01*
X145827Y105472D02*
X153800Y97499D01*
X121400Y99943D02*
X126930Y105472D01*
X135827D01*
X121400Y76600D02*
Y99943D01*
X110745Y65945D02*
X121400Y76600D01*
X66929Y59055D02*
Y86629D01*
X68110Y111024D02*
X72676D01*
X75787Y95487D02*
Y131890D01*
X69828Y137850D02*
X75787Y131890D01*
X67878Y94178D02*
X71343D01*
X89800Y107296D02*
Y125800D01*
X76405Y91205D02*
Y93901D01*
X66929Y86629D02*
X75787Y95487D01*
X76405Y93901D02*
X89800Y107296D01*
X76300Y91100D02*
X76405Y91205D01*
X71343Y94178D02*
X74000Y96835D01*
Y109700D01*
X72676Y111024D02*
X74000Y109700D01*
X105200Y129400D02*
X111860D01*
X99803Y134797D02*
X105200Y129400D01*
X99803Y134797D02*
Y141732D01*
X89800Y133280D02*
X89803Y133283D01*
Y141732D01*
X100800Y61700D02*
X100854D01*
X102854Y59700D01*
X113900D01*
X127340Y46260D01*
X119783Y62402D02*
X126786Y69404D01*
X109658Y14300D02*
X109744Y14386D01*
X97600Y20400D02*
Y36602D01*
X91200Y43002D02*
X97600Y36602D01*
X91200Y68486D02*
Y71300D01*
Y43002D02*
Y68486D01*
X93832Y65945D02*
X110745D01*
X91291Y68486D02*
X93832Y65945D01*
X50394Y131398D02*
Y134406D01*
X48487Y136313D02*
X50394Y134406D01*
X43215Y136313D02*
X48487D01*
X69803Y141732D02*
X69828Y141708D01*
Y137850D02*
Y141708D01*
X131496Y46260D02*
X136100D01*
X127340D02*
X131496D01*
X42520Y114895D02*
Y118110D01*
Y114895D02*
X43715Y113700D01*
X49133D01*
X38162Y113386D02*
X42448Y109100D01*
X33071Y113386D02*
X38162D01*
X13780Y98425D02*
X19225D01*
X20013Y99213D01*
X25394D01*
X53479Y109641D02*
Y112958D01*
Y109641D02*
X54065Y109055D01*
X58100Y105400D02*
X70011D01*
X56834Y104134D02*
X58100Y105400D01*
X50394Y104134D02*
X56834D01*
X70011Y105400D02*
X70472Y104939D01*
Y100787D02*
Y104939D01*
X17659Y127559D02*
X25689D01*
X13780Y108425D02*
X18740Y113386D01*
X25394D01*
X42815Y104331D02*
X50197D01*
X67716Y42126D02*
X70441D01*
X52658Y113779D02*
X53479Y112958D01*
X49213Y113779D02*
X52658D01*
D23*
X111860Y129400D02*
D03*
X119340D02*
D03*
X136300Y127300D02*
D03*
X143780D02*
D03*
X142426Y81779D02*
D03*
X127040Y13600D02*
D03*
X149906Y81779D02*
D03*
X119560Y13600D02*
D03*
D24*
X39370Y73622D02*
D03*
X29134D02*
D03*
D26*
X145827Y95472D02*
D03*
X135827Y115472D02*
D03*
X145827D02*
D03*
X16535Y39606D02*
D03*
X135827Y95472D02*
D03*
X145827Y105472D02*
D03*
X135827D02*
D03*
X141000Y54343D02*
D03*
X13780Y118425D02*
D03*
Y108425D02*
D03*
Y98425D02*
D03*
X16535Y49606D02*
D03*
D27*
X59803Y141732D02*
D03*
X54000Y17500D02*
D03*
X64000D02*
D03*
X74000D02*
D03*
X44000D02*
D03*
X34000D02*
D03*
X89803Y141732D02*
D03*
X79803D02*
D03*
X69803D02*
D03*
X49803D02*
D03*
D29*
X84000Y17500D02*
D03*
X99803Y141732D02*
D03*
D30*
X144488Y144488D02*
D03*
Y12992D02*
D03*
X12992D02*
D03*
Y144488D02*
D03*
D31*
X141000Y44500D02*
D03*
D32*
X13780Y88425D02*
D03*
D34*
X130500Y21300D02*
D03*
X123200Y20600D02*
D03*
X97600Y20400D02*
D03*
D36*
X16535Y59606D02*
D03*
D37*
X151500Y124400D02*
D03*
X128100Y129500D02*
D03*
X112400Y81000D02*
D03*
X136000Y76100D02*
D03*
X131500Y59700D02*
D03*
X87000Y87000D02*
D03*
X105000Y81600D02*
D03*
X57480Y67323D02*
D03*
X101000Y55000D02*
D03*
X67100Y53900D02*
D03*
X115300Y76500D02*
D03*
X149400Y71700D02*
D03*
X111417Y71653D02*
D03*
X81400Y77256D02*
D03*
X97300Y71473D02*
D03*
X86100Y71200D02*
D03*
X100800Y44658D02*
D03*
X42900Y123000D02*
D03*
X38000Y89600D02*
D03*
X28943Y108129D02*
D03*
X79800Y65100D02*
D03*
X79300Y59500D02*
D03*
X44094Y66142D02*
D03*
X76300Y91100D02*
D03*
X119783Y62402D02*
D03*
X91200Y71300D02*
D03*
X42913Y136614D02*
D03*
X38976Y140256D02*
D03*
X42520Y118110D02*
D03*
X42000Y95300D02*
D03*
X100800Y61700D02*
D03*
X66929Y59055D02*
D03*
X42200Y131700D02*
D03*
X43300Y109100D02*
D03*
X42815Y104331D02*
D03*
X67800Y94100D02*
D03*
X70548Y42232D02*
D03*
X61024Y122441D02*
D03*
X20866Y66535D02*
D03*
D38*
X107874Y86614D02*
D03*
X97638D02*
D03*
X87598D02*
D03*
X100984Y54921D02*
D03*
X74016Y51181D02*
D03*
X107874Y76378D02*
D03*
X97638D02*
D03*
X87598D02*
D03*
X100984Y44685D02*
D03*
X109744Y24622D02*
D03*
X74016Y61417D02*
D03*
X109744Y14386D02*
D03*
X150787Y44094D02*
D03*
Y54331D02*
D03*
D39*
X131496Y53740D02*
D03*
X128400Y75760D02*
D03*
Y83240D02*
D03*
X89800Y125800D02*
D03*
Y133280D02*
D03*
X131496Y46260D02*
D03*
D40*
X59449Y73622D02*
D03*
X49213D02*
D03*
D41*
X149213Y64567D02*
D03*
X56890Y113779D02*
D03*
X62992Y129921D02*
D03*
X49213Y113779D02*
D03*
X33071Y113386D02*
D03*
X25394D02*
D03*
X70669Y129921D02*
D03*
X62795Y100787D02*
D03*
X33366Y127559D02*
D03*
X25689D02*
D03*
X25394Y99213D02*
D03*
X33071D02*
D03*
X70472Y100787D02*
D03*
X141535Y64567D02*
D03*
D42*
X50394Y123721D02*
D03*
Y96457D02*
D03*
Y131398D02*
D03*
X68110Y118701D02*
D03*
Y111024D02*
D03*
X50394Y104134D02*
D03*
M02*
