G04*
G04 #@! TF.GenerationSoftware,Altium Limited,Altium Designer,22.9.1 (49)*
G04*
G04 Layer_Physical_Order=3*
G04 Layer_Color=16440176*
%FSLAX25Y25*%
%MOIN*%
G70*
G04*
G04 #@! TF.SameCoordinates,29D2F4FE-2809-456D-9DC6-49FB2EAC7AC4*
G04*
G04*
G04 #@! TF.FilePolarity,Positive*
G04*
G01*
G75*
%ADD26C,0.07087*%
%ADD27C,0.05937*%
%ADD34C,0.05000*%
%ADD37C,0.03937*%
G36*
X156677Y803D02*
X803D01*
Y156677D01*
X156677D01*
Y803D01*
D02*
G37*
%LPC*%
G36*
X60247Y145101D02*
X60003D01*
Y141932D01*
X63172D01*
Y142176D01*
X62942Y143033D01*
X62499Y143801D01*
X61871Y144428D01*
X61103Y144871D01*
X60247Y145101D01*
D02*
G37*
G36*
X59603D02*
X59360D01*
X58503Y144871D01*
X57735Y144428D01*
X57108Y143801D01*
X56664Y143033D01*
X56435Y142176D01*
Y141932D01*
X59603D01*
Y145101D01*
D02*
G37*
G36*
X100247D02*
X99360D01*
X98503Y144871D01*
X97735Y144428D01*
X97108Y143801D01*
X96664Y143033D01*
X96435Y142176D01*
Y141289D01*
X96664Y140432D01*
X97108Y139664D01*
X97735Y139037D01*
X98503Y138593D01*
X99360Y138364D01*
X100247D01*
X101103Y138593D01*
X101872Y139037D01*
X102499Y139664D01*
X102942Y140432D01*
X103172Y141289D01*
Y142176D01*
X102942Y143033D01*
X102499Y143801D01*
X101872Y144428D01*
X101103Y144871D01*
X100247Y145101D01*
D02*
G37*
G36*
X90247D02*
X89360D01*
X88503Y144871D01*
X87735Y144428D01*
X87108Y143801D01*
X86664Y143033D01*
X86435Y142176D01*
Y141289D01*
X86664Y140432D01*
X87108Y139664D01*
X87735Y139037D01*
X88503Y138593D01*
X89360Y138364D01*
X90247D01*
X91103Y138593D01*
X91872Y139037D01*
X92499Y139664D01*
X92942Y140432D01*
X93172Y141289D01*
Y142176D01*
X92942Y143033D01*
X92499Y143801D01*
X91872Y144428D01*
X91103Y144871D01*
X90247Y145101D01*
D02*
G37*
G36*
X80247D02*
X79360D01*
X78503Y144871D01*
X77735Y144428D01*
X77108Y143801D01*
X76664Y143033D01*
X76435Y142176D01*
Y141289D01*
X76664Y140432D01*
X77108Y139664D01*
X77735Y139037D01*
X78503Y138593D01*
X79360Y138364D01*
X80247D01*
X81103Y138593D01*
X81871Y139037D01*
X82499Y139664D01*
X82942Y140432D01*
X83172Y141289D01*
Y142176D01*
X82942Y143033D01*
X82499Y143801D01*
X81871Y144428D01*
X81103Y144871D01*
X80247Y145101D01*
D02*
G37*
G36*
X70247D02*
X69360D01*
X68503Y144871D01*
X67735Y144428D01*
X67108Y143801D01*
X66664Y143033D01*
X66435Y142176D01*
Y141289D01*
X66664Y140432D01*
X67108Y139664D01*
X67735Y139037D01*
X68503Y138593D01*
X69360Y138364D01*
X70247D01*
X71103Y138593D01*
X71872Y139037D01*
X72499Y139664D01*
X72942Y140432D01*
X73172Y141289D01*
Y142176D01*
X72942Y143033D01*
X72499Y143801D01*
X71872Y144428D01*
X71103Y144871D01*
X70247Y145101D01*
D02*
G37*
G36*
X63172Y141532D02*
X60003D01*
Y138364D01*
X60247D01*
X61103Y138593D01*
X61871Y139037D01*
X62499Y139664D01*
X62942Y140432D01*
X63172Y141289D01*
Y141532D01*
D02*
G37*
G36*
X59603D02*
X56435D01*
Y141289D01*
X56664Y140432D01*
X57108Y139664D01*
X57735Y139037D01*
X58503Y138593D01*
X59360Y138364D01*
X59603D01*
Y141532D01*
D02*
G37*
G36*
X50247Y145101D02*
X49360D01*
X48503Y144871D01*
X47735Y144428D01*
X47108Y143801D01*
X46664Y143033D01*
X46435Y142176D01*
Y141289D01*
X46664Y140432D01*
X47108Y139664D01*
X47735Y139037D01*
X48503Y138593D01*
X49360Y138364D01*
X50247D01*
X51103Y138593D01*
X51872Y139037D01*
X52499Y139664D01*
X52942Y140432D01*
X53172Y141289D01*
Y142176D01*
X52942Y143033D01*
X52499Y143801D01*
X51872Y144428D01*
X51103Y144871D01*
X50247Y145101D01*
D02*
G37*
G36*
X145372Y155715D02*
X143605D01*
X141859Y155438D01*
X140179Y154893D01*
X138604Y154090D01*
X137174Y153051D01*
X135925Y151802D01*
X134886Y150372D01*
X134084Y148798D01*
X133538Y147117D01*
X133261Y145372D01*
Y143605D01*
X133538Y141859D01*
X134084Y140179D01*
X134886Y138604D01*
X135925Y137174D01*
X137174Y135925D01*
X138604Y134886D01*
X140179Y134084D01*
X141859Y133538D01*
X143605Y133261D01*
X145372D01*
X147117Y133538D01*
X148798Y134084D01*
X150372Y134886D01*
X151802Y135925D01*
X153051Y137174D01*
X154090Y138604D01*
X154893Y140179D01*
X155438Y141859D01*
X155715Y143605D01*
Y145372D01*
X155438Y147117D01*
X154893Y148798D01*
X154090Y150372D01*
X153051Y151802D01*
X151802Y153051D01*
X150372Y154090D01*
X148798Y154893D01*
X147117Y155438D01*
X145372Y155715D01*
D02*
G37*
G36*
X13876D02*
X12109D01*
X10363Y155438D01*
X8682Y154893D01*
X7108Y154090D01*
X5678Y153051D01*
X4429Y151802D01*
X3390Y150372D01*
X2588Y148798D01*
X2042Y147117D01*
X1765Y145372D01*
Y143605D01*
X2042Y141859D01*
X2588Y140179D01*
X3390Y138604D01*
X4429Y137174D01*
X5678Y135925D01*
X7108Y134886D01*
X8682Y134084D01*
X10363Y133538D01*
X12109Y133261D01*
X13876D01*
X15621Y133538D01*
X17302Y134084D01*
X18876Y134886D01*
X20306Y135925D01*
X21555Y137174D01*
X22594Y138604D01*
X23396Y140179D01*
X23943Y141859D01*
X24219Y143605D01*
Y145372D01*
X23943Y147117D01*
X23396Y148798D01*
X22594Y150372D01*
X21555Y151802D01*
X20306Y153051D01*
X18876Y154090D01*
X17302Y154893D01*
X15621Y155438D01*
X13876Y155715D01*
D02*
G37*
G36*
X39467Y142724D02*
X38485D01*
X37578Y142349D01*
X36884Y141654D01*
X36508Y140747D01*
Y139765D01*
X36884Y138858D01*
X37578Y138163D01*
X38485Y137787D01*
X39467D01*
X40217Y138098D01*
X40674Y137733D01*
X40693Y137705D01*
X40445Y137105D01*
Y136123D01*
X40821Y135216D01*
X41370Y134667D01*
X41332Y134115D01*
X41276Y133989D01*
X40802Y133793D01*
X40107Y133098D01*
X39731Y132191D01*
Y131209D01*
X40107Y130302D01*
X40802Y129607D01*
X41709Y129232D01*
X42691D01*
X43598Y129607D01*
X44293Y130302D01*
X44668Y131209D01*
Y132191D01*
X44293Y133098D01*
X43744Y133647D01*
X43781Y134199D01*
X43837Y134325D01*
X44312Y134521D01*
X45006Y135216D01*
X45382Y136123D01*
Y137105D01*
X45006Y138013D01*
X44312Y138707D01*
X43404Y139083D01*
X42422D01*
X41673Y138772D01*
X41216Y139137D01*
X41197Y139165D01*
X41445Y139765D01*
Y140747D01*
X41069Y141654D01*
X40375Y142349D01*
X39467Y142724D01*
D02*
G37*
G36*
X128591Y131968D02*
X127609D01*
X126702Y131593D01*
X126007Y130898D01*
X125631Y129991D01*
Y129009D01*
X126007Y128102D01*
X126702Y127407D01*
X127609Y127032D01*
X128591D01*
X129498Y127407D01*
X130193Y128102D01*
X130569Y129009D01*
Y129991D01*
X130193Y130898D01*
X129498Y131593D01*
X128591Y131968D01*
D02*
G37*
G36*
X151991Y126868D02*
X151009D01*
X150102Y126493D01*
X149407Y125798D01*
X149031Y124891D01*
Y123909D01*
X149407Y123002D01*
X150102Y122307D01*
X151009Y121932D01*
X151991D01*
X152898Y122307D01*
X153593Y123002D01*
X153969Y123909D01*
Y124891D01*
X153593Y125798D01*
X152898Y126493D01*
X151991Y126868D01*
D02*
G37*
G36*
X61515Y124909D02*
X60533D01*
X59625Y124534D01*
X58931Y123839D01*
X58555Y122932D01*
Y121950D01*
X58931Y121043D01*
X59625Y120348D01*
X60533Y119972D01*
X61515D01*
X62422Y120348D01*
X63116Y121043D01*
X63492Y121950D01*
Y122932D01*
X63116Y123839D01*
X62422Y124534D01*
X61515Y124909D01*
D02*
G37*
G36*
X146346Y119416D02*
X146027D01*
Y115673D01*
X149770D01*
Y115992D01*
X149501Y116995D01*
X148982Y117894D01*
X148248Y118628D01*
X147349Y119147D01*
X146346Y119416D01*
D02*
G37*
G36*
X145627D02*
X145308D01*
X144305Y119147D01*
X143405Y118628D01*
X142671Y117894D01*
X142152Y116995D01*
X141884Y115992D01*
Y115673D01*
X145627D01*
Y119416D01*
D02*
G37*
G36*
X43011Y120579D02*
X42029D01*
X41121Y120203D01*
X40427Y119509D01*
X40051Y118601D01*
Y117619D01*
X40427Y116712D01*
X41121Y116018D01*
X42029Y115642D01*
X43011D01*
X43918Y116018D01*
X44612Y116712D01*
X44988Y117619D01*
Y118601D01*
X44612Y119509D01*
X43918Y120203D01*
X43011Y120579D01*
D02*
G37*
G36*
X14299Y122369D02*
X13260D01*
X12257Y122100D01*
X11358Y121581D01*
X10624Y120846D01*
X10105Y119947D01*
X9836Y118944D01*
Y117906D01*
X10105Y116903D01*
X10624Y116004D01*
X11358Y115270D01*
X12257Y114751D01*
X13260Y114482D01*
X14299D01*
X15302Y114751D01*
X16201Y115270D01*
X16935Y116004D01*
X17454Y116903D01*
X17723Y117906D01*
Y118944D01*
X17454Y119947D01*
X16935Y120846D01*
X16201Y121581D01*
X15302Y122100D01*
X14299Y122369D01*
D02*
G37*
G36*
X149770Y115272D02*
X146027D01*
Y111529D01*
X146346D01*
X147349Y111798D01*
X148248Y112317D01*
X148982Y113051D01*
X149501Y113950D01*
X149770Y114953D01*
Y115272D01*
D02*
G37*
G36*
X145627D02*
X141884D01*
Y114953D01*
X142152Y113950D01*
X142671Y113051D01*
X143405Y112317D01*
X144305Y111798D01*
X145308Y111529D01*
X145627D01*
Y115272D01*
D02*
G37*
G36*
X136346Y119416D02*
X135308D01*
X134305Y119147D01*
X133405Y118628D01*
X132671Y117894D01*
X132152Y116995D01*
X131884Y115992D01*
Y114953D01*
X132152Y113950D01*
X132671Y113051D01*
X133405Y112317D01*
X134305Y111798D01*
X135308Y111529D01*
X136346D01*
X137349Y111798D01*
X138248Y112317D01*
X138982Y113051D01*
X139501Y113950D01*
X139770Y114953D01*
Y115992D01*
X139501Y116995D01*
X138982Y117894D01*
X138248Y118628D01*
X137349Y119147D01*
X136346Y119416D01*
D02*
G37*
G36*
X14299Y112369D02*
X13260D01*
X12257Y112100D01*
X11358Y111581D01*
X10624Y110846D01*
X10105Y109947D01*
X9836Y108944D01*
Y107906D01*
X10105Y106903D01*
X10624Y106004D01*
X11358Y105270D01*
X12257Y104751D01*
X13260Y104482D01*
X14299D01*
X15302Y104751D01*
X16201Y105270D01*
X16935Y106004D01*
X17454Y106903D01*
X17723Y107906D01*
Y108944D01*
X17454Y109947D01*
X16935Y110846D01*
X16201Y111581D01*
X15302Y112100D01*
X14299Y112369D01*
D02*
G37*
G36*
X43791Y111568D02*
X42809D01*
X41902Y111193D01*
X41207Y110498D01*
X40832Y109591D01*
Y108609D01*
X41207Y107702D01*
X41721Y107188D01*
X41656Y106562D01*
X41627Y106510D01*
X41417Y106423D01*
X40723Y105729D01*
X40347Y104822D01*
Y103840D01*
X40723Y102932D01*
X41417Y102238D01*
X42324Y101862D01*
X43306D01*
X44214Y102238D01*
X44908Y102932D01*
X45284Y103840D01*
Y104822D01*
X44908Y105729D01*
X44395Y106242D01*
X44460Y106869D01*
X44488Y106920D01*
X44698Y107007D01*
X45393Y107702D01*
X45768Y108609D01*
Y109591D01*
X45393Y110498D01*
X44698Y111193D01*
X43791Y111568D01*
D02*
G37*
G36*
X146346Y109416D02*
X145308D01*
X144305Y109147D01*
X143405Y108628D01*
X142671Y107894D01*
X142152Y106994D01*
X141884Y105992D01*
Y104953D01*
X142152Y103950D01*
X142671Y103051D01*
X143405Y102317D01*
X144305Y101798D01*
X145308Y101529D01*
X146346D01*
X147349Y101798D01*
X148248Y102317D01*
X148982Y103051D01*
X149501Y103950D01*
X149770Y104953D01*
Y105992D01*
X149501Y106994D01*
X148982Y107894D01*
X148248Y108628D01*
X147349Y109147D01*
X146346Y109416D01*
D02*
G37*
G36*
X136346D02*
X135308D01*
X134305Y109147D01*
X133405Y108628D01*
X132671Y107894D01*
X132152Y106994D01*
X131884Y105992D01*
Y104953D01*
X132152Y103950D01*
X132671Y103051D01*
X133405Y102317D01*
X134305Y101798D01*
X135308Y101529D01*
X136346D01*
X137349Y101798D01*
X138248Y102317D01*
X138982Y103051D01*
X139501Y103950D01*
X139770Y104953D01*
Y105992D01*
X139501Y106994D01*
X138982Y107894D01*
X138248Y108628D01*
X137349Y109147D01*
X136346Y109416D01*
D02*
G37*
G36*
X14299Y102368D02*
X13260D01*
X12257Y102100D01*
X11358Y101581D01*
X10624Y100847D01*
X10105Y99947D01*
X9836Y98944D01*
Y97906D01*
X10105Y96903D01*
X10624Y96004D01*
X11358Y95270D01*
X12257Y94751D01*
X13260Y94482D01*
X14299D01*
X15302Y94751D01*
X16201Y95270D01*
X16935Y96004D01*
X17454Y96903D01*
X17723Y97906D01*
Y98944D01*
X17454Y99947D01*
X16935Y100847D01*
X16201Y101581D01*
X15302Y102100D01*
X14299Y102368D01*
D02*
G37*
G36*
X42491Y97768D02*
X41509D01*
X40602Y97393D01*
X39907Y96698D01*
X39531Y95791D01*
Y94809D01*
X39907Y93902D01*
X40602Y93207D01*
X41509Y92831D01*
X42491D01*
X43398Y93207D01*
X44093Y93902D01*
X44469Y94809D01*
Y95791D01*
X44093Y96698D01*
X43398Y97393D01*
X42491Y97768D01*
D02*
G37*
G36*
X68291Y96569D02*
X67309D01*
X66402Y96193D01*
X65707Y95498D01*
X65332Y94591D01*
Y93609D01*
X65707Y92702D01*
X66402Y92007D01*
X67309Y91632D01*
X68291D01*
X69198Y92007D01*
X69893Y92702D01*
X70268Y93609D01*
Y94591D01*
X69893Y95498D01*
X69198Y96193D01*
X68291Y96569D01*
D02*
G37*
G36*
X146346Y99416D02*
X145308D01*
X144305Y99147D01*
X143405Y98628D01*
X142671Y97894D01*
X142152Y96995D01*
X141884Y95992D01*
Y94953D01*
X142152Y93950D01*
X142671Y93051D01*
X143405Y92317D01*
X144305Y91798D01*
X145308Y91529D01*
X146346D01*
X147349Y91798D01*
X148248Y92317D01*
X148982Y93051D01*
X149501Y93950D01*
X149770Y94953D01*
Y95992D01*
X149501Y96995D01*
X148982Y97894D01*
X148248Y98628D01*
X147349Y99147D01*
X146346Y99416D01*
D02*
G37*
G36*
X136346D02*
X135308D01*
X134305Y99147D01*
X133405Y98628D01*
X132671Y97894D01*
X132152Y96995D01*
X131884Y95992D01*
Y94953D01*
X132152Y93950D01*
X132671Y93051D01*
X133405Y92317D01*
X134305Y91798D01*
X135308Y91529D01*
X136346D01*
X137349Y91798D01*
X138248Y92317D01*
X138982Y93051D01*
X139501Y93950D01*
X139770Y94953D01*
Y95992D01*
X139501Y96995D01*
X138982Y97894D01*
X138248Y98628D01*
X137349Y99147D01*
X136346Y99416D01*
D02*
G37*
G36*
X76791Y93568D02*
X75809D01*
X74902Y93193D01*
X74207Y92498D01*
X73831Y91591D01*
Y90609D01*
X74207Y89702D01*
X74902Y89007D01*
X75809Y88631D01*
X76791D01*
X77698Y89007D01*
X78393Y89702D01*
X78768Y90609D01*
Y91591D01*
X78393Y92498D01*
X77698Y93193D01*
X76791Y93568D01*
D02*
G37*
G36*
X17034Y91680D02*
X10525D01*
Y85171D01*
X17034D01*
Y91680D01*
D02*
G37*
G36*
X87491Y89468D02*
X86509D01*
X85602Y89093D01*
X84907Y88398D01*
X84531Y87491D01*
Y86509D01*
X84907Y85602D01*
X85602Y84907D01*
X86509Y84531D01*
X87491D01*
X88398Y84907D01*
X89093Y85602D01*
X89468Y86509D01*
Y87491D01*
X89093Y88398D01*
X88398Y89093D01*
X87491Y89468D01*
D02*
G37*
G36*
X105491Y84069D02*
X104509D01*
X103602Y83693D01*
X102907Y82998D01*
X102532Y82091D01*
Y81109D01*
X102907Y80202D01*
X103602Y79507D01*
X104509Y79132D01*
X105491D01*
X106398Y79507D01*
X107093Y80202D01*
X107468Y81109D01*
Y82091D01*
X107093Y82998D01*
X106398Y83693D01*
X105491Y84069D01*
D02*
G37*
G36*
X112891Y83469D02*
X111909D01*
X111002Y83093D01*
X110307Y82398D01*
X109932Y81491D01*
Y80509D01*
X110307Y79602D01*
X111002Y78907D01*
X111909Y78531D01*
X112891D01*
X113798Y78907D01*
X114493Y79602D01*
X114868Y80509D01*
Y81491D01*
X114493Y82398D01*
X113798Y83093D01*
X112891Y83469D01*
D02*
G37*
G36*
X136491Y78569D02*
X135509D01*
X134602Y78193D01*
X133907Y77498D01*
X133531Y76591D01*
Y75609D01*
X133907Y74702D01*
X134602Y74007D01*
X135509Y73632D01*
X136491D01*
X137398Y74007D01*
X138093Y74702D01*
X138469Y75609D01*
Y76591D01*
X138093Y77498D01*
X137398Y78193D01*
X136491Y78569D01*
D02*
G37*
G36*
X91691Y73769D02*
X90709D01*
X89802Y73393D01*
X89107Y72698D01*
X88731Y71791D01*
Y70809D01*
X89107Y69902D01*
X89802Y69207D01*
X90709Y68831D01*
X91691D01*
X92598Y69207D01*
X93293Y69902D01*
X93669Y70809D01*
Y71791D01*
X93293Y72698D01*
X92598Y73393D01*
X91691Y73769D01*
D02*
G37*
G36*
X57971Y69791D02*
X56989D01*
X56082Y69415D01*
X55388Y68721D01*
X55012Y67814D01*
Y66832D01*
X55388Y65925D01*
X56082Y65230D01*
X56989Y64854D01*
X57971D01*
X58879Y65230D01*
X59573Y65925D01*
X59949Y66832D01*
Y67814D01*
X59573Y68721D01*
X58879Y69415D01*
X57971Y69791D01*
D02*
G37*
G36*
X21357Y69004D02*
X20375D01*
X19468Y68628D01*
X18773Y67934D01*
X18398Y67026D01*
Y66044D01*
X18773Y65137D01*
X19468Y64443D01*
X20375Y64067D01*
X21357D01*
X22264Y64443D01*
X22959Y65137D01*
X23335Y66044D01*
Y67026D01*
X22959Y67934D01*
X22264Y68628D01*
X21357Y69004D01*
D02*
G37*
G36*
X120274Y64870D02*
X119292D01*
X118385Y64494D01*
X117691Y63800D01*
X117315Y62893D01*
Y61911D01*
X117691Y61003D01*
X118385Y60309D01*
X119292Y59933D01*
X120274D01*
X121182Y60309D01*
X121876Y61003D01*
X122252Y61911D01*
Y62893D01*
X121876Y63800D01*
X121182Y64494D01*
X120274Y64870D01*
D02*
G37*
G36*
X101291Y64169D02*
X100309D01*
X99402Y63793D01*
X98707Y63098D01*
X98331Y62191D01*
Y61209D01*
X98707Y60302D01*
X99402Y59607D01*
X100309Y59232D01*
X101291D01*
X102198Y59607D01*
X102893Y60302D01*
X103269Y61209D01*
Y62191D01*
X102893Y63098D01*
X102198Y63793D01*
X101291Y64169D01*
D02*
G37*
G36*
X131991Y62169D02*
X131009D01*
X130102Y61793D01*
X129407Y61098D01*
X129032Y60191D01*
Y59209D01*
X129407Y58302D01*
X130102Y57607D01*
X131009Y57231D01*
X131991D01*
X132898Y57607D01*
X133593Y58302D01*
X133968Y59209D01*
Y60191D01*
X133593Y61098D01*
X132898Y61793D01*
X131991Y62169D01*
D02*
G37*
G36*
X17004Y63166D02*
X16067D01*
X15161Y62923D01*
X14350Y62455D01*
X13687Y61792D01*
X13218Y60980D01*
X12976Y60075D01*
Y59138D01*
X13218Y58232D01*
X13687Y57421D01*
X14350Y56758D01*
X15161Y56289D01*
X16067Y56047D01*
X17004D01*
X17909Y56289D01*
X18721Y56758D01*
X19384Y57421D01*
X19852Y58232D01*
X20095Y59138D01*
Y60075D01*
X19852Y60980D01*
X19384Y61792D01*
X18721Y62455D01*
X17909Y62923D01*
X17004Y63166D01*
D02*
G37*
G36*
X101491Y57468D02*
X100509D01*
X99602Y57093D01*
X98907Y56398D01*
X98532Y55491D01*
Y54509D01*
X98907Y53602D01*
X99602Y52907D01*
X100509Y52531D01*
X101491D01*
X102398Y52907D01*
X103093Y53602D01*
X103469Y54509D01*
Y55491D01*
X103093Y56398D01*
X102398Y57093D01*
X101491Y57468D01*
D02*
G37*
G36*
X67420Y61524D02*
X66438D01*
X65531Y61148D01*
X64836Y60453D01*
X64461Y59546D01*
Y58564D01*
X64836Y57657D01*
X65531Y56962D01*
X66015Y56762D01*
Y56123D01*
X65702Y55993D01*
X65007Y55298D01*
X64631Y54391D01*
Y53409D01*
X65007Y52502D01*
X65702Y51807D01*
X66609Y51432D01*
X67591D01*
X68498Y51807D01*
X69193Y52502D01*
X69569Y53409D01*
Y54391D01*
X69193Y55298D01*
X68498Y55993D01*
X68014Y56193D01*
Y56833D01*
X68327Y56962D01*
X69022Y57657D01*
X69398Y58564D01*
Y59546D01*
X69022Y60453D01*
X68327Y61148D01*
X67420Y61524D01*
D02*
G37*
G36*
X141519Y58286D02*
X140481D01*
X139478Y58017D01*
X138579Y57498D01*
X137845Y56764D01*
X137325Y55865D01*
X137057Y54862D01*
Y53823D01*
X137325Y52820D01*
X137845Y51921D01*
X138579Y51187D01*
X139478Y50668D01*
X140481Y50399D01*
X141519D01*
X142522Y50668D01*
X143421Y51187D01*
X144155Y51921D01*
X144675Y52820D01*
X144943Y53823D01*
Y54862D01*
X144675Y55865D01*
X144155Y56764D01*
X143421Y57498D01*
X142522Y58017D01*
X141519Y58286D01*
D02*
G37*
G36*
X17055Y53550D02*
X16016D01*
X15013Y53281D01*
X14114Y52762D01*
X13380Y52027D01*
X12861Y51128D01*
X12592Y50125D01*
Y49087D01*
X12861Y48084D01*
X13380Y47185D01*
X14114Y46451D01*
X15013Y45932D01*
X16016Y45663D01*
X17055D01*
X18057Y45932D01*
X18957Y46451D01*
X19691Y47185D01*
X20210Y48084D01*
X20479Y49087D01*
Y50125D01*
X20210Y51128D01*
X19691Y52027D01*
X18957Y52762D01*
X18057Y53281D01*
X17055Y53550D01*
D02*
G37*
G36*
X141461Y48000D02*
X140539D01*
X139649Y47762D01*
X138851Y47301D01*
X138199Y46649D01*
X137738Y45851D01*
X137500Y44961D01*
Y44039D01*
X137738Y43149D01*
X138199Y42351D01*
X138851Y41699D01*
X139649Y41238D01*
X140539Y41000D01*
X141461D01*
X142351Y41238D01*
X143149Y41699D01*
X143801Y42351D01*
X144262Y43149D01*
X144500Y44039D01*
Y44961D01*
X144262Y45851D01*
X143801Y46649D01*
X143149Y47301D01*
X142351Y47762D01*
X141461Y48000D01*
D02*
G37*
G36*
X17055Y43550D02*
X16735D01*
Y39806D01*
X20479D01*
Y40126D01*
X20210Y41128D01*
X19691Y42028D01*
X18957Y42762D01*
X18057Y43281D01*
X17055Y43550D01*
D02*
G37*
G36*
X16335D02*
X16016D01*
X15013Y43281D01*
X14114Y42762D01*
X13380Y42028D01*
X12861Y41128D01*
X12592Y40126D01*
Y39806D01*
X16335D01*
Y43550D01*
D02*
G37*
G36*
X71039Y44701D02*
X70057D01*
X69149Y44325D01*
X68455Y43631D01*
X68079Y42723D01*
Y41741D01*
X68455Y40834D01*
X69149Y40140D01*
X70057Y39764D01*
X71039D01*
X71946Y40140D01*
X72640Y40834D01*
X73016Y41741D01*
Y42723D01*
X72640Y43631D01*
X71946Y44325D01*
X71039Y44701D01*
D02*
G37*
G36*
X20479Y39406D02*
X16735D01*
Y35663D01*
X17055D01*
X18057Y35932D01*
X18957Y36451D01*
X19691Y37185D01*
X20210Y38084D01*
X20479Y39087D01*
Y39406D01*
D02*
G37*
G36*
X16335D02*
X12592D01*
Y39087D01*
X12861Y38084D01*
X13380Y37185D01*
X14114Y36451D01*
X15013Y35932D01*
X16016Y35663D01*
X16335D01*
Y39406D01*
D02*
G37*
G36*
X130895Y24300D02*
X130105D01*
X129342Y24096D01*
X128658Y23701D01*
X128099Y23142D01*
X127704Y22458D01*
X127500Y21695D01*
Y20905D01*
X127704Y20142D01*
X128099Y19458D01*
X128658Y18899D01*
X129342Y18504D01*
X130105Y18300D01*
X130895D01*
X131658Y18504D01*
X132342Y18899D01*
X132901Y19458D01*
X133296Y20142D01*
X133500Y20905D01*
Y21695D01*
X133296Y22458D01*
X132901Y23142D01*
X132342Y23701D01*
X131658Y24096D01*
X130895Y24300D01*
D02*
G37*
G36*
X54444Y20868D02*
X54200D01*
Y17700D01*
X57368D01*
Y17943D01*
X57139Y18800D01*
X56695Y19568D01*
X56068Y20196D01*
X55300Y20639D01*
X54444Y20868D01*
D02*
G37*
G36*
X53800D02*
X53557D01*
X52700Y20639D01*
X51932Y20196D01*
X51305Y19568D01*
X50861Y18800D01*
X50631Y17943D01*
Y17700D01*
X53800D01*
Y20868D01*
D02*
G37*
G36*
X97995Y23400D02*
X97205D01*
X96442Y23196D01*
X95758Y22801D01*
X95199Y22242D01*
X94804Y21558D01*
X94600Y20795D01*
Y20005D01*
X94804Y19242D01*
X95199Y18558D01*
X95758Y17999D01*
X96442Y17604D01*
X97205Y17400D01*
X97995D01*
X98758Y17604D01*
X99442Y17999D01*
X100001Y18558D01*
X100396Y19242D01*
X100600Y20005D01*
Y20795D01*
X100396Y21558D01*
X100001Y22242D01*
X99442Y22801D01*
X98758Y23196D01*
X97995Y23400D01*
D02*
G37*
G36*
X84443Y20868D02*
X83556D01*
X82700Y20639D01*
X81932Y20196D01*
X81305Y19568D01*
X80861Y18800D01*
X80632Y17943D01*
Y17056D01*
X80861Y16200D01*
X81305Y15432D01*
X81932Y14805D01*
X82700Y14361D01*
X83556Y14131D01*
X84443D01*
X85300Y14361D01*
X86068Y14805D01*
X86695Y15432D01*
X87139Y16200D01*
X87369Y17056D01*
Y17943D01*
X87139Y18800D01*
X86695Y19568D01*
X86068Y20196D01*
X85300Y20639D01*
X84443Y20868D01*
D02*
G37*
G36*
X74444D02*
X73557D01*
X72700Y20639D01*
X71932Y20196D01*
X71305Y19568D01*
X70861Y18800D01*
X70631Y17943D01*
Y17056D01*
X70861Y16200D01*
X71305Y15432D01*
X71932Y14805D01*
X72700Y14361D01*
X73557Y14131D01*
X74444D01*
X75300Y14361D01*
X76068Y14805D01*
X76696Y15432D01*
X77139Y16200D01*
X77368Y17056D01*
Y17943D01*
X77139Y18800D01*
X76696Y19568D01*
X76068Y20196D01*
X75300Y20639D01*
X74444Y20868D01*
D02*
G37*
G36*
X64443D02*
X63556D01*
X62700Y20639D01*
X61932Y20196D01*
X61304Y19568D01*
X60861Y18800D01*
X60632Y17943D01*
Y17056D01*
X60861Y16200D01*
X61304Y15432D01*
X61932Y14805D01*
X62700Y14361D01*
X63556Y14131D01*
X64443D01*
X65300Y14361D01*
X66068Y14805D01*
X66695Y15432D01*
X67139Y16200D01*
X67369Y17056D01*
Y17943D01*
X67139Y18800D01*
X66695Y19568D01*
X66068Y20196D01*
X65300Y20639D01*
X64443Y20868D01*
D02*
G37*
G36*
X57368Y17300D02*
X54200D01*
Y14131D01*
X54444D01*
X55300Y14361D01*
X56068Y14805D01*
X56695Y15432D01*
X57139Y16200D01*
X57368Y17056D01*
Y17300D01*
D02*
G37*
G36*
X53800D02*
X50631D01*
Y17056D01*
X50861Y16200D01*
X51305Y15432D01*
X51932Y14805D01*
X52700Y14361D01*
X53557Y14131D01*
X53800D01*
Y17300D01*
D02*
G37*
G36*
X44444Y20868D02*
X43556D01*
X42700Y20639D01*
X41932Y20196D01*
X41304Y19568D01*
X40861Y18800D01*
X40631Y17943D01*
Y17056D01*
X40861Y16200D01*
X41304Y15432D01*
X41932Y14805D01*
X42700Y14361D01*
X43556Y14131D01*
X44444D01*
X45300Y14361D01*
X46068Y14805D01*
X46696Y15432D01*
X47139Y16200D01*
X47368Y17056D01*
Y17943D01*
X47139Y18800D01*
X46696Y19568D01*
X46068Y20196D01*
X45300Y20639D01*
X44444Y20868D01*
D02*
G37*
G36*
X34444D02*
X33557D01*
X32700Y20639D01*
X31932Y20196D01*
X31304Y19568D01*
X30861Y18800D01*
X30632Y17943D01*
Y17056D01*
X30861Y16200D01*
X31304Y15432D01*
X31932Y14805D01*
X32700Y14361D01*
X33557Y14131D01*
X34444D01*
X35300Y14361D01*
X36068Y14805D01*
X36696Y15432D01*
X37139Y16200D01*
X37369Y17056D01*
Y17943D01*
X37139Y18800D01*
X36696Y19568D01*
X36068Y20196D01*
X35300Y20639D01*
X34444Y20868D01*
D02*
G37*
G36*
X145372Y24219D02*
X143605D01*
X141859Y23943D01*
X140179Y23396D01*
X138604Y22594D01*
X137174Y21555D01*
X135925Y20306D01*
X134886Y18876D01*
X134084Y17302D01*
X133538Y15621D01*
X133261Y13876D01*
Y12109D01*
X133538Y10363D01*
X134084Y8682D01*
X134886Y7108D01*
X135925Y5678D01*
X137174Y4429D01*
X138604Y3390D01*
X140179Y2588D01*
X141859Y2042D01*
X143605Y1765D01*
X145372D01*
X147117Y2042D01*
X148798Y2588D01*
X150372Y3390D01*
X151802Y4429D01*
X153051Y5678D01*
X154090Y7108D01*
X154893Y8682D01*
X155438Y10363D01*
X155715Y12109D01*
Y13876D01*
X155438Y15621D01*
X154893Y17302D01*
X154090Y18876D01*
X153051Y20306D01*
X151802Y21555D01*
X150372Y22594D01*
X148798Y23396D01*
X147117Y23943D01*
X145372Y24219D01*
D02*
G37*
G36*
X13876D02*
X12109D01*
X10363Y23943D01*
X8682Y23396D01*
X7108Y22594D01*
X5678Y21555D01*
X4429Y20306D01*
X3390Y18876D01*
X2588Y17302D01*
X2042Y15621D01*
X1765Y13876D01*
Y12109D01*
X2042Y10363D01*
X2588Y8682D01*
X3390Y7108D01*
X4429Y5678D01*
X5678Y4429D01*
X7108Y3390D01*
X8682Y2588D01*
X10363Y2042D01*
X12109Y1765D01*
X13876D01*
X15621Y2042D01*
X17302Y2588D01*
X18876Y3390D01*
X20306Y4429D01*
X21555Y5678D01*
X22594Y7108D01*
X23396Y8682D01*
X23943Y10363D01*
X24219Y12109D01*
Y13876D01*
X23943Y15621D01*
X23396Y17302D01*
X22594Y18876D01*
X21555Y20306D01*
X20306Y21555D01*
X18876Y22594D01*
X17302Y23396D01*
X15621Y23943D01*
X13876Y24219D01*
D02*
G37*
%LPD*%
D26*
X145827Y115472D02*
D03*
X16535Y39606D02*
D03*
D27*
X59803Y141732D02*
D03*
X54000Y17500D02*
D03*
D34*
X123200Y20600D02*
D03*
D37*
X115300Y76500D02*
D03*
X149400Y71700D02*
D03*
X111417Y71653D02*
D03*
X81400Y77256D02*
D03*
X97300Y71473D02*
D03*
X86100Y71200D02*
D03*
X100800Y44658D02*
D03*
X42900Y123000D02*
D03*
X38000Y89600D02*
D03*
X28943Y108129D02*
D03*
X79800Y65100D02*
D03*
X79300Y59500D02*
D03*
X44094Y66142D02*
D03*
M02*
