G04*
G04 #@! TF.GenerationSoftware,Altium Limited,Altium Designer,22.9.1 (49)*
G04*
G04 Layer_Physical_Order=1*
G04 Layer_Color=255*
%FSLAX25Y25*%
%MOIN*%
G70*
G04*
G04 #@! TF.SameCoordinates,29D2F4FE-2809-456D-9DC6-49FB2EAC7AC4*
G04*
G04*
G04 #@! TF.FilePolarity,Positive*
G04*
G01*
G75*
%ADD12C,0.02000*%
%ADD17C,0.01000*%
%ADD18R,0.01181X0.04724*%
%ADD19R,0.04724X0.01181*%
%ADD20R,0.03600X0.06300*%
%ADD21R,0.05200X0.02600*%
%ADD22R,0.03827X0.03158*%
%ADD23R,0.04724X0.06299*%
%ADD24R,0.04724X0.06496*%
%ADD25R,0.07480X0.09449*%
%ADD26C,0.07087*%
%ADD27C,0.05937*%
%ADD29R,0.05937X0.05937*%
%ADD30C,0.21654*%
%ADD31R,0.06201X0.06201*%
%ADD32R,0.05709X0.05709*%
%ADD34C,0.05000*%
%ADD35C,0.01500*%
%ADD36R,0.06319X0.06319*%
%ADD37C,0.03937*%
G36*
X54725Y83466D02*
Y89766D01*
X42125D01*
Y83466D01*
X54725D01*
D02*
G37*
D12*
X104800Y81800D02*
X105000Y81600D01*
X101800Y81800D02*
X104800D01*
X57480Y61416D02*
Y67323D01*
X117926Y20026D02*
X122626D01*
X123200Y20600D01*
X116900Y16542D02*
X116994D01*
X116600Y18700D02*
X117926Y20026D01*
X116600Y16842D02*
X116900Y16542D01*
X116600Y16842D02*
Y18700D01*
X41163Y124213D02*
X42376Y123000D01*
X35157Y124213D02*
X41163D01*
X42376Y123000D02*
X42900D01*
X29099Y108129D02*
X31010Y110039D01*
X35157Y92443D02*
Y95866D01*
Y92443D02*
X38000Y89600D01*
X31010Y110039D02*
X35157D01*
X28943Y108129D02*
X29099D01*
X44094Y62992D02*
X45669Y61417D01*
X48424D01*
X44094Y62992D02*
Y66142D01*
X50114Y133131D02*
X51476Y131769D01*
X47554Y133131D02*
X50114D01*
X46382Y134302D02*
Y138051D01*
Y134302D02*
X47554Y133131D01*
X51476Y131299D02*
Y131769D01*
X38976Y140256D02*
X39150Y140083D01*
X44350D01*
X46382Y138051D01*
X39369Y61417D02*
X39370Y61416D01*
X36614Y61417D02*
X39369D01*
X20866Y66535D02*
X31496D01*
X36614Y61417D01*
D17*
X151500Y101146D02*
Y124400D01*
X145827Y95472D02*
X151500Y101146D01*
X145827Y90709D02*
Y95472D01*
X125100Y69982D02*
X145827Y90709D01*
X125100Y59647D02*
Y69982D01*
X106566Y41113D02*
X125100Y59647D01*
X98987Y41113D02*
X106566D01*
X97047Y43053D02*
Y49803D01*
Y43053D02*
X98987Y41113D01*
X106299Y76772D02*
X110072D01*
X86900Y87000D02*
X87000D01*
X85236Y85336D02*
X86900Y87000D01*
X85236Y82087D02*
Y85336D01*
X100992Y54992D02*
X101000Y55000D01*
X100992Y49811D02*
Y54992D01*
X100984Y49803D02*
X100992Y49811D01*
X57480Y61416D02*
X57480Y61416D01*
X70374Y55118D02*
X74016D01*
X111309Y71762D02*
X111417Y71653D01*
X106299Y74803D02*
X109843D01*
X87205Y78805D02*
Y82087D01*
X106299Y68898D02*
X109869D01*
X99016Y46442D02*
X100800Y44658D01*
X99016Y46442D02*
Y49803D01*
X74016Y57087D02*
X77756D01*
X48424Y61417D02*
X48425Y61416D01*
X42300Y110895D02*
Y113779D01*
X135827Y95472D02*
X139400Y91899D01*
Y88613D02*
Y91899D01*
X109843Y59055D02*
X139400Y88613D01*
X106299Y59055D02*
X109843D01*
X61024Y44376D02*
Y122441D01*
Y44376D02*
X66817Y38583D01*
X58537Y131719D02*
X58957Y131299D01*
X56892Y137008D02*
X58537Y135363D01*
Y131719D02*
Y135363D01*
X54528Y137008D02*
X56892D01*
X49803Y141732D02*
X54528Y137008D01*
X36236Y132772D02*
X37496D01*
X40777Y136052D02*
X42351D01*
X42913Y136614D01*
X35157Y131693D02*
X36236Y132772D01*
X37496D02*
X40777Y136052D01*
X42000Y95300D02*
Y99439D01*
X42126Y99565D01*
X66817Y38583D02*
X75886D01*
X75697Y42232D02*
X79331Y45866D01*
X70548Y42232D02*
X75697D01*
X100678Y20978D02*
X102295Y22595D01*
X98178Y20978D02*
X100678D01*
X97600Y20400D02*
X98178Y20978D01*
X102295Y24611D02*
X102494Y24809D01*
X102295Y22595D02*
Y24611D01*
X76453Y88347D02*
Y90947D01*
X76300Y91100D02*
X76453Y90947D01*
X77900Y86900D02*
X81700D01*
X76453Y88347D02*
X77900Y86900D01*
X67800Y94100D02*
X76400Y85500D01*
Y79600D02*
Y85500D01*
X81700Y86900D02*
X83177Y85423D01*
Y82177D02*
Y85423D01*
Y82177D02*
X83268Y82087D01*
X84229Y94316D02*
Y95300D01*
Y94316D02*
X91142Y87403D01*
Y82087D02*
Y87403D01*
X100371Y94316D02*
Y95300D01*
X93110Y87055D02*
X100371Y94316D01*
X93110Y82087D02*
Y87055D01*
X84229Y95300D02*
Y102567D01*
X78282Y108514D02*
X84229Y102567D01*
X78282Y108514D02*
Y109400D01*
X100371Y95300D02*
Y101524D01*
X102885Y104038D01*
X103142D01*
X107518Y108414D01*
Y109300D01*
X88518Y109400D02*
X88618Y109300D01*
X97282D01*
X75098Y9449D02*
X78740Y13091D01*
Y27461D02*
X91142Y39862D01*
X78740Y13091D02*
Y27461D01*
X66831Y9449D02*
X75098D01*
X64000Y12280D02*
Y17500D01*
Y12280D02*
X66831Y9449D01*
X91142Y39862D02*
Y49803D01*
X106299Y55118D02*
X116240D01*
X119783Y58661D01*
Y62402D01*
X89173Y76575D02*
X90979Y74769D01*
X89173Y76575D02*
Y82087D01*
X90979Y71521D02*
Y74769D01*
Y71521D02*
X91200Y71300D01*
X74000Y29807D02*
X89173Y44980D01*
Y49803D01*
X74000Y17500D02*
Y29807D01*
X84000Y17500D02*
X84055Y17555D01*
Y27461D01*
X93110Y36516D01*
Y49803D01*
X99016Y75884D02*
X100800Y74100D01*
Y61700D02*
Y74100D01*
X99016Y75884D02*
Y82087D01*
X76400Y79600D02*
X78100Y77900D01*
Y76358D02*
Y77900D01*
Y76358D02*
X82768Y71689D01*
X42484Y32051D02*
X73008D01*
X87205Y46248D01*
X34000Y23567D02*
X42484Y32051D01*
X34000Y17500D02*
Y23567D01*
X83266Y45963D02*
Y49802D01*
X75886Y38583D02*
X83266Y45963D01*
X81299Y52756D02*
X82768Y54225D01*
X81299Y49803D02*
Y52756D01*
X63211Y112424D02*
X79803Y129016D01*
X63211Y66989D02*
Y112424D01*
X79803Y129016D02*
Y141732D01*
X82768Y54225D02*
Y71689D01*
X87205Y46248D02*
Y49803D01*
X40812Y119818D02*
X42520Y118110D01*
X37791Y119818D02*
X40812D01*
X35157Y117520D02*
X35492D01*
X37791Y119818D01*
X63211Y66989D02*
X69176Y61024D01*
X74016D01*
X66929Y59055D02*
X74016D01*
X66929Y59055D02*
X66929Y59055D01*
X42126Y127953D02*
X42200Y128027D01*
Y131700D01*
X43300Y109100D02*
Y109895D01*
X42300Y110895D02*
X43300Y109895D01*
X37583Y105437D02*
X41709D01*
X35492Y103347D02*
X37583Y105437D01*
X35157Y103347D02*
X35492D01*
X41709Y105437D02*
X42815Y104331D01*
X79331Y45866D02*
Y49803D01*
D18*
X97047D02*
D03*
X100984Y82087D02*
D03*
X85236D02*
D03*
X100984Y49803D02*
D03*
X91142D02*
D03*
X95079D02*
D03*
X93110D02*
D03*
X99016D02*
D03*
X89173D02*
D03*
X87205D02*
D03*
X85236D02*
D03*
X83268D02*
D03*
X81299D02*
D03*
X79331D02*
D03*
X95079Y82087D02*
D03*
X97047D02*
D03*
X99016D02*
D03*
X79331D02*
D03*
X81299D02*
D03*
X83268D02*
D03*
X87205D02*
D03*
X89173D02*
D03*
X91142D02*
D03*
X93110D02*
D03*
D19*
X106299Y76772D02*
D03*
X74016Y55118D02*
D03*
X106299Y62992D02*
D03*
Y61024D02*
D03*
Y59055D02*
D03*
Y57087D02*
D03*
Y55118D02*
D03*
Y64961D02*
D03*
Y66929D02*
D03*
Y68898D02*
D03*
Y70866D02*
D03*
Y72835D02*
D03*
X74016D02*
D03*
Y66929D02*
D03*
Y68898D02*
D03*
Y70866D02*
D03*
Y62992D02*
D03*
Y61024D02*
D03*
Y59055D02*
D03*
Y57087D02*
D03*
Y64961D02*
D03*
X106299Y74803D02*
D03*
X74016D02*
D03*
Y76772D02*
D03*
D20*
X57480Y61416D02*
D03*
X39370D02*
D03*
X48425D02*
D03*
D21*
X116994Y16542D02*
D03*
X102494Y24809D02*
D03*
Y16542D02*
D03*
X116994Y24809D02*
D03*
D22*
X35157Y110039D02*
D03*
Y124213D02*
D03*
Y95866D02*
D03*
Y131693D02*
D03*
X42126Y99606D02*
D03*
X35157Y103347D02*
D03*
Y117520D02*
D03*
X42126Y113779D02*
D03*
Y127953D02*
D03*
D23*
X51476Y131299D02*
D03*
X58957D02*
D03*
D24*
X107518Y109300D02*
D03*
X97282D02*
D03*
X88518Y109400D02*
D03*
X78282D02*
D03*
D25*
X100371Y95300D02*
D03*
X84229D02*
D03*
D26*
X145827Y95472D02*
D03*
X135827Y115472D02*
D03*
X145827D02*
D03*
X16535Y39606D02*
D03*
X135827Y95472D02*
D03*
X145827Y105472D02*
D03*
X135827D02*
D03*
X141000Y54343D02*
D03*
X13780Y118425D02*
D03*
Y108425D02*
D03*
Y98425D02*
D03*
X16535Y49606D02*
D03*
D27*
X59803Y141732D02*
D03*
X54000Y17500D02*
D03*
X64000D02*
D03*
X74000D02*
D03*
X44000D02*
D03*
X34000D02*
D03*
X89803Y141732D02*
D03*
X79803D02*
D03*
X69803D02*
D03*
X49803D02*
D03*
D29*
X84000Y17500D02*
D03*
X99803Y141732D02*
D03*
D30*
X144488Y144488D02*
D03*
Y12992D02*
D03*
X12992D02*
D03*
Y144488D02*
D03*
D31*
X141000Y44500D02*
D03*
D32*
X13780Y88425D02*
D03*
D34*
X130500Y21300D02*
D03*
X123200Y20600D02*
D03*
X97600Y20400D02*
D03*
D35*
X110072Y76772D02*
X112400Y79100D01*
Y81000D01*
X67760Y53900D02*
X68978Y55118D01*
X70374D01*
X67100Y53900D02*
X67760D01*
X109843Y74803D02*
X111309Y73337D01*
X111417Y70446D02*
Y71653D01*
X111309Y71762D02*
Y73337D01*
X85656Y77256D02*
X87205Y78805D01*
X81400Y77256D02*
X85656D01*
X109869Y68898D02*
X111417Y70446D01*
X79300Y58631D02*
Y59500D01*
X77756Y57087D02*
X79300Y58631D01*
D36*
X16535Y59606D02*
D03*
D37*
X151500Y124400D02*
D03*
X128100Y129500D02*
D03*
X112400Y81000D02*
D03*
X136000Y76100D02*
D03*
X131500Y59700D02*
D03*
X87000Y87000D02*
D03*
X105000Y81600D02*
D03*
X57480Y67323D02*
D03*
X101000Y55000D02*
D03*
X67100Y53900D02*
D03*
X115300Y76500D02*
D03*
X149400Y71700D02*
D03*
X111417Y71653D02*
D03*
X81400Y77256D02*
D03*
X97300Y71473D02*
D03*
X86100Y71200D02*
D03*
X100800Y44658D02*
D03*
X42900Y123000D02*
D03*
X38000Y89600D02*
D03*
X28943Y108129D02*
D03*
X79800Y65100D02*
D03*
X79300Y59500D02*
D03*
X44094Y66142D02*
D03*
X76300Y91100D02*
D03*
X119783Y62402D02*
D03*
X91200Y71300D02*
D03*
X42913Y136614D02*
D03*
X38976Y140256D02*
D03*
X42520Y118110D02*
D03*
X42000Y95300D02*
D03*
X100800Y61700D02*
D03*
X66929Y59055D02*
D03*
X42200Y131700D02*
D03*
X43300Y109100D02*
D03*
X42815Y104331D02*
D03*
X67800Y94100D02*
D03*
X70548Y42232D02*
D03*
X61024Y122441D02*
D03*
X20866Y66535D02*
D03*
M02*
